<svg xmlns="http://www.w3.org/2000/svg" width="24" height="24" viewBox="0 0 24 24">
  <path fill-rule="evenodd" d="M6.6 18a.6.6 0 1 0 0 1.2.6.6 0 0 0 0-1.2Zm-2.6.6a2.6 2.6 0 1 1 5.2 0 2.6 2.6 0 0 1-5.2 0Zm13.6-.6a.6.6 0 1 0 0 1.2.6.6 0 0 0 0-1.2Zm-2.6.6a2.6 2.6 0 1 1 5.2 0 2.6 2.6 0 0 1-5.2 0Z" clip-rule="evenodd"/>
  <path fill-rule="evenodd" d="M6.297 6h5.406c.59 0 1.098 0 1.515.038.441.04.878.13 1.289.368a3 3 0 0 1 1.087 1.087c.239.411.328.848.368 1.289.038.417.038.925.038 1.515V18h-2v-7.66c0-.645-.001-1.061-.03-1.377-.027-.301-.074-.41-.105-.465a1 1 0 0 0-.363-.363c-.055-.031-.164-.078-.465-.105C12.72 8 12.305 8 11.66 8H6.34c-.645 0-1.061.001-1.377.03-.301.027-.41.074-.465.105a1 1 0 0 0-.363.363c-.031.054-.078.164-.105.465C4 9.28 4 9.695 4 10.34V18H2v-7.703c0-.59 0-1.098.038-1.515.04-.441.13-.878.368-1.289a3 3 0 0 1 1.087-1.087c.411-.239.848-.328 1.289-.368C5.199 6 5.707 6 6.297 6Z" clip-rule="evenodd"/>
  <path fill-rule="evenodd" d="M9 9.75a1 1 0 0 1 1 1v3.5a1 1 0 1 1-2 0v-3.5a1 1 0 0 1 1-1Z" clip-rule="evenodd"/>
  <path fill-rule="evenodd" d="M6.25 12.5a1 1 0 0 1 1-1h3.5a1 1 0 1 1 0 2h-3.5a1 1 0 0 1-1-1ZM14 10a1 1 0 0 1 1-1h3.71a1.5 1.5 0 0 1 1.302.756l1.79 3.133a1.5 1.5 0 0 1 .198.744V17.5a1.5 1.5 0 0 1-1.5 1.5h-1a1 1 0 1 1 0-2h.5v-3.234L18.42 11H15a1 1 0 0 1-1-1Z" clip-rule="evenodd"/>
  <path fill-rule="evenodd" d="M14 14a1 1 0 0 1 1-1h6a1 1 0 1 1 0 2h-6a1 1 0 0 1-1-1ZM2 18a1 1 0 0 1 1-1h2a1 1 0 1 1 0 2H3a1 1 0 0 1-1-1Zm5.5 0a1 1 0 0 1 1-1h7a1 1 0 1 1 0 2h-7a1 1 0 0 1-1-1Z" clip-rule="evenodd"/>
</svg>
