<svg xmlns="http://www.w3.org/2000/svg" width="24" height="24" viewBox="0 0 24 24">
  <path fill-rule="evenodd" d="M12 8.25a.75.75 0 0 1 .75.75v6.5a.75.75 0 0 1-1.5 0V9a.75.75 0 0 1 .75-.75Z" clip-rule="evenodd"/>
  <path fill-rule="evenodd" d="M12 18.25a6.25 6.25 0 1 0 0-12.5 6.25 6.25 0 0 0 0 12.5ZM19.75 12a7.75 7.75 0 1 1-15.5 0 7.75 7.75 0 0 1 15.5 0Zm-4.72.03a.75.75 0 0 1-1.06 0L12 10.06l-1.97 1.97a.75.75 0 1 1-1.06-1.06l2.5-2.5a.75.75 0 0 1 1.06 0l2.5 2.5a.75.75 0 0 1 0 1.06Z" clip-rule="evenodd"/>
</svg>
