<svg xmlns="http://www.w3.org/2000/svg" width="24" height="24" viewBox="0 0 24 24">
  <g class="arrow-left-circle-outline">
    <g class="Vector">
      <path fill-rule="evenodd" d="M22 12c0 5.523-4.477 10-10 10S2 17.523 2 12 6.477 2 12 2s10 4.477 10 10Zm-10 8a8 8 0 1 0 0-16 8 8 0 0 0 0 16Z" clip-rule="evenodd"/>
      <path fill-rule="evenodd" d="M7 12a1 1 0 0 1 1-1h8a1 1 0 1 1 0 2H8a1 1 0 0 1-1-1Z" clip-rule="evenodd"/>
      <path fill-rule="evenodd" d="M7.293 12.707a1 1 0 0 1 0-1.414l3-3a1 1 0 1 1 1.414 1.414L9.414 12l2.293 2.293a1 1 0 0 1-1.414 1.414l-3-3Z" clip-rule="evenodd"/>
    </g>
  </g>
</svg>
