<svg xmlns="http://www.w3.org/2000/svg" width="24" height="24" viewBox="0 0 24 24">
  <path fill-rule="evenodd" d="M15.75 12a.75.75 0 0 1-.75.75H8.5a.75.75 0 0 1 0-1.5H15a.75.75 0 0 1 .75.75Z" clip-rule="evenodd"/>
  <path fill-rule="evenodd" d="M5.75 12a6.25 6.25 0 1 0 12.5 0 6.25 6.25 0 0 0-12.5 0ZM12 19.75a7.75 7.75 0 1 1 0-15.5 7.75 7.75 0 0 1 0 15.5Zm-.03-4.72a.75.75 0 0 1 0-1.06L13.94 12l-1.97-1.97a.75.75 0 1 1 1.06-1.06l2.5 2.5a.75.75 0 0 1 0 1.06l-2.5 2.5a.75.75 0 0 1-1.06 0Z" clip-rule="evenodd"/>
</svg>
