<svg xmlns="http://www.w3.org/2000/svg" width="24" height="24" viewBox="0 0 24 24">
  <path d="M20.938 10.979a8.46 8.46 0 0 1-.252 2.061 6.063 6.063 0 0 1-.733 1.833c-.336.535-.749.97-1.237 1.306-.49.32-1.07.481-1.742.481-.702 0-1.26-.198-1.672-.596-.38-.395-.62-.84-.72-1.333a.08.08 0 0 0-.148-.02 3.742 3.742 0 0 1-1.194 1.376c-.534.382-1.206.573-2.016.573-1.16 0-2.061-.39-2.703-1.168-.626-.78-.94-1.81-.94-3.093 0-1.008.2-1.894.596-2.657A4.514 4.514 0 0 1 9.85 7.909c.733-.443 1.596-.665 2.588-.665.672 0 1.33.062 1.97.184.93.151 1.504 1.004 1.458 1.945l-.152 3.072c-.015.275-.022.473-.022.595v.23c0 .794.137 1.32.412 1.58.29.26.626.39 1.008.39.474 0 .87-.191 1.191-.573.336-.397.588-.916.756-1.558a7.994 7.994 0 0 0 .275-2.153c0-1.42-.29-2.62-.87-3.597a5.63 5.63 0 0 0-2.36-2.268c-.993-.52-2.123-.779-3.39-.779-1.299 0-2.452.206-3.46.619-1.008.412-1.855.992-2.543 1.74-.672.749-1.183 1.635-1.535 2.658-.35 1.008-.527 2.123-.527 3.345 0 1.497.268 2.772.802 3.826a5.501 5.501 0 0 0 2.337 2.382c1.039.535 2.306.802 3.803.802.932 0 1.817-.107 2.657-.32a22.49 22.49 0 0 0 1.258-.33c.494-.146 1.01.214 1.01.73 0 .299-.178.57-.459.671-.537.194-1.125.356-1.763.486-.81.183-1.71.275-2.703.275-1.802 0-3.345-.336-4.628-1.008a6.998 6.998 0 0 1-2.955-2.886C3.336 16.034 3 14.514 3 12.742c0-1.42.221-2.733.664-3.94C4.107 7.58 4.75 6.527 5.59 5.641a8.534 8.534 0 0 1 3.047-2.085c1.206-.504 2.566-.756 4.078-.756 1.19 0 2.283.191 3.275.573a7.197 7.197 0 0 1 2.612 1.626 6.967 6.967 0 0 1 1.718 2.566c.413 1.008.619 2.146.619 3.414Zm-11.57 1.466c0 .977.192 1.687.573 2.13.397.443.925.665 1.581.665.855 0 1.466-.321 1.833-.963.382-.641.603-1.473.664-2.497l.1-2.09c.023-.455-.268-.866-.718-.934a6.323 6.323 0 0 0-.94-.068c-.748 0-1.351.183-1.81.55-.457.366-.786.84-.984 1.42a5.35 5.35 0 0 0-.298 1.787Z"/>
  <path d="M20.938 10.979c0-1.268-.206-2.406-.619-3.414A6.967 6.967 0 0 0 18.601 5a7.197 7.197 0 0 0-2.611-1.626 8.854 8.854 0 0 0-2.835-.564l-.441-.009c-1.513 0-2.872.252-4.078.756l-.439.193A8.447 8.447 0 0 0 5.59 5.641c-.84.886-1.482 1.94-1.925 3.161C3.221 10.01 3 11.322 3 12.742l.004.33c.04 1.63.374 3.041 1.004 4.23a6.998 6.998 0 0 0 2.955 2.886c1.203.63 2.634.964 4.293 1.004l.335.004c.993 0 1.894-.092 2.703-.275a13.14 13.14 0 0 0 1.35-.346l.413-.14a.701.701 0 0 0 .45-.56l.01-.11c0-.517-.517-.877-1.011-.731l-.608.17c-.21.054-.426.107-.65.16l-.316.075a10.93 10.93 0 0 1-2.341.245v-.3c.908 0 1.77-.104 2.584-.311l.006-.002c.44-.103.853-.21 1.239-.325.673-.199 1.396.288 1.396 1.018 0 .416-.25.806-.657.953-.551.199-1.151.364-1.8.496l.001.001c-.835.19-1.758.282-2.77.282-1.723 0-3.231-.302-4.513-.916l-.253-.127a7.298 7.298 0 0 1-3.079-3.007l-.002-.004c-.7-1.32-1.043-2.89-1.043-4.7 0-1.451.227-2.8.683-4.043.456-1.257 1.117-2.346 1.986-3.263l.335-.34A8.79 8.79 0 0 1 8.07 3.478l.452-.2c1.249-.52 2.648-.778 4.193-.778 1.221 0 2.348.196 3.377.591 1.044.38 1.95.943 2.715 1.69a7.27 7.27 0 0 1 1.79 2.67l.152.4c.328.946.49 1.99.49 3.128a8.81 8.81 0 0 1-.26 2.127 6.364 6.364 0 0 1-.769 1.924l-.002.003a4.706 4.706 0 0 1-1.321 1.393l-.006.004c-.545.357-1.184.53-1.905.53-.762 0-1.4-.217-1.881-.68l-.008-.007a3.075 3.075 0 0 1-.646-.984 4.05 4.05 0 0 1-.822.888l-.203.154c-.596.426-1.333.63-2.19.63-1.236 0-2.229-.42-2.936-1.278l-.002-.003c-.68-.846-1.005-1.95-1.005-3.281 0-.917.158-1.748.48-2.486l.15-.31a4.814 4.814 0 0 1 1.78-1.95l.002-.001.302-.167c.717-.363 1.534-.54 2.442-.54.688 0 1.36.061 2.018.186 1.107.18 1.762 1.193 1.709 2.257l-.15 3.071-.001.002c-.016.274-.023.466-.023.58v.229c0 .382.034.685.094.915.06.227.14.365.22.443.237.21.502.312.807.312v.3l-.141-.006a1.443 1.443 0 0 1-.756-.292l-.111-.092c-.24-.227-.376-.66-.406-1.295l-.006-.285v-.23l.022-.595.152-3.072c.043-.882-.459-1.687-1.287-1.909l-.17-.036a10.352 10.352 0 0 0-1.47-.172l-.5-.012c-.993 0-1.856.222-2.59.665a4.514 4.514 0 0 0-1.672 1.833l-.139.291c-.304.695-.456 1.484-.456 2.366l.004.238c.037 1.173.348 2.124.935 2.855.601.73 1.431 1.118 2.489 1.163l.214.005c.708 0 1.312-.146 1.81-.438l.206-.135c.521-.372.918-.83 1.193-1.376a.08.08 0 0 1 .148.02c.1.494.34.938.721 1.333.361.348.833.543 1.416.587l.256.009c.589 0 1.107-.123 1.554-.369l.188-.112a4.346 4.346 0 0 0 1.107-1.11l.13-.196c.336-.55.58-1.16.733-1.833.147-.587.23-1.187.248-1.798l.004-.263Zm-11.57 1.466c0-.548.077-1.073.229-1.574l.07-.213a3.04 3.04 0 0 1 .82-1.278l.165-.143c.458-.366 1.061-.55 1.81-.55l.238.005c.238.008.472.03.7.064.45.068.742.479.72.933l-.1 2.091c-.062 1.024-.283 1.856-.665 2.498-.367.641-.978.962-1.833.962v-.3c.768 0 1.269-.28 1.573-.81l.002-.006.125-.23c.276-.556.446-1.263.498-2.131l.1-2.088-.005-.118a.569.569 0 0 0-.359-.479l-.1-.025a6.025 6.025 0 0 0-.894-.065c-.612 0-1.096.13-1.47.373l-.153.11c-.412.33-.708.755-.889 1.284v.002a5.052 5.052 0 0 0-.281 1.688c0 .95.188 1.572.5 1.934.333.37.774.56 1.354.56v.3l-.24-.01a1.978 1.978 0 0 1-1.186-.498l-.156-.156c-.334-.387-.521-.98-.563-1.776l-.01-.354Zm9.666-1.49c0-1.38-.281-2.522-.828-3.443l-.003-.005a5.33 5.33 0 0 0-2.236-2.15h-.002c-.944-.494-2.026-.745-3.251-.745-1.108 0-2.1.154-2.977.458l-.369.138c-.969.397-1.78.951-2.434 1.663v.001A7.338 7.338 0 0 0 5.46 9.427c-.339.972-.51 2.054-.51 3.247 0 1.462.26 2.688.769 3.69a5.2 5.2 0 0 0 2.206 2.252c.986.507 2.204.768 3.666.768v.3l-.551-.013c-1.26-.058-2.343-.321-3.252-.789a5.485 5.485 0 0 1-2.233-2.19L5.45 16.5c-.467-.922-.73-2.014-.789-3.275l-.013-.551c0-1.07.135-2.056.404-2.962l.123-.383c.352-1.023.863-1.909 1.535-2.657a6.885 6.885 0 0 1 2.173-1.579l.37-.162c1.008-.413 2.161-.619 3.46-.619l.469.012c1.079.057 2.053.313 2.921.767a5.63 5.63 0 0 1 2.36 2.268c.58.977.87 2.176.87 3.597l-.004.29a7.79 7.79 0 0 1-.27 1.863c-.169.642-.42 1.16-.757 1.558-.32.382-.718.573-1.191.573v-.3c.38 0 .694-.148.961-.466l.001-.001.11-.139c.248-.337.446-.767.585-1.3l.002-.005.061-.239a7.892 7.892 0 0 0 .202-1.835Z"/>
</svg>
