<svg xmlns="http://www.w3.org/2000/svg" width="24" height="24" viewBox="0 0 24 24">
  <path fill-rule="evenodd" d="M8.356 5.83a3.687 3.687 0 0 0-.606 1.935v2.117a.75.75 0 0 1-1.5 0V7.765c0-.76.236-1.853.865-2.779.653-.96 1.734-1.736 3.335-1.736 1.577 0 2.704.72 3.416 1.653.691.906.995 2.01.995 2.862v6.588c0 .562-.318 1.206-.764 1.686-.47.508-1.185.946-2.097.946a2.884 2.884 0 0 1-2.084-.873c-.474-.485-.777-1.136-.777-1.76V7.747a.75.75 0 0 1 1.5 0v6.607c0 .161.097.452.35.711.237.243.577.421 1.011.421.4 0 .74-.188.998-.466a1.65 1.65 0 0 0 .287-.423 1.017 1.017 0 0 0 .074-.223l.002-.02V7.765c0-.544-.207-1.323-.687-1.951-.459-.6-1.162-1.064-2.224-1.064-1.038 0-1.682.473-2.094 1.08Z" clip-rule="evenodd"/>
  <path fill-rule="evenodd" d="M17 7.004a.75.75 0 0 1 .75.75v7.875c0 2.92-2.672 5.121-5.75 5.121s-5.75-2.201-5.75-5.121V10a.75.75 0 0 1 1.5 0v5.629c0 1.908 1.805 3.621 4.25 3.621 2.445 0 4.25-1.713 4.25-3.621V7.754a.75.75 0 0 1 .75-.75Z" clip-rule="evenodd"/>
</svg>
