<svg xmlns="http://www.w3.org/2000/svg" width="24" height="24" viewBox="0 0 24 24">
  <g class="bolt-outline">
    <path fill-rule="evenodd" d="m12.706 5.587-5.121 6.38H9.22c.029 0 .13-.001.226.011.134.018.384.073.61.282.225.21.299.455.326.587.02.095.027.196.029.225v.005l.408 5.459 5.485-6.303h-1.959c-.028 0-.128.001-.225-.011a1.096 1.096 0 0 1-.607-.28 1.1 1.1 0 0 1-.328-.582 1.741 1.741 0 0 1-.03-.224v-.006l-.449-5.543Zm4.982 6.658c.007.001.007.001 0 0Zm-.484-1.063c.003-.006.003-.006 0 0Zm-10.93.774h.001Zm.5 1.039ZM12.658 2.48c.07-.066.486-.457 1.085-.273.6.184.725.741.746.835.029.128.04.276.047.357l.001.021.552 6.813h2.142c.24 0 .518 0 .743.033.22.031.785.146 1.05.729.266.583-.019 1.084-.14 1.27a5.416 5.416 0 0 1-.463.582l-.032.037-7.32 8.411a2.588 2.588 0 0 1-.258.27c-.08.069-.498.425-1.076.233-.578-.193-.7-.728-.723-.83a2.642 2.642 0 0 1-.043-.35 7.4 7.4 0 0 0-.002-.021l-.495-6.63H6.704c-.228 0-.498 0-.718-.032-.223-.033-.764-.147-1.033-.706-.268-.56-.018-1.053.096-1.247.113-.192.282-.402.425-.58l.03-.037 6.901-8.599.014-.017c.05-.063.143-.18.239-.27Z" class="Vector 85 (Stroke)" clip-rule="evenodd"/>
  </g>
</svg>
