<svg xmlns="http://www.w3.org/2000/svg" width="24" height="24" viewBox="0 0 24 24">
  <path fill-rule="evenodd" d="m13.822 3.82 4.352 2.512a3.643 3.643 0 0 1 1.821 3.155v5.026a3.643 3.643 0 0 1-1.821 3.155l-4.352 2.512a3.643 3.643 0 0 1-3.643 0l-4.353-2.512a3.643 3.643 0 0 1-1.821-3.155V9.487c0-1.301.694-2.504 1.821-3.155L10.18 3.82a3.643 3.643 0 0 1 3.643 0Zm-.75 1.299a2.143 2.143 0 0 0-2.143 0L6.576 7.63a2.143 2.143 0 0 0-1.071 1.856v5.026c0 .765.408 1.473 1.071 1.856l4.353 2.512c.663.383 1.48.383 2.143 0l4.352-2.512a2.143 2.143 0 0 0 1.071-1.856V9.487c0-.765-.408-1.473-1.071-1.856L13.072 5.12Z" clip-rule="evenodd"/>
  <path fill-rule="evenodd" d="M10.706 11.656 5.236 8.92l.67-1.342 5.471 2.735c.392.196.854.196 1.246 0l5.47-2.735.671 1.342-5.47 2.735a2.893 2.893 0 0 1-2.588 0Z" clip-rule="evenodd"/>
  <path fill-rule="evenodd" d="M12.75 11.464v8.572h-1.5v-8.572h1.5Z" clip-rule="evenodd"/>
</svg>
