<svg xmlns="http://www.w3.org/2000/svg" width="24" height="24" viewBox="0 0 24 24">
  <g class="box-outline">
    <g class="Vector">
      <path fill-rule="evenodd" d="m14.179 2.948 4.57 2.64a4.357 4.357 0 0 1 2.18 3.773v5.278a4.358 4.358 0 0 1-2.18 3.774l-4.57 2.639a4.357 4.357 0 0 1-4.358 0l-4.57-2.64a4.357 4.357 0 0 1-2.18-3.773V9.361c0-1.557.831-2.995 2.18-3.774l4.57-2.639a4.357 4.357 0 0 1 4.358 0Zm-1 1.732a2.357 2.357 0 0 0-2.358 0l-4.57 2.64a2.357 2.357 0 0 0-1.18 2.04v5.28c0 .841.45 1.62 1.18 2.04l4.57 2.64c.73.42 1.628.42 2.358 0l4.57-2.64a2.357 2.357 0 0 0 1.18-2.04V9.36c0-.841-.45-1.62-1.18-2.04l-4.57-2.64Z" clip-rule="evenodd"/>
      <path fill-rule="evenodd" d="M10.499 11.796 4.696 8.894l.894-1.788 5.803 2.901c.382.191.832.191 1.214 0l5.803-2.901.895 1.788-5.803 2.902a3.357 3.357 0 0 1-3.003 0Z" clip-rule="evenodd"/>
      <path fill-rule="evenodd" d="M13 11.428v9.143h-2v-9.143h2Z" clip-rule="evenodd"/>
    </g>
  </g>
</svg>
