<svg xmlns="http://www.w3.org/2000/svg" width="24" height="24" viewBox="0 0 24 24">
  <g class="briefcase-outline">
    <g class="Vector">
      <path fill-rule="evenodd" d="M5 7h14a3 3 0 0 1 3 3v7a3 3 0 0 1-3 3H5a3 3 0 0 1-3-3v-7a3 3 0 0 1 3-3Zm0 2a1 1 0 0 0-1 1v7a1 1 0 0 0 1 1h14a1 1 0 0 0 1-1v-7a1 1 0 0 0-1-1H5Z" clip-rule="evenodd"/>
      <path fill-rule="evenodd" d="M20 13H3v-2h17v2ZM7 6a2 2 0 0 1 2-2h6a2 2 0 0 1 2 2v2a1 1 0 1 1-2 0V6H9v2a1 1 0 0 1-2 0V6Z" clip-rule="evenodd"/>
    </g>
  </g>
</svg>
