<svg xmlns="http://www.w3.org/2000/svg" width="24" height="24" viewBox="0 0 24 24">
  <g class="building-outline">
    <g class="Vector">
      <path fill-rule="evenodd" d="M8 5a3 3 0 0 1 3-3h8a3 3 0 0 1 3 3v14a3 3 0 0 1-3 3h-8a3 3 0 0 1-3-3V5Zm3-1a1 1 0 0 0-1 1v14a1 1 0 0 0 1 1h8a1 1 0 0 0 1-1V5a1 1 0 0 0-1-1h-8Z" clip-rule="evenodd"/>
      <path fill-rule="evenodd" d="M2 11a3 3 0 0 1 3-3h4.5v2H5a1 1 0 0 0-1 1v8a1 1 0 0 0 1 1h9.5v2H5a3 3 0 0 1-3-3v-8Z" clip-rule="evenodd"/>
      <path fill-rule="evenodd" d="M12 17a2 2 0 0 1 2-2h2a2 2 0 0 1 2 2v3h-2v-3h-2v3h-2v-3Z" clip-rule="evenodd"/>
      <path d="M12 6a1 1 0 1 1 2 0v1a1 1 0 1 1-2 0V6Zm0 5a1 1 0 1 1 2 0v1a1 1 0 1 1-2 0v-1Zm-7 4a1 1 0 1 1 2 0v1a1 1 0 1 1-2 0v-1Zm11-9a1 1 0 1 1 2 0v1a1 1 0 1 1-2 0V6Zm0 5a1 1 0 1 1 2 0v1a1 1 0 1 1-2 0v-1Z"/>
    </g>
  </g>
</svg>
