<svg xmlns="http://www.w3.org/2000/svg" width="24" height="24" viewBox="0 0 24 24">
  <g class="bullseye-outline">
    <g class="Vector">
      <path fill-rule="evenodd" d="M12.26 2.948a1 1 0 0 1-.916 1.079 8 8 0 1 0 8.504 9.527 1 1 0 1 1 1.962.389 10 10 0 1 1-10.63-11.91 1 1 0 0 1 1.08.915Z" clip-rule="evenodd"/>
      <path fill-rule="evenodd" d="M11.129 6.976a1 1 0 0 1-.572 1.293 4 4 0 1 0 4.88 5.779 1 1 0 1 1 1.717 1.024 6 6 0 1 1-7.319-8.668 1 1 0 0 1 1.294.572Z" clip-rule="evenodd"/>
      <path fill-rule="evenodd" d="M16.26 8.35a1 1 0 0 1-.11 1.41l-3.5 3a1 1 0 1 1-1.3-1.52l3.5-3a1 1 0 0 1 1.41.11Z" clip-rule="evenodd"/>
      <path d="M11.5 11a1.5 1.5 0 1 1 0 3 1.5 1.5 0 0 1 0-3Z"/>
      <path fill-rule="evenodd" d="m16.627 8.017 1.055.476.506-.361a2.6 2.6 0 0 1-1.161-1.629l-.506.361.106 1.153Zm1.077-4.453a.6.6 0 0 1 .941.395l.324 2.058a.6.6 0 0 0 .311.437l1.84.976a.6.6 0 0 1 .068 1.018l-3 2.14a.6.6 0 0 1-.595.059l-2.532-1.142a.6.6 0 0 1-.351-.492l-.255-2.766a.6.6 0 0 1 .25-.544l2.999-2.14Z" clip-rule="evenodd"/>
    </g>
  </g>
</svg>
