<svg xmlns="http://www.w3.org/2000/svg" width="24" height="25" viewBox="0 0 24 25">
  <path fill-rule="evenodd" d="M7 4.9h10a3.5 3.5 0 0 1 3.5 3.5v9a3.5 3.5 0 0 1-3.5 3.5H7a3.5 3.5 0 0 1-3.5-3.5v-9A3.5 3.5 0 0 1 7 4.9Zm0 1.5a2 2 0 0 0-2 2v9a2 2 0 0 0 2 2h10a2 2 0 0 0 2-2v-9a2 2 0 0 0-2-2H7Z" clip-rule="evenodd"/>
  <path fill-rule="evenodd" d="M4.25 10.4A.75.75 0 0 1 5 9.65h14a.75.75 0 0 1 0 1.5H5a.75.75 0 0 1-.75-.75ZM8 3.65a.75.75 0 0 1 .75.75v3a.75.75 0 1 1-1.5 0v-3A.75.75 0 0 1 8 3.65Zm8 0a.75.75 0 0 1 .75.75v3a.75.75 0 0 1-1.5 0v-3a.75.75 0 0 1 .75-.75Z" clip-rule="evenodd"/>
</svg>
