<svg xmlns="http://www.w3.org/2000/svg" width="24" height="25" viewBox="0 0 24 25">
  <path fill-rule="evenodd" d="M7 4.3h10a3.5 3.5 0 0 1 3.5 3.5v10a3.5 3.5 0 0 1-3.5 3.5H7a3.5 3.5 0 0 1-3.5-3.5v-10A3.5 3.5 0 0 1 7 4.3Zm0 1.5a2 2 0 0 0-2 2v10a2 2 0 0 0 2 2h10a2 2 0 0 0 2-2v-10a2 2 0 0 0-2-2H7Z" clip-rule="evenodd"/>
  <path fill-rule="evenodd" d="M12.3 8.05a.75.75 0 0 1 .75.75v8a.75.75 0 0 1-1.5 0v-8a.75.75 0 0 1 .75-.75Zm-4 2a.75.75 0 0 1 .75.75v6a.75.75 0 0 1-1.5 0v-6a.75.75 0 0 1 .75-.75Zm7.5 2a.75.75 0 0 1 .75.75v4a.75.75 0 0 1-1.5 0v-4a.75.75 0 0 1 .75-.75Z" clip-rule="evenodd"/>
</svg>
