<svg xmlns="http://www.w3.org/2000/svg" width="24" height="24" viewBox="0 0 24 24">
  <path fill-rule="evenodd" d="M18.344 13.807a1.781 1.781 0 0 1 .136-1.115c.317-.683.69-1.594.713-2.177.121-3.06-2.452-5.647-5.748-5.778-3.296-.13-6.066 2.244-6.187 5.304-.122 3.06 2.451 5.647 5.747 5.778a6.37 6.37 0 0 0 2.067-.255.725.725 0 0 1 .483.02l2.566 1.055a.51.51 0 0 0 .695-.578l-.472-2.254ZM5.76 9.982c-.159 3.99 3.17 7.177 7.186 7.336a7.887 7.887 0 0 0 2.292-.243l2.313.951c1.493.615 3.066-.692 2.734-2.273l-.472-2.254a.286.286 0 0 1 .028-.175c.17-.364.364-.81.522-1.26.147-.42.309-.966.33-1.49.158-3.99-3.17-7.176-7.187-7.336-4.017-.16-7.588 2.753-7.746 6.744Z" clip-rule="evenodd"/>
  <path fill-rule="evenodd" d="M5.57 12.903a.75.75 0 0 1 .05 1.06 2.702 2.702 0 0 0-.722 1.932c.002.072.034.225.114.455.075.214.174.445.27.654.174.375.236.807.147 1.234l-.14.671.928-.382a1.25 1.25 0 0 1 .828-.04c.341.1.709.149 1.092.134a3.258 3.258 0 0 0 2.294-1.045.75.75 0 1 1 1.112 1.007 4.758 4.758 0 0 1-3.346 1.537 4.893 4.893 0 0 1-1.495-.17l-1.539.633a1.101 1.101 0 0 1-1.497-1.245l.295-1.407a.477.477 0 0 0-.04-.297 9.01 9.01 0 0 1-.325-.79c-.092-.264-.185-.588-.197-.89a4.201 4.201 0 0 1 1.112-3 .75.75 0 0 1 1.06-.051Z" clip-rule="evenodd"/>
</svg>
