<svg xmlns="http://www.w3.org/2000/svg" width="24" height="24" viewBox="0 0 24 24">
  <g class="chatbubbles-outline">
    <g class="Vector">
      <path fill-rule="evenodd" d="M16.094 15.581a.8.8 0 0 0-.529-.022 6.368 6.368 0 0 1-2.039.248c-3.289-.131-5.857-2.71-5.736-5.76.121-3.05 2.886-5.417 6.175-5.287 3.29.13 5.857 2.71 5.736 5.76-.022.566-.375 1.441-.685 2.115a1.966 1.966 0 0 0-.149 1.225l.439 2.093a.562.562 0 0 1-.763.634l-2.449-1.006ZM5.792 9.967c-.17 4.294 3.407 7.67 7.655 7.838a8.39 8.39 0 0 0 2.268-.218l2.068.85c1.901.782 3.902-.883 3.48-2.895l-.433-2.066.002-.004c.17-.368.364-.82.524-1.28.146-.42.32-1.006.344-1.593.17-4.293-3.407-7.668-7.656-7.837-4.248-.169-8.082 2.912-8.252 7.205Z" clip-rule="evenodd"/>
      <path fill-rule="evenodd" d="M5.395 13.053a1 1 0 0 1-.448 1.341c-.177.089-.398.334-.573.802a3.616 3.616 0 0 0-.22 1.318c.002.047.027.184.107.42.074.216.172.452.27.668.196.435.268.936.167 1.435l-.062.302.543-.228a1.551 1.551 0 0 1 1.044-.052c.322.096.67.142 1.033.128a3.08 3.08 0 0 0 2.192-1.02 1 1 0 1 1 1.498 1.325 5.08 5.08 0 0 1-3.611 1.693 5.185 5.185 0 0 1-1.532-.167l-1.465.616c-1.026.43-2.117-.464-1.894-1.555l.294-1.442a.35.35 0 0 0-.03-.212 9.767 9.767 0 0 1-.34-.846c-.096-.28-.199-.641-.212-.985a5.6 5.6 0 0 1 .345-2.1c.258-.687.729-1.477 1.552-1.889a1 1 0 0 1 1.342.448Z" clip-rule="evenodd"/>
    </g>
  </g>
</svg>
