<svg xmlns="http://www.w3.org/2000/svg" width="24" height="24" viewBox="0 0 24 24">
  <path fill-rule="evenodd" d="M20.547 11.162c.18 4.518-3.592 8.15-8.176 8.332a8.983 8.983 0 0 1-2.694-.3l-2.79 1.149c-1.56.641-3.2-.723-2.855-2.373l.553-2.642a.59.59 0 0 0-.051-.367c-.197-.423-.42-.938-.602-1.454-.17-.485-.35-1.096-.372-1.67-.18-4.517 3.592-8.149 8.176-8.33 4.584-.183 8.631 3.138 8.81 7.655Zm-1.5.06c.143 3.587-2.873 6.62-6.736 6.773a7.468 7.468 0 0 1-2.423-.3.85.85 0 0 0-.565.023l-3.007 1.238a.6.6 0 0 1-.816-.678l.553-2.642a2.09 2.09 0 0 0-.159-1.307c-.371-.8-.808-1.868-.835-2.551-.143-3.587 2.873-6.62 6.736-6.773 3.863-.154 7.11 2.63 7.253 6.217Z" clip-rule="evenodd"/>
</svg>
