<svg xmlns="http://www.w3.org/2000/svg" width="24" height="24" viewBox="0 0 24 24">
  <g class="chatbubble-outline">
    <path fill-rule="evenodd" d="M3.463 15.642a.391.391 0 0 0-.039-.24 17.761 17.761 0 0 1-.642-1.561c-.18-.517-.38-1.2-.407-1.862-.2-5.056 4.019-9.076 9.09-9.277 5.07-.201 9.595 3.471 9.796 8.527.2 5.056-4.019 9.076-9.09 9.277a9.979 9.979 0 0 1-2.854-.296l-2.769 1.138c-1.992.818-4.087-.925-3.645-3.033l.56-2.673Zm1.958.411a2.386 2.386 0 0 0-.181-1.49c-.39-.844-.838-1.95-.866-2.663-.152-3.813 3.058-7.036 7.17-7.2 4.111-.163 7.567 2.796 7.718 6.609.152 3.813-3.058 7.036-7.17 7.2a7.957 7.957 0 0 1-2.558-.313.972.972 0 0 0-.643.027l-3.103 1.275a.683.683 0 0 1-.928-.772l.56-2.673Z" class="Ellipse 27 (Stroke)" clip-rule="evenodd"/>
  </g>
</svg>
