<svg xmlns="http://www.w3.org/2000/svg" width="24" height="24" viewBox="0 0 24 24">
  <g class="check-circle-outline">
    <g class="Vector">
      <path fill-rule="evenodd" d="M22 12c0 5.523-4.477 10-10 10S2 17.523 2 12 6.477 2 12 2s10 4.477 10 10Zm-10 8a8 8 0 1 0 0-16 8 8 0 0 0 0 16Z" clip-rule="evenodd"/>
      <path fill-rule="evenodd" d="M16.696 9.282a1 1 0 0 1 .022 1.414L12.16 15.4a1.4 1.4 0 0 1-2.01 0l-1.867-1.926a1 1 0 0 1 1.436-1.392l1.436 1.481 4.128-4.259a1 1 0 0 1 1.414-.022Z" clip-rule="evenodd"/>
    </g>
  </g>
</svg>
