<svg xmlns="http://www.w3.org/2000/svg" width="24" height="24" viewBox="0 0 24 24">
  <g class="checkbox-checked-outlined">
    <g class="Vector">
      <path fill-rule="evenodd" d="M7 3h10a4 4 0 0 1 4 4v10a4 4 0 0 1-4 4H7a4 4 0 0 1-4-4V7a4 4 0 0 1 4-4Zm0 2a2 2 0 0 0-2 2v10a2 2 0 0 0 2 2h10a2 2 0 0 0 2-2V7a2 2 0 0 0-2-2H7Z" clip-rule="evenodd"/>
      <path fill-rule="evenodd" d="M17.096 8.282a1 1 0 0 1 .022 1.414l-5.643 5.822a1.24 1.24 0 0 1-1.78 0L7.281 13.03a1 1 0 1 1 1.436-1.392l1.867 1.926 5.097-5.259a1 1 0 0 1 1.414-.022Z" clip-rule="evenodd"/>
    </g>
  </g>
</svg>
