<svg xmlns="http://www.w3.org/2000/svg" width="24" height="24" viewBox="0 0 24 24">
  <path fill-rule="evenodd" d="M5.45 8.136a2.84 2.84 0 0 1 2.84-2.84h.785v1.5H8.29c-.741 0-1.341.6-1.341 1.34v9.41c0 .74.6 1.34 1.34 1.34h7.319c.74 0 1.34-.6 1.34-1.34v-9.41c0-.74-.6-1.34-1.34-1.34h-1.046v-1.5h1.046a2.84 2.84 0 0 1 2.84 2.84v9.41a2.84 2.84 0 0 1-2.84 2.84H8.29a2.84 2.84 0 0 1-2.841-2.84v-9.41Z" clip-rule="evenodd"/>
  <path fill-rule="evenodd" d="M10.382 3.5h3.136c1.117 0 2.023.906 2.023 2.023v.522a2.023 2.023 0 0 1-2.023 2.023h-3.136a2.023 2.023 0 0 1-2.023-2.023v-.522c0-1.117.905-2.023 2.023-2.023Zm0 1.5a.523.523 0 0 0-.523.523v.522c0 .29.234.523.523.523h3.136a.523.523 0 0 0 .523-.523v-.522A.523.523 0 0 0 13.518 5h-3.136Z" clip-rule="evenodd"/>
</svg>
