<svg xmlns="http://www.w3.org/2000/svg" width="24" height="24" viewBox="0 0 24 24">
  <g class="clipboard-text-outline">
    <g class="Vector">
      <path fill-rule="evenodd" d="M4 7.462C4 5.518 5.62 4 7.545 4H8.5v2h-.955C6.66 6 6 6.686 6 7.462v11.076C6 19.314 6.66 20 7.545 20h8.91C17.34 20 18 19.314 18 18.538V7.462C18 6.686 17.34 6 16.454 6h-1.272V4h1.272C18.381 4 20 5.518 20 7.462v11.076C20 20.482 18.38 22 16.454 22H7.545C5.62 22 4 20.482 4 18.538V7.462Z" clip-rule="evenodd"/>
      <path fill-rule="evenodd" d="M9.523 2h4.954A2.523 2.523 0 0 1 17 4.523v.954A2.523 2.523 0 0 1 14.477 8H9.523A2.523 2.523 0 0 1 7 5.477v-.954A2.523 2.523 0 0 1 9.523 2Zm0 2A.523.523 0 0 0 9 4.523v.954c0 .289.234.523.523.523h4.954A.523.523 0 0 0 15 5.477v-.954A.523.523 0 0 0 14.477 4H9.523ZM8 12a1 1 0 0 1 1-1h5a1 1 0 1 1 0 2H9a1 1 0 0 1-1-1Zm0 4a1 1 0 0 1 1-1h3.125a1 1 0 1 1 0 2H9a1 1 0 0 1-1-1Z" clip-rule="evenodd"/>
    </g>
  </g>
</svg>
