<svg xmlns="http://www.w3.org/2000/svg" width="24" height="24" viewBox="0 0 24 24">
  <g class="copy-outline">
    <g class="Vector">
      <path fill-rule="evenodd" d="M2 11.667a3.4 3.4 0 0 1 3.4-3.4h2.205v2H5.4a1.4 1.4 0 0 0-1.4 1.4v7.2a1.4 1.4 0 0 0 1.4 1.4h7.2a1.4 1.4 0 0 0 1.4-1.4v-1.8h2v1.8a3.4 3.4 0 0 1-3.4 3.4H5.4a3.4 3.4 0 0 1-3.4-3.4v-7.2Z" clip-rule="evenodd"/>
      <path fill-rule="evenodd" d="M10 3h8a4 4 0 0 1 4 4v8a4 4 0 0 1-4 4h-8a4 4 0 0 1-4-4V7a4 4 0 0 1 4-4Zm0 2a2 2 0 0 0-2 2v8a2 2 0 0 0 2 2h8a2 2 0 0 0 2-2V7a2 2 0 0 0-2-2h-8Z" clip-rule="evenodd"/>
    </g>
  </g>
</svg>
