<svg xmlns="http://www.w3.org/2000/svg" width="24" height="24" viewBox="0 0 24 24">
  <path fill-rule="evenodd" d="M3.25 11.2A2.95 2.95 0 0 1 6.2 8.25h1.65v1.5H6.2c-.8 0-1.45.65-1.45 1.45v6.6c0 .8.65 1.45 1.45 1.45h6.6c.8 0 1.45-.65 1.45-1.45v-1.65h1.5v1.65a2.95 2.95 0 0 1-2.95 2.95H6.2a2.95 2.95 0 0 1-2.95-2.95v-6.6Z" clip-rule="evenodd"/>
  <path fill-rule="evenodd" d="M10 3.5h7A3.5 3.5 0 0 1 20.5 7v7a3.5 3.5 0 0 1-3.5 3.5h-7A3.5 3.5 0 0 1 6.5 14V7A3.5 3.5 0 0 1 10 3.5ZM10 5a2 2 0 0 0-2 2v7a2 2 0 0 0 2 2h7a2 2 0 0 0 2-2V7a2 2 0 0 0-2-2h-7Z" clip-rule="evenodd"/>
</svg>
