<svg xmlns="http://www.w3.org/2000/svg" width="24" height="24" viewBox="0 0 24 24">
  <g class="document-text-outline">
    <g class="Vector">
      <path fill-rule="evenodd" d="M15.143 22H8.286A4.286 4.286 0 0 1 4 17.714V6.286A4.286 4.286 0 0 1 8.286 2h4.008a3.5 3.5 0 0 1 2.304.866l3.635 3.18a3.5 3.5 0 0 1 1.196 2.635v9.033A4.286 4.286 0 0 1 15.143 22Zm0-2H8.286A2.286 2.286 0 0 1 6 17.714V6.286A2.286 2.286 0 0 1 8.286 4h4.008a1.5 1.5 0 0 1 .987.371l3.635 3.18a1.5 1.5 0 0 1 .513 1.13v9.033A2.286 2.286 0 0 1 15.143 20Z" clip-rule="evenodd"/>
      <path fill-rule="evenodd" d="M7 12a1 1 0 0 1 1-1h5a1 1 0 1 1 0 2H8a1 1 0 0 1-1-1Zm0 4a1 1 0 0 1 1-1h3.125a1 1 0 1 1 0 2H8a1 1 0 0 1-1-1Zm6-13a1 1 0 0 1 1 1v3a1 1 0 0 0 1 1h2.5a1 1 0 1 1 0 2H15a3 3 0 0 1-3-3V4a1 1 0 0 1 1-1Z" clip-rule="evenodd"/>
    </g>
  </g>
</svg>
