<svg xmlns="http://www.w3.org/2000/svg" width="24" height="24" viewBox="0 0 24 24">
  <g class="document-texts-outline">
    <g class="Vector">
      <path fill-rule="evenodd" d="M3 9.612c0-1.563 1.333-2.72 2.837-2.72H9v2H5.837c-.525 0-.837.383-.837.72v9.56c0 .337.312.72.837.72h6.326c.525 0 .837-.383.837-.72v-.288h2v.287c0 1.563-1.333 2.72-2.837 2.72H5.837C4.333 21.892 3 20.735 3 19.172v-9.56Z" clip-rule="evenodd"/>
      <path fill-rule="evenodd" d="M17.2 19h-5.4C9.643 19 8 17.214 8 15.143V5.857C8 3.787 9.643 2 11.8 2h3.022c.867 0 1.703.322 2.347.903l2.675 2.415A3.502 3.502 0 0 1 21 7.918v7.225C21 17.213 19.357 19 17.2 19Zm0-2h-5.4c-.994 0-1.8-.831-1.8-1.857V5.857C10 4.831 10.806 4 11.8 4h3.022c.372 0 .73.138 1.007.387l2.675 2.416A1.5 1.5 0 0 1 19 7.918v7.225C19 16.169 18.194 17 17.2 17Z" clip-rule="evenodd"/>
      <path fill-rule="evenodd" d="M11 11a1 1 0 0 1 1-1h4a1 1 0 1 1 0 2h-4a1 1 0 0 1-1-1Zm0 4a1 1 0 0 1 1-1h2.5a1 1 0 1 1 0 2H12a1 1 0 0 1-1-1Zm4-12a1 1 0 0 1 1 1v1.997C16 6.551 16.449 7 17.003 7H19a1 1 0 1 1 0 2h-1.997A3.003 3.003 0 0 1 14 5.997V4a1 1 0 0 1 1-1Z" clip-rule="evenodd"/>
    </g>
  </g>
</svg>
