<svg xmlns="http://www.w3.org/2000/svg" width="24" height="24" viewBox="0 0 24 24">
  <g class="download-outline">
    <g class="Vector">
      <path fill-rule="evenodd" d="M7 22a5 5 0 0 1-5-5v-3a1 1 0 1 1 2 0v3a3 3 0 0 0 3 3h10a3 3 0 0 0 3-3v-3a1 1 0 1 1 2 0v3a5 5 0 0 1-5 5H7Z" clip-rule="evenodd"/>
      <path fill-rule="evenodd" d="M17.715 10.9a1 1 0 0 1-.016 1.415l-4.5 4.4a1 1 0 0 1-1.398 0l-4.5-4.4a1 1 0 1 1 1.398-1.43l2.801 2.739V5a1 1 0 1 1 2 0v8.624l2.8-2.739a1 1 0 0 1 1.415.016Z" clip-rule="evenodd"/>
    </g>
  </g>
</svg>
