<svg xmlns="http://www.w3.org/2000/svg" width="24" height="24" viewBox="0 0 24 24">
  <g class="download-cloud-outline">
    <g class="Vector">
      <path fill-rule="evenodd" d="M12.26 3.028a6.341 6.341 0 0 1 6.513 4.031 1 1 0 0 1-1.866.72 4.341 4.341 0 0 0-8.321.787 1 1 0 0 1-1.968-.357 6.341 6.341 0 0 1 5.642-5.18Z" clip-rule="evenodd"/>
      <path fill-rule="evenodd" d="M17.178 7.184a1 1 0 0 1 1.264-.633 5.438 5.438 0 0 1-1.512 10.593 1 1 0 1 1-.075-1.999 3.437 3.437 0 0 0 .956-6.697 1 1 0 0 1-.633-1.264Zm-11.574.391a4.876 4.876 0 0 1 1.959-.174 1 1 0 1 1-.229 1.987 2.876 2.876 0 1 0-.348 5.734 1 1 0 1 1-.013 2 4.876 4.876 0 0 1-1.37-9.547ZM12 21a1 1 0 0 1-1-1v-8a1 1 0 1 1 2 0v8a1 1 0 0 1-1 1Z" clip-rule="evenodd"/>
      <path fill-rule="evenodd" d="M12.707 20.707a1 1 0 0 1-1.414 0l-2-2a1 1 0 1 1 1.414-1.414L12 18.586l1.293-1.293a1 1 0 0 1 1.414 1.414l-2 2Z" clip-rule="evenodd"/>
    </g>
  </g>
</svg>
