<svg xmlns="http://www.w3.org/2000/svg" width="24" height="24" viewBox="0 0 24 24">
  <path fill-rule="evenodd" d="M4.25 8A3.75 3.75 0 0 1 8 4.25h4a.75.75 0 0 1 0 1.5H8A2.25 2.25 0 0 0 5.75 8v8A2.25 2.25 0 0 0 8 18.25h8A2.25 2.25 0 0 0 18.25 16v-4a.75.75 0 0 1 1.5 0v4A3.75 3.75 0 0 1 16 19.75H8A3.75 3.75 0 0 1 4.25 16V8Z" clip-rule="evenodd"/>
  <path fill-rule="evenodd" d="M10.527 14.142a1.5 1.5 0 0 1-.42-1.699l.923-2.307c.127-.316.316-.603.556-.843l4.353-4.354L17 6l-4.353 4.353a1.01 1.01 0 0 0-.224.34L11.5 13l2.393-1.436a.992.992 0 0 0 .195-.152L18.5 7c.253-.253.934-1.058.328-1.665-.586-.585-1.507.342-1.798.635L17 6l-1.06-1.06a4.48 4.48 0 0 0 .026-.027c.132-.134.544-.553 1.041-.853.27-.163.688-.368 1.197-.408a2.116 2.116 0 0 1 1.684.622c.387.388.617.868.671 1.383.052.485-.06.906-.184 1.21a3.79 3.79 0 0 1-.814 1.194l-4.412 4.412a2.516 2.516 0 0 1-.484.377l-2.393 1.436a1.5 1.5 0 0 1-1.745-.144Z" clip-rule="evenodd"/>
</svg>
