<svg xmlns="http://www.w3.org/2000/svg" width="24" height="24" viewBox="0 0 24 24">
  <g class="edit-outline">
    <g class="Vector">
      <path fill-rule="evenodd" d="M2 6.857A4.857 4.857 0 0 1 6.857 2H12a1 1 0 1 1 0 2H6.857A2.857 2.857 0 0 0 4 6.857v10.286A2.857 2.857 0 0 0 6.857 20h10.286A2.857 2.857 0 0 0 20 17.143V12a1 1 0 1 1 2 0v5.143A4.857 4.857 0 0 1 17.143 22H6.857A4.857 4.857 0 0 1 2 17.143V6.857Z" clip-rule="evenodd"/>
      <path fill-rule="evenodd" d="m15.137 13.219-2.205 1.33-1.033-1.713 2.205-1.33.003-.002a1.239 1.239 0 0 0 .232-.182l5.01-5.036a2.746 2.746 0 0 0 .145-.157c.331-.386.821-1.15.228-1.746-.501-.504-1.219-.028-1.684.381a5.632 5.632 0 0 0-.36.345l-.034.034-4.94 4.965a1.223 1.223 0 0 0-.27.41l-.824 2.073a.2.2 0 0 0 .29.245l1.032 1.713c-1.805 1.088-3.96-.74-3.18-2.698l.825-2.072a3.22 3.22 0 0 1 .71-1.081l4.939-4.966.029-.029c.147-.15.641-.656 1.24-1.02.327-.197.849-.458 1.494-.508.74-.059 1.53.174 2.15.797a2.9 2.9 0 0 1 .845 1.75 3.15 3.15 0 0 1-.23 1.517c-.29.717-.774 1.244-.987 1.457l-5.01 5.036c-.186.187-.394.35-.62.487Zm4.453-7.126s-.004.003-.013.006l.013-.006Z" clip-rule="evenodd"/>
    </g>
  </g>
</svg>
