<svg xmlns="http://www.w3.org/2000/svg" width="24" height="24" viewBox="0 0 24 24">
  <path fill-rule="evenodd" d="M21.392 21.392a1 1 0 0 0 0-1.414l-7.985-7.986a1 1 0 1 0-1.414 1.414l7.985 7.986a1 1 0 0 0 1.414 0Z" clip-rule="evenodd"/>
  <path fill-rule="evenodd" d="M21.685 20.685a1 1 0 0 1-1 1h-4.242a1 1 0 1 1 0-2h3.242v-3.242a1 1 0 1 1 2 0v4.242ZM2.614 2.614a1 1 0 0 1 1.415 0l8.379 8.378a1 1 0 0 1-1.415 1.415L2.614 4.028a1 1 0 0 1 0-1.414Z" clip-rule="evenodd"/>
  <path fill-rule="evenodd" d="M3.322 2.322a1 1 0 0 0-1 1v4.242a1 1 0 1 0 2 0V4.322h3.242a1 1 0 0 0 0-2H3.322Zm-.708 19.07a1 1 0 0 1 0-1.414l8.879-8.878a1 1 0 0 1 1.414 1.414L4.03 21.392a1 1 0 0 1-1.415 0Z" clip-rule="evenodd"/>
  <path fill-rule="evenodd" d="M2.321 20.685a1 1 0 0 0 1 1h4.243a1 1 0 1 0 0-2H4.32v-3.242a1 1 0 1 0-2 0v4.242ZM21.392 2.614a1 1 0 0 0-1.414 0L11.493 11.1a1 1 0 1 0 1.414 1.414l8.485-8.486a1 1 0 0 0 0-1.414Z" clip-rule="evenodd"/>
  <path fill-rule="evenodd" d="M20.685 2.322a1 1 0 0 1 1 1v4.242a1 1 0 1 1-2 0V4.322h-3.243a1 1 0 0 1 0-2h4.243Z" clip-rule="evenodd"/>
</svg>
