<svg xmlns="http://www.w3.org/2000/svg" width="24" height="24" viewBox="0 0 24 24">
  <path fill-rule="evenodd" d="M14.243 2.514c.215.28.257.587.257.794 0 2.296.608 4.377 2.096 5.88a28.965 28.965 0 0 0 .827.802c.774.727 1.774 1.667 2.223 2.94.23.654.354 1.35.354 2.07 0 4.005-3.732 7-8 7-3.148 0-5.946-1.6-7.247-4.028A6.27 6.27 0 0 1 4 14.999v-.863c0-1.515.229-3.022.679-4.47.097-.318.237-.702.485-.979.141-.157.39-.362.757-.407.377-.046.674.1.852.232.299.221.48.559.576.746.118.233.234.51.342.778.117.289.284.565.492.823.124.153.226.282.319.399l.19.239a1.155 1.155 0 0 0 .2-.548l.196-2.183c.102-1.143.312-2.41.784-3.552.476-1.151 1.241-2.232 2.478-2.892.22-.117.621-.308 1.061-.264.271.027.596.15.832.456Zm-1.68 2.124c-.346.356-.622.806-.842 1.34-.361.874-.547 1.913-.642 2.966l-.195 2.183c-.04.446-.175.878-.395 1.268-.28.498-.743.96-1.358 1.131-.692.192-1.395-.042-1.877-.628-.098-.12-.217-.269-.339-.422a54.793 54.793 0 0 0-.287-.36 5.519 5.519 0 0 1-.377-.526A13.02 13.02 0 0 0 6 14.136V15c0 .72.182 1.405.516 2.029C7.428 18.73 9.498 20 12 20c3.464 0 6-2.378 6-5 0-.489-.084-.96-.24-1.405-.28-.79-.915-1.395-1.76-2.196l-.195-.187c-.204-.194-.415-.4-.63-.617-1.643-1.66-2.403-3.78-2.613-5.957Z" clip-rule="evenodd"/>
  <path fill-rule="evenodd" d="m13.073 15.351.936 1.366.015.02c.586.811.374 1.955-.439 2.492a1.624 1.624 0 0 1-1.798 0m1.286-3.878-.027.053-.018.035a3.948 3.948 0 0 1-1.286 1.471l-.143.098c-.296.204-.428.355-.48.475-.147.334-.148.634-.055.9.096.274.318.578.723.846m-.442-4.903c.034-.142.063-.326.098-.543.02-.133.044-.277.07-.432.03-.166.07-.382.127-.554.015-.048.039-.112.072-.181.027-.057.092-.184.213-.307a1.027 1.027 0 0 1 1.586.144l2.141 3.123c1.235 1.72.806 4.152-.965 5.322a3.624 3.624 0 0 1-4.002 0c-.706-.466-1.244-1.1-1.509-1.855-.268-.764-.23-1.588.11-2.363.281-.64.792-1.053 1.18-1.32l.143-.098c.269-.185.487-.435.634-.726l.053-.103.033-.07.016-.037Z" clip-rule="evenodd"/>
</svg>
