<svg xmlns="http://www.w3.org/2000/svg" width="24" height="24" viewBox="0 0 24 24">
  <g class="flag-outline">
    <g class="Vector">
      <path d="M3 3a1 1 0 0 1 2 0v18a1 1 0 1 1-2 0V3Z"/>
      <path fill-rule="evenodd" d="M5.757 5.481c-.34.127-.543.244-.626.312A1 1 0 1 1 3.87 4.24c.327-.266.762-.475 1.192-.635a8.934 8.934 0 0 1 1.479-.399c1.01-.185 2.237-.244 3.213.087.337.114.68.284.987.44l.188.095c.259.132.512.261.786.385.665.302 1.364.53 2.15.53.784 0 1.845-.324 2.916-.718.258-.095.507-.19.747-.282l.016-.006c.23-.089.456-.175.66-.25.208-.075.413-.146.598-.198.163-.047.398-.105.632-.105h.016c.107 0 .373-.002.633.096.38.144.622.431.748.75.101.254.133.534.148.767.017.254.022.568.022.945a1 1 0 1 1-2 0c0-.158 0-.295-.003-.415l-.109.04c-.19.069-.401.15-.64.241l-.007.003c-.238.09-.498.19-.77.29-1.047.386-2.421.841-3.607.841-1.184 0-2.18-.346-2.976-.707-.32-.145-.624-.3-.885-.434l-.167-.085a5.988 5.988 0 0 0-.725-.329c-.502-.17-1.331-.175-2.211-.013a6.94 6.94 0 0 0-1.143.306ZM20 10.678a1 1 0 0 1 1 1v2.015c0 1.06-.804 1.909-1.699 2.153-.206.056-.449.125-.714.2-.554.158-1.208.344-1.849.504-.946.235-2.002.45-2.874.45-1.184 0-2.18-.347-2.976-.707a20.866 20.866 0 0 1-1.052-.52 5.993 5.993 0 0 0-.725-.328c-.516-.175-1.356-.194-2.233-.054a6.75 6.75 0 0 0-1.138.28c-.34.118-.534.23-.609.291a1 1 0 0 1-1.262-1.551c.335-.273.778-.477 1.21-.628.448-.157.96-.283 1.483-.367 1.014-.162 2.23-.191 3.19.135.338.114.68.283.988.439l.188.095c.259.133.512.262.786.386.665.302 1.364.529 2.15.529.61 0 1.461-.16 2.391-.391.611-.152 1.196-.319 1.73-.471.279-.08.543-.155.79-.222a.36.36 0 0 0 .17-.117c.052-.062.055-.104.055-.106v-2.015a1 1 0 0 1 1-1Z" clip-rule="evenodd"/>
      <path d="M19 5a1 1 0 1 1 2 0v7.153a1 1 0 1 1-2 0V5Z"/>
    </g>
  </g>
</svg>
