<svg xmlns="http://www.w3.org/2000/svg" width="24" height="24" viewBox="0 0 24 24">
  <g class="folder-open-outline">
    <g class="Vector">
      <path fill-rule="evenodd" d="M5.323 5C4.593 5 4 5.592 4 6.323v11.354C4 18.407 4.592 19 5.323 19h3.446a1 1 0 0 1 0 2H5.323A3.323 3.323 0 0 1 2 17.677V6.323A3.323 3.323 0 0 1 5.323 3h2.38c.582 0 1.14.236 1.548.654l1.859 1.909c.249.256.59.4.947.4h3.62A3.323 3.323 0 0 1 19 9.285v1.233a1 1 0 0 1-2 0V9.285c0-.73-.592-1.322-1.323-1.322h-3.62a3.322 3.322 0 0 1-2.38-1.005l-1.86-1.91A.161.161 0 0 0 7.703 5h-2.38Z" clip-rule="evenodd"/>
      <path fill-rule="evenodd" d="M10.175 12.3c-.627 0-1.168.44-1.295 1.055L7.712 19.01h10.08c.627 0 1.168-.441 1.295-1.055l.84-4.065c.17-.82-.457-1.59-1.295-1.59h-8.457Zm-3.253.65a3.323 3.323 0 0 1 3.253-2.65h8.457a3.323 3.323 0 0 1 3.254 3.995l-.84 4.065a3.323 3.323 0 0 1-3.254 2.65H5.256l1.666-8.06Z" clip-rule="evenodd"/>
    </g>
  </g>
</svg>
