<svg xmlns="http://www.w3.org/2000/svg" width="24" height="24" viewBox="0 0 24 24">
  <path fill-rule="evenodd" d="M6.5 5.75c-.69 0-1.25.56-1.25 1.25v9.5c0 .69.56 1.25 1.25 1.25h3a.75.75 0 0 1 0 1.5h-3a2.75 2.75 0 0 1-2.75-2.75V7A2.75 2.75 0 0 1 6.5 4.25h2.086c.464 0 .909.184 1.237.513l1.621 1.62c.235.235.553.367.884.367H15.5a2.75 2.75 0 0 1 2.75 2.75v1a.75.75 0 0 1-1.5 0v-1c0-.69-.56-1.25-1.25-1.25h-3.172a2.75 2.75 0 0 1-1.944-.805L8.763 5.823a.25.25 0 0 0-.177-.073H6.5Z" clip-rule="evenodd"/>
  <path fill-rule="evenodd" d="M10.64 11.75a1.25 1.25 0 0 0-1.226 1.005l-1 4.995h8.446a1.25 1.25 0 0 0 1.226-1.005l.7-3.5a1.25 1.25 0 0 0-1.226-1.495h-6.92Zm-2.697.71a2.75 2.75 0 0 1 2.697-2.21h6.92a2.75 2.75 0 0 1 2.697 3.29l-.7 3.5a2.75 2.75 0 0 1-2.697 2.21H6.585l1.358-6.79Z" clip-rule="evenodd"/>
</svg>
