<svg xmlns="http://www.w3.org/2000/svg" width="24" height="24" viewBox="0 0 24 24">
  <g class="framer-logo-outline">
    <path fill-rule="evenodd" d="M5.076 2.617A1 1 0 0 1 6 2h12a1 1 0 0 1 1 1v6a1 1 0 0 1-1 1h-3.586l4.293 4.293A1 1 0 0 1 18 16h-5v5a1 1 0 0 1-1.707.707l-6-6a1.001 1.001 0 0 1-.292-.661M5 14.992V9a1 1 0 0 1 1-1h3.586L5.293 3.707a1 1 0 0 1-.217-1.09M12.414 8H17V4H8.414l4 4Zm-.828 2H7v4h8.586l-4-4ZM11 16H8.414L11 18.586V16Z" class="Vector (Stroke)" clip-rule="evenodd"/>
  </g>
</svg>
