<svg xmlns="http://www.w3.org/2000/svg" width="24" height="24" viewBox="0 0 24 24">
  <g class="funnel-outline">
    <g class="Vector">
      <path fill-rule="evenodd" d="M10.42 13.154a.596.596 0 0 0-.197-.443l-4.83-4.356A1.192 1.192 0 0 1 5 7.47V5.192C5 4.534 5.534 4 6.192 4h11.616C18.466 4 19 4.534 19 5.192v2.309c0 .32-.128.625-.356.85l-4.434 4.363a.596.596 0 0 0-.178.425v3.893c0 .19-.09.368-.242.48l-2.42 1.787a.596.596 0 0 1-.95-.48v-5.665Zm5.612.573 4.015-3.951c.61-.6.953-1.42.953-2.275V5.192A3.192 3.192 0 0 0 17.808 2H6.192A3.192 3.192 0 0 0 3 5.192V7.47a3.19 3.19 0 0 0 1.054 2.37l4.365 3.938v5.041c0 2.13 2.424 3.354 4.138 2.089l2.42-1.787a2.596 2.596 0 0 0 1.055-2.089v-3.305Z" clip-rule="evenodd"/>
      <path fill-rule="evenodd" d="M3 7a1 1 0 0 1 1-1h15a1 1 0 1 1 0 2H4a1 1 0 0 1-1-1Z" clip-rule="evenodd"/>
    </g>
  </g>
</svg>
