<svg xmlns="http://www.w3.org/2000/svg" width="24" height="24" viewBox="0 0 24 24">
  <path fill-rule="evenodd" d="m14.473 18.168-2.152 1.614c-1.318.989-3.2.048-3.2-1.6v-4.643l-3.916-3.59a2.5 2.5 0 0 1-.811-1.843V6a2.5 2.5 0 0 1 2.5-2.5h10.212a2.5 2.5 0 0 1 2.5 2.5v2.131a2.5 2.5 0 0 1-.732 1.768L15.273 13.5v3.068a2 2 0 0 1-.8 1.6Zm-5.027-4.332Zm1.175-.737a.5.5 0 0 0-.162-.369L6.22 8.843a1 1 0 0 1-.325-.737V6a1 1 0 0 1 1-1h10.212a1 1 0 0 1 1 1v2.131a1 1 0 0 1-.293.707l-3.894 3.894a.5.5 0 0 0-.146.354v3.482a.5.5 0 0 1-.2.4l-2.152 1.614a.5.5 0 0 1-.8-.4v-5.083Z" clip-rule="evenodd"/>
  <path fill-rule="evenodd" d="M4.75 8.152a.75.75 0 0 1 .75-.75h13a.75.75 0 0 1 0 1.5h-13a.75.75 0 0 1-.75-.75Z" clip-rule="evenodd"/>
</svg>
