<svg xmlns="http://www.w3.org/2000/svg" width="24" height="24" viewBox="0 0 24 24">
  <g class="github-logo-outline">
    <path fill-rule="evenodd" d="M5.851 3.001c.214-.006.492.012.835.085.384.081.848.23 1.399.483.355.164.748.373 1.179.637a12.911 12.911 0 0 1 5.738 0 11.27 11.27 0 0 1 1.268-.677c.724-.325 1.294-.463 1.723-.51a2.84 2.84 0 0 1 .553-.01 1.906 1.906 0 0 1 .285.046l.013.004.006.001.003.001h.002s.001.001-.277.962l.278-.96a1 1 0 0 1 .638.558 5.223 5.223 0 0 1 .283 3.37c.928 1.21 1.297 2.77 1.21 4.244-.097 1.673-.789 3.386-2.123 4.505-.859.72-1.88 1.122-2.888 1.356.168.483.237.995.201 1.506V21a1 1 0 1 1-2 0v-2.435c0-.027.001-.054.004-.08.02-.26-.015-.522-.106-.768a1.851 1.851 0 0 0-.425-.663 1 1 0 0 1 .601-1.7c1.329-.144 2.498-.45 3.328-1.146.827-.694 1.34-1.845 1.412-3.09.073-1.243-.302-2.43-1.05-3.197a1 1 0 0 1-.218-1.055 3.212 3.212 0 0 0 .146-1.794c-.198.05-.457.137-.781.282a9.96 9.96 0 0 0-1.363.762 1 1 0 0 1-.803.13 10.908 10.908 0 0 0-5.578 0 1 1 0 0 1-.803-.13 10.17 10.17 0 0 0-1.294-.73 5.032 5.032 0 0 0-.85-.314 3.205 3.205 0 0 0 .146 1.794 1 1 0 0 1-.218 1.055c-.706.725-1.08 1.82-1.058 2.992.022 1.172.438 2.293 1.145 3.037.837.88 2.12 1.25 3.615 1.432a1 1 0 0 1 .59 1.697 1.85 1.85 0 0 0-.422.655c-.09.244-.127.502-.109.759l.003.072V21a1 1 0 1 1-2 0v-.462c-.653.083-1.237.06-1.765-.06-.864-.198-1.483-.634-1.957-1.096a7.93 7.93 0 0 1-.597-.664l-.16-.198a11.675 11.675 0 0 0-.29-.35c-.279-.32-.433-.412-.557-.442a1 1 0 1 1 .474-1.943c.746.182 1.244.673 1.59 1.07.123.14.251.3.366.442l.125.154c.154.189.296.354.446.5.288.28.593.482 1.006.576.31.071.732.093 1.314-.01a3.81 3.81 0 0 1 .211-1.409c-1.185-.283-2.393-.793-3.332-1.78-1.11-1.167-1.666-2.797-1.695-4.378-.026-1.383.351-2.824 1.221-3.958a5.205 5.205 0 0 1 .283-3.371 1 1 0 0 1 .638-.559l.278.96-.278-.96h.003l.004-.002.008-.002.018-.005a1.29 1.29 0 0 1 .137-.028 2.16 2.16 0 0 1 .271-.024Z" class="Vector (Stroke)" clip-rule="evenodd"/>
  </g>
</svg>
