<svg xmlns="http://www.w3.org/2000/svg" width="24" height="24" viewBox="0 0 24 24">
  <g class="gitlab-logo-outline">
    <path fill-rule="evenodd" d="M5.726 4.242a.62.62 0 0 1-.003-.013l.003.013Zm.625 1.916 1.372 4.212a1 1 0 0 0 .95.69h6.62a1 1 0 0 0 .951-.691l1.367-4.208 1.373 4.224.95 2.813-7.952 5.807-7.927-5.76L6.35 6.157Zm10.637-1.916a8.94 8.94 0 0 1-.004-.013l.004.013ZM5.44 3.053a1.351 1.351 0 0 1 1.844.02c.16.156.28.349.347.563L9.4 9.06h5.167l1.77-5.446a1.343 1.343 0 0 1 .369-.562 1.352 1.352 0 0 1 1.84.02c.162.157.282.35.349.564l1.99 6.126 1.036 3.067a1.686 1.686 0 0 1-.69 1.928.995.995 0 0 1-.149.079l-8.508 6.214a1 1 0 0 1-1.178.002l-8.703-6.326-.005-.003a1.687 1.687 0 0 1-.603-1.884l2.99-9.225a1.343 1.343 0 0 1 .37-.563l.672.74-.675-.738Z" class="Vector (Stroke)" clip-rule="evenodd"/>
  </g>
</svg>
