<svg xmlns="http://www.w3.org/2000/svg" width="24" height="25" viewBox="0 0 24 25">
  <path fill-rule="evenodd" d="M6.2 4.4h2.5a2.5 2.5 0 0 1 2.5 2.5v2.5a2.5 2.5 0 0 1-2.5 2.5H6.2a2.5 2.5 0 0 1-2.5-2.5V6.9a2.5 2.5 0 0 1 2.5-2.5Zm0 1.5a1 1 0 0 0-1 1v2.5a1 1 0 0 0 1 1h2.5a1 1 0 0 0 1-1V6.9a1 1 0 0 0-1-1H6.2Zm9-1.5h2.5a2.5 2.5 0 0 1 2.5 2.5v2.5a2.5 2.5 0 0 1-2.5 2.5h-2.5a2.5 2.5 0 0 1-2.5-2.5V6.9a2.5 2.5 0 0 1 2.5-2.5Zm0 1.5a1 1 0 0 0-1 1v2.5a1 1 0 0 0 1 1h2.5a1 1 0 0 0 1-1V6.9a1 1 0 0 0-1-1h-2.5Zm-9 7.5h2.5a2.5 2.5 0 0 1 2.5 2.5v2.5a2.5 2.5 0 0 1-2.5 2.5H6.2a2.5 2.5 0 0 1-2.5-2.5v-2.5a2.5 2.5 0 0 1 2.5-2.5Zm0 1.5a1 1 0 0 0-1 1v2.5a1 1 0 0 0 1 1h2.5a1 1 0 0 0 1-1v-2.5a1 1 0 0 0-1-1H6.2Zm9-1.5h2.5a2.5 2.5 0 0 1 2.5 2.5v2.5a2.5 2.5 0 0 1-2.5 2.5h-2.5a2.5 2.5 0 0 1-2.5-2.5v-2.5a2.5 2.5 0 0 1 2.5-2.5Zm0 1.5a1 1 0 0 0-1 1v2.5a1 1 0 0 0 1 1h2.5a1 1 0 0 0 1-1v-2.5a1 1 0 0 0-1-1h-2.5Z" clip-rule="evenodd"/>
</svg>
