<svg xmlns="http://www.w3.org/2000/svg" width="24" height="24" viewBox="0 0 24 24">
  <path d="M15.099 10.942c-.452-.226-.528-.797-.26-1.225a3.802 3.802 0 0 1 1.617-1.448 3.621 3.621 0 0 1 1.623-.357c.72 0 1.34.146 1.86.436.529.284.935.673 1.219 1.168.29.489.435 1.04.435 1.654 0 .495-.102.947-.307 1.356a4.434 4.434 0 0 1-.792 1.119c-.323.343-.67.663-1.04.96l-1.405 1.119c-.449.35-.825.693-1.129 1.03-.303.33-.455.596-.455.801l-.016.46a1 1 0 0 1-1 .966.763.763 0 0 1-.547-.201 3.081 3.081 0 0 1-.11-.116 2.798 2.798 0 0 1-.317-.456.999.999 0 0 1-.129-.455c0-.323.103-.666.307-1.03.205-.37.472-.735.802-1.098.337-.363.696-.703 1.08-1.02l1.752-1.465a3.96 3.96 0 0 0 .88-.93c.218-.33.327-.68.327-1.05a1.502 1.502 0 0 0-1.544-1.535 1.74 1.74 0 0 0-1.208.466c-.114.102-.22.211-.317.326-.346.408-.84.75-1.326.525Zm6.415 6.286c.213 0 .386.173.376.386a5.466 5.466 0 0 1-.03.387c-.052.33-.184.577-.395.742-.212.159-.512.238-.901.238h-4.76a.77.77 0 0 1-.713-.479c-.171-.418.054-.892.5-.972a14.524 14.524 0 0 1 1.27-.183c.39-.046.759-.076 1.109-.089.35-.02.643-.03.88-.03h2.664ZM5.318 12.902H4.99c-.152-.006-.307-.01-.465-.01a9.327 9.327 0 0 0-.337-.01c-.198 0-.406.004-.624.01a.609.609 0 0 1-.623-.614v-.564c0-.344.279-.625.623-.614.218.007.426.01.624.01h.337c.158-.006.313-.01.465-.01.152-.006.26-.01.327-.01h3.336c.066 0 .175.004.327.01.158 0 .313.004.465.01h.337c.204 0 .412-.003.623-.01a.61.61 0 0 1 .624.614v.564c0 .345-.28.625-.624.614a19.97 19.97 0 0 0-.623-.01c-.066 0-.179.004-.337.01-.152 0-.307.004-.465.01H5.318Zm-1.11 5.55c0 .305-.22.567-.524.588a7.93 7.93 0 0 1-.544.02c-.152 0-.324-.007-.515-.02a.575.575 0 0 1-.525-.588V5.986c0-.305.22-.567.525-.588.191-.013.363-.02.515-.02.171 0 .353.007.544.02a.575.575 0 0 1 .525.588v3.659c0 .277-.003.525-.01.742-.007.218-.01.46-.01.723v1.772c0 .264.003.505.01.723.006.218.01.465.01.742v4.105Zm5.555-4.105c0-.277.003-.524.01-.742.006-.218.01-.459.01-.723V11.11c0-.264-.004-.505-.01-.723a24.78 24.78 0 0 1-.01-.742v-3.67c0-.298.216-.556.514-.577a7.85 7.85 0 0 1 .525-.02c.159 0 .334.007.525.02a.595.595 0 0 1 .544.607v12.438c0 .31-.225.575-.534.597a7.103 7.103 0 0 1-1.06 0 .566.566 0 0 1-.514-.578v-4.114Z"/>
</svg>
