<svg xmlns="http://www.w3.org/2000/svg" width="24" height="24" viewBox="0 0 24 24">
  <path d="M19.514 15.84c0 .218-.004.433-.01.644v.653c0 .35-.284.634-.634.634h-.733a.634.634 0 0 1-.633-.634c0-.23-.003-.448-.01-.653V11.85c0-.178.01-.382.03-.613.026-.238.05-.479.069-.723.02-.25.03-.485.03-.703l-.03-2.01c.158-.032.323-.052.495-.059a10.953 10.953 0 0 1 .94 0c.285.012.486.264.486.549v7.55Zm-3.06 1.11c.126 0 .307.006.545.019.238.007.42.01.545.01h1.94c.119 0 .303-.003.554-.01.258-.013.446-.02.565-.02h.696c.244 0 .46.163.482.406a4.702 4.702 0 0 1 0 .842c-.023.24-.24.405-.482.405h-5.56c-.483 0-.918-.339-.918-.821 0-.491.436-.832.927-.832h.707Zm-1.86-5.327c-.252-.388-.006-.858.385-1.106a8.368 8.368 0 0 0 1.436-1.121c.528-.522.92-1.053 1.178-1.594.466.957.563 2.135-.19 2.887a4.619 4.619 0 0 1-.345.31c-.378.305-.782.57-1.212.798-.428.226-.981.227-1.253-.174Zm-9.376.901h-.327c-.152-.007-.307-.01-.465-.01a9.327 9.327 0 0 0-.337-.01c-.198 0-.406.003-.623.01a.609.609 0 0 1-.624-.614v-.564c0-.345.28-.625.624-.614.217.007.425.01.623.01h.337c.158-.007.313-.01.465-.01.152-.006.261-.01.327-.01h3.336c.066 0 .175.004.327.01.158 0 .313.003.465.01h.337c.204 0 .412-.003.624-.01a.61.61 0 0 1 .623.614v.564c0 .345-.28.625-.623.614-.212-.007-.42-.01-.624-.01-.066 0-.178.003-.337.01-.152 0-.307.003-.465.01H5.218Zm-1.109 5.55c0 .305-.22.567-.525.588a7.93 7.93 0 0 1-.544.02c-.152 0-.323-.007-.515-.02A.575.575 0 0 1 2 18.074V5.607c0-.304.221-.566.525-.587.192-.013.363-.02.515-.02.172 0 .353.007.544.02a.575.575 0 0 1 .525.587v3.66c0 .277-.003.525-.01.742-.006.218-.01.459-.01.723v1.772c0 .264.004.505.01.723.007.218.01.465.01.742v4.105Zm5.554-4.105c0-.277.003-.524.01-.742.007-.218.01-.459.01-.723v-1.772c0-.264-.003-.505-.01-.723-.007-.217-.01-.465-.01-.742v-3.67c0-.299.216-.556.515-.577.191-.013.366-.02.525-.02.158 0 .333.007.524.02a.595.595 0 0 1 .545.607v12.437c0 .31-.226.576-.535.598a7.103 7.103 0 0 1-1.06 0 .566.566 0 0 1-.514-.578V13.97Z"/>
</svg>
