<svg xmlns="http://www.w3.org/2000/svg" width="24" height="24" viewBox="0 0 24 24">
  <path d="M5.318 12.896H4.99c-.152-.006-.307-.01-.465-.01a9.327 9.327 0 0 0-.337-.01c-.198 0-.406.004-.624.01a.609.609 0 0 1-.623-.613v-.564c0-.345.279-.625.623-.614.218.006.426.01.624.01h.337c.158-.007.313-.01.465-.01.152-.007.26-.01.327-.01h3.336c.066 0 .175.003.327.01.158 0 .313.003.465.01h.337c.204 0 .412-.004.623-.01a.608.608 0 0 1 .624.613v.565c0 .344-.28.624-.624.613a19.97 19.97 0 0 0-.623-.01c-.066 0-.179.004-.337.01-.152 0-.307.004-.465.01H5.318Zm-1.11 5.55c0 .305-.22.567-.524.588a7.93 7.93 0 0 1-.544.02c-.152 0-.324-.006-.515-.02a.575.575 0 0 1-.525-.587V5.98c0-.305.22-.567.525-.588.191-.013.363-.02.515-.02.171 0 .353.007.544.02a.575.575 0 0 1 .525.588v3.66c0 .276-.003.524-.01.742-.007.218-.01.458-.01.722v1.773c0 .263.003.504.01.722.006.218.01.466.01.743v4.105Zm5.555-4.104c0-.277.003-.525.01-.743.006-.218.01-.459.01-.723v-1.772c0-.264-.004-.504-.01-.722-.007-.218-.01-.466-.01-.743V5.97c0-.3.216-.557.514-.578a7.85 7.85 0 0 1 .525-.02c.159 0 .334.007.525.02A.595.595 0 0 1 11.87 6v12.438c0 .31-.225.575-.534.597a7.103 7.103 0 0 1-1.06 0 .566.566 0 0 1-.514-.578v-4.114Zm10.019 1.146c0-.528-.169-.957-.505-1.287-.33-.337-.79-.505-1.377-.505-.197 0-.399.023-.603.07-.355.082-.752.1-.985-.18a2.299 2.299 0 0 1-.085-.108c-.244-.333-.07-.814.233-1.095.226-.209.472-.418.737-.462.508-.093.984.439 1.446.439.58 0 1.119.128 1.614.386.495.25.89.613 1.188 1.089.303.468.455 1.032.455 1.692 0 .8-.201 1.472-.604 2.02-.402.541-.917.95-1.544 1.228-.62.27-1.27.406-1.95.406a6.172 6.172 0 0 1-2.02-.317 6.306 6.306 0 0 1-.853-.361c-.44-.228-.63-.75-.375-1.174.273-.435.85-.418 1.315-.2.133.062.269.119.408.17.416.152.848.228 1.297.228.62 0 1.142-.175 1.564-.524.429-.357.643-.862.643-1.515Zm-.218-3.812c-.39.377-.792.7-1.208.97a6.38 6.38 0 0 1-.976.53.617.617 0 0 1-.43.015.664.664 0 0 1-.26-1.11l1.409-1.365c.138-.138.323-.307.554-.505.212-.177.388-.317.526-.42a.056.056 0 0 0 .01-.08.056.056 0 0 0-.052-.019 6.641 6.641 0 0 1-.573.064c-.258.02-.522.036-.792.05-.264.006-.489.01-.673.01h-1.966c-.257 0-.497-.163-.54-.417a3.111 3.111 0 0 1-.019-.316c0-.132.01-.284.03-.456.049-.317.355-.505.676-.505h5.028c.43 0 .832.239.978.644.093.237.139.442.139.614 0 .31-.145.6-.436.87l-1.425 1.426Z"/>
</svg>
