<svg xmlns="http://www.w3.org/2000/svg" width="24" height="24" viewBox="0 0 24 24">
  <path fill-rule="evenodd" d="M21.497 9.843c.56 1.691.544 3.517.505 5.088l-.002.094a1 1 0 1 1-2-.05l.003-.093c.039-1.597.031-3.092-.405-4.41a7.956 7.956 0 0 0-1.536-2.705 8.027 8.027 0 0 0-11.285-.836 7.938 7.938 0 0 0-2.755 5.442c-.052.692-.04 1.1-.022 1.678.011.372.025.815.025 1.449a1 1 0 1 1-2 0c0-.491-.011-.894-.022-1.265-.018-.668-.034-1.229.025-2.01a9.938 9.938 0 0 1 3.446-6.81 10.01 10.01 0 0 1 7.267-2.388 10.028 10.028 0 0 1 6.834 3.432 9.955 9.955 0 0 1 1.922 3.384Z" clip-rule="evenodd"/>
  <path fill-rule="evenodd" d="m9.055 15.699.274 3.13a2.857 2.857 0 0 1-2.597 3.096 4.143 4.143 0 0 1-4.488-3.766l-.25-2.846a3 3 0 0 1 2.728-3.25 4 4 0 0 1 4.333 3.636Zm-4.159-1.644a1 1 0 0 0-.909 1.083l.25 2.847a2.143 2.143 0 0 0 2.32 1.948.857.857 0 0 0 .78-.929l-.274-3.13a2 2 0 0 0-2.167-1.819Zm16.859 4.246.274-3.13a2.857 2.857 0 0 0-2.597-3.096 4.143 4.143 0 0 0-4.488 3.766l-.25 2.846a3 3 0 0 0 2.728 3.25 4 4 0 0 0 4.333-3.636Zm-4.159 1.644a1 1 0 0 1-.909-1.083l.25-2.847a2.143 2.143 0 0 1 2.32-1.948.858.858 0 0 1 .78.929l-.274 3.13a2 2 0 0 1-2.167 1.819Z" clip-rule="evenodd"/>
</svg>
