<svg xmlns="http://www.w3.org/2000/svg" width="24" height="24" viewBox="0 0 24 24">
  <g class="help-outline">
    <g class="Vector">
      <path fill-rule="evenodd" d="M22 12c0 5.523-4.477 10-10 10S2 17.523 2 12 6.477 2 12 2s10 4.477 10 10Zm-10 8a8 8 0 1 0 0-16 8 8 0 0 0 0 16Z" clip-rule="evenodd"/>
      <path d="M11 17a1 1 0 1 1 2 0 1 1 0 0 1-2 0Z"/>
      <path fill-rule="evenodd" d="M13.23 7.931c-.424-.225-.948-.301-1.326-.287-1.44.056-1.933.935-1.918 1.305a1 1 0 0 1-1.999.078c-.072-1.858 1.722-3.3 3.84-3.381.64-.025 1.534.09 2.342.52.846.45 1.603 1.259 1.789 2.535.173 1.19-.601 2.09-1.255 2.566-.5.363-.955.746-1.275 1.161-.313.405-.458.787-.443 1.179a1 1 0 0 1-1.998.077c-.039-.996.355-1.827.858-2.478.495-.64 1.131-1.157 1.682-1.557.18-.131.31-.274.384-.4.069-.12.076-.2.068-.26-.08-.542-.365-.853-.75-1.058Z" clip-rule="evenodd"/>
    </g>
  </g>
</svg>
