<svg xmlns="http://www.w3.org/2000/svg" width="24" height="24" viewBox="0 0 24 24">
  <path d="M11 16.5a1 1 0 1 1 2 0 1 1 0 0 1-2 0Z"/>
  <path fill-rule="evenodd" d="M12 5.75a6.25 6.25 0 1 0 0 12.5 6.25 6.25 0 0 0 0-12.5ZM4.25 12a7.75 7.75 0 1 1 15.5 0 7.75 7.75 0 0 1-15.5 0Zm8.728-3.228a2.084 2.084 0 0 0-1.077-.26c-1.114.044-1.595.784-1.578 1.232a.75.75 0 0 1-1.499.058c-.056-1.47 1.287-2.721 3.02-2.788a3.58 3.58 0 0 1 1.894.465c.68.4 1.25 1.095 1.374 2.157.105.9-.445 1.61-1.01 2.002-.859.593-1.381 1.092-1.353 1.833a.75.75 0 1 1-1.498.058c-.064-1.642 1.19-2.568 1.997-3.125.304-.21.391-.445.374-.595-.064-.551-.33-.852-.644-1.037Z" clip-rule="evenodd"/>
</svg>
