<svg xmlns="http://www.w3.org/2000/svg" width="24" height="24" viewBox="0 0 24 24">
  <path fill-rule="evenodd" d="M2.92 5.596a.857.857 0 0 0-.6 1.053l.795 2.888c.16.579.76.917 1.339.756l2.891-.805a.857.857 0 1 0-.459-1.65l-2.284.636-.628-2.28a.857.857 0 0 0-1.055-.598Z" clip-rule="evenodd"/>
  <path fill-rule="evenodd" d="M5.643 5.375c3.692-3.692 9.673-3.705 13.359-.02 3.686 3.687 3.673 9.668-.02 13.36-3.691 3.692-9.672 3.705-13.358.019a9.377 9.377 0 0 1-2.215-3.504 1 1 0 1 1 1.885-.669 7.378 7.378 0 0 0 1.744 2.759c2.9 2.9 7.615 2.896 10.53-.02 2.916-2.915 2.92-7.63.02-10.53-2.9-2.9-7.616-2.896-10.53.019a7.456 7.456 0 0 0-1.642 2.467l-1.852-.754a9.456 9.456 0 0 1 2.079-3.127ZM12 8a1 1 0 0 1 1 1v3.434l2.014 1.209a1 1 0 0 1-1.028 1.714l-2.403-1.441a1.2 1.2 0 0 1-.583-1.03V9a1 1 0 0 1 1-1Z" clip-rule="evenodd"/>
</svg>
