<svg xmlns="http://www.w3.org/2000/svg" width="24" height="24" viewBox="0 0 24 24">
  <g class="home-outline">
    <path fill-rule="evenodd" d="M10.033 2.883a3 3 0 0 1 3.934 0l7 6.076A3 3 0 0 1 22 11.225V19a3 3 0 0 1-3 3h-3.5a1.5 1.5 0 0 1-1.5-1.5v-6.813h-4V20.5A1.5 1.5 0 0 1 8.5 22H5a3 3 0 0 1-3-3v-7.775a3 3 0 0 1 1.033-2.266l7-6.076Zm2.623 1.51a1 1 0 0 0-1.312 0l-7 6.077a1 1 0 0 0-.344.755V19a1 1 0 0 0 1 1h3v-6.313a2 2 0 0 1 2-2h4a2 2 0 0 1 2 2V20h3a1 1 0 0 0 1-1v-7.775a1 1 0 0 0-.345-.755l-7-6.077Z" class="Vector (Stroke)" clip-rule="evenodd"/>
  </g>
</svg>
