<svg xmlns="http://www.w3.org/2000/svg" width="24" height="24" viewBox="0 0 24 24">
  <g class="image-outline">
    <g class="Vector">
      <path fill-rule="evenodd" d="M6.188 2h11.625A4.187 4.187 0 0 1 22 6.188v11.625A4.187 4.187 0 0 1 17.812 22H6.188A4.187 4.187 0 0 1 2 17.812V6.188A4.188 4.188 0 0 1 6.188 2Zm0 2C4.979 4 4 4.98 4 6.188v11.625C4 19.02 4.98 20 6.188 20h11.625C19.02 20 20 19.02 20 17.812V6.188C20 4.98 19.02 4 17.812 4H6.188Z" clip-rule="evenodd"/>
      <path fill-rule="evenodd" d="M17.24 10.924a1.187 1.187 0 0 0-1.51-.013l-5.244 4.247a2.094 2.094 0 0 1-2.59.035l-1.385-1.06a.094.094 0 0 0-.122.007l-2.698 2.582a1 1 0 1 1-1.382-1.444l2.697-2.583a2.094 2.094 0 0 1 2.721-.15l1.385 1.06a.094.094 0 0 0 .116-.001l5.242-4.247a3.187 3.187 0 0 1 4.053.033l3.12 2.613a1 1 0 0 1-1.285 1.533l-3.119-2.612Z" clip-rule="evenodd"/>
      <path d="M10.281 8.64a1.64 1.64 0 1 1-3.28 0 1.64 1.64 0 0 1 3.28 0Z"/>
    </g>
  </g>
</svg>
