<svg xmlns="http://www.w3.org/2000/svg" width="24" height="25" viewBox="0 0 24 25">
  <path fill-rule="evenodd" d="M6 3.7h11a3.5 3.5 0 0 1 3.5 3.5v11a3.5 3.5 0 0 1-3.5 3.5H6a3.5 3.5 0 0 1-3.5-3.5v-11A3.5 3.5 0 0 1 6 3.7Zm0 1.5a2 2 0 0 0-2 2v11a2 2 0 0 0 2 2h11a2 2 0 0 0 2-2v-11a2 2 0 0 0-2-2H6Z" clip-rule="evenodd"/>
  <path fill-rule="evenodd" d="M16.301 11.898a1.25 1.25 0 0 0-1.63-.014l-4.558 3.857a1.75 1.75 0 0 1-2.224.03l-1.159-.926a.25.25 0 0 0-.333.018L4.03 17.23a.75.75 0 0 1-1.06-1.06l2.367-2.367a1.75 1.75 0 0 1 2.33-.13l1.159.927a.25.25 0 0 0 .318-.004l4.558-3.857a2.75 2.75 0 0 1 3.587.03l2.705 2.367a.75.75 0 1 1-.988 1.128l-2.705-2.366Z" clip-rule="evenodd"/>
  <path d="M10 9.7a1.5 1.5 0 1 1-3 0 1.5 1.5 0 0 1 3 0Z"/>
</svg>
