<svg xmlns="http://www.w3.org/2000/svg" width="24" height="24" viewBox="0 0 24 24">
  <g class="key-outline">
    <g class="Vector">
      <path fill-rule="evenodd" d="M13.272 7.199a3.944 3.944 0 0 0-1.122 2.726c-.003.25.017.499.06.745a1.01 1.01 0 0 1-.796 1.175.991.991 0 0 1-1.15-.815 6.097 6.097 0 0 1-.092-1.128 5.988 5.988 0 0 1 1.701-4.133 5.723 5.723 0 0 1 8.217 0c2.27 2.32 2.27 6.079 0 8.398a5.723 5.723 0 0 1-6.475 1.226 1.02 1.02 0 0 1-.5-1.335.98.98 0 0 1 1.305-.512 3.774 3.774 0 0 0 4.271-.809 3.977 3.977 0 0 0 0-5.538 3.774 3.774 0 0 0-5.42 0Z" clip-rule="evenodd"/>
      <path fill-rule="evenodd" d="M18.466 9.297a1.81 1.81 0 0 1-1.805 1.818 1.811 1.811 0 0 1-1.804-1.818 1.81 1.81 0 0 1 1.805-1.817 1.81 1.81 0 0 1 1.804 1.817Zm-1.805.616a.61.61 0 0 0 .603-.616.61.61 0 0 0-.602-.615.61.61 0 0 0-.603.615c0 .34.27.616.602.616Zm-4.671.573a1 1 0 0 1-.094 1.412l-7.482 6.554a.202.202 0 0 0-.027.274l1.162 1.002a.202.202 0 0 0 .168-.06l.244-.249a.202.202 0 0 0 .058-.141v-.73c0-1.275 1.193-2.194 2.411-1.914a1.957 1.957 0 0 1 2.44-1.841l.546.14a.202.202 0 0 0 .194-.055l1.323-1.353a1 1 0 0 1 1.43 1.4l-1.323 1.351a2.202 2.202 0 0 1-2.12.594l-.491-.126a1.96 1.96 0 0 1-2.41 1.848v.686c0 .576-.226 1.128-.628 1.54l-.244.25a2.202 2.202 0 0 1-2.334.526 1.79 1.79 0 0 1-.55-.334l-1.26-1.086-.03-.03a2.202 2.202 0 0 1 .123-3.197l7.483-6.554a1 1 0 0 1 1.41.093Z" clip-rule="evenodd"/>
    </g>
  </g>
</svg>
