<svg xmlns="http://www.w3.org/2000/svg" width="24" height="24" viewBox="0 0 24 24">
  <path fill-rule="evenodd" d="M12.828 7.001a3.527 3.527 0 0 0-.98 3.139.75.75 0 0 1-1.477.267 5.027 5.027 0 0 1 1.396-4.466 5.041 5.041 0 1 1 1.511 8.17.75.75 0 1 1 .611-1.37 3.54 3.54 0 0 0 3.947-.731A3.541 3.541 0 0 0 12.828 7Z" clip-rule="evenodd"/>
  <path fill-rule="evenodd" d="M11.679 10.042a.75.75 0 0 1-.082 1.058l-6.63 5.682a.323.323 0 0 0-.017.474l.666.667a.323.323 0 0 0 .084.06l.226.113a.323.323 0 0 0 .372-.06l.212-.212a.323.323 0 0 0 .095-.229V17c0-1.05.986-1.82 2.004-1.565l.032.008a.088.088 0 0 0 .11-.085c0-1.033.97-1.79 1.972-1.54l.515.129a.323.323 0 0 0 .307-.085l1.18-1.18a.75.75 0 1 1 1.06 1.06l-1.18 1.18a1.823 1.823 0 0 1-1.73.48l-.516-.13a.088.088 0 0 0-.109.086c0 1.033-.97 1.79-1.972 1.54l-.032-.008a.113.113 0 0 0-.141.11v.595c0 .484-.192.947-.534 1.29l-.212.211a1.823 1.823 0 0 1-2.104.341l-.226-.112a1.821 1.821 0 0 1-.473-.342l-.667-.666a1.823 1.823 0 0 1 .103-2.673l6.63-5.683a.75.75 0 0 1 1.057.081Zm4.258-1.657a.536.536 0 1 0 0 1.073.536.536 0 0 0 0-1.073Zm1.609.536a1.61 1.61 0 1 1-3.218 0 1.61 1.61 0 0 1 3.218 0Z" clip-rule="evenodd"/>
</svg>
