<svg xmlns="http://www.w3.org/2000/svg" width="24" height="24" viewBox="0 0 24 24">
  <g class="lamp-on-outline">
    <g class="Vector">
      <path fill-rule="evenodd" d="M9 21a1 1 0 0 1 1-1h4a1 1 0 1 1 0 2h-4a1 1 0 0 1-1-1Zm0-5.575a1 1 0 0 1 1 1v.398c0 .374.303.677.677.677h2.646a.677.677 0 0 0 .677-.677V16.5a1 1 0 1 1 2 0v.323a2.676 2.676 0 0 1-2.677 2.677h-2.646A2.676 2.676 0 0 1 8 16.823v-.398a1 1 0 0 1 1-1Z" clip-rule="evenodd"/>
      <path d="M14.228 16.846c.137.42.59.654.995.476a8 8 0 1 0-6.367.034c.406.174.857-.064.99-.486l.087-.278c.132-.421-.106-.866-.506-1.052a6.109 6.109 0 1 1 5.206-.028c-.399.19-.632.637-.495 1.058l.09.276Z"/>
      <path fill-rule="evenodd" d="M10.056 9.076a1 1 0 0 1 1.274-.614l.906.317.044.015c.22.076.478.166.682.273.234.123.618.38.747.895.128.515-.09.922-.238 1.14-.13.19-.316.391-.473.562l-.032.034-.103.112.445.145a1 1 0 0 1-.616 1.902l-.743-.24-.045-.015a5.38 5.38 0 0 1-.7-.262c-.238-.118-.635-.37-.772-.893-.137-.522.086-.936.235-1.156.132-.193.32-.397.482-.572l.032-.035.109-.118-.62-.216a1 1 0 0 1-.614-1.274Z" clip-rule="evenodd"/>
    </g>
  </g>
</svg>
