<svg xmlns="http://www.w3.org/2000/svg" width="24" height="24" viewBox="0 0 24 24">
  <g class="lamp-outline">
    <g class="Vector">
      <path fill-rule="evenodd" d="M9 21a1 1 0 0 1 1-1h4a1 1 0 1 1 0 2h-4a1 1 0 0 1-1-1Zm0-5.575a1 1 0 0 1 1 1v.398c0 .374.303.677.677.677h2.646a.677.677 0 0 0 .677-.677V16.5a1 1 0 1 1 2 0v.323a2.676 2.676 0 0 1-2.677 2.677h-2.646A2.676 2.676 0 0 1 8 16.823v-.398a1 1 0 0 1 1-1Z" clip-rule="evenodd"/>
      <path d="M14.228 16.846c.137.42.59.654.995.476a8 8 0 1 0-6.367.034c.406.174.857-.064.99-.486l.087-.278c.132-.421-.106-.866-.506-1.052a6.109 6.109 0 1 1 5.206-.028c-.399.19-.632.637-.495 1.058l.09.276Z"/>
    </g>
  </g>
</svg>
