<svg xmlns="http://www.w3.org/2000/svg" width="24" height="24" viewBox="0 0 24 24">
  <path fill-rule="evenodd" d="M4.01 16.494a.75.75 0 0 1 .985-.393l7.095 3.04 7.095-3.04a.75.75 0 1 1 .59 1.378l-7.348 3.15a.856.856 0 0 1-.674 0l-7.349-3.15a.75.75 0 0 1-.393-.985Z" clip-rule="evenodd"/>
  <path fill-rule="evenodd" d="M4.01 12.104a.75.75 0 0 1 .986-.393l7.094 3.05 7.094-3.05a.75.75 0 0 1 .592 1.378l-7.347 3.158a.858.858 0 0 1-.678 0L4.404 13.09a.75.75 0 0 1-.393-.985Z" clip-rule="evenodd"/>
  <path fill-rule="evenodd" d="M11.998 4.817a.098.098 0 0 1 .078 0l6.349 2.72c.08.035.08.147 0 .181l-6.35 2.721a.098.098 0 0 1-.077 0l-6.35-2.721a.098.098 0 0 1 0-.18l6.35-2.721Zm.668-1.38 6.35 2.722c1.291.553 1.291 2.384 0 2.938l-6.35 2.72a1.598 1.598 0 0 1-1.259 0l-6.349-2.72c-1.291-.554-1.291-2.385 0-2.938l6.35-2.721a1.598 1.598 0 0 1 1.258 0Z" clip-rule="evenodd"/>
</svg>
