<svg xmlns="http://www.w3.org/2000/svg" width="24" height="24" viewBox="0 0 24 24">
  <g class="link-outline">
    <g class="Vector">
      <path fill-rule="evenodd" d="M2 12.5A5.5 5.5 0 0 1 7.5 7h2.25a1 1 0 1 1 0 2H7.5a3.5 3.5 0 1 0 0 7h2.25a1 1 0 1 1 0 2H7.5A5.5 5.5 0 0 1 2 12.5ZM13.25 8a1 1 0 0 1 1-1h2.25a5.5 5.5 0 1 1 0 11h-2.25a1 1 0 1 1 0-2h2.25a3.5 3.5 0 1 0 0-7h-2.25a1 1 0 0 1-1-1Z" clip-rule="evenodd"/>
      <path fill-rule="evenodd" d="M7.4 12.56a1 1 0 0 1 1-1h7.2a1 1 0 0 1 0 2H8.4a1 1 0 0 1-1-1Z" clip-rule="evenodd"/>
    </g>
  </g>
</svg>
