<svg xmlns="http://www.w3.org/2000/svg" width="24" height="24" viewBox="0 0 24 24">
  <path fill-rule="evenodd" d="M3.25 12A4.75 4.75 0 0 1 8 7.25h2a.75.75 0 0 1 0 1.5H8a3.25 3.25 0 0 0 0 6.5h2a.75.75 0 0 1 0 1.5H8A4.75 4.75 0 0 1 3.25 12Zm10-4a.75.75 0 0 1 .75-.75h2a4.75 4.75 0 1 1 0 9.5h-2a.75.75 0 0 1 0-1.5h2a3.25 3.25 0 0 0 0-6.5h-2a.75.75 0 0 1-.75-.75Z" clip-rule="evenodd"/>
  <path fill-rule="evenodd" d="M8.05 12.053a.75.75 0 0 1 .75-.75h6.4a.75.75 0 1 1 0 1.5H8.8a.75.75 0 0 1-.75-.75Z" clip-rule="evenodd"/>
</svg>
