<svg xmlns="http://www.w3.org/2000/svg" width="24" height="25" viewBox="0 0 24 25">
  <path fill-rule="evenodd" d="M7.75 7.6a.75.75 0 0 1 .75-.75H19a.75.75 0 0 1 0 1.5H8.5a.75.75 0 0 1-.75-.75Zm0 5a.75.75 0 0 1 .75-.75H19a.75.75 0 0 1 0 1.5H8.5a.75.75 0 0 1-.75-.75Zm0 5a.75.75 0 0 1 .75-.75H19a.75.75 0 0 1 0 1.5H8.5a.75.75 0 0 1-.75-.75Z" clip-rule="evenodd"/>
  <path d="M6.3 7.7a.9.9 0 1 1-1.8 0 .9.9 0 0 1 1.8 0Zm0 5a.9.9 0 1 1-1.8 0 .9.9 0 0 1 1.8 0Zm0 5a.9.9 0 1 1-1.8 0 .9.9 0 0 1 1.8 0Z"/>
</svg>
