<svg xmlns="http://www.w3.org/2000/svg" width="24" height="24" viewBox="0 0 24 24">
  <g class="loading-right-outline">
    <g class="Vector">
      <path fill-rule="evenodd" d="M12 6.05c-3.869 0-7 3.126-7 6.975a6.969 6.969 0 0 0 3.603 6.1c.44.244.909.442 1.4.587a1 1 0 0 1-.568 1.918 8.963 8.963 0 0 1-1.801-.755A8.969 8.969 0 0 1 3 13.025c0-4.96 4.032-8.974 9-8.974 1.24 0 2.425.25 3.502.705a1 1 0 1 1-.777 1.843A6.997 6.997 0 0 0 12 6.05Zm-.6 15.012a1 1 0 0 1 .944-1.052 7.032 7.032 0 0 0 2.645-.673 1 1 0 0 1 .86 1.805 9.032 9.032 0 0 1-3.397.865 1 1 0 0 1-1.052-.945Zm7.392-12.375a1 1 0 0 1 1.33.479 9.031 9.031 0 0 1 .85 3.4 1 1 0 1 1-1.998.1 7.03 7.03 0 0 0-.66-2.648 1 1 0 0 1 .478-1.331Zm-1.544 10.432a1 1 0 0 1-.074-1.412 7.068 7.068 0 0 0 1.4-2.345 1 1 0 1 1 1.883.674 9.062 9.062 0 0 1-1.797 3.009 1 1 0 0 1-1.412.074Z" clip-rule="evenodd"/>
      <path fill-rule="evenodd" d="M13.806 2.233a.857.857 0 0 1 1.15.385l1.332 2.683c.267.537.046 1.19-.493 1.456l-2.691 1.329a.857.857 0 1 1-.758-1.536L14.47 5.5l-1.053-2.118a.857.857 0 0 1 .388-1.149Z" clip-rule="evenodd"/>
    </g>
  </g>
</svg>
