<svg xmlns="http://www.w3.org/2000/svg" width="24" height="24" viewBox="0 0 24 24">
  <g class="loadgin-left-outline">
    <g class="Vector">
      <path fill-rule="evenodd" d="M12 6.05c3.869 0 7 3.126 7 6.975a6.969 6.969 0 0 1-3.603 6.1 6.97 6.97 0 0 1-1.4.587 1 1 0 0 0 .568 1.918 8.965 8.965 0 0 0 1.801-.755A8.968 8.968 0 0 0 21 13.025c0-4.96-4.032-8.974-9-8.974-1.24 0-2.425.25-3.502.705a1 1 0 1 0 .777 1.843A6.997 6.997 0 0 1 12 6.05Zm.6 15.012a1 1 0 0 0-.944-1.052 7.033 7.033 0 0 1-2.645-.673 1 1 0 1 0-.86 1.805 9.031 9.031 0 0 0 3.397.865 1 1 0 0 0 1.052-.945ZM5.208 8.687a1 1 0 0 0-1.33.479 9.031 9.031 0 0 0-.85 3.4 1 1 0 1 0 1.998.1c.045-.918.27-1.819.66-2.648a1 1 0 0 0-.478-1.331Zm1.544 10.432a1 1 0 0 0 .074-1.412 7.067 7.067 0 0 1-1.4-2.345 1 1 0 0 0-1.883.674 9.063 9.063 0 0 0 1.797 3.009 1 1 0 0 0 1.412.074Z" clip-rule="evenodd"/>
      <path fill-rule="evenodd" d="M10.194 2.233a.857.857 0 0 0-1.15.385L7.713 5.301a1.086 1.086 0 0 0 .493 1.456l2.691 1.329a.857.857 0 1 0 .758-1.536L9.53 5.5l1.053-2.118a.857.857 0 0 0-.388-1.149Z" clip-rule="evenodd"/>
    </g>
  </g>
</svg>
