<svg xmlns="http://www.w3.org/2000/svg" width="24" height="24" viewBox="0 0 24 24">
  <path fill-rule="evenodd" d="M7 8.5h10a3.5 3.5 0 0 1 3.5 3.5v5a3.5 3.5 0 0 1-3.5 3.5H7A3.5 3.5 0 0 1 3.5 17v-5A3.5 3.5 0 0 1 7 8.5ZM7 10a2 2 0 0 0-2 2v5a2 2 0 0 0 2 2h10a2 2 0 0 0 2-2v-5a2 2 0 0 0-2-2H7Z" clip-rule="evenodd"/>
  <path fill-rule="evenodd" d="M8.953 3.785c.932-.46 1.958-.535 2.845-.535h.717c.694 0 1.442.061 2.17.303.67.223 1.271.533 1.645 1.178.344.595.42 1.358.42 2.269v2.5h-1.5V7c0-.896-.091-1.298-.219-1.518-.098-.17-.272-.324-.819-.505-.513-.171-1.082-.227-1.697-.227h-.717c-.832 0-1.57.078-2.18.38-.311.154-.496.314-.622.538-.134.24-.246.633-.246 1.332v2.5h-1.5V7c0-.84.13-1.52.439-2.067.317-.564.775-.906 1.264-1.148ZM12.25 13a.75.75 0 0 1 .75.75v1.5a.75.75 0 0 1-1.5 0v-1.5a.75.75 0 0 1 .75-.75Z" clip-rule="evenodd"/>
</svg>
