<svg xmlns="http://www.w3.org/2000/svg" width="24" height="24" viewBox="0 0 24 24">
  <g class="lock-outline">
    <g class="Vector">
      <path fill-rule="evenodd" d="M6.143 7.429h11.714A4.143 4.143 0 0 1 22 11.57v5.715a4.143 4.143 0 0 1-4.143 4.143H6.143A4.143 4.143 0 0 1 2 17.286V11.57a4.143 4.143 0 0 1 4.143-4.14Zm0 2A2.142 2.142 0 0 0 4 11.57v5.715c0 1.183.96 2.143 2.143 2.143h11.714c1.184 0 2.143-.96 2.143-2.143V11.57c0-1.183-.96-2.142-2.143-2.142H6.143Z" clip-rule="evenodd"/>
      <path fill-rule="evenodd" d="M8.13 2.543C9.139 2.088 10.22 2 11.163 2h1c.737 0 1.53.067 2.311.31.778.241 1.529.584 2.001 1.345.438.706.525 1.603.525 2.618V9h-2V6.273c0-.993-.109-1.378-.224-1.563-.08-.13-.241-.287-.895-.49-.52-.162-1.094-.22-1.718-.22h-1c-.846 0-1.588.086-2.21.366-.375.17-.565.33-.689.531C8.131 5.115 8 5.506 8 6.273V9H6V6.273c0-.97.161-1.771.559-2.42.408-.666.988-1.047 1.571-1.31Zm3.834 10.1a1 1 0 0 1 1 1v1.214a1 1 0 1 1-2 0v-1.214a1 1 0 0 1 1-1Z" clip-rule="evenodd"/>
    </g>
  </g>
</svg>
