<svg xmlns="http://www.w3.org/2000/svg" width="24" height="24" viewBox="0 0 24 24">
  <g class="login-outline">
    <g class="Vector">
      <path fill-rule="evenodd" d="M21 17a5 5 0 0 1-5 5h-5a1 1 0 1 1 0-2h5a3 3 0 0 0 3-3V7a3 3 0 0 0-3-3h-5a1 1 0 1 1 0-2h5a5 5 0 0 1 5 5v10Z" clip-rule="evenodd"/>
      <path fill-rule="evenodd" d="M10.47 7.316a1 1 0 0 1 1.414-.046l4.8 4.5a1 1 0 0 1 0 1.46l-4.8 4.5a1 1 0 1 1-1.368-1.46l2.955-2.77H4a1 1 0 1 1 0-2h9.471l-2.955-2.77a1 1 0 0 1-.046-1.414Z" clip-rule="evenodd"/>
    </g>
  </g>
</svg>
