<svg xmlns="http://www.w3.org/2000/svg" width="24" height="24" viewBox="0 0 24 24">
  <path fill-rule="evenodd" d="M19.75 8A4.75 4.75 0 0 0 15 3.25h-4a.75.75 0 0 0 0 1.5h4A3.25 3.25 0 0 1 18.25 8v8A3.25 3.25 0 0 1 15 19.25h-4a.75.75 0 0 0 0 1.5h4A4.75 4.75 0 0 0 19.75 16V8Z" clip-rule="evenodd"/>
  <path fill-rule="evenodd" d="M10.47 7.47a.75.75 0 0 1 1.06 0l4 4a.75.75 0 0 1 0 1.06l-4 4a.75.75 0 1 1-1.06-1.06l2.72-2.72H5a.75.75 0 0 1 0-1.5h8.19l-2.72-2.72a.75.75 0 0 1 0-1.06Z" clip-rule="evenodd"/>
</svg>
