<svg xmlns="http://www.w3.org/2000/svg" width="24" height="24" viewBox="0 0 24 24">
  <path fill-rule="evenodd" d="M4.25 8A4.75 4.75 0 0 1 9 3.25h4a.75.75 0 0 1 0 1.5H9A3.25 3.25 0 0 0 5.75 8v8A3.25 3.25 0 0 0 9 19.25h4a.75.75 0 0 1 0 1.5H9A4.75 4.75 0 0 1 4.25 16V8Z" clip-rule="evenodd"/>
  <path fill-rule="evenodd" d="M14.47 7.47a.75.75 0 0 1 1.06 0l4 4a.75.75 0 0 1 0 1.06l-4 4a.75.75 0 1 1-1.06-1.06l2.72-2.72H9a.75.75 0 0 1 0-1.5h8.19l-2.72-2.72a.75.75 0 0 1 0-1.06Z" clip-rule="evenodd"/>
</svg>
