<svg xmlns="http://www.w3.org/2000/svg" width="24" height="24" viewBox="0 0 24 24">
  <path fill-rule="evenodd" d="M2 11.946C2 9.193 4.276 7 7.035 7a5.07 5.07 0 0 1 4.12 2.1L12 10.283l.846-1.181A5.063 5.063 0 0 1 16.965 7C19.725 7 22 9.193 22 11.946v.108C22 14.807 19.724 17 16.965 17a5.063 5.063 0 0 1-4.12-2.1L12 13.717l-.846 1.181A5.063 5.063 0 0 1 7.035 17C4.275 17 2 14.807 2 12.054v-.108Zm8.77.054-1.242-1.735A3.063 3.063 0 0 0 7.035 9C5.338 9 4 10.34 4 11.946v.108C4 13.66 5.338 15 7.035 15c1 0 1.93-.477 2.493-1.265L10.77 12Zm2.46 0 1.242 1.735A3.063 3.063 0 0 0 16.965 15C18.662 15 20 13.66 20 12.054v-.108C20 10.34 18.662 9 16.965 9c-1 0-1.93.477-2.493 1.265L13.23 12Z" clip-rule="evenodd"/>
</svg>
