<svg xmlns="http://www.w3.org/2000/svg" width="24" height="24" viewBox="0 0 24 24">
  <path fill-rule="evenodd" d="M7 5.5h10A3.5 3.5 0 0 1 20.5 9v6.5A3.5 3.5 0 0 1 17 19H7a3.5 3.5 0 0 1-3.5-3.5V9A3.5 3.5 0 0 1 7 5.5ZM7 7a2 2 0 0 0-2 2v6.5a2 2 0 0 0 2 2h10a2 2 0 0 0 2-2V9a2 2 0 0 0-2-2H7Z" clip-rule="evenodd"/>
  <path fill-rule="evenodd" d="M4.357 7.664a.75.75 0 0 1 1.029-.257l5.97 3.582a1.25 1.25 0 0 0 1.287 0l5.971-3.582a.75.75 0 0 1 .772 1.286l-5.971 3.583a2.75 2.75 0 0 1-2.83 0l-5.97-3.583a.75.75 0 0 1-.258-1.029Z" clip-rule="evenodd"/>
</svg>
