<svg xmlns="http://www.w3.org/2000/svg" width="24" height="24" viewBox="0 0 24 24">
  <g class="mail-outline">
    <g class="Vector">
      <path fill-rule="evenodd" d="M6 5h12a4 4 0 0 1 4 4v7a4 4 0 0 1-4 4H6a4 4 0 0 1-4-4V9a4 4 0 0 1 4-4Zm0 2a2 2 0 0 0-2 2v7a2 2 0 0 0 2 2h12a2 2 0 0 0 2-2V9a2 2 0 0 0-2-2H6Z" clip-rule="evenodd"/>
      <path fill-rule="evenodd" d="M3.643 6.986a1 1 0 0 1 1.372-.343l6.47 3.882a1 1 0 0 0 1.03 0l6.47-3.882a1 1 0 0 1 1.03 1.715l-6.472 3.882a3 3 0 0 1-3.086 0L3.984 8.358a1 1 0 0 1-.342-1.372Z" clip-rule="evenodd"/>
    </g>
  </g>
</svg>
