<svg xmlns="http://www.w3.org/2000/svg" width="24" height="24" viewBox="0 0 24 24">
  <g class="map-pin-outline">
    <g class="Vector">
      <path fill-rule="evenodd" d="M15.525 10.313c0 1.948-1.588 3.5-3.512 3.5-1.925 0-3.513-1.552-3.513-3.5 0-1.95 1.588-3.5 3.513-3.5a3.506 3.506 0 0 1 3.512 3.5Zm-3.512 1.5c.835 0 1.512-.672 1.512-1.5 0-.829-.677-1.5-1.512-1.5-.836 0-1.513.671-1.513 1.5 0 .828.677 1.5 1.513 1.5Z" clip-rule="evenodd"/>
      <path fill-rule="evenodd" d="M12 4.5c-3.557 0-6.5 2.793-6.5 6.969a1 1 0 0 1-2 0C3.5 6.255 7.273 2.5 12 2.5s8.5 3.755 8.5 8.969a1 1 0 0 1-2 0C18.5 7.293 15.557 4.5 12 4.5Z" clip-rule="evenodd"/>
      <path fill-rule="evenodd" d="M4.5 10.469a1 1 0 0 1 1 1c0 1.769 1.02 3.422 2.415 4.836 1.378 1.398 2.993 2.43 3.887 2.948a.32.32 0 0 0 .338-.01c.894-.572 2.526-1.704 3.924-3.144 1.43-1.474 2.436-3.088 2.436-4.63a1 1 0 1 1 2 0c0 2.353-1.482 4.456-3.001 6.022-1.552 1.6-3.33 2.829-4.282 3.437a2.318 2.318 0 0 1-2.415.056c-.967-.559-2.754-1.695-4.311-3.275C4.95 16.146 3.5 14.012 3.5 11.47a1 1 0 0 1 1-1Z" clip-rule="evenodd"/>
    </g>
  </g>
</svg>
