<svg xmlns="http://www.w3.org/2000/svg" width="24" height="24" viewBox="0 0 24 24">
  <path fill-rule="evenodd" d="M15 10.5a3 3 0 1 1-6 0 3 3 0 0 1 6 0ZM12 12a1.5 1.5 0 1 0 0-3 1.5 1.5 0 0 0 0 3Z" clip-rule="evenodd"/>
  <path fill-rule="evenodd" d="M12 4.75c-3.422 0-6.25 2.715-6.25 6.75a.75.75 0 0 1-1.5 0c0-4.802 3.44-8.25 7.75-8.25 4.31 0 7.75 3.448 7.75 8.25a.75.75 0 0 1-1.5 0c0-4.035-2.828-6.75-6.25-6.75Z" clip-rule="evenodd"/>
  <path fill-rule="evenodd" d="M5 10.75a.75.75 0 0 1 .75.75c0 1.725.976 3.314 2.274 4.652 1.286 1.326 2.797 2.31 3.656 2.814a.555.555 0 0 0 .593-.017c.857-.556 2.383-1.63 3.685-2.993 1.325-1.387 2.292-2.94 2.292-4.456a.75.75 0 0 1 1.5 0c0 2.116-1.313 4.032-2.708 5.492-1.418 1.483-3.052 2.632-3.953 3.216a2.055 2.055 0 0 1-2.168.052c-.914-.537-2.554-1.6-3.974-3.064-1.41-1.453-2.697-3.4-2.697-5.696a.75.75 0 0 1 .75-.75Z" clip-rule="evenodd"/>
</svg>
