<svg xmlns="http://www.w3.org/2000/svg" width="24" height="24" viewBox="0 0 24 24">
  <g class="map-outline">
    <g class="Vector">
      <path fill-rule="evenodd" d="M8 4.744a2 2 0 0 1 1.626-.059l5.335 2.149 4.162-2.03A2 2 0 0 1 22 6.6v10.036a2 2 0 0 1-1.36 1.894l-4.847 1.639a2 2 0 0 1-1.367-.032l-5.522-2.152-3.963 2.113C3.609 20.809 2 19.843 2 18.334V8.93a2 2 0 0 1 1.12-1.796L8 4.744Zm6.214 3.945L8.879 6.54 4 8.93v9.403l3.964-2.113a2 2 0 0 1 1.667-.099l5.522 2.153L20 16.637V6.6l-4.162 2.03a2 2 0 0 1-1.624.058Z" clip-rule="evenodd"/>
      <path fill-rule="evenodd" d="M9 4.943a1 1 0 0 1 1 1v10.915a1 1 0 1 1-2 0V5.943a1 1 0 0 1 1-1Zm6 1.984a1 1 0 0 1 1 1v10.916a1 1 0 1 1-2 0V7.927a1 1 0 0 1 1-1Z" clip-rule="evenodd"/>
    </g>
  </g>
</svg>
