<svg xmlns="http://www.w3.org/2000/svg" width="24" height="24" viewBox="0 0 24 24">
  <path fill-rule="evenodd" d="M9.51 6.793a.25.25 0 0 0-.22.009L5.382 8.907a.25.25 0 0 0-.131.22v8.37c0 .193.21.313.376.216l2.926-1.715a1.75 1.75 0 0 1 1.574-.098l4.409 1.89a.25.25 0 0 0 .185.004l3.867-1.437a.25.25 0 0 0 .163-.234V7.171a.25.25 0 0 0-.368-.22l-3.097 1.66a1.75 1.75 0 0 1-1.536.059L9.51 6.793Zm-.93-1.312a1.75 1.75 0 0 1 1.538-.06l4.239 1.877a.25.25 0 0 0 .22-.008l3.096-1.661a1.75 1.75 0 0 1 2.577 1.542v8.952a1.75 1.75 0 0 1-1.14 1.64L15.243 19.2a1.75 1.75 0 0 1-1.299-.032l-4.41-1.89a.25.25 0 0 0-.224.015l-2.925 1.714c-1.167.683-2.635-.158-2.635-1.51v-8.37c0-.644.353-1.236.92-1.541L8.58 5.48Z" clip-rule="evenodd"/>
  <path fill-rule="evenodd" d="M9.5 5.614a.75.75 0 0 1 .75.75v10a.75.75 0 1 1-1.5 0v-10a.75.75 0 0 1 .75-.75Zm5 1.818a.75.75 0 0 1 .75.75v10a.75.75 0 1 1-1.5 0v-10a.75.75 0 0 1 .75-.75Z" clip-rule="evenodd"/>
</svg>
