<svg xmlns="http://www.w3.org/2000/svg" width="24" height="24" viewBox="0 0 24 24">
  <path fill-rule="evenodd" d="M10.32 10.153a1 1 0 0 1-1.414.037L3.062 4.647A1 1 0 0 1 4.44 3.196l5.843 5.543a1 1 0 0 1 .037 1.414Z" clip-rule="evenodd"/>
  <path fill-rule="evenodd" d="M10.297 10.176a1 1 0 0 0 .297-.711V5.922a1 1 0 1 0-2 0v2.532l-2.832-.032a1 1 0 1 0-.022 2l3.843.043a1 1 0 0 0 .714-.29Zm.023 3.958a1 1 0 0 0-1.414-.037L3.062 19.64a1 1 0 0 0 1.377 1.451l5.843-5.543a1 1 0 0 0 .037-1.414Z" clip-rule="evenodd"/>
  <path fill-rule="evenodd" d="M10.297 14.111a1 1 0 0 1 .297.711v3.543a1 1 0 1 1-2 0v-2.531l-2.832.031a1 1 0 0 1-.022-2l3.843-.042a1 1 0 0 1 .714.288Zm3.5-3.958a1 1 0 0 0 1.413.037l5.844-5.543a1 1 0 0 0-1.377-1.451l-5.843 5.543a1 1 0 0 0-.037 1.414Z" clip-rule="evenodd"/>
  <path fill-rule="evenodd" d="M13.82 10.176a1 1 0 0 1-.298-.711V5.922a1 1 0 1 1 2 0v2.532l2.833-.032a1 1 0 0 1 .022 2l-3.844.043a1 1 0 0 1-.714-.29Zm-.023 3.958a1 1 0 0 1 1.413-.037l5.844 5.543a1 1 0 0 1-1.377 1.451l-5.843-5.543a1 1 0 0 1-.037-1.414Z" clip-rule="evenodd"/>
  <path fill-rule="evenodd" d="M13.82 14.111a1 1 0 0 0-.298.711v3.543a1 1 0 1 0 2 0v-2.531l2.833.031a1 1 0 0 0 .022-2l-3.844-.042a1 1 0 0 0-.714.288Z" clip-rule="evenodd"/>
</svg>
