<svg xmlns="http://www.w3.org/2000/svg" width="24" height="24" viewBox="0 0 24 24">
  <path fill-rule="evenodd" d="M5.62 3h12.808c.246 0 .54 0 .799.022.3.025.73.09 1.177.327a3 3 0 0 1 1.247 1.247c.237.447.302.877.327 1.177.022.259.022.553.022.8v6.854c0 .246 0 .54-.022.799-.025.3-.09.73-.327 1.177a3 3 0 0 1-1.247 1.247c-.366.188-.767.3-1.177.327-.259.022-.553.022-.8.022H5.573c-.246 0-.54 0-.799-.022-.3-.025-.73-.09-1.177-.327a3 3 0 0 1-1.247-1.247 3.014 3.014 0 0 1-.327-1.177C2 13.968 2 13.674 2 13.427V6.573c0-.246 0-.54.022-.799.025-.3.09-.73.327-1.177A3 3 0 0 1 3.596 3.35c.366-.188.766-.3 1.177-.327C5.032 3 5.326 3 5.573 3h.047ZM4.116 5.532C4 5.752 4 6.042 4 6.62v6.76c0 .579 0 .868.116 1.088a1 1 0 0 0 .416.416c.22.116.51.116 1.088.116h12.76c.579 0 .868 0 1.088-.116a1 1 0 0 0 .416-.416c.116-.22.116-.509.116-1.088V6.62c0-.579 0-.868-.116-1.088a1 1 0 0 0-.416-.416C19.248 5 18.959 5 18.38 5H5.62c-.579 0-.868 0-1.088.116a1 1 0 0 0-.416.416Z" clip-rule="evenodd"/>
  <path fill-rule="evenodd" d="M12 16a1 1 0 0 1 1 1v3a1 1 0 0 1-2 0v-3a1 1 0 0 1 1-1Z" clip-rule="evenodd"/>
  <path fill-rule="evenodd" d="M6 20a1 1 0 0 1 1-1h10a1 1 0 0 1 0 2H7a1 1 0 0 1-1-1Z" clip-rule="evenodd"/>
</svg>
