<svg xmlns="http://www.w3.org/2000/svg" width="24" height="24" viewBox="0 0 24 24">
  <path fill-rule="evenodd" d="M19.008 13.562c.588-.15 1.656-.177 2.41.74.588.716.552 1.535.519 1.86-.078.761-.44 1.53-.862 2.07-2.283 2.92-6.196 4.21-9.845 3.75-5.744-.723-9.815-5.967-9.091-11.711.223-1.769.74-3.355 1.694-4.701.961-1.357 2.272-2.337 3.864-3.035a7.115 7.115 0 0 1 1.939-.52c.18-.018.4-.03.638-.014.209.014.587.06.983.262a2.166 2.166 0 0 1 1.157 1.538c.129.7-.116 1.256-.261 1.522-.175.32-.424.838-.64 1.376-.232.576-.356 1.006-.38 1.207a5.326 5.326 0 0 0 4.618 5.95c.233.03.826.02 1.591-.05.738-.07 1.384-.173 1.666-.244Zm.76 2.995c.264-.567.301-1.201-.268-1.057-.351.09-.923.182-1.542.252l-.025.003c-.895.1-1.882.155-2.432.085a7.326 7.326 0 0 1-6.353-8.184c.054-.432.234-1 .453-1.563l.068-.17c.241-.597.518-1.173.727-1.557.193-.352-.164-.415-.642-.35a5.247 5.247 0 0 0-1.68.55C5.71 5.742 4.488 7.618 4.123 10.52a8.483 8.483 0 0 0 7.356 9.477c2.769.348 5.614-.518 7.452-2.357A7.087 7.087 0 0 0 19.5 17c.102-.13.194-.284.268-.444ZM10.066 5.992h-.003Z" clip-rule="evenodd"/>
  <path d="M14.883 7.585a.238.238 0 0 1 .38.047c.01.021.026.04.043.056a.24.24 0 0 1-.048.38.237.237 0 0 0-.056.043.237.237 0 0 1-.379-.048.238.238 0 0 0-.043-.056.237.237 0 0 1 .047-.379.236.236 0 0 0 .056-.043Z"/>
  <path fill-rule="evenodd" d="M15.678 7.354a.737.737 0 0 1-.142 1.13.737.737 0 0 1-1.129-.143.737.737 0 0 1 .142-1.129.737.737 0 0 1 1.13.142Zm-.523.638a.263.263 0 0 0 .032-.256.262.262 0 0 0-.256-.032.259.259 0 0 0-.049.195c.003.02.009.041.017.06a.262.262 0 0 0 .256.033Z" clip-rule="evenodd"/>
  <path d="M18.235 4.983c.11-.116.3-.092.378.048.012.02.027.04.044.056.116.11.092.3-.048.379a.237.237 0 0 0-.056.043.237.237 0 0 1-.378-.048.238.238 0 0 0-.044-.056.237.237 0 0 1 .048-.378.237.237 0 0 0 .056-.044Z"/>
  <path fill-rule="evenodd" d="M19.03 4.753a.737.737 0 0 1-.143 1.129.737.737 0 0 1-1.128-.143.737.737 0 0 1 .142-1.129.737.737 0 0 1 1.129.143Zm-.524.637a.259.259 0 0 0 .049-.195.263.263 0 0 0-.017-.06.262.262 0 0 0-.256-.033.263.263 0 0 0-.032.256.262.262 0 0 0 .256.032Z" clip-rule="evenodd"/>
  <path d="M18.602 10.069a.237.237 0 0 1 .379.047c.011.021.026.04.043.057.116.11.092.3-.047.378a.239.239 0 0 0-.056.044.237.237 0 0 1-.379-.048.239.239 0 0 0-.044-.056.237.237 0 0 1 .048-.379.235.235 0 0 0 .056-.043Z"/>
  <path fill-rule="evenodd" d="M19.397 9.838a.737.737 0 0 1-.142 1.13.737.737 0 0 1-1.13-.143.737.737 0 0 1 .143-1.129.737.737 0 0 1 1.13.142Zm-.524.638a.257.257 0 0 0 .051-.143.26.26 0 0 0-.018-.113.257.257 0 0 0-.143-.051.26.26 0 0 0-.113.019.255.255 0 0 0-.051.142.261.261 0 0 0 .018.114.255.255 0 0 0 .143.05.26.26 0 0 0 .113-.018Z" clip-rule="evenodd"/>
</svg>
