<svg xmlns="http://www.w3.org/2000/svg" width="24" height="24" viewBox="0 0 24 24">
  <g class="mouse-outline">
    <g class="Vector">
      <path fill-rule="evenodd" d="M5 9a7 7 0 0 1 14 0v6a7 7 0 1 1-14 0V9Zm7-5a5 5 0 0 0-5 5v6a5 5 0 0 0 10 0V9a5 5 0 0 0-5-5Z" clip-rule="evenodd"/>
      <path d="M12 11.778c-1.102 0-2-.898-2-2V8c0-1.102.898-2 2-2 1.102 0 2 .898 2 2v1.778c0 1.102-.898 2-2 2Zm0-4.445a.672.672 0 0 0-.667.667v1.778c0 .364.303.666.667.666a.672.672 0 0 0 .667-.666V8A.672.672 0 0 0 12 7.333Z"/>
      <path fill-rule="evenodd" d="M10 9.778c0 1.102.898 2 2 2 1.102 0 2-.898 2-2V8c0-1.102-.898-2-2-2-1.102 0-2 .898-2 2v1.778ZM11.333 8c0-.364.303-.667.667-.667.364 0 .667.303.667.667v1.778a.672.672 0 0 1-.667.666.672.672 0 0 1-.667-.666V8Z" clip-rule="evenodd"/>
      <path fill-rule="evenodd" d="M10.2 9.778c0 .992.808 1.8 1.8 1.8s1.8-.808 1.8-1.8V8c0-.992-.808-1.8-1.8-1.8s-1.8.808-1.8 1.8v1.778ZM11.133 8c0-.475.392-.867.867-.867s.867.392.867.867v1.778a.871.871 0 0 1-.867.866.871.871 0 0 1-.867-.866V8ZM12 11.778c-1.102 0-2-.898-2-2V8c0-1.102.898-2 2-2 1.102 0 2 .898 2 2v1.778c0 1.102-.898 2-2 2Zm0-4.445a.672.672 0 0 0-.667.667v1.778c0 .364.303.666.667.666a.672.672 0 0 0 .667-.666V8A.672.672 0 0 0 12 7.333Z" clip-rule="evenodd"/>
      <path fill-rule="evenodd" d="M12.9 2.6v4.3h-1.8V2.6h1.8Z" clip-rule="evenodd"/>
    </g>
  </g>
</svg>
