<svg xmlns="http://www.w3.org/2000/svg" width="24" height="24" viewBox="0 0 24 24">
  <path fill-rule="evenodd" d="M12 2a1 1 0 0 1 1 1v9a1 1 0 1 1-2 0V3a1 1 0 0 1 1-1Z" clip-rule="evenodd"/>
  <path fill-rule="evenodd" d="M12.707 2.293a1 1 0 0 0-1.414 0l-3 3a1 1 0 0 0 1.414 1.414L12 4.414l2.293 2.293a1 1 0 1 0 1.414-1.414l-3-3ZM12 22a1 1 0 0 1-1-1v-9a1 1 0 1 1 2 0v9a1 1 0 0 1-1 1Z" clip-rule="evenodd"/>
  <path fill-rule="evenodd" d="M11.293 21.707a1 1 0 0 0 1.414 0l3-3a1 1 0 0 0-1.414-1.414L12 19.586l-2.293-2.293a1 1 0 0 0-1.414 1.414l3 3ZM2 12a1 1 0 0 1 1-1h9a1 1 0 1 1 0 2H3a1 1 0 0 1-1-1Z" clip-rule="evenodd"/>
  <path fill-rule="evenodd" d="M2.293 11.293a1 1 0 0 0 0 1.414l3 3a1 1 0 0 0 1.414-1.414L4.414 12l2.293-2.293a1 1 0 0 0-1.414-1.414l-3 3ZM22 12a1 1 0 0 1-1 1h-9a1 1 0 1 1 0-2h9a1 1 0 0 1 1 1Z" clip-rule="evenodd"/>
  <path fill-rule="evenodd" d="M21.707 12.707a1 1 0 0 0 0-1.414l-3-3a1 1 0 1 0-1.414 1.414L19.586 12l-2.293 2.293a1 1 0 0 0 1.414 1.414l3-3Z" clip-rule="evenodd"/>
</svg>
