<svg xmlns="http://www.w3.org/2000/svg" width="24" height="24" viewBox="0 0 24 24">
  <path fill-rule="evenodd" d="M22 16a6 6 0 1 1-12 0 6 6 0 0 1 12 0Zm-6 4a4 4 0 1 0 0-8 4 4 0 0 0 0 8Z" clip-rule="evenodd"/>
  <path fill-rule="evenodd" d="M15.7 13.6a.9.9 0 0 1 .9.9v2a.9.9 0 1 1-1.8 0v-2a.9.9 0 0 1 .9-.9Z" clip-rule="evenodd"/>
  <path fill-rule="evenodd" d="M14.951 16a.9.9 0 0 1 1.248-.249l1.5 1a.9.9 0 1 1-.998 1.498l-1.5-1A.9.9 0 0 1 14.95 16ZM8.5 18a2 2 0 0 0 3.333 1.491l1.334 1.49A4 4 0 0 1 6.5 18h2Z" clip-rule="evenodd"/>
  <path fill-rule="evenodd" d="M9.01 5.22c-.621.168-1.201.431-1.605.795-1.103.995-1.552 2.343-1.552 4.773 0 1.732-.986 3.372-1.696 4.434-.154.232-.202.453-.193.586.004.06.018.088.024.098.004.007.016.026.064.052.692.37 1.736.64 2.943.811A25.7 25.7 0 0 0 10.5 17a1 1 0 1 1 0 2c-1.128 0-2.484-.065-3.786-.25-1.282-.183-2.603-.493-3.605-1.028-.737-.394-1.093-1.08-1.14-1.779-.046-.659.177-1.31.525-1.831.717-1.074 1.359-2.259 1.359-3.324 0-2.661.492-4.707 2.213-6.258.725-.654 1.636-1.027 2.419-1.24A8.114 8.114 0 0 1 10.5 3a1 1 0 1 1 0 2c-.306 0-.876.052-1.49.22Z" clip-rule="evenodd"/>
  <path fill-rule="evenodd" d="M11.99 5.22c.621.168 1.201.431 1.605.795 1.103.995 1.552 2.343 1.552 4.773a1 1 0 1 0 2 0c0-2.661-.492-4.707-2.213-6.258-.725-.654-1.636-1.027-2.419-1.24A8.115 8.115 0 0 0 10.5 3a1 1 0 0 0 0 2c.306 0 .876.052 1.49.22Z" clip-rule="evenodd"/>
  <path d="M13.147 3.68c0 .695-1.395.042-2.5.042s-2.5.653-2.5-.043c0-.695 1-1.679 2.5-1.679s2.5.984 2.5 1.68Z"/>
</svg>
