<svg xmlns="http://www.w3.org/2000/svg" width="24" height="24" viewBox="0 0 24 24">
  <path fill-rule="evenodd" d="M10.784 5.624c-.524.155-1.027.4-1.385.752-.976.96-1.364 2.269-1.364 4.539 0 1.504-.783 2.951-1.382 3.933-.157.256-.218.513-.206.698.011.157.067.246.183.31.601.34 1.486.582 2.494.736.992.151 2.04.207 2.926.207a.75.75 0 0 1 0 1.5 21.5 21.5 0 0 1-3.153-.225c-1.07-.163-2.167-.44-3.003-.91-.616-.347-.903-.927-.943-1.515-.039-.56.14-1.123.421-1.583.597-.977 1.163-2.105 1.163-3.151 0-2.413.407-4.226 1.813-5.608.595-.585 1.35-.926 2.01-1.121a6.29 6.29 0 0 1 1.692-.265.75.75 0 0 1 0 1.5 4.8 4.8 0 0 0-1.266.203Z" clip-rule="evenodd"/>
  <path fill-rule="evenodd" d="M13.316 5.624c.525.155 1.027.4 1.385.752.976.96 1.364 2.269 1.364 4.539 0 1.504.783 2.951 1.383 3.933.156.256.218.513.205.698-.01.157-.067.246-.182.31-.602.34-1.487.582-2.494.736-.993.151-2.042.207-2.927.207a.75.75 0 0 0 0 1.5 21.5 21.5 0 0 0 3.153-.225c1.071-.163 2.167-.44 3.003-.91.616-.347.903-.927.943-1.515.039-.56-.14-1.123-.421-1.583-.597-.977-1.163-2.105-1.163-3.151 0-2.413-.406-4.226-1.813-5.608-.595-.585-1.35-.926-2.01-1.121a6.29 6.29 0 0 0-1.692-.265.75.75 0 0 0 0 1.5 4.8 4.8 0 0 1 1.266.203Z" clip-rule="evenodd"/>
  <path d="M14.035 4.98c0 .695-1.108.042-1.985.042s-1.985.653-1.985-.043c0-.695.794-1.679 1.985-1.679s1.985.984 1.985 1.68Z"/>
  <path fill-rule="evenodd" d="M10.25 17.5a1.75 1.75 0 1 0 3.5 0h1.5a3.25 3.25 0 1 1-6.5 0h1.5Z" clip-rule="evenodd"/>
</svg>
