<svg xmlns="http://www.w3.org/2000/svg" width="24" height="24" viewBox="0 0 24 24">
  <path d="M6.44 13.8c0 .173-.003.35-.007.531-.005.182-.007.363-.007.545 0 .4-.325.726-.726.726h-.486a.726.726 0 0 1-.725-.726c0-.182-.003-.363-.007-.545a22.334 22.334 0 0 1-.006-.531v-1.504c0-.172.008-.388.025-.647.022-.264.042-.532.059-.804.021-.272.03-.51.026-.713l-.052-1.931a3.68 3.68 0 0 1 .499-.065 8.425 8.425 0 0 1 .9 0c.296.016.506.279.506.575V13.8Zm-3.254.985c.095 0 .89-.004 1.08 0-.095 0 .19.004 0 0h2.16c.1 0 .337.004.54 0-.095 0 .207-.004 0 0h.285c.466 0 .854.325.854.79 0 .488-.346.83-.833.83H3.018a.49.49 0 0 1-.493-.408 3.61 3.61 0 0 1-.019-.638c.023-.343.336-.574.68-.574Zm-.888-3.253c-.276-.38-.036-.863.342-1.142.36-.266.67-.536.928-.809.406-.428.698-1.112.966-1.38.093.035.203.227.307.464.299.68.281 1.494-.21 2.05a4.78 4.78 0 0 1-1.151.943c-.392.236-.905.238-1.182-.126Zm7.547-.907c-.464-.171-.574-.73-.331-1.16a3.23 3.23 0 0 1 .247-.376A2.756 2.756 0 0 1 12.003 8c.553 0 1.035.108 1.446.324.41.212.728.512.952.9.23.385.344.839.344 1.362 0 .363-.072.691-.214.985-.143.294-.33.566-.564.816-.233.25-.49.495-.771.733l-.927.725a70.63 70.63 0 0 0-.486.409c-.173.147-.322.29-.447.427-.125.139-.045.005-.05.104l-.107.804a.94.94 0 0 1-.932.816.883.883 0 0 1-.707-.337 7.038 7.038 0 0 1-.207-.285 1.191 1.191 0 0 1-.207-.674c0-.238.067-.477.201-.72.138-.241.32-.483.544-.725.23-.246.476-.488.74-.726l1.405-1.212c.19-.164.35-.343.48-.538.13-.194.194-.414.194-.66a.883.883 0 0 0-.233-.623c-.155-.173-.376-.259-.66-.259a.91.91 0 0 0-.753.363 2.36 2.36 0 0 0-.034.044c-.293.384-.708.73-1.165.572Zm3.88 4.166c.74-.003 1.402.665.942 1.245-.194.246-.52.37-.979.37h-3.252a.763.763 0 0 1-.695-.451c-.182-.404.02-.877.454-.968.126-.026.258-.05.396-.072.912-.155 1.845-.132 2.77-.125l.327.002h.038Zm6.208-1.004c0-.341-.113-.603-.337-.784a1.214 1.214 0 0 0-.81-.279c-.121 0-.24.013-.357.04-.222.049-.468.051-.628-.111a1.781 1.781 0 0 1-.195-.24c-.142-.212-.266-.29-.266-.616.672-.149.776-.161 1.07-.226.294-.07.473-.117.978-.117.497 0 .942.093 1.335.279.393.181.705.451.934.81.229.354.343.793.343 1.315a2.6 2.6 0 0 1-.253 1.167 2.48 2.48 0 0 1-.68.855c-.29.234-.622.41-.998.532-.376.12-.774.181-1.193.181a4.63 4.63 0 0 1-1.613-.266 4.622 4.622 0 0 1-.519-.233c-.427-.227-.602-.749-.337-1.153.265-.394.804-.375 1.235-.175l.055.025c.285.121.592.182.92.182.268 0 .5-.048.694-.143.198-.099.352-.237.46-.414.108-.178.162-.387.162-.629Zm.337-2.625a3.15 3.15 0 0 1-.616.486 5.509 5.509 0 0 1-.68.363c-.3.13-.165-.347-.49-.318l-1.144.104c.19-.343 1.2-1.173 1.2-1.173.082-.082.177-.174.285-.278a18.79 18.79 0 0 1 .564-.5.053.053 0 0 0 .016-.062.057.057 0 0 0-.063-.033 3.34 3.34 0 0 1-.45.027c-.03 0-.06.003-.09.005-.114.009-.214-.02-.352-.005-.15.013-.274 0-.434 0h-.903c-.256 0-.668-.064-.693-.32a3.54 3.54 0 0 1-.02-.324c0-.125.012-.272.033-.44.04-.312.344-.493.657-.493h3.389c.478 0 .955.248 1.093.706.056.182.085.341.085.48 0 .285-.13.564-.39.836l-.997.94Z"/>
</svg>
