<svg xmlns="http://www.w3.org/2000/svg" width="24" height="24" viewBox="0 0 24 24">
  <path fill-rule="evenodd" d="M6 5.25c-.69 0-1.25.56-1.25 1.25V18c0 .69.56 1.25 1.25 1.25h12c.69 0 1.25-.56 1.25-1.25v-4.254a.75.75 0 0 1 1.5 0V18A2.75 2.75 0 0 1 18 20.75H6A2.75 2.75 0 0 1 3.25 18V6.5A2.75 2.75 0 0 1 6 3.75h4.238a.75.75 0 0 1 0 1.5H6Z" clip-rule="evenodd"/>
  <path fill-rule="evenodd" d="M19.847 4.19a.75.75 0 0 1 0 1.06l-8.864 8.864a.75.75 0 0 1-1.06-1.06l8.863-8.864a.75.75 0 0 1 1.06 0Z" clip-rule="evenodd"/>
  <path fill-rule="evenodd" d="M20.152 3.892a.75.75 0 0 1 .225.528l.048 4.997a.75.75 0 0 1-1.5.015l-.04-4.248-4.152.04a.75.75 0 1 1-.015-1.5l4.902-.047a.75.75 0 0 1 .532.215Z" clip-rule="evenodd"/>
</svg>
