<svg xmlns="http://www.w3.org/2000/svg" width="24" height="24" viewBox="0 0 24 24">
  <g class="open-book-outline">
    <g class="Vector">
      <path fill-rule="evenodd" d="M4.511 5.032c.197-.037.462-.038 1.004-.031a7.006 7.006 0 0 1 1.953.294c1.026.312 2.084.94 3.029 1.5l.082.05c.208.123.331.197.415.253a18.543 18.543 0 0 1 .006.448v10.367c-.977-.474-2.195-.884-3.78-1.203a48.88 48.88 0 0 1-1.888-.493c-.47-.14-.635-.226-.684-.261a1.56 1.56 0 0 1-.336-.294 1.574 1.574 0 0 1-.204-.398c-.092-.233-.108-.5-.108-1.558v-6.81c0-.671.003-1.054.05-1.336.037-.225.089-.299.158-.367a.497.497 0 0 1 .303-.16ZM5.401 3c-.884-.013-1.792-.026-2.599.771-.436.43-.636.926-.725 1.464C2 5.698 2 6.249 2 6.83v7.024c0 .838-.002 1.513.248 2.145.126.319.27.615.488.894.217.278.47.49.748.69.346.247.8.408 1.276.55.494.148 1.147.31 1.972.517l.049.012.023.005c2.184.437 3.471 1.033 4.35 1.641l.011.008c.045.031.15.104.254.157.097.049.523.253 1 .003a1.08 1.08 0 0 0 .565-.821c.017-.116.016-.244.016-.297V7.513c0-.225 0-.456-.018-.654a1.854 1.854 0 0 0-.224-.765 1.87 1.87 0 0 0-.555-.59 8.191 8.191 0 0 0-.574-.362l-.029-.017a133.29 133.29 0 0 1-.144-.086c-.897-.533-2.14-1.273-3.407-1.658a9.005 9.005 0 0 0-2.51-.38L5.4 2.999Z" clip-rule="evenodd"/>
      <path fill-rule="evenodd" d="M19.489 5.032c-.197-.037-.462-.038-1.004-.031a7.007 7.007 0 0 0-1.953.294c-1.026.312-2.084.94-3.029 1.5l-.082.05c-.208.123-.331.197-.415.253a3.636 3.636 0 0 0-.004.13C13 7.314 13 7.416 13 7.545v10.367c.977-.474 2.195-.884 3.78-1.203a48.93 48.93 0 0 0 1.888-.493c.47-.14.635-.226.684-.261a1.56 1.56 0 0 0 .336-.294c.053-.069.114-.17.204-.398.092-.233.108-.5.108-1.558v-6.81c0-.671-.003-1.054-.05-1.336-.037-.225-.089-.299-.158-.367a.497.497 0 0 0-.303-.16ZM18.599 3c.884-.013 1.791-.026 2.599.771.436.43.636.926.725 1.464C22 5.698 22 6.249 22 6.83v7.024c0 .838.002 1.513-.248 2.145a3.48 3.48 0 0 1-.488.894c-.217.278-.47.49-.748.69-.346.247-.8.408-1.276.55-.494.148-1.147.31-1.972.517l-.049.012-.023.005c-2.184.437-3.471 1.033-4.35 1.641l-.011.008c-.045.031-.15.104-.254.157a1.086 1.086 0 0 1-1 .003 1.086 1.086 0 0 1-.565-.821 2.139 2.139 0 0 1-.016-.297V7.513c0-.225 0-.456.018-.654.02-.224.07-.495.224-.765a1.87 1.87 0 0 1 .555-.59c.165-.12.37-.241.574-.362l.029-.017.144-.086c.897-.533 2.14-1.273 3.406-1.658a9.006 9.006 0 0 1 2.511-.38l.139-.002Z" clip-rule="evenodd"/>
    </g>
  </g>
</svg>
