<svg xmlns="http://www.w3.org/2000/svg" width="24" height="24" viewBox="0 0 24 24">
  <g class="package-outline">
    <g class="Vector">
      <path fill-rule="evenodd" d="m14.071 2.887 4.786 2.762a4.143 4.143 0 0 1 2.071 3.588v5.526c0 1.48-.79 2.848-2.071 3.588l-4.786 2.762a4.143 4.143 0 0 1-4.142 0l-4.786-2.762a4.143 4.143 0 0 1-2.071-3.588V9.237c0-1.48.79-2.848 2.071-3.588L9.93 2.887a4.143 4.143 0 0 1 4.142 0Zm-1 1.732a2.143 2.143 0 0 0-2.142 0L6.143 7.38a2.143 2.143 0 0 0-1.071 1.856v5.526c0 .765.408 1.473 1.071 1.856l4.786 2.762a2.14 2.14 0 0 0 2.142 0l4.786-2.762a2.143 2.143 0 0 0 1.071-1.856V9.237c0-.765-.408-1.473-1.071-1.856L13.07 4.62Z" clip-rule="evenodd"/>
      <path fill-rule="evenodd" d="m10.595 11.844-5.9-2.95.895-1.788 5.899 2.949c.322.16.7.16 1.022 0l5.899-2.95.895 1.79-5.9 2.949a3.143 3.143 0 0 1-2.81 0Z" clip-rule="evenodd"/>
      <path fill-rule="evenodd" d="M13 11.428v9.143h-2v-9.143h2ZM7.677 5.267a1 1 0 0 1 1.342-.447l6.857 3.428a1 1 0 1 1-.895 1.79l-6.857-3.43a1 1 0 0 1-.447-1.34Z" clip-rule="evenodd"/>
    </g>
  </g>
</svg>
