<svg xmlns="http://www.w3.org/2000/svg" width="24" height="24" viewBox="0 0 24 24">
  <path d="M20 19a1 1 0 1 1 0 2H4a1 1 0 1 1 0-2h16Zm0-4a1 1 0 1 1 0 2H4a1 1 0 1 1 0-2h16Zm0-4a1 1 0 1 1 0 2h-6a1 1 0 1 1 0-2h6Zm0-4a1 1 0 1 1 0 2h-6a1 1 0 1 1 0-2h6Zm0-4a1 1 0 1 1 0 2h-6a1 1 0 1 1 0-2h6Zm-13.735.089c.221-.036.448-.06.68-.071a10.21 10.21 0 0 1 1.202 0c.21.012.428.035.654.071L12 12.742a1.93 1.93 0 0 1-.613.196c-.243.041-.45.062-.622.062-.27 0-.52-.056-.746-.17-.22-.112-.397-.397-.53-.854l-1.26-4.052-.257-.953-.265-1.05c-.083-.35-.16-.674-.232-.97h-.091l-.373 1.424c-.133.528-.257.988-.373 1.38l-1.6 5.111a4.493 4.493 0 0 1-.936.098 3.56 3.56 0 0 1-.563-.044 1.77 1.77 0 0 1-.456-.125L3 12.671l3.265-9.582Zm.066 7.836h-.256a5.178 5.178 0 0 0-.307-.009 4.772 4.772 0 0 0-.257-.009H4.55l.688-1.852h1.069c.1-.006.196-.009.29-.009.1-.006.18-.009.24-.009h1.21c.066 0 .14.003.224.01.088 0 .174.002.257.008h1.118l.622 1.852h-.995a3.59 3.59 0 0 0-.248.01c-.1 0-.199.002-.298.008H6.33Z"/>
</svg>
