<svg xmlns="http://www.w3.org/2000/svg" width="24" height="24" viewBox="0 0 24 24">
  <path fill-rule="evenodd" d="M8.353 4.82c-.838-.438-2.069-.632-2.906-.222-.242.119-.353.277-.428.528-.081.27-.098.561-.12.958a57.6 57.6 0 0 1-.01.167l.03.587a14.071 14.071 0 0 0 5.192 10.23l.93.754a9.08 9.08 0 0 0 3.824 1.827l.214.045c.38.082.652.14.92.13.24-.007.414-.068.593-.28.338-.402.577-.943.678-1.508.1-.554.053-1.052-.084-1.399a.653.653 0 0 0-.438-.33l-.758-.157-1.572-.295a.737.737 0 0 0-.147.085l-.01.008a3.274 3.274 0 0 0-.121.12c-.012.01-.024.023-.037.037l-.004.004a2.449 2.449 0 0 1-.542.44c-.545.31-1.126.26-1.604.096-.7-.239-1.195-.748-1.512-1.083l-.896-.947a14.075 14.075 0 0 1-1.41-1.752l-.19-.28c-.048-.07-.11-.156-.18-.252-.223-.311-.527-.735-.721-1.129a8.11 8.11 0 0 1-.106-.223c-.55-1.208.144-2.413 1.124-2.888a.448.448 0 0 0 .251-.366l.133-1.63.059-.953a.368.368 0 0 0-.152-.321Zm6.305 15.808-.208.977a11.08 11.08 0 0 1-4.668-2.229l-.93-.754A16.071 16.071 0 0 1 2.92 6.937l-.035-.697.004-.056.009-.168c.02-.383.049-.945.204-1.463.2-.668.621-1.338 1.465-1.752 1.627-.795 3.566-.352 4.713.248a2.366 2.366 0 0 1 1.22 2.217l-.06.973-.135 1.648a2.448 2.448 0 0 1-1.37 2.003.358.358 0 0 0-.175.166.132.132 0 0 0-.012.052c0 .009.001.021.01.04.027.06.053.116.08.17.116.234.265.442.453.704.093.129.195.27.307.435l.19.28a12.08 12.08 0 0 0 1.21 1.502l.896.947c.324.343.522.503.705.566a.83.83 0 0 0 .022.006l.048-.048.025-.026c.082-.086.241-.252.433-.386.34-.237.915-.55 1.631-.415l1.62.304.777.161c.8.167 1.473.694 1.835 1.423l.014.028.012.029c.332.786.376 1.707.223 2.56-.154.86-.524 1.738-1.118 2.444-.607.72-1.356.968-2.056.99-.538.018-1.085-.102-1.452-.182l-.159-.034.204-.98Z" clip-rule="evenodd"/>
</svg>
