<svg xmlns="http://www.w3.org/2000/svg" width="24" height="25" viewBox="0 0 24 25">
  <path fill-rule="evenodd" d="M10.374 5.691a.75.75 0 0 1-.457.957 7 7 0 1 0 9.193 8.003.75.75 0 1 1 1.47.298A8.5 8.5 0 1 1 9.417 5.234a.75.75 0 0 1 .957.457Z" clip-rule="evenodd"/>
  <path fill-rule="evenodd" d="M19.92 8.434c.328.793.512 1.638.542 2.494a1.697 1.697 0 0 1-1.697 1.755h-5.28c-.94 0-1.702-.762-1.702-1.702V5.702c0-.925.76-1.733 1.756-1.697a7.183 7.183 0 0 1 6.38 4.43Zm-.957 2.547a.196.196 0 0 1-.198.202h-5.28a.202.202 0 0 1-.202-.202V5.702c0-.112.09-.202.202-.198a5.683 5.683 0 0 1 5.478 5.477Z" clip-rule="evenodd"/>
</svg>
