<svg xmlns="http://www.w3.org/2000/svg" width="24" height="24" viewBox="0 0 24 24">
  <g class="pie-chart-outline">
    <g class="Vector">
      <path fill-rule="evenodd" d="M9.665 3.661a1 1 0 0 1-.602 1.28C6.12 6 4 8.867 4 12.25 4 16.55 7.414 20 11.586 20c3.655 0 6.726-2.647 7.433-6.194a1 1 0 1 1 1.962.39C20.096 18.636 16.239 22 11.586 22 6.274 22 2 17.617 2 12.251c0-4.234 2.657-7.85 6.385-9.192a1 1 0 0 1 1.28.602Z" clip-rule="evenodd"/>
      <path fill-rule="evenodd" d="M20.42 7.128c.38.917.593 1.893.628 2.883.046 1.303-1.01 2.296-2.22 2.296h-5.857a2.224 2.224 0 0 1-2.225-2.225V4.224c0-1.209.993-2.265 2.296-2.219a8.307 8.307 0 0 1 7.379 5.123Zm-1.693 1.179.002.003a6.289 6.289 0 0 1 .32 1.772.218.218 0 0 1-.22.225H12.97a.224.224 0 0 1-.225-.225V4.224c0-.124.1-.224.224-.22a6.305 6.305 0 0 1 1.773.32l.003.002a6.29 6.29 0 0 1 2.46 1.521 6.308 6.308 0 0 1 1.521 2.46Z" clip-rule="evenodd"/>
    </g>
  </g>
</svg>
