<svg xmlns="http://www.w3.org/2000/svg" width="24" height="24" viewBox="0 0 24 24">
  <path fill-rule="evenodd" d="M12 15.75a.75.75 0 0 1 .75.75v3.273a.75.75 0 0 1-1.5 0V16.5a.75.75 0 0 1 .75-.75Z" clip-rule="evenodd"/>
  <path fill-rule="evenodd" d="M8.85 5.511c0 .004-.009.026.009.085.043.145.102.293.17.433.223.468.448 1.052.448 1.703v3.236c0 .858-.37 1.642-.93 2.222-.415.428-.74.82-.994 1.17a.614.614 0 0 0-.138.331.314.314 0 0 0 .062.197c.098.14.358.316.796.316h4.273a.75.75 0 0 1 0 1.5H8.273c-.818 0-1.59-.333-2.026-.957-.467-.67-.446-1.53.093-2.27.298-.41.669-.855 1.128-1.33.327-.338.51-.76.51-1.18V7.733c0-.314-.111-.655-.303-1.057a4.538 4.538 0 0 1-.253-.649c-.217-.723.06-1.35.53-1.744.436-.364 1.024-.532 1.576-.532h3.018a.75.75 0 0 1 0 1.5H9.527c-.278 0-.502.09-.613.183-.05.041-.062.07-.064.078Z" clip-rule="evenodd"/>
  <path fill-rule="evenodd" d="M15.15 5.511c0 .004.009.026-.009.085a3.04 3.04 0 0 1-.17.433c-.223.468-.448 1.052-.448 1.703v3.236c0 .858.37 1.642.93 2.222.415.428.74.82.994 1.17.11.15.135.263.138.331a.314.314 0 0 1-.062.197c-.098.14-.358.316-.796.316h-4.272a.75.75 0 1 0 0 1.5h4.272c.818 0 1.59-.333 2.026-.957.467-.67.446-1.53-.093-2.27-.298-.41-.669-.855-1.128-1.33-.327-.338-.51-.76-.51-1.18V7.733c0-.314.111-.655.303-1.057a4.45 4.45 0 0 0 .253-.649c.216-.723-.06-1.35-.53-1.744-.436-.364-1.024-.532-1.576-.532h-3.017a.75.75 0 1 0 0 1.5h3.017c.278 0 .502.09.613.183.05.041.062.07.064.078Z" clip-rule="evenodd"/>
</svg>
