<svg xmlns="http://www.w3.org/2000/svg" width="24" height="24" viewBox="0 0 24 24">
  <g class="pin-outline">
    <g class="Vector">
      <path fill-rule="evenodd" d="M12 16.143a1 1 0 0 1 1 1V21a1 1 0 0 1-2 0v-3.857a1 1 0 0 1 1-1Z" clip-rule="evenodd"/>
      <path fill-rule="evenodd" d="M8.447 4.223c0 .007.003.018.007.033.05.17.12.344.198.51.262.549.53 1.246.53 2.027v3.85c0 1.03-.442 1.97-1.109 2.666-.49.512-.873.979-1.169 1.391-.114.16-.133.269-.135.321a.253.253 0 0 0 .052.16c.089.126.352.319.83.319h4.985a1 1 0 1 1 0 2H7.652c-.987 0-1.93-.403-2.468-1.17-.58-.827-.556-1.887.095-2.795.355-.495.8-1.035 1.35-1.61.358-.373.553-.833.553-1.282v-3.85c0-.335-.118-.71-.336-1.168a5.497 5.497 0 0 1-.31-.805c-.265-.898.081-1.68.664-2.168C7.736 2.204 8.455 2 9.124 2h3.512a1 1 0 1 1 0 2H9.124c-.303 0-.536.099-.64.186a.234.234 0 0 0-.037.037Zm-.005.007Z" clip-rule="evenodd"/>
      <path fill-rule="evenodd" d="M15.553 4.223a3.5 3.5 0 0 1-.206.543c-.26.549-.529 1.246-.529 2.027v3.85c0 1.03.442 1.97 1.109 2.666.49.512.873.979 1.169 1.391.114.16.133.269.135.321a.253.253 0 0 1-.052.16c-.089.126-.352.319-.83.319h-4.985a1 1 0 1 0 0 2h4.985c.986 0 1.928-.403 2.467-1.17.58-.827.556-1.887-.095-2.795-.355-.495-.8-1.035-1.35-1.61-.358-.373-.553-.833-.553-1.282v-3.85c0-.335.118-.71.335-1.168.116-.243.226-.515.311-.805.265-.898-.081-1.68-.664-2.168C16.264 2.204 15.545 2 14.876 2h-3.512a1 1 0 1 0 0 2h3.512c.303 0 .536.099.64.186.02.017.031.03.037.037Zm.005.007Z" clip-rule="evenodd"/>
    </g>
  </g>
</svg>
