<svg xmlns="http://www.w3.org/2000/svg" width="24" height="24" viewBox="0 0 24 24">
  <g class="play-circle-outline">
    <g class="Vector">
      <path fill-rule="evenodd" d="M22 12c0 5.523-4.477 10-10 10S2 17.523 2 12 6.477 2 12 2s10 4.477 10 10Zm-10 8a8 8 0 1 0 0-16 8 8 0 0 0 0 16Z" clip-rule="evenodd"/>
      <path fill-rule="evenodd" d="M8 14.091v-4.22c0-1.874 1.954-3.108 3.646-2.302l4.22 2.01c1.898.903 1.949 3.585.087 4.56l-4.22 2.21C10.035 17.24 8 16.009 8 14.092Zm2.805.487a.55.55 0 0 1-.805-.487v-4.22a.55.55 0 0 1 .787-.496l4.22 2.009a.55.55 0 0 1 .018.984l-4.22 2.21Z" clip-rule="evenodd"/>
    </g>
  </g>
</svg>
