<svg xmlns="http://www.w3.org/2000/svg" width="24" height="26" viewBox="0 0 24 26">
  <path fill-rule="evenodd" d="M12 5.4a7 7 0 1 0 0 14 7 7 0 0 0 0-14Zm-8.5 7a8.5 8.5 0 1 1 17 0 8.5 8.5 0 0 1-17 0Z" clip-rule="evenodd"/>
  <path fill-rule="evenodd" d="m11.928 8.955 3.462 1.813c1.397.732 1.437 2.717.07 3.505l-3.462 1.995C10.665 17.036 9 16.074 9 14.535v-3.809c0-1.503 1.596-2.469 2.928-1.771Zm-.696 1.329a.5.5 0 0 0-.732.442v3.809a.5.5 0 0 0 .75.433l3.462-1.995a.5.5 0 0 0-.018-.876l-3.462-1.813Z" clip-rule="evenodd"/>
</svg>
