<svg xmlns="http://www.w3.org/2000/svg" width="24" height="24" viewBox="0 0 24 24">
  <g class="power-outline">
    <g class="Vector">
      <path fill-rule="evenodd" d="M12 2a1 1 0 0 1 1 1v8a1 1 0 1 1-2 0V3a1 1 0 0 1 1-1Z" clip-rule="evenodd"/>
      <path fill-rule="evenodd" d="M6.343 6.343a8 8 0 1 0 11.314 0A1 1 0 1 1 19.07 4.93c3.905 3.905 3.905 10.237 0 14.142-3.905 3.905-10.237 3.905-14.142 0-3.905-3.905-3.905-10.237 0-14.142a1 1 0 0 1 1.414 1.414Z" clip-rule="evenodd"/>
    </g>
  </g>
</svg>
