<svg xmlns="http://www.w3.org/2000/svg" width="24" height="24" viewBox="0 0 24 24">
  <g class="printer-outline">
    <g class="Vector">
      <path fill-rule="evenodd" d="M8 4v2h8v-.957L14.396 4H8Zm-2-.5A1.5 1.5 0 0 1 7.5 2h7.044c.29 0 .574.084.818.242l1.955 1.272A1.5 1.5 0 0 1 18 4.77V6.5A1.5 1.5 0 0 1 16.5 8h-9A1.5 1.5 0 0 1 6 6.5v-3ZM16 16H8v4h8v-4Zm-8-2a2 2 0 0 0-2 2v4a2 2 0 0 0 2 2h8a2 2 0 0 0 2-2v-4a2 2 0 0 0-2-2H8Z" clip-rule="evenodd"/>
      <path d="M16.643 9.857c0-.473.384-.857.857-.857h.571a.857.857 0 1 1 0 1.714H17.5a.857.857 0 0 1-.857-.857Z"/>
      <path fill-rule="evenodd" d="M2 10a4 4 0 0 1 4-4h12a4 4 0 0 1 4 4v5a4 4 0 0 1-4 4h-1a1 1 0 1 1 0-2h1a2 2 0 0 0 2-2v-5a2 2 0 0 0-2-2H6a2 2 0 0 0-2 2v5a2 2 0 0 0 2 2h1a1 1 0 1 1 0 2H6a4 4 0 0 1-4-4v-5Z" clip-rule="evenodd"/>
    </g>
  </g>
</svg>
