<svg xmlns="http://www.w3.org/2000/svg" width="24" height="24" viewBox="0 0 24 24">
  <path fill-rule="evenodd" d="M7 6.5h10a3.5 3.5 0 0 1 3.5 3.5v4.5a3 3 0 0 1-3 3H17l-1 2H8l-1-2h-.5a3 3 0 0 1-3-3V10A3.5 3.5 0 0 1 7 6.5ZM7 8a2 2 0 0 0-2 2v4.5A1.5 1.5 0 0 0 6.5 16H7l1 3h8l1-3h.5a1.5 1.5 0 0 0 1.5-1.5V10a2 2 0 0 0-2-2H7Z" clip-rule="evenodd"/>
  <path fill-rule="evenodd" d="M8.75 4.75v1.5h6.5v-.704l-1.307-.796H8.75Zm-1.5-.35c0-.635.515-1.15 1.15-1.15h5.642c.21 0 .418.058.598.168l1.558.95c.343.208.552.58.552.982V6.6a1.15 1.15 0 0 1-1.15 1.15H8.4A1.15 1.15 0 0 1 7.25 6.6V4.4ZM8.5 14.5v4h7v-4h-7ZM8 13a1 1 0 0 0-1 1v5a1 1 0 0 0 1 1h8a1 1 0 0 0 1-1v-5a1 1 0 0 0-1-1H8Z" clip-rule="evenodd"/>
  <path d="M16 9.75a.75.75 0 0 1 .75-.75h.5a.75.75 0 0 1 0 1.5h-.5a.75.75 0 0 1-.75-.75Z"/>
</svg>
