<svg xmlns="http://www.w3.org/2000/svg" width="24" height="24" viewBox="0 0 24 24">
  <g class="radar-outline">
    <g class="Vector">
      <path fill-rule="evenodd" d="M3.924 17.897a10 10 0 0 1 .26-12.135A1 1 0 1 1 5.747 7.01a8 8 0 1 0 7.599-2.896 1 1 0 0 1 .336-1.971 10 10 0 1 1-9.758 15.754Z" clip-rule="evenodd"/>
      <path fill-rule="evenodd" d="M7.191 15.588a6 6 0 0 1 .097-7.303 1 1 0 0 1 1.57 1.239 4 4 0 1 0 3.72-1.482 1 1 0 1 1 .29-1.979A6 6 0 1 1 7.19 15.59Z" clip-rule="evenodd"/>
      <path fill-rule="evenodd" d="M3.293 3.293a1 1 0 0 1 1.414 0l8 8a1 1 0 0 1-1.414 1.414l-8-8a1 1 0 0 1 0-1.414Z" clip-rule="evenodd"/>
      <path d="M11 12.5a1.5 1.5 0 1 1 3 0 1.5 1.5 0 0 1-3 0Z"/>
    </g>
  </g>
</svg>
