<svg xmlns="http://www.w3.org/2000/svg" width="24" height="24" viewBox="0 0 24 24">
  <g class="refresh-outline">
    <g class="Vector">
      <path fill-rule="evenodd" d="M17.501 8.196c-1.873-3.246-6.008-4.358-9.234-2.494a6.702 6.702 0 0 0-2.804 3.137A1 1 0 1 1 3.63 8.04a8.703 8.703 0 0 1 3.637-4.07c4.188-2.42 9.544-.971 11.966 3.225a8.78 8.78 0 0 1 1.112 3.303l-1.984.25a6.78 6.78 0 0 0-.86-2.552Z" clip-rule="evenodd"/>
      <path fill-rule="evenodd" d="M21.268 7.489c.43.2.616.71.416 1.138l-1.227 2.635a1.086 1.086 0 0 1-1.445.523l-2.636-1.236a.857.857 0 1 1 .728-1.551l2.064.969.96-2.064a.857.857 0 0 1 1.14-.414ZM6.499 15.804c1.873 3.246 6.008 4.358 9.234 2.494a6.702 6.702 0 0 0 2.804-3.137 1 1 0 1 1 1.833.799 8.704 8.704 0 0 1-3.637 4.07c-4.188 2.42-9.545.971-11.966-3.225a8.78 8.78 0 0 1-1.112-3.303l1.984-.25c.11.873.39 1.74.86 2.552Z" clip-rule="evenodd"/>
      <path fill-rule="evenodd" d="M2.732 16.511a.857.857 0 0 1-.416-1.138l1.227-2.635a1.086 1.086 0 0 1 1.445-.523l2.635 1.236a.857.857 0 1 1-.727 1.551l-2.064-.969-.96 2.064a.857.857 0 0 1-1.14.414Z" clip-rule="evenodd"/>
    </g>
  </g>
</svg>
