<svg xmlns="http://www.w3.org/2000/svg" width="24" height="24" viewBox="0 0 24 24">
  <g class="rotate-left-outline">
    <g class="Vector">
      <path fill-rule="evenodd" d="M12 6.05c3.869 0 7 3.126 7 6.975C19 16.875 15.869 20 12 20s-7-3.126-7-6.975c0-1.07.242-2.083.673-2.987a1 1 0 0 0-1.806-.86A8.923 8.923 0 0 0 3 13.024C3 17.985 7.032 22 12 22s9-4.015 9-8.975-4.032-8.974-9-8.974c-1.24 0-2.425.25-3.502.705l.777 1.843A6.997 6.997 0 0 1 12 6.05Z" clip-rule="evenodd"/>
      <path fill-rule="evenodd" d="M10.194 2.233a.857.857 0 0 0-1.15.385L7.713 5.301a1.086 1.086 0 0 0 .493 1.456l2.691 1.329a.857.857 0 1 0 .758-1.536L9.53 5.5l1.053-2.118a.857.857 0 0 0-.388-1.149Z" clip-rule="evenodd"/>
    </g>
  </g>
</svg>
