<svg xmlns="http://www.w3.org/2000/svg" width="24" height="24" viewBox="0 0 24 24">
  <g class="rotate-right-outline">
    <g class="Vector">
      <path fill-rule="evenodd" d="M12 6.05c-3.869 0-7 3.126-7 6.975C5 16.875 8.131 20 12 20s7-3.126 7-6.975a6.923 6.923 0 0 0-.673-2.987 1 1 0 0 1 1.806-.86A8.923 8.923 0 0 1 21 13.024C21 17.985 16.968 22 12 22s-9-4.015-9-8.975 4.032-8.974 9-8.974c1.24 0 2.425.25 3.502.705l-.777 1.843A6.997 6.997 0 0 0 12 6.05Z" clip-rule="evenodd"/>
      <path fill-rule="evenodd" d="M13.806 2.233a.857.857 0 0 1 1.15.385l1.332 2.683c.267.537.046 1.19-.493 1.456l-2.691 1.329a.857.857 0 1 1-.758-1.536L14.47 5.5l-1.053-2.118a.857.857 0 0 1 .388-1.149Z" clip-rule="evenodd"/>
    </g>
  </g>
</svg>
