<svg xmlns="http://www.w3.org/2000/svg" width="24" height="24" viewBox="0 0 24 24">
  <path fill-rule="evenodd" d="M4.955 8.001a1 1 0 0 1 1.044.954l.413 9.09a1 1 0 0 0 1 .955h9.177a1 1 0 0 0 .999-.954L18 8.955a1 1 0 1 1 1.998.09l-.413 9.091A3 3 0 0 1 16.589 21H7.41a3 3 0 0 1-2.997-2.864L4 9.046A1 1 0 0 1 4.955 8Z" clip-rule="evenodd"/>
  <path fill-rule="evenodd" d="M4.795 3h14.437c.11 0 .29 0 .456.013.204.016.552.062.93.25a2.5 2.5 0 0 1 1.118 1.12c.189.377.235.725.251.929.013.166.013.346.013.456v1.464c0 .11 0 .29-.013.456a2.505 2.505 0 0 1-.25.93 2.5 2.5 0 0 1-1.12 1.118 2.506 2.506 0 0 1-.929.251c-.166.013-.346.013-.456.013H4.768c-.11 0-.29 0-.456-.013a2.505 2.505 0 0 1-.93-.25 2.5 2.5 0 0 1-1.118-1.12 2.505 2.505 0 0 1-.25-.929C2 7.522 2 7.342 2 7.232V5.768c0-.11 0-.29.013-.456a2.51 2.51 0 0 1 .25-.93 2.5 2.5 0 0 1 1.12-1.118c.377-.189.725-.235.929-.25C4.478 3 4.658 3 4.768 3h.027Zm-.742 2.277C4 5.382 4 5.52 4 5.795v1.41c0 .275 0 .413.053.519a.5.5 0 0 0 .224.223C4.382 8 4.52 8 4.795 8h14.41c.275 0 .413 0 .519-.053a.5.5 0 0 0 .223-.223C20 7.618 20 7.48 20 7.205v-1.41c0-.275 0-.413-.053-.518a.5.5 0 0 0-.223-.224C19.617 5 19.48 5 19.205 5H4.795c-.275 0-.413 0-.518.053a.5.5 0 0 0-.224.224ZM12 12.5a1 1 0 0 1 1-1h5a1 1 0 0 1 0 2h-5a1 1 0 0 1-1-1Zm0 4a1 1 0 0 1 1-1h5a1 1 0 0 1 0 2h-5a1 1 0 0 1-1-1Z" clip-rule="evenodd"/>
</svg>
