<svg xmlns="http://www.w3.org/2000/svg" width="24" height="24" viewBox="0 0 24 24">
  <path fill-rule="evenodd" d="M9.39 4.965c0-.935.758-1.693 1.693-1.693h2.01c.968 0 1.753.785 1.753 1.753v.203l.008.015c.01.014.029.031.055.042.027.012.05.013.067.01.015-.002.02-.006.021-.008l.117-.116a1.697 1.697 0 0 1 2.4 0l1.421 1.421c.683.683.683 1.79 0 2.473l-.09.09h.13c.968 0 1.753.784 1.753 1.752v2.01c0 .935-.758 1.693-1.693 1.693h-.096a.123.123 0 0 0-.074.028.252.252 0 0 0-.082.108c-.04.1-.008.171.018.197l.112.112a1.78 1.78 0 0 1 0 2.517l-1.34 1.341a1.78 1.78 0 0 1-2.518 0l-.181-.181a.052.052 0 0 0-.022.008.104.104 0 0 0-.005.004h-.001v.231c0 .968-.785 1.753-1.753 1.753h-2.01a1.693 1.693 0 0 1-1.693-1.693v-.145c0-.005-.001-.016-.014-.033a.164.164 0 0 0-.072-.054.15.15 0 0 0-.08-.01.058.058 0 0 0-.033.016l-.126.127a1.748 1.748 0 0 1-2.473 0l-1.421-1.422a1.697 1.697 0 0 1 0-2.4l.036-.037c.046-.045.085-.15.03-.282-.057-.138-.164-.185-.223-.185h-.049a1.693 1.693 0 0 1-1.693-1.693v-2.01c0-.968.785-1.753 1.753-1.753h.23l.002-.001a.057.057 0 0 0 .011-.027l-.12-.121a1.664 1.664 0 0 1 0-2.353l1.504-1.505c.65-.65 1.703-.65 2.353 0l.052.052c.026.026.096.059.197.018a.252.252 0 0 0 .108-.082.124.124 0 0 0 .028-.074v-.096Zm1.693-.237a.237.237 0 0 0-.237.237v.096c0 .708-.468 1.271-1.045 1.505-.574.233-1.284.152-1.774-.338l-.051-.051a.208.208 0 0 0-.295 0L6.177 7.68a.208.208 0 0 0 0 .295l.131.13c.44.442.517 1.085.296 1.603a1.46 1.46 0 0 1-1.333.901h-.246a.297.297 0 0 0-.297.297v2.01c0 .131.106.237.237.237h.049c.736 0 1.321.488 1.568 1.085.25.601.171 1.351-.345 1.867l-.037.037a.241.241 0 0 0 0 .341l1.422 1.422a.292.292 0 0 0 .413 0l.127-.127c.462-.462 1.132-.546 1.679-.329.557.221 1.005.763 1.005 1.44v.145c0 .131.106.237.237.237h2.01a.297.297 0 0 0 .297-.297v-.246c0-.616.394-1.118.9-1.333a1.456 1.456 0 0 1 1.603.296l.192.192a.324.324 0 0 0 .458 0l1.34-1.341a.324.324 0 0 0 0-.458l-.111-.112c-.49-.49-.57-1.2-.338-1.774.234-.577.797-1.045 1.505-1.045h.096a.237.237 0 0 0 .237-.237v-2.01a.297.297 0 0 0-.297-.297h-.294a1.383 1.383 0 0 1-1.268-.86 1.38 1.38 0 0 1 .286-1.508l.207-.207a.292.292 0 0 0 0-.413L16.484 6.2a.241.241 0 0 0-.34 0l-.117.116c-.468.468-1.151.542-1.697.305-.527-.228-.94-.752-.94-1.398v-.198a.297.297 0 0 0-.297-.297h-2.01Z" clip-rule="evenodd"/>
  <path fill-rule="evenodd" d="M14.397 12a2.397 2.397 0 1 1-4.794 0 2.397 2.397 0 0 1 4.794 0ZM12 12.941a.941.941 0 1 0 0-1.882.941.941 0 0 0 0 1.882Z" clip-rule="evenodd"/>
</svg>
