<svg xmlns="http://www.w3.org/2000/svg" width="24" height="24" viewBox="0 0 24 24">
  <g class="settings-outline">
    <g class="Vector">
      <path fill-rule="evenodd" d="M8.882 4.086C8.882 2.934 9.816 2 10.968 2h2.261c1.19 0 2.153.964 2.153 2.153v.028a2.09 2.09 0 0 1 2.949.008l1.6 1.6c.776.776.834 2 .17 2.844A2.154 2.154 0 0 1 22 10.77v2.26a2.086 2.086 0 0 1-2.086 2.087h-.089a.117.117 0 0 0-.034.077l.114.114a2.184 2.184 0 0 1 0 3.088l-1.508 1.508c-.83.83-2.161.852-3.018.067A2.153 2.153 0 0 1 13.229 22h-2.261a2.085 2.085 0 0 1-2.086-2.085v-.041l-.056.057a2.148 2.148 0 0 1-3.038 0l-1.6-1.6a2.09 2.09 0 0 1 0-2.956l.042-.041.003-.004a.066.066 0 0 0 .005-.02.184.184 0 0 0-.014-.096.203.203 0 0 0-.064-.085.072.072 0 0 0-.019-.01l-.001-.001h-.055A2.085 2.085 0 0 1 2 13.032v-2.261c0-1.15.902-2.09 2.036-2.15a2.053 2.053 0 0 1 .126-2.766l1.693-1.693a2.053 2.053 0 0 1 2.904 0l.046.047h.01a.121.121 0 0 0 .068-.034v-.09ZM10.968 4a.086.086 0 0 0-.086.086v.108c0 .88-.58 1.574-1.288 1.86-.705.286-1.583.189-2.191-.419l-.059-.058a.053.053 0 0 0-.074 0L5.577 7.27a.053.053 0 0 0 0 .074l.147.148c.554.553.646 1.357.372 2.002-.267.629-.893 1.124-1.667 1.124h-.276A.153.153 0 0 0 4 10.77v2.262c0 .047.038.086.085.086h.055c.913 0 1.63.603 1.932 1.332.304.734.211 1.659-.428 2.298l-.041.041a.09.09 0 0 0 0 .128l1.6 1.6a.148.148 0 0 0 .208 0l.143-.143c.577-.577 1.41-.678 2.084-.41.686.271 1.244.942 1.244 1.788v.163c0 .047.039.085.086.085h2.261a.153.153 0 0 0 .153-.153v-.277c0-.774.495-1.399 1.124-1.666.645-.274 1.448-.182 2.002.372l.215.215a.184.184 0 0 0 .26 0l1.508-1.508a.184.184 0 0 0 0-.26l-.126-.126c-.608-.608-.705-1.486-.42-2.19.287-.708.981-1.29 1.86-1.29h.11a.086.086 0 0 0 .085-.085V10.77a.153.153 0 0 0-.153-.153h-.332c-.74 0-1.34-.473-1.593-1.08a1.733 1.733 0 0 1 .362-1.894l.232-.232a.148.148 0 0 0 0-.21l-1.6-1.599a.09.09 0 0 0-.127 0l-.13.131c-.586.585-1.435.674-2.11.38-.65-.281-1.167-.93-1.167-1.738v-.223A.153.153 0 0 0 13.23 4h-2.261Z" clip-rule="evenodd"/>
      <path fill-rule="evenodd" d="M15.059 12a3.059 3.059 0 1 1-6.118 0 3.059 3.059 0 0 1 6.118 0Zm-3.06 1.059a1.059 1.059 0 1 0 0-2.118 1.059 1.059 0 0 0 0 2.118Z" clip-rule="evenodd"/>
    </g>
  </g>
</svg>
