<svg xmlns="http://www.w3.org/2000/svg" width="24" height="24" viewBox="0 0 24 24">
  <path fill-rule="evenodd" d="M22 18.5a3.5 3.5 0 1 1-7 0 3.5 3.5 0 0 1 7 0ZM18.5 20a1.5 1.5 0 1 0 0-3 1.5 1.5 0 0 0 0 3ZM9 11.5a3.5 3.5 0 1 1-7 0 3.5 3.5 0 0 1 7 0ZM5.5 13a1.5 1.5 0 1 0 0-3 1.5 1.5 0 0 0 0 3ZM22 5.5a3.5 3.5 0 1 0-7 0 3.5 3.5 0 0 0 7 0ZM18.5 4a1.5 1.5 0 1 1 0 3 1.5 1.5 0 0 1 0-3Z" clip-rule="evenodd"/>
  <path fill-rule="evenodd" d="M9 11.5a3.5 3.5 0 1 0-7 0 3.5 3.5 0 0 0 7 0ZM5.5 10a1.5 1.5 0 1 1 0 3 1.5 1.5 0 0 1 0-3Z" clip-rule="evenodd"/>
  <path fill-rule="evenodd" d="M16.617 18.065a1 1 0 0 0-.388-1.36l-8.243-4.58a1 1 0 0 0-.972 1.75l8.244 4.579a1 1 0 0 0 1.36-.389Zm.115-12.168a1 1 0 0 1-.508 1.32l-8.318 3.697a1 1 0 0 1-.812-1.828l8.318-3.697a1 1 0 0 1 1.32.508Z" clip-rule="evenodd"/>
</svg>
