<svg xmlns="http://www.w3.org/2000/svg" width="24" height="24" viewBox="0 0 24 24">
  <g class="shield-alert-outline">
    <g class="Vector">
      <path fill-rule="evenodd" d="M11.061 2.36a2.91 2.91 0 0 1 1.878 0l6 2.045a2.91 2.91 0 0 1 1.97 2.753v7.894a2.91 2.91 0 0 1-1.408 2.492l-6 3.613a2.91 2.91 0 0 1-3.002 0l-6-3.613a2.91 2.91 0 0 1-1.408-2.492V7.158a2.91 2.91 0 0 1 1.97-2.753l6-2.045Zm1.291 1.72a1.09 1.09 0 0 0-.704 0l-6 2.046a1.09 1.09 0 0 0-.739 1.032v7.894c0 .382.2.737.528.934l6 3.614c.346.208.78.208 1.126 0l6-3.614a1.09 1.09 0 0 0 .528-.934V7.158a1.09 1.09 0 0 0-.739-1.032l-6-2.046Z" clip-rule="evenodd"/>
      <path fill-rule="evenodd" d="M12 13a1 1 0 0 1-1-1V8a1 1 0 1 1 2 0v4a1 1 0 0 1-1 1Z" clip-rule="evenodd"/>
      <path d="M11 15a1 1 0 1 1 2 0 1 1 0 0 1-2 0Z"/>
    </g>
  </g>
</svg>
