<svg xmlns="http://www.w3.org/2000/svg" width="24" height="24" viewBox="0 0 24 24">
  <g class="shield-outline">
    <path fill-rule="evenodd" d="M11.061 2.36a2.91 2.91 0 0 1 1.878 0l5.856 1.996A2.909 2.909 0 0 1 20.75 7.39l-.758 7.792a2.909 2.909 0 0 1-1.205 2.085l-5.118 3.657a2.91 2.91 0 0 1-3.34.029l-5.077-3.495a2.91 2.91 0 0 1-1.247-2.119l-.76-7.953a2.91 2.91 0 0 1 1.957-3.03L11.06 2.36Zm1.291 1.72a1.09 1.09 0 0 0-.704 0L5.789 6.078a1.09 1.09 0 0 0-.734 1.136l.761 7.953c.03.32.202.612.468.795l5.076 3.494c.378.26.88.256 1.253-.01l5.119-3.657a1.09 1.09 0 0 0 .451-.782l.759-7.792a1.091 1.091 0 0 0-.734-1.138L12.352 4.08Z" class="Vector 69 (Stroke)" clip-rule="evenodd"/>
  </g>
</svg>
