<svg xmlns="http://www.w3.org/2000/svg" width="24" height="24" viewBox="0 0 24 24">
  <path fill-rule="evenodd" d="M17.793 3.693a1 1 0 0 1 1.414 0l2.5 2.5a1 1 0 0 1 0 1.414l-2.5 2.5a1 1 0 1 1-1.414-1.414L19.586 6.9l-1.793-1.793a1 1 0 0 1 0-1.414Zm0 10.15a1 1 0 0 1 1.414 0l2.5 2.5a1 1 0 0 1 0 1.414l-2.5 2.5a1 1 0 1 1-1.414-1.414l1.793-1.793-1.793-1.793a1 1 0 0 1 0-1.414Z" clip-rule="evenodd"/>
  <path fill-rule="evenodd" d="M19.054 5.913c.352.023.657.043.946.043a1 1 0 1 1 0 2c-.346 0-.776-.028-1.184-.054a37.05 37.05 0 0 0-.606-.037c-.614-.03-1.118-.02-1.482.065-1.456.341-3.07 1.481-4.394 4.117 1.304 2.555 2.9 3.529 4.394 3.879.364.085.868.094 1.482.064.186-.009.393-.022.606-.036A19.41 19.41 0 0 1 20 15.899a1 1 0 1 1 0 2c-.289 0-.594.02-.946.044-.227.015-.473.032-.747.045-.63.03-1.377.04-2.035-.115-1.812-.424-3.549-1.493-4.972-3.634-.553 1.02-1.177 1.822-1.927 2.427-.978.788-2.12 1.106-3.213 1.24-.882.108-1.81.102-2.64.096L3 18a1 1 0 1 1 0-2l.582.002c.824.005 1.593.01 2.335-.08.892-.11 1.624-.348 2.201-.813.687-.554 1.323-1.447 1.962-2.95l.046-.109a15.467 15.467 0 0 1-.046-.109c-.651-1.53-1.303-2.495-2.015-3.103-.56-.477-1.277-.726-2.161-.845-.763-.102-1.562-.099-2.42-.095L3 7.899a1 1 0 1 1 0-2l.445-.001c.853-.004 1.813-.01 2.724.113 1.094.146 2.234.486 3.194 1.305.75.64 1.375 1.481 1.93 2.52 1.408-2.187 3.136-3.421 4.979-3.853.658-.154 1.405-.145 2.035-.115.274.013.52.03.747.045Z" clip-rule="evenodd"/>
</svg>
