<svg xmlns="http://www.w3.org/2000/svg" width="24" height="24" viewBox="0 0 24 24">
  <g class="sliders-outline">
    <g class="Vector">
      <path fill-rule="evenodd" d="M14 7a1 1 0 0 1 1-1h6a1 1 0 1 1 0 2h-6a1 1 0 0 1-1-1ZM2 7a1 1 0 0 1 1-1h2a1 1 0 0 1 0 2H3a1 1 0 0 1-1-1Zm0 11a1 1 0 0 1 1-1h6a1 1 0 1 1 0 2H3a1 1 0 0 1-1-1Zm16 0a1 1 0 0 1 1-1h2a1 1 0 1 1 0 2h-2a1 1 0 0 1-1-1Z" clip-rule="evenodd"/>
      <path fill-rule="evenodd" d="M8 3h2a3 3 0 0 1 3 3v1a3 3 0 0 1-3 3H8a3 3 0 0 1-3-3V6a3 3 0 0 1 3-3Zm0 2a1 1 0 0 0-1 1v1a1 1 0 0 0 1 1h2a1 1 0 0 0 1-1V6a1 1 0 0 0-1-1H8Zm6 9h2a3 3 0 0 1 3 3v1a3 3 0 0 1-3 3h-2a3 3 0 0 1-3-3v-1a3 3 0 0 1 3-3Zm0 2a1 1 0 0 0-1 1v1a1 1 0 0 0 1 1h2a1 1 0 0 0 1-1v-1a1 1 0 0 0-1-1h-2Z" clip-rule="evenodd"/>
    </g>
  </g>
</svg>
