<svg xmlns="http://www.w3.org/2000/svg" width="24" height="25" fill="none" viewBox="0 0 24 25">
  <path fill="#3B4754" fill-rule="evenodd" d="M7.5 2.286a1 1 0 0 0-1 1v12a1 1 0 1 0 2 0v-12a1 1 0 0 0-1-1Z" clip-rule="evenodd"/>
  <path fill="#3B4754" fill-rule="evenodd" d="M8.207 2.579a1 1 0 0 0-1.414 0l-3.5 3.5a1 1 0 1 0 1.414 1.414L7.5 4.7l2.793 2.793a1 1 0 1 0 1.414-1.414l-3.5-3.5Z" clip-rule="evenodd"/>
  <path fill="#ACB8C3" fill-rule="evenodd" d="M16.5 22.286a1 1 0 0 0 1-1v-12a1 1 0 1 0-2 0v12a1 1 0 0 0 1 1Z" clip-rule="evenodd"/>
  <path fill="#ACB8C3" fill-rule="evenodd" d="M15.793 21.993a1 1 0 0 0 1.414 0l3.5-3.5a1 1 0 0 0-1.414-1.414L16.5 19.872l-2.793-2.793a1 1 0 0 0-1.414 1.414l3.5 3.5Z" clip-rule="evenodd"/>
</svg>
