<svg xmlns="http://www.w3.org/2000/svg" width="24" height="24" viewBox="0 0 24 24">
  <g class="sparks-outline">
    <path fill-rule="evenodd" d="M9.529 12.465c.674-1.834 3.268-1.834 3.942 0l.539 1.466a.1.1 0 0 0 .06.06l1.465.538c1.834.674 1.834 3.268 0 3.942l-1.466.539a.1.1 0 0 0-.06.06l-.538 1.465c-.674 1.834-3.268 1.834-3.942 0l-.539-1.466a.1.1 0 0 0-.06-.06l-1.465-.538c-1.834-.674-1.834-3.268 0-3.942l1.466-.539a.1.1 0 0 0 .06-.06l.538-1.465Zm1.897.652a.135.135 0 0 0-.02.038l-.538 1.466a2.1 2.1 0 0 1-1.247 1.247l-1.466.538a.135.135 0 0 0-.038.02.056.056 0 0 0-.012.013.114.114 0 0 0-.016.061c0 .03.009.05.016.06a.04.04 0 0 0 .012.014.134.134 0 0 0 .038.02l1.466.538a2.1 2.1 0 0 1 1.247 1.247l.538 1.466a.134.134 0 0 0 .02.038.054.054 0 0 0 .013.012c.01.007.032.015.061.015.03 0 .05-.008.061-.015a.056.056 0 0 0 .013-.012.134.134 0 0 0 .02-.038l.538-1.466a2.1 2.1 0 0 1 1.247-1.247l1.466-.538a.135.135 0 0 0 .038-.02.056.056 0 0 0 .012-.013.113.113 0 0 0 .016-.061c0-.03-.009-.05-.016-.061a.058.058 0 0 0-.012-.013.135.135 0 0 0-.038-.02l-1.466-.538a2.1 2.1 0 0 1-1.247-1.247l-.538-1.466a.135.135 0 0 0-.02-.038.058.058 0 0 0-.013-.012.114.114 0 0 0-.061-.016c-.03 0-.05.009-.06.016a.056.056 0 0 0-.014.012Zm-5.93-9.451c.65-1.189 2.358-1.189 3.008 0l.647 1.183 1.183.647c1.189.65 1.189 2.358 0 3.008l-1.183.647-.647 1.183c-.65 1.189-2.358 1.189-3.008 0l-.647-1.183-1.183-.647c-1.189-.65-1.189-2.358 0-3.008l1.183-.647.647-1.183ZM7 5.084l-.436.798a1.714 1.714 0 0 1-.682.682L5.084 7l.798.436c.288.158.524.394.682.682L7 8.916l.436-.798c.158-.288.394-.524.682-.682L8.916 7l-.798-.436a1.714 1.714 0 0 1-.682-.682L7 5.084Zm8.745.04c.759-1.387 2.751-1.387 3.51 0l.573 1.048 1.048.573c1.387.759 1.387 2.751 0 3.51l-1.048.573-.573 1.048c-.759 1.387-2.751 1.387-3.51 0l-.573-1.048-1.048-.573c-1.387-.759-1.387-2.751 0-3.51l1.048-.573.573-1.048Zm1.755.96-.573 1.048a2 2 0 0 1-.795.795l-1.048.573 1.048.573a2 2 0 0 1 .795.795l.573 1.048.573-1.048a2 2 0 0 1 .795-.795l1.048-.573-1.048-.573a2 2 0 0 1-.795-.795L17.5 6.084Z" class="Vector" clip-rule="evenodd"/>
  </g>
</svg>
