<svg xmlns="http://www.w3.org/2000/svg" width="24" height="24" viewBox="0 0 24 24">
  <g class="star-outline">
    <path fill-rule="evenodd" d="m15.974 7.03-1.19-2.964c-1.008-2.51-4.56-2.51-5.568 0L8.026 7.03l-3.187.216c-2.698.183-3.796 3.561-1.72 5.295l2.45 2.048-.779 3.098c-.66 2.623 2.214 4.71 4.505 3.273L12 19.262l2.705 1.698c2.29 1.438 5.165-.65 4.505-3.273l-.78-3.098 2.452-2.048c2.075-1.734.977-5.112-1.72-5.295l-3.188-.216Zm-3.046-2.22c-.336-.836-1.52-.836-1.856 0L9.648 8.359a1 1 0 0 1-.86.625l-3.814.258c-.9.061-1.265 1.188-.574 1.766l2.934 2.45a1 1 0 0 1 .328 1.011l-.932 3.707c-.22.874.738 1.57 1.501 1.091l3.237-2.032a1 1 0 0 1 1.064 0l3.237 2.032c.763.48 1.721-.217 1.501-1.09l-.932-3.707a1 1 0 0 1 .328-1.012l2.934-2.45c.691-.579.325-1.705-.574-1.766l-3.813-.258a1 1 0 0 1-.86-.625L12.927 4.81Z" class="Vector" clip-rule="evenodd"/>
  </g>
</svg>
