<svg xmlns="http://www.w3.org/2000/svg" width="24" height="24" viewBox="0 0 24 24">
  <path fill-rule="evenodd" d="M15.396 7.826 14.22 4.961c-.814-1.986-3.626-1.986-4.44 0L8.604 7.826l-3.088.232c-2.14.161-3.009 2.836-1.372 4.224l2.362 2.003-.734 3.009c-.508 2.085 1.767 3.738 3.593 2.61L12 18.277l2.635 1.627c1.826 1.128 4.101-.525 3.593-2.61l-.734-3.009 2.362-2.003c1.637-1.388.768-4.063-1.372-4.224l-3.088-.232ZM12.833 5.53c-.306-.744-1.36-.744-1.666 0L9.852 8.738a.9.9 0 0 1-.766.556l-3.457.26c-.803.06-1.129 1.064-.515 1.584l2.645 2.243a.9.9 0 0 1 .292.9l-.821 3.368c-.191.782.662 1.402 1.347.98l2.95-1.823a.9.9 0 0 1 .946 0l2.95 1.822c.685.423 1.538-.197 1.347-.979l-.82-3.369a.9.9 0 0 1 .291-.9l2.645-2.242c.614-.52.288-1.523-.515-1.584l-3.457-.26a.9.9 0 0 1-.765-.556L12.832 5.53Z" clip-rule="evenodd"/>
</svg>
