<svg xmlns="http://www.w3.org/2000/svg" width="24" height="24" viewBox="0 0 24 24">
  <path fill-rule="evenodd" d="M19 12a1 1 0 0 1 1 1v3.429C20 19.713 16.903 22 13.5 22 10.076 22 7 19.628 7 16.36V14a1 1 0 1 1 2 0v2.36C9 18.219 10.848 20 13.5 20c2.672 0 4.5-1.732 4.5-3.571V13a1 1 0 0 1 1-1Z" clip-rule="evenodd"/>
  <path fill-rule="evenodd" d="M4.828 4A.828.828 0 0 0 4 4.828v5.12C4 11.537 5.466 13 7.5 13S11 11.537 11 9.947v-5.26A.687.687 0 0 0 10.312 4h-.609a1 1 0 0 1 0-2h.61A2.687 2.687 0 0 1 13 4.688v5.26C13 12.833 10.437 15 7.5 15 4.564 15 2 12.834 2 9.947V4.828A2.828 2.828 0 0 1 4.828 2h.61a1 1 0 0 1 0 2h-.61Zm14.049 4.846c-.742 0-1.23.605-1.23 1.23 0 .627.307 1.232 1.23 1.232.774 0 1.23-.533 1.23-1.231 0-.62-.37-1.23-1.23-1.23Zm3.077 1.23a3.077 3.077 0 1 1-6.154.001 3.077 3.077 0 0 1 6.154 0Z" clip-rule="evenodd"/>
</svg>
