<svg xmlns="http://www.w3.org/2000/svg" width="24" height="24" viewBox="0 0 24 24">
  <g class="stop-circle-outline">
    <g class="Vector">
      <path fill-rule="evenodd" d="M22 12c0 5.523-4.477 10-10 10S2 17.523 2 12 6.477 2 12 2s10 4.477 10 10Zm-10 8a8 8 0 1 0 0-16 8 8 0 0 0 0 16Z" clip-rule="evenodd"/>
      <path fill-rule="evenodd" d="M10 7.5h4a2.5 2.5 0 0 1 2.5 2.5v4a2.5 2.5 0 0 1-2.5 2.5h-4A2.5 2.5 0 0 1 7.5 14v-4A2.5 2.5 0 0 1 10 7.5Zm0 2a.5.5 0 0 0-.5.5v4a.5.5 0 0 0 .5.5h4a.5.5 0 0 0 .5-.5v-4a.5.5 0 0 0-.5-.5h-4Z" clip-rule="evenodd"/>
    </g>
  </g>
</svg>
