<svg xmlns="http://www.w3.org/2000/svg" width="24" height="24" viewBox="0 0 24 24">
  <g class="subtask-outline">
    <g class="Vector">
      <path fill-rule="evenodd" d="M8.308 5.148a3.15 3.15 0 0 1-3.154 3.148A3.15 3.15 0 0 1 2 5.148 3.15 3.15 0 0 1 5.154 2a3.15 3.15 0 0 1 3.154 3.148ZM5.154 6.296a1.15 1.15 0 0 0 1.154-1.148A1.15 1.15 0 0 0 5.154 4 1.15 1.15 0 0 0 4 5.148a1.15 1.15 0 0 0 1.154 1.148ZM21 18.924a3.15 3.15 0 0 1-3.154 3.147 3.15 3.15 0 0 1-3.154-3.148 3.15 3.15 0 0 1 3.154-3.147c1.732 0 3.154 1.4 3.154 3.148Zm-3.154 1.147A1.15 1.15 0 0 0 19 18.923c0-.633-.517-1.147-1.154-1.147a1.15 1.15 0 0 0-1.154 1.148 1.15 1.15 0 0 0 1.154 1.147ZM21 11.462a3.15 3.15 0 0 1-3.154 3.148 3.15 3.15 0 0 1-3.154-3.148 3.15 3.15 0 0 1 3.154-3.148A3.15 3.15 0 0 1 21 11.462Zm-3.154 1.148A1.15 1.15 0 0 0 19 11.462c0-.634-.517-1.148-1.154-1.148a1.15 1.15 0 0 0-1.154 1.148 1.15 1.15 0 0 0 1.154 1.148Z" clip-rule="evenodd"/>
      <path fill-rule="evenodd" d="M5.154 7.018a1 1 0 0 1 1 1v6.784a3.154 3.154 0 0 0 3.13 3.154l5.724.044a1 1 0 0 1-.016 2l-5.724-.044a5.154 5.154 0 0 1-5.114-5.154V8.018a1 1 0 0 1 1-1Z" clip-rule="evenodd"/>
      <path fill-rule="evenodd" d="M9.172 12.462a5.018 5.018 0 0 1-5.018-5.018h2a3.018 3.018 0 0 0 3.018 3.018H15a1 1 0 1 1 0 2H9.172Z" clip-rule="evenodd"/>
    </g>
  </g>
</svg>
