<svg xmlns="http://www.w3.org/2000/svg" width="24" height="24" viewBox="0 0 24 24">
  <path fill-rule="evenodd" d="M8.934 5.838a2.596 2.596 0 1 1-5.192 0 2.596 2.596 0 0 1 5.192 0ZM6.338 6.877a1.038 1.038 0 1 0 0-2.077 1.038 1.038 0 0 0 0 2.077ZM20.358 18.3a2.596 2.596 0 1 1-5.193 0 2.596 2.596 0 0 1 5.193 0Zm-2.597 1.038a1.039 1.039 0 1 0 0-2.077 1.039 1.039 0 0 0 0 2.078Zm2.597-7.788a2.596 2.596 0 1 1-5.193 0 2.596 2.596 0 0 1 5.193 0Zm-2.597 1.038a1.039 1.039 0 1 0 0-2.077 1.039 1.039 0 0 0 0 2.078Z" clip-rule="evenodd"/>
  <path fill-rule="evenodd" d="M6.338 7.656c.43 0 .78.348.78.779v5.711a3.375 3.375 0 0 0 3.374 3.375h5.192a.779.779 0 0 1 0 1.558h-5.192a4.933 4.933 0 0 1-4.933-4.933V8.435c0-.43.35-.78.78-.78Z" clip-rule="evenodd"/>
  <path fill-rule="evenodd" d="M9.973 12.329a4.413 4.413 0 0 1-4.414-4.414h1.558a2.856 2.856 0 0 0 2.856 2.856h5.711a.779.779 0 0 1 0 1.558H9.973Z" clip-rule="evenodd"/>
</svg>
