<svg xmlns="http://www.w3.org/2000/svg" width="24" height="24" fill="none" viewBox="0 0 24 24">
  <path fill="#29333D" fill-rule="evenodd" d="M7.5 2a1 1 0 0 0-1 1v12a1 1 0 1 0 2 0V3a1 1 0 0 0-1-1Z" clip-rule="evenodd"/>
  <path fill="#29333D" fill-rule="evenodd" d="M8.207 2.293a1 1 0 0 0-1.414 0l-3.5 3.5a1 1 0 0 0 1.414 1.414L7.5 4.414l2.793 2.793a1 1 0 1 0 1.414-1.414l-3.5-3.5ZM16.5 22a1 1 0 0 0 1-1V9a1 1 0 1 0-2 0v12a1 1 0 0 0 1 1Z" clip-rule="evenodd"/>
  <path fill="#29333D" fill-rule="evenodd" d="M15.793 21.707a1 1 0 0 0 1.414 0l3.5-3.5a1 1 0 0 0-1.414-1.414L16.5 19.586l-2.793-2.793a1 1 0 0 0-1.414 1.414l3.5 3.5Z" clip-rule="evenodd"/>
</svg>
