<svg xmlns="http://www.w3.org/2000/svg" width="24" height="24" viewBox="0 0 24 24">
  <path fill-rule="evenodd" d="m14.373 4.475 5.656 5.656-8.484 8.485a3 3 0 0 1-4.242 0L5.888 17.2a3 3 0 0 1 0-4.242l8.485-8.484Zm0 2.828-7.07 7.07a1 1 0 0 0 0 1.414l1.414 1.414a1 1 0 0 0 1.414 0l7.07-7.07-2.828-2.828Z" clip-rule="evenodd"/>
  <path fill-rule="evenodd" d="M12.605 4.121a1 1 0 0 1 1.414 0l6.364 6.364a1 1 0 1 1-1.415 1.415l-6.363-6.365a1 1 0 0 1 0-1.414Zm.889 6.182a1 1 0 0 1 1.414 0l1.768 1.768a1 1 0 0 1-1.414 1.414l-1.768-1.768a1 1 0 0 1 0-1.414Zm-3.364 3.364a1 1 0 0 1 1.414 0l1.768 1.768a1 1 0 0 1-1.415 1.414l-1.767-1.768a1 1 0 0 1 0-1.414ZM17.2 3.06a1 1 0 0 1 1.415 0l2.828 2.83a1 1 0 1 1-1.414 1.413l-2.828-2.828a1 1 0 0 1 0-1.414Z" clip-rule="evenodd"/>
  <path fill-rule="evenodd" d="M19.322 6.596 17.908 8.01l-1.414-1.414 1.414-1.414 1.414 1.414ZM6.111 17.1l-3.28 3.171a.2.2 0 0 0 .138.344h2.373a.2.2 0 0 0 .142-.058l2.041-2.042L6.111 17.1Z" clip-rule="evenodd"/>
</svg>
