<svg xmlns="http://www.w3.org/2000/svg" width="24" height="24" viewBox="0 0 24 24">
  <path fill-rule="evenodd" d="M5.198 11.178 3.7 11.096l.202-3.703 1.498.082-.202 3.703Zm0 0a2.198 2.198 0 0 0 .64 1.674l5.594 5.594a2.2 2.2 0 0 0 3.109 0l3.905-3.906a2.198 2.198 0 0 0 0-3.108l-5.594-5.594a2.198 2.198 0 0 0-1.674-.64L7.475 5.4A2.198 2.198 0 0 0 5.4 7.475l-1.498-.082a3.698 3.698 0 0 1 3.491-3.491l3.704-.202a3.698 3.698 0 0 1 2.816 1.078l5.593 5.593a3.698 3.698 0 0 1 0 5.23l-3.905 3.905a3.698 3.698 0 0 1-5.23 0l-5.593-5.593A3.698 3.698 0 0 1 3.7 11.097l1.498.081Z" clip-rule="evenodd"/>
  <path d="M9.144 8.045a1.1 1.1 0 1 1-2.198 0 1.1 1.1 0 0 1 2.198 0Z"/>
</svg>
