<svg xmlns="http://www.w3.org/2000/svg" width="24" height="24" viewBox="0 0 24 24">
  <path d="m16.263 8.361.001-.184c.009-.578.319-1.159.897-1.159h.85a.27.27 0 0 1 .27.27v8.654c0 .291.063.805.219.984.156.171.439.257.8.257h1.18c.342 0 .59.221.644.56a3.023 3.023 0 0 1 .05.861c0 .234-.197.41-.431.416-.12.003-.267-.002-.634-.002-.468.03-1.235 0-1.72 0-.837 0-1.19-.059-1.642-.44-.593-.5-.5-1.23-.5-2l.016-8.217Zm4.069 1.66c.506 0 .991.333.991.84 0 .156-.007-.003-.023.139-.05.403-.385.669-.791.673l-3.213.034h-2.68c-.481 0-.74-.324-.74-.805 0-.535.3-.9.835-.897l2.589.013 3.032.002ZM3.433 7.005c-.307-.001-.58-.212-.609-.517a5.07 5.07 0 0 1-.024-.48c0-.15.008-.31.024-.482.03-.31.308-.526.62-.527l9.701-.017c.284 0 .543.177.584.458.024.165.037.325.037.482 0 .388-.12.664-.357.828-.239.156-.608.235-1.11.235l-.912.03c-.156 0-.39-.004-.702-.012A120.41 120.41 0 0 0 9.3 6.985h-2c-.164 0 .16.01-.143.018-.304.008-1.043.011-1.215.011l-2.509-.009ZM7.3 8.641v-.817c.008-.246.012-.526.012-.84v-.062a.922.922 0 0 1 1.744-.417l.244.48v11.279a.723.723 0 0 1-.665.736c-.23.015-.146 0-.335 0-.206 0-.11.015-.347 0a.71.71 0 0 1-.653-.724V8.641Z"/>
</svg>
