<svg xmlns="http://www.w3.org/2000/svg" width="24" height="24" viewBox="0 0 24 24">
  <g class="ticket-outline">
    <g class="Vector">
      <path fill-rule="evenodd" d="M21 11a1 1 0 1 0 0 2 1 1 0 1 1 0 2 3 3 0 1 1 0-6 1 1 0 1 1 0 2ZM3 11a1 1 0 1 1 0 2 1 1 0 1 0 0 2 3 3 0 1 0 0-6 1 1 0 0 0 0 2Z" clip-rule="evenodd"/>
      <path fill-rule="evenodd" d="M2 8a4 4 0 0 1 4-4h12a4 4 0 0 1 4 4v2h-2V8a2 2 0 0 0-2-2H6a2 2 0 0 0-2 2v2H2V8Zm2 6v2a2 2 0 0 0 2 2h12a2 2 0 0 0 2-2v-2h2v2a4 4 0 0 1-4 4H6a4 4 0 0 1-4-4v-2h2Z" clip-rule="evenodd"/>
      <path d="M13 6a1 1 0 1 1 2 0v2a1 1 0 1 1-2 0V6Zm0 5a1 1 0 1 1 2 0v3a1 1 0 1 1-2 0v-3Zm0 6a1 1 0 1 1 2 0v2a1 1 0 1 1-2 0v-2Z"/>
    </g>
  </g>
</svg>
