<svg xmlns="http://www.w3.org/2000/svg" width="24" height="24" viewBox="0 0 24 24">
  <path fill-rule="evenodd" d="M18 5.62v8.808c0 .246 0 .54-.022.799-.025.3-.09.73-.327 1.177a3 3 0 0 1-1.247 1.247c-.366.188-.767.3-1.177.327-.259.022-.553.022-.8.022H9.573c-.246 0-.54 0-.799-.022-.3-.025-.73-.09-1.177-.327a3 3 0 0 1-1.247-1.247 3.014 3.014 0 0 1-.327-1.177C6 14.968 6 14.674 6 14.427V5.573c0-.246 0-.54.022-.799.025-.3.09-.73.327-1.177A3 3 0 0 1 7.596 2.35c.366-.188.766-.3 1.177-.327C9.032 2 9.326 2 9.573 2h4.854c.246 0 .54 0 .799.022.3.025.73.09 1.177.327a3 3 0 0 1 1.247 1.247c.237.447.302.877.327 1.177.022.259.022.553.022.8L18 5.62Zm-2.532-1.504C15.248 4 14.959 4 14.38 4H9.62c-.579 0-.868 0-1.088.116a1 1 0 0 0-.416.416C8 4.752 8 5.042 8 5.62v8.76c0 .579 0 .868.116 1.088a1 1 0 0 0 .416.416c.22.116.51.116 1.088.116h4.76c.579 0 .868 0 1.088-.116a1 1 0 0 0 .416-.416c.116-.22.116-.509.116-1.088V5.62c0-.579 0-.868-.116-1.088a1 1 0 0 0-.416-.416Z" clip-rule="evenodd"/>
  <path fill-rule="evenodd" d="M12 17a1 1 0 0 1 1 1v3a1 1 0 0 1-2 0v-3a1 1 0 0 1 1-1Z" clip-rule="evenodd"/>
  <path fill-rule="evenodd" d="M7 21a1 1 0 0 1 1-1h8a1 1 0 0 1 0 2H8a1 1 0 0 1-1-1Z" clip-rule="evenodd"/>
</svg>
