<svg xmlns="http://www.w3.org/2000/svg" width="24" height="24" viewBox="0 0 24 24">
  <path fill-rule="evenodd" d="M15.958 8.95a1.5 1.5 0 0 1 1.085.02c.472.193.693.613.791.81.112.227.223.523.337.828l.015.04 3.75 10a1 1 0 0 1-1.872.703l-3.613-9.633-4.028 9.667a1 1 0 0 1-1.846-.77l4.179-10.028.016-.04a9.52 9.52 0 0 1 .367-.815c.104-.194.34-.605.82-.781Zm-3.174-4.909a1 1 0 0 1 .675 1.243C12.476 8.6 11.432 11.04 9.87 13.02c-1.568 1.988-3.598 3.434-6.417 4.872a1 1 0 1 1-.909-1.782c2.683-1.369 4.434-2.654 5.756-4.329 1.329-1.685 2.285-3.842 3.24-7.064a1 1 0 0 1 1.243-.675Z" clip-rule="evenodd"/>
  <path fill-rule="evenodd" d="M5.961 7.342a1 1 0 0 1 1.235.689c.702 2.47 2.066 4.29 3.904 5.669a1 1 0 0 1-1.2 1.6c-2.162-1.622-3.798-3.802-4.627-6.723a1 1 0 0 1 .688-1.235ZM2 5a1 1 0 0 1 1-1h12.5a1 1 0 1 1 0 2H3a1 1 0 0 1-1-1Z" clip-rule="evenodd"/>
  <path fill-rule="evenodd" d="M9 2a1 1 0 0 1 1 1v2a1 1 0 0 1-2 0V3a1 1 0 0 1 1-1Zm4 15a1 1 0 0 1 1-1h5.5a1 1 0 1 1 0 2H14a1 1 0 0 1-1-1Z" clip-rule="evenodd"/>
</svg>
