<svg xmlns="http://www.w3.org/2000/svg" width="24" height="24" viewBox="0 0 24 24">
  <g class="trash-outline">
    <g class="Vector">
      <path fill-rule="evenodd" d="M4.917 6.003a1 1 0 0 1 1.08.914l.849 10.248A2 2 0 0 0 8.839 19h6.322a2 2 0 0 0 1.993-1.835l.85-10.248a1 1 0 0 1 1.993.166l-.85 10.247A4 4 0 0 1 15.162 21H8.84a4 4 0 0 1-3.987-3.67l-.85-10.247a1 1 0 0 1 .914-1.08Z" clip-rule="evenodd"/>
      <path fill-rule="evenodd" d="M3 7a1 1 0 0 1 1-1h16a1 1 0 1 1 0 2H4a1 1 0 0 1-1-1Zm7 2a1 1 0 0 1 1 1v6a1 1 0 1 1-2 0v-6a1 1 0 0 1 1-1Zm4 0a1 1 0 0 1 1 1v4a1 1 0 1 1-2 0v-4a1 1 0 0 1 1-1Z" clip-rule="evenodd"/>
      <path fill-rule="evenodd" d="M10.441 5a1 1 0 0 0-.948.684l-.544 1.632a1 1 0 1 1-1.898-.632l.544-1.633A3 3 0 0 1 10.441 3h3.117a3 3 0 0 1 2.846 2.051l.545 1.633a1 1 0 0 1-1.898.632l-.544-1.632A1 1 0 0 0 13.56 5h-3.117Z" clip-rule="evenodd"/>
    </g>
  </g>
</svg>
