<svg xmlns="http://www.w3.org/2000/svg" width="24" height="24" viewBox="0 0 24 24">
  <path fill-rule="evenodd" d="M5.44 6.252a.75.75 0 0 1 .808.688l.779 9.74a2.25 2.25 0 0 0 2.243 2.07h5.46a2.25 2.25 0 0 0 2.243-2.07l.78-9.74a.75.75 0 1 1 1.495.12l-.78 9.739a3.75 3.75 0 0 1-3.738 3.451H9.27a3.75 3.75 0 0 1-3.738-3.451l-.78-9.74a.75.75 0 0 1 .688-.807Z" clip-rule="evenodd"/>
  <path fill-rule="evenodd" d="M3.25 7A.75.75 0 0 1 4 6.25h16a.75.75 0 0 1 0 1.5H4A.75.75 0 0 1 3.25 7ZM10 9.25a.75.75 0 0 1 .75.75v6.5a.75.75 0 0 1-1.5 0V10a.75.75 0 0 1 .75-.75Zm4 0a.75.75 0 0 1 .75.75v4a.75.75 0 0 1-1.5 0v-4a.75.75 0 0 1 .75-.75Z" clip-rule="evenodd"/>
  <path fill-rule="evenodd" d="M10.354 4.75c-.511 0-.97.311-1.16.786l-.498 1.243a.75.75 0 0 1-1.392-.558L7.8 4.98a2.75 2.75 0 0 1 2.553-1.729h3.292a2.75 2.75 0 0 1 2.553 1.729l.497 1.242a.75.75 0 0 1-1.392.558l-.498-1.243a1.25 1.25 0 0 0-1.16-.786h-3.292Z" clip-rule="evenodd"/>
</svg>
