<svg xmlns="http://www.w3.org/2000/svg" width="24" height="24" viewBox="0 0 24 24">
  <g class="trending-down-outline">
    <g class="Vector">
      <path fill-rule="evenodd" d="M19.438 18.093a1.048 1.048 0 0 0 .111-1.437l-5.29-6.463c-.904-1.104-2.595-.902-3.235.387l-1.442 2.905-5.29-6.462a.954.954 0 0 0-1.382-.116 1.048 1.048 0 0 0-.111 1.437l5.29 6.463c.904 1.104 2.596.902 3.235-.387l1.442-2.905 5.29 6.462c.351.43.97.48 1.382.116Z" clip-rule="evenodd"/>
      <path fill-rule="evenodd" d="M19.749 18.795a1.04 1.04 0 0 0 .287-.721V14.03c0-.563-.439-1.02-.98-1.02-.541 0-.98.457-.98 1.02v3.025H15.26c-.541 0-.98.456-.98 1.019s.439 1.02.98 1.02h3.795c.26 0 .51-.108.693-.3Z" clip-rule="evenodd"/>
    </g>
  </g>
</svg>
