<svg xmlns="http://www.w3.org/2000/svg" width="24" height="25" viewBox="0 0 24 25">
  <path fill-rule="evenodd" d="M19.488 17.62a.75.75 0 0 0 .082-1.058l-5.02-5.857a1.75 1.75 0 0 0-2.894.357l-1.153 2.306a.25.25 0 0 1-.414.05L5.07 7.562a.75.75 0 0 0-1.138.976l5.02 5.857a1.75 1.75 0 0 0 2.893-.357l1.153-2.306a.25.25 0 0 1 .414-.05l5.02 5.856a.75.75 0 0 0 1.057.081Z" clip-rule="evenodd"/>
  <path fill-rule="evenodd" d="M19.768 18.532a.75.75 0 0 0 .75-.75v-3.535a.75.75 0 0 0-1.5 0v2.785h-2.786a.75.75 0 0 0 0 1.5h3.536Z" clip-rule="evenodd"/>
</svg>
