<svg xmlns="http://www.w3.org/2000/svg" width="24" height="24" viewBox="0 0 24 24">
  <g class="trending-up-outline">
    <g class="Vector">
      <path fill-rule="evenodd" d="M19.438 6.907c.413.365.462 1.008.111 1.437l-5.29 6.463c-.904 1.104-2.595.902-3.235-.387l-1.442-2.905-5.29 6.462a.954.954 0 0 1-1.382.116 1.048 1.048 0 0 1-.111-1.437l5.29-6.463c.904-1.104 2.596-.902 3.235.387l1.442 2.905 5.29-6.462a.954.954 0 0 1 1.382-.116Z" clip-rule="evenodd"/>
      <path fill-rule="evenodd" d="M19.749 6.205c.184.192.287.45.287.721v4.044c0 .563-.439 1.02-.98 1.02-.541 0-.98-.457-.98-1.02V7.946H15.26c-.541 0-.98-.457-.98-1.02s.439-1.02.98-1.02h3.795c.26 0 .51.108.693.3Z" clip-rule="evenodd"/>
    </g>
  </g>
</svg>
