<svg xmlns="http://www.w3.org/2000/svg" width="24" height="24" viewBox="0 0 24 24">
  <path fill-rule="evenodd" d="M11.01 6h1.98C14.1 6 15 6.9 15 8.01V19a3 3 0 1 1-6 0V8.01C9 6.9 9.9 6 11.01 6ZM13 8.01V19a1 1 0 1 1-2 0V8.01a.01.01 0 0 1 .01-.01h1.98a.01.01 0 0 1 .01.01Z" clip-rule="evenodd"/>
  <path fill-rule="evenodd" d="M9.6 2h4.8c1.16 0 2.1.94 2.1 2.1v1.8A2.1 2.1 0 0 1 14.4 8H9.6a2.1 2.1 0 0 1-2.1-2.1V4.1c0-1.16.94-2.1 2.1-2.1Zm0 2a.1.1 0 0 0-.1.1v1.8a.1.1 0 0 0 .1.1h4.8a.1.1 0 0 0 .1-.1V4.1a.1.1 0 0 0-.1-.1H9.6Z" clip-rule="evenodd"/>
</svg>
