<svg xmlns="http://www.w3.org/2000/svg" width="24" height="24" viewBox="0 0 24 24">
  <path fill-rule="evenodd" d="M5.62 3.5h12.808c.246 0 .54 0 .799.022.3.025.73.09 1.177.327a3 3 0 0 1 1.247 1.247c.237.447.302.877.327 1.177.022.259.022.553.022.8v6.854c0 .246 0 .54-.022.799-.025.3-.09.73-.327 1.177a3 3 0 0 1-1.247 1.247c-.366.188-.767.3-1.177.327-.259.022-.553.022-.8.022H5.573c-.246 0-.54 0-.799-.022-.3-.025-.73-.09-1.177-.327a3 3 0 0 1-1.247-1.247 3.014 3.014 0 0 1-.327-1.177C2 14.468 2 14.174 2 13.927V7.073c0-.246 0-.54.022-.799.025-.3.09-.73.327-1.177A3 3 0 0 1 3.596 3.85c.366-.188.766-.3 1.177-.327.259-.022.553-.022.8-.022L5.62 3.5ZM4.116 6.032C4 6.252 4 6.542 4 7.12v6.76c0 .579 0 .868.116 1.088a1 1 0 0 0 .416.416c.22.116.51.116 1.088.116h12.76c.579 0 .868 0 1.088-.116a1 1 0 0 0 .416-.416c.116-.22.116-.509.116-1.088V7.12c0-.579 0-.868-.116-1.088a1 1 0 0 0-.416-.416c-.22-.116-.509-.116-1.088-.116H5.62c-.579 0-.868 0-1.088.116a1 1 0 0 0-.416.416ZM7 19a1 1 0 0 1 1-1h8a1 1 0 0 1 0 2H8a1 1 0 0 1-1-1Z" clip-rule="evenodd"/>
</svg>
