<svg xmlns="http://www.w3.org/2000/svg" width="24" height="24" viewBox="0 0 24 24">
  <g class="unlock-outline">
    <g class="Vector">
      <path fill-rule="evenodd" d="M6.143 7.429h11.714A4.143 4.143 0 0 1 22 11.57v5.715a4.143 4.143 0 0 1-4.143 4.143H6.143A4.143 4.143 0 0 1 2 17.286V11.57a4.143 4.143 0 0 1 4.143-4.14Zm0 2A2.142 2.142 0 0 0 4 11.57v5.715c0 1.183.96 2.143 2.143 2.143h11.714c1.184 0 2.143-.96 2.143-2.143V11.57c0-1.183-.96-2.142-2.143-2.142H6.143Z" clip-rule="evenodd"/>
      <path fill-rule="evenodd" d="M11.964 12.643a1 1 0 0 1 1 1v1.214a1 1 0 0 1-2 0v-1.214a1 1 0 0 1 1-1ZM11.69 2h.042c1.011 0 2.098.077 3.158.4.604.183 1.257.462 1.67 1.133.374.608.44 1.374.44 2.194a1 1 0 1 1-2 0c0-.804-.09-1.058-.144-1.147l-.001-.001c-.017-.028-.074-.122-.547-.266-.79-.24-1.653-.313-2.576-.313-1.332 0-2.371.046-3.132.557a1.07 1.07 0 0 0-.41.483c-.104.235-.19.61-.19 1.233V9H6V6.273c0-.788.106-1.465.36-2.04a3.066 3.066 0 0 1 1.124-1.336C8.82 2 10.481 2 11.69 2Z" clip-rule="evenodd"/>
    </g>
  </g>
</svg>
