<svg xmlns="http://www.w3.org/2000/svg" width="24" height="24" viewBox="0 0 24 24">
  <path fill-rule="evenodd" d="M7 8.5h10a3.5 3.5 0 0 1 3.5 3.5v5a3.5 3.5 0 0 1-3.5 3.5H7A3.5 3.5 0 0 1 3.5 17v-5A3.5 3.5 0 0 1 7 8.5ZM7 10a2 2 0 0 0-2 2v5a2 2 0 0 0 2 2h10a2 2 0 0 0 2-2v-5a2 2 0 0 0-2-2H7Z" clip-rule="evenodd"/>
  <path fill-rule="evenodd" d="M12.206 3.25c.894 0 1.847.07 2.77.36.534.167 1.071.41 1.408.973.305.512.366 1.167.366 1.917a.75.75 0 0 1-1.5 0c0-.74-.078-1.02-.154-1.148-.045-.075-.132-.174-.568-.31-.716-.225-1.497-.292-2.322-.292-1.173 0-2.14.042-2.847.53-.189.13-.325.282-.424.512-.106.247-.185.62-.185 1.208v2.5h-1.5V7c0-.71.093-1.303.307-1.8.22-.513.551-.881.951-1.156 1.154-.794 2.611-.794 3.698-.794ZM12.25 13a.75.75 0 0 1 .75.75v1.5a.75.75 0 0 1-1.5 0v-1.5a.75.75 0 0 1 .75-.75Z" clip-rule="evenodd"/>
</svg>
