<svg xmlns="http://www.w3.org/2000/svg" width="24" height="24" viewBox="0 0 24 24">
  <path fill-rule="evenodd" d="M8 19.75A4.75 4.75 0 0 1 3.25 15v-2a.75.75 0 0 1 1.5 0v2A3.25 3.25 0 0 0 8 18.25h8A3.25 3.25 0 0 0 19.25 15v-2a.75.75 0 0 1 1.5 0v2A4.75 4.75 0 0 1 16 19.75H8Z" clip-rule="evenodd"/>
  <path fill-rule="evenodd" d="M7.47 9.53a.75.75 0 0 1 0-1.06l4-4a.75.75 0 0 1 1.06 0l4 4a.75.75 0 0 1-1.06 1.06l-2.72-2.72V15a.75.75 0 0 1-1.5 0V6.81L8.53 9.53a.75.75 0 0 1-1.06 0Z" clip-rule="evenodd"/>
</svg>
