<svg xmlns="http://www.w3.org/2000/svg" width="24" height="24" viewBox="0 0 24 24">
  <path fill-rule="evenodd" d="M9.688 10a1.75 1.75 0 1 0 0-3.5 1.75 1.75 0 0 0 0 3.5Zm0 1.5a3.25 3.25 0 1 0 0-6.5 3.25 3.25 0 0 0 0 6.5Zm-5.261 2.595c.824-1.07 2.062-1.72 3.636-1.72h3.25c1.573 0 2.81.65 3.635 1.72.806 1.048 1.177 2.442 1.177 3.905a.75.75 0 0 1-1.5 0c0-1.23-.314-2.273-.866-2.99-.534-.693-1.328-1.135-2.447-1.135h-3.25c-1.118 0-1.912.442-2.446 1.135-.552.717-.866 1.76-.866 2.99a.75.75 0 0 1-1.5 0c0-1.463.371-2.857 1.177-3.905ZM18 8.25a.75.75 0 0 1 .75.75v1.25H20a.75.75 0 0 1 0 1.5h-1.25V13a.75.75 0 0 1-1.5 0v-1.25H16a.75.75 0 0 1 0-1.5h1.25V9a.75.75 0 0 1 .75-.75Z" clip-rule="evenodd"/>
  <path fill-rule="evenodd" d="M3.25 18a.75.75 0 0 1 .75-.75h11.348a.75.75 0 0 1 0 1.5H4a.75.75 0 0 1-.75-.75Z" clip-rule="evenodd"/>
</svg>
