<svg xmlns="http://www.w3.org/2000/svg" width="24" height="24" viewBox="0 0 24 24">
  <path fill-rule="evenodd" d="M12 10a2.5 2.5 0 1 0 0-5 2.5 2.5 0 0 0 0 5Zm0 1.5a4 4 0 1 0 0-8 4 4 0 0 0 0 8Zm-6.337 3.3c.98-1.274 2.453-2.05 4.337-2.05h4c1.884 0 3.356.776 4.337 2.05.963 1.25 1.413 2.927 1.413 4.7a.75.75 0 0 1-1.5 0c0-1.54-.393-2.865-1.102-3.785-.69-.897-1.719-1.465-3.148-1.465h-4c-1.43 0-2.458.568-3.148 1.465-.709.92-1.102 2.245-1.102 3.785a.75.75 0 0 1-1.5 0c0-1.773.45-3.45 1.413-4.7Z" clip-rule="evenodd"/>
  <path fill-rule="evenodd" d="M4.25 19.5a.75.75 0 0 1 .75-.75h13.966a.75.75 0 1 1 0 1.5H5a.75.75 0 0 1-.75-.75Z" clip-rule="evenodd"/>
</svg>
