<svg xmlns="http://www.w3.org/2000/svg" width="24" height="24" viewBox="0 0 24 24">
  <g class="user-remove-outline">
    <g class="Vector">
      <path fill-rule="evenodd" d="M9.5 10a2 2 0 1 0 0-4 2 2 0 0 0 0 4Zm0 2a4 4 0 1 0 0-8 4 4 0 0 0 0 8Zm6.793-2.707a1 1 0 0 1 1.414 0L19 10.586l1.293-1.293a1 1 0 1 1 1.414 1.414L20.414 12l1.293 1.293a1 1 0 0 1-1.414 1.414L19 13.414l-1.293 1.293a1 1 0 0 1-1.414-1.414L17.586 12l-1.293-1.293a1 1 0 0 1 0-1.414ZM3.354 15.176C4.311 13.836 5.77 13 7.643 13h3.714c1.873 0 3.332.837 4.289 2.176C16.577 16.479 17 18.202 17 20a1 1 0 1 1-2 0c0-1.516-.36-2.793-.981-3.661-.595-.832-1.457-1.339-2.662-1.339H7.643c-1.205 0-2.067.507-2.662 1.339-.62.868-.981 2.145-.981 3.66a1 1 0 1 1-2 0c0-1.797.422-3.52 1.354-4.823Z" clip-rule="evenodd"/>
      <path fill-rule="evenodd" d="M2 20a1 1 0 0 1 1-1h12.969a1 1 0 0 1 0 2H3a1 1 0 0 1-1-1Z" clip-rule="evenodd"/>
    </g>
  </g>
</svg>
