<svg xmlns="http://www.w3.org/2000/svg" width="24" height="24" viewBox="0 0 24 24">
  <g class="user-outline">
    <g class="Vector">
      <path fill-rule="evenodd" d="M12 10a3 3 0 1 0 0-6 3 3 0 0 0 0 6Zm0 2a5 5 0 1 0 0-10 5 5 0 0 0 0 10Zm-7.361 3.448C5.784 13.93 7.509 13 9.714 13h4.572c2.205 0 3.93.93 5.075 2.448C20.482 16.935 21 18.916 21 21a1 1 0 1 1-2 0c0-1.782-.446-3.3-1.235-4.348C17 15.638 15.867 15 14.285 15h-4.57c-1.582 0-2.715.638-3.48 1.652C5.445 17.7 5 19.218 5 21a1 1 0 1 1-2 0c0-2.084.518-4.065 1.639-5.552Z" clip-rule="evenodd"/>
      <path fill-rule="evenodd" d="M3 21a1 1 0 0 1 1-1h15.962a1 1 0 1 1 0 2H4a1 1 0 0 1-1-1Z" clip-rule="evenodd"/>
    </g>
  </g>
</svg>
