<svg xmlns="http://www.w3.org/2000/svg" width="24" height="24" viewBox="0 0 24 24">
  <g class="users-outline">
    <g class="Vector">
      <path fill-rule="evenodd" d="M8.75 9.5a1.75 1.75 0 1 0 0-3.5 1.75 1.75 0 0 0 0 3.5Zm0 2a3.75 3.75 0 1 0 0-7.5 3.75 3.75 0 0 0 0 7.5Zm-5.484 3.027c.899-1.249 2.269-2.027 4.02-2.027h3.428c1.752 0 3.121.778 4.02 2.027C15.607 15.74 16 17.339 16 19a1 1 0 1 1-2 0c0-1.377-.33-2.527-.89-3.305-.533-.742-1.307-1.195-2.396-1.195H7.286c-1.09 0-1.863.453-2.397 1.195C4.33 16.472 4 17.623 4 19a1 1 0 1 1-2 0c0-1.661.393-3.26 1.266-4.473Z" clip-rule="evenodd"/>
      <path fill-rule="evenodd" d="M2 19a1 1 0 0 1 1-1h11.971a1 1 0 0 1 0 2H3a1 1 0 0 1-1-1ZM14.892 5.867l-.028-.002a2.277 2.277 0 0 1-.445-.07c-.345-.092-.655-.276-.796-.595l-.013-.028c-.208-.47.006-1.033.513-1.12a3.75 3.75 0 1 1 .596 7.448c-.514-.004-.815-.526-.684-1.023l.008-.03c.088-.338.366-.569.69-.714a2.278 2.278 0 0 1 .456-.147 1.887 1.887 0 0 0-.297-3.719ZM15.5 13.5a1 1 0 0 1 1-1h.214c1.752 0 3.121.778 4.02 2.027C21.607 15.74 22 17.339 22 19a1 1 0 1 1-2 0c0-1.377-.33-2.527-.89-3.305-.533-.742-1.307-1.195-2.396-1.195H16.5a1 1 0 0 1-1-1Z" clip-rule="evenodd"/>
      <path fill-rule="evenodd" d="M17 19a1 1 0 0 1 1-1h2.971a1 1 0 0 1 0 2H18a1 1 0 0 1-1-1Z" clip-rule="evenodd"/>
    </g>
  </g>
</svg>
