<svg xmlns="http://www.w3.org/2000/svg" width="24" height="25" viewBox="0 0 24 25">
  <path fill-rule="evenodd" d="M6.5 6.7H13a3 3 0 0 1 3 3v6a3 3 0 0 1-3 3H6.5a3 3 0 0 1-3-3v-6a3 3 0 0 1 3-3Zm0 1.5A1.5 1.5 0 0 0 5 9.7v6a1.5 1.5 0 0 0 1.5 1.5H13a1.5 1.5 0 0 0 1.5-1.5v-6A1.5 1.5 0 0 0 13 8.2H6.5Z" clip-rule="evenodd"/>
  <path fill-rule="evenodd" d="M16.184 11.29a.5.5 0 0 0-.184.388v2.088a.5.5 0 0 0 .18.384l2 1.667a.5.5 0 0 0 .82-.385v-5.38a.5.5 0 0 0-.816-.389l-2 1.627Zm-.946-1.163 2-1.627c1.307-1.063 3.262-.133 3.262 1.551v5.381c0 1.696-1.978 2.623-3.28 1.537l-2-1.667a2 2 0 0 1-.72-1.536v-2.088a2 2 0 0 1 .738-1.551Z" clip-rule="evenodd"/>
</svg>
