<svg xmlns="http://www.w3.org/2000/svg" width="24" height="24" viewBox="0 0 24 24">
  <path fill-rule="evenodd" d="M12.153 3.802c3.734.067 7.309 2.237 9.228 6.14a4.786 4.786 0 0 1 0 4.217c-1.92 3.902-5.494 6.072-9.228 6.14-3.75.067-7.427-1.99-9.532-6.003a4.841 4.841 0 0 1 0-4.492c2.105-4.013 5.781-6.07 9.532-6.002Zm-7.761 6.932c3.545-6.759 11.99-6.425 15.195.09.379.77.379 1.681 0 2.452-3.205 6.515-11.65 6.849-15.195.09a2.841 2.841 0 0 1 0-2.632Z" clip-rule="evenodd"/>
  <path fill-rule="evenodd" d="M15.7 12.05a3.75 3.75 0 1 1-7.5 0 3.75 3.75 0 0 1 7.5 0Zm-3.75 1.75a1.75 1.75 0 1 0 0-3.5 1.75 1.75 0 0 0 0 3.5Z" clip-rule="evenodd"/>
</svg>
