<svg xmlns="http://www.w3.org/2000/svg" width="24" height="24" viewBox="0 0 24 24">
  <path fill-rule="evenodd" d="M3.293 3.293a1 1 0 0 1 1.414 0l16 16a1 1 0 0 1-1.414 1.414l-16-16a1 1 0 0 1 0-1.414Z" clip-rule="evenodd"/>
  <path fill-rule="evenodd" d="M19.737 11.364c-1.55-3.999-5.46-5.831-9.084-5.27a1 1 0 0 1-.306-1.976c4.47-.693 9.337 1.573 11.255 6.524.339.873.338 1.842.002 2.715-.073.187-.15.371-.23.552-.224.5-.587 1.006-.85 1.374-.075.105-.142.198-.196.277a1 1 0 1 1-1.656-1.12c.117-.173.226-.326.326-.466.23-.323.416-.582.55-.883.067-.148.13-.3.19-.454.158-.41.157-.865 0-1.273ZM6.747 6.562a1 1 0 0 1-.082 1.412 8.23 8.23 0 0 0-.892.93 9.475 9.475 0 0 0-1.47 2.412c-.18.434-.182.933 0 1.384 2.1 5.242 7.312 6.513 11.255 4.571.306-.15.605-.32.893-.51a1 1 0 0 1 1.098 1.672c-.358.235-.728.446-1.107.633-4.895 2.41-11.425.795-13.996-5.622a3.833 3.833 0 0 1 .01-2.897 11.473 11.473 0 0 1 1.77-2.91 10.23 10.23 0 0 1 1.11-1.157 1 1 0 0 1 1.41.082Z" clip-rule="evenodd"/>
  <path fill-rule="evenodd" d="M10.195 9.739a.79.79 0 0 1 .168 1.104 1.955 1.955 0 0 0-.376 1.327 1.955 1.955 0 0 0 .995 1.555c.33.186.718.28 1.126.246a1.955 1.955 0 0 0 1.201-.54.79.79 0 0 1 1.094 1.139 3.535 3.535 0 0 1-2.167.976 3.536 3.536 0 0 1-3.101-1.374 3.535 3.535 0 0 1-.723-1.873 3.535 3.535 0 0 1 .679-2.393.79.79 0 0 1 1.104-.167Zm4.865 2.567a.75.75 0 0 1-.865-.613 1.993 1.993 0 0 0-.814-1.294 1.991 1.991 0 0 0-.712-.321.75.75 0 1 1 .337-1.462 3.522 3.522 0 0 1 2.667 2.824.75.75 0 0 1-.613.865Z" clip-rule="evenodd"/>
</svg>
