<svg xmlns="http://www.w3.org/2000/svg" width="24" height="24" viewBox="0 0 24 24">
  <path fill-rule="evenodd" d="M8.533 7.2h-1.19c-.233 0-.513 0-.76.02-.39.025-.772.125-1.124.296A3 3 0 0 0 4.116 8.86a3.02 3.02 0 0 0-.297 1.125c-.02.246-.02.526-.02.76v2.51c0 .235 0 .514.02.761.023.286.082.695.297 1.125a3 3 0 0 0 1.343 1.343c.43.215.84.273 1.125.296.246.02.526.02.76.02h1.189l1.056 1.129.05.054c.38.405.75.8 1.073 1.09.28.253.888.778 1.748.876a3.001 3.001 0 0 0 2.625-1.037c.56-.66.645-1.457.678-1.834.037-.433.037-.973.037-1.529V8.451c0-.556 0-1.096-.037-1.529-.033-.376-.117-1.175-.678-1.834A3 3 0 0 0 12.46 4.05c-.86.098-1.467.623-1.748.876-.323.29-.692.685-1.072 1.09l-.051.054L8.533 7.2Zm.672 7.629c-.118-.029-.243-.029-.495-.029H7.39c-.55 0-.826 0-1.037-.106a1 1 0 0 1-.448-.447c-.105-.211-.105-.486-.105-1.037v-2.42c0-.55 0-.826.105-1.037a1 1 0 0 1 .448-.448c.21-.105.486-.105 1.037-.105h1.32c.252 0 .377 0 .495-.029a1 1 0 0 0 .307-.133c.1-.066.187-.158.359-.341l1.178-1.259c.848-.906 1.272-1.358 1.638-1.4a1 1 0 0 1 .875.346c.238.28.238.9.238 2.14v6.951c0 1.24 0 1.861-.238 2.141a1 1 0 0 1-.875.346c-.366-.041-.79-.494-1.638-1.4L9.87 15.303c-.172-.183-.258-.275-.36-.341a.997.997 0 0 0-.306-.133Zm7.875-7.024a1 1 0 0 1 1.415-.024A5.867 5.867 0 0 1 20.3 12c0 1.59-.654 3.106-1.805 4.219a1.001 1.001 0 0 1-1.698-.735 1 1 0 0 1 .308-.703A3.867 3.867 0 0 0 18.3 12a3.865 3.865 0 0 0-1.195-2.781 1 1 0 0 1-.025-1.414Z" clip-rule="evenodd"/>
</svg>
