<svg xmlns="http://www.w3.org/2000/svg" width="24" height="24" viewBox="0 0 24 24">
  <path fill-rule="evenodd" d="M6.733 7.2H5.545c-.235 0-.514 0-.761.02-.39.025-.773.125-1.125.296A3 3 0 0 0 2.316 8.86c-.215.43-.273.84-.296 1.125a9.86 9.86 0 0 0-.02.806v2.465c0 .235 0 .514.02.761.023.286.08.695.296 1.125a3 3 0 0 0 1.343 1.343c.43.215.84.273 1.125.296.247.02.526.02.76.02h1.189l1.056 1.129.05.054c.38.405.75.8 1.073 1.09.28.253.888.778 1.748.876a3.001 3.001 0 0 0 2.625-1.037c.56-.66.645-1.457.678-1.834.037-.433.037-.973.037-1.529V8.451c0-.556 0-1.096-.037-1.529-.033-.376-.117-1.175-.678-1.834A3 3 0 0 0 10.66 4.05c-.86.098-1.467.623-1.748.876-.323.29-.692.685-1.072 1.09l-.05.054L6.733 7.2Zm.979 7.761c.1.067.187.159.36.342l1.177 1.259c.848.906 1.272 1.358 1.638 1.4a1 1 0 0 0 .875-.346c.238-.28.238-.9.238-2.14V8.524c0-1.24 0-1.861-.238-2.141a1 1 0 0 0-.875-.346c-.366.042-.79.494-1.638 1.4L8.07 8.697c-.172.183-.258.275-.36.341a1 1 0 0 1-.306.133c-.117.029-.243.029-.494.029H5.59c-.55 0-.826 0-1.037.105a1 1 0 0 0-.448.448C4 9.964 4 10.239 4 10.79v2.42c0 .55 0 .826.105 1.037a1 1 0 0 0 .448.447c.21.106.486.106 1.037.106h1.32c.252 0 .378 0 .495.029.109.027.213.07.307.132Zm7.569-7.156a1 1 0 0 1 1.414-.024A5.867 5.867 0 0 1 18.5 12c0 1.59-.654 3.106-1.805 4.219a1.001 1.001 0 0 1-1.698-.735 1 1 0 0 1 .308-.703A3.867 3.867 0 0 0 16.5 12a3.867 3.867 0 0 0-1.195-2.781 1 1 0 0 1-.024-1.414Z" clip-rule="evenodd"/>
  <path fill-rule="evenodd" d="M17.36 4.367a.9.9 0 0 1 1.273-.006A10.752 10.752 0 0 1 21.828 12c0 2.867-1.15 5.615-3.195 7.64a.901.901 0 0 1-1.463-.99.901.901 0 0 1 .197-.29 8.951 8.951 0 0 0 2.66-6.36 8.953 8.953 0 0 0-2.66-6.36.9.9 0 0 1-.007-1.273Z" clip-rule="evenodd"/>
</svg>
