<svg xmlns="http://www.w3.org/2000/svg" width="24" height="24" viewBox="0 0 24 24">
  <path fill-rule="evenodd" d="M12 13.55a.75.75 0 0 1-.75-.75V8.59a.75.75 0 1 1 1.5 0v4.21a.75.75 0 0 1-.75.75Z" clip-rule="evenodd"/>
  <path d="M10.947 15.958a1.053 1.053 0 1 1 2.106 0 1.053 1.053 0 0 1-2.106 0Z"/>
  <path fill-rule="evenodd" d="m15.2 5.516 5.03 9.168c1.333 2.433-.427 5.406-3.201 5.406H6.97c-2.774 0-4.534-2.973-3.2-5.406L8.8 5.516c1.385-2.527 5.015-2.527 6.4 0Zm-1.315.72c-.816-1.487-2.954-1.487-3.77 0l-5.029 9.17c-.786 1.432.25 3.184 1.885 3.184H17.03c1.634 0 2.67-1.752 1.885-3.184l-5.029-9.17Z" clip-rule="evenodd"/>
</svg>
