<svg xmlns="http://www.w3.org/2000/svg" width="24" height="24" viewBox="0 0 24 24">
  <g class="warning-outline">
    <g class="Vector">
      <path fill-rule="evenodd" d="M12 13.8a1 1 0 0 1-1-1v-5a1 1 0 0 1 2 0v5a1 1 0 0 1-1 1Z" clip-rule="evenodd"/>
      <path d="M10.947 15.958a1.053 1.053 0 1 1 2.106 0 1.053 1.053 0 0 1-2.106 0Z"/>
      <path fill-rule="evenodd" d="m15.607 4.642 5.876 10.72c1.512 2.759-.473 6.138-3.607 6.138H6.124c-3.134 0-5.12-3.38-3.607-6.139l5.876-10.72c1.566-2.855 5.648-2.855 7.214 0Zm-1.804 1c-.782-1.429-2.824-1.429-3.606 0L4.32 16.36c-.757 1.38.236 3.069 1.803 3.069h11.752c1.567 0 2.56-1.69 1.803-3.07L13.803 5.642Z" clip-rule="evenodd"/>
    </g>
  </g>
</svg>
