<svg xmlns="http://www.w3.org/2000/svg" width="24" height="24" viewBox="0 0 24 24">
  <path fill-rule="evenodd" d="M7 6h1a2.5 2.5 0 0 1 2.5 2.5v8A2.5 2.5 0 0 1 8 19H7a2.5 2.5 0 0 1-2.5-2.5v-8A2.5 2.5 0 0 1 7 6Zm1.5 2.5v8a.5.5 0 0 1-.5.5H7a.5.5 0 0 1-.5-.5v-8A.5.5 0 0 1 7 8h1a.5.5 0 0 1 .5.5ZM17 6h-1a2.5 2.5 0 0 0-2.5 2.5v8A2.5 2.5 0 0 0 16 19h1a2.5 2.5 0 0 0 2.5-2.5v-8A2.5 2.5 0 0 0 17 6Zm-1.5 2.5v8a.5.5 0 0 0 .5.5h1a.5.5 0 0 0 .5-.5v-8A.5.5 0 0 0 17 8h-1a.5.5 0 0 0-.5.5Z" clip-rule="evenodd"/>
  <path d="M9 13h6v2H9v-2Zm0-3h6v2H9v-2Z"/>
  <path fill-rule="evenodd" d="M19.877 11.003a19.931 19.931 0 0 0-.469-.003H19a1 1 0 1 1 0-2h.458c.33 0 .668 0 .95.037.326.044.722.152 1.055.48l.005.006.015.014c.328.333.436.729.48 1.054.037.283.037.622.037.952v1.915c0 .33 0 .668-.038.951-.043.325-.151.72-.48 1.054l-.005.005-.014.015c-.333.328-.729.436-1.054.48a7.629 7.629 0 0 1-.952.037H19a1 1 0 1 1 0-2h.408a19.931 19.931 0 0 0 .584-.008l.005-.116c.003-.128.003-.278.003-.468v-1.816a19.931 19.931 0 0 0-.008-.585 4.688 4.688 0 0 0-.116-.004Zm-15.754 0C4.252 11 4.402 11 4.592 11H5a1 1 0 1 0 0-2h-.458c-.33 0-.668 0-.951.037-.325.044-.72.152-1.054.48l-.005.006-.015.014c-.328.333-.436.729-.48 1.054a7.635 7.635 0 0 0-.037.952v1.915c0 .33 0 .668.037.951.044.325.152.72.48 1.054l.006.005.014.015c.333.328.729.436 1.054.48.283.037.622.037.952.037H5a1 1 0 1 0 0-2h-.408a19.934 19.934 0 0 1-.585-.008A19.837 19.837 0 0 1 4 13.407v-1.815a19.837 19.837 0 0 1 .007-.585l.116-.004Z" clip-rule="evenodd"/>
</svg>
