<svg xmlns="http://www.w3.org/2000/svg" fill="none" viewBox="0 0 24 24">
  <path fill="#29333D" fill-rule="evenodd" d="M15.75 12c0 .4142-.3358.75-.75.75H8.5c-.41421 0-.75-.3358-.75-.75s.33579-.75.75-.75H15c.4142 0 .75.3358.75.75Z" clip-rule="evenodd"/>
  <path fill="#29333D" fill-rule="evenodd" d="M5.75 12c0 3.4518 2.79822 6.25 6.25 6.25 3.4518 0 6.25-2.7982 6.25-6.25 0-3.45178-2.7982-6.25-6.25-6.25-3.45178 0-6.25 2.79822-6.25 6.25ZM12 19.75c-4.28021 0-7.75-3.4698-7.75-7.75 0-4.28021 3.46979-7.75 7.75-7.75 4.2802 0 7.75 3.46979 7.75 7.75 0 4.2802-3.4698 7.75-7.75 7.75Zm-.0303-4.7197c-.2929-.2929-.2929-.7677 0-1.0606L13.9393 12l-1.9696-1.9697c-.2929-.29286-.2929-.76774 0-1.06063s.7677-.29289 1.0606 0l2.5 2.50003c.1407.1406.2197.3314.2197.5303 0 .1989-.079.3897-.2197.5303l-2.5 2.5c-.2929.2929-.7677.2929-1.0606 0Z" clip-rule="evenodd"/>
</svg>
