<svg xmlns="http://www.w3.org/2000/svg" fill="none" viewBox="0 0 24 24">
  <path fill="#29333D" fill-rule="evenodd" d="M12 8.25c.4142 0 .75.33579.75.75v6.5c0 .4142-.3358.75-.75.75s-.75-.3358-.75-.75V9c0-.41421.3358-.75.75-.75Z" clip-rule="evenodd"/>
  <path fill="#29333D" fill-rule="evenodd" d="M12 18.25c3.4518 0 6.25-2.7982 6.25-6.25 0-3.45178-2.7982-6.25-6.25-6.25-3.45178 0-6.25 2.79822-6.25 6.25 0 3.4518 2.79822 6.25 6.25 6.25ZM19.75 12c0 4.2802-3.4698 7.75-7.75 7.75-4.28021 0-7.75-3.4698-7.75-7.75 0-4.28021 3.46979-7.75 7.75-7.75 4.2802 0 7.75 3.46979 7.75 7.75Zm-4.7197.0303c-.2929.2929-.7677.2929-1.0606 0L12 10.0607l-1.9697 1.9696c-.29286.2929-.76774.2929-1.06063 0s-.29289-.7677 0-1.0606l2.50003-2.50003c.1406-.14065.3314-.21967.5303-.21967.1989 0 .3897.07902.5303.21967l2.5 2.50003c.2929.2929.2929.7677 0 1.0606Z" clip-rule="evenodd"/>
</svg>
