<svg xmlns="http://www.w3.org/2000/svg" fill="none" viewBox="0 0 24 24">
  <path fill="#29333D" fill-rule="evenodd" d="M5.51587 6.59088c0-1.58782 1.28718-2.875 2.875-2.875h7.31823c1.5878 0 2.875 1.28718 2.875 2.875V19.0001c0 1.1345-1.3465 1.7302-2.1859.967L12.05 16.0142l-4.34825 3.9529c-.83947.7632-2.18588.1675-2.18588-.967V6.59088Zm2.875-1.30682c-.72174 0-1.30682.58509-1.30682 1.30682V18.4093l4.08685-3.7153c.4984-.4531 1.2597-.4531 1.7581 0l4.0869 3.7153V6.59088c0-.72173-.5851-1.30682-1.3068-1.30682H8.39087Z" clip-rule="evenodd"/>
</svg>
