<svg xmlns="http://www.w3.org/2000/svg" fill="none" viewBox="0 0 24 25">
  <path fill="#29333D" fill-rule="evenodd" d="M7 4.29999h10c1.933 0 3.5 1.567 3.5 3.5V17.8c0 1.933-1.567 3.5-3.5 3.5H7c-1.933 0-3.5-1.567-3.5-3.5V7.79999c0-1.933 1.567-3.5 3.5-3.5Zm0 1.5c-1.10457 0-2 .89543-2 2V17.8c0 1.1046.89543 2 2 2h10c1.1046 0 2-.8954 2-2V7.79999c0-1.10457-.8954-2-2-2H7Z" clip-rule="evenodd"/>
  <path fill="#29333D" fill-rule="evenodd" d="M12.2998 8.04999c.4142 0 .75.33578.75.75V16.8c0 .4142-.3358.75-.75.75s-.75-.3358-.75-.75V8.79999c0-.41422.3358-.75.75-.75Zm-4 2.00001c.41422 0 .75.3358.75.75v6c0 .4142-.33578.75-.75.75-.41421 0-.75-.3358-.75-.75v-6c0-.4142.33579-.75.75-.75Zm7.5 2c.4142 0 .75.3358.75.75v4c0 .4142-.3358.75-.75.75s-.75-.3358-.75-.75v-4c0-.4142.3358-.75.75-.75Z" clip-rule="evenodd"/>
</svg>
