<svg xmlns="http://www.w3.org/2000/svg" fill="none" viewBox="0 0 24 24">
  <path fill="#29333D" fill-rule="evenodd" d="M20.5467 11.1625c.1794 4.5174-3.5916 8.1489-8.1758 8.331-.9324.037-1.8387-.069-2.69343-.2991l-2.79126 1.1484c-1.55886.6413-3.19997-.7228-2.85437-2.3726l.55344-2.6421c.02147-.1025.01145-.2313-.05166-.3672-.19621-.4226-.42011-.938-.60139-1.454-.17047-.4851-.34934-1.0962-.37213-1.6698-.17942-4.51743 3.59163-8.14893 8.1758-8.331 4.5842-.18207 8.6314 3.1389 8.8108 7.6564Zm-1.4988.0595c.1425 3.587-2.8736 6.6193-6.7365 6.7727-.846.0336-1.6624-.0737-2.42314-.2994-.1861-.0552-.38583-.0508-.56535.023l-3.0074 1.2373c-.44539.1832-.91428-.2065-.81554-.6779l.55345-2.6421c.09231-.4407.03033-.898-.15927-1.3063-.37148-.8002-.80808-1.8682-.83523-2.5517-.14247-3.58702 2.87358-6.61925 6.73648-6.77268 3.863-.15343 7.11 2.63005 7.2525 6.21708Z" clip-rule="evenodd"/>
</svg>
