<svg xmlns="http://www.w3.org/2000/svg" fill="none" viewBox="0 0 24 24">
  <path fill="#29333D" fill-rule="evenodd" d="M20.5 12c0 4.6944-3.8056 8.5-8.5 8.5-4.69442 0-8.5-3.8056-8.5-8.5 0-4.69442 3.80558-8.5 8.5-8.5 4.6944 0 8.5 3.80558 8.5 8.5ZM12 19c3.866 0 7-3.134 7-7 0-3.86599-3.134-7-7-7-3.86599 0-7 3.13401-7 7 0 3.866 3.13401 7 7 7Z" clip-rule="evenodd"/>
  <path fill="#29333D" fill-rule="evenodd" d="M16.0303 9.46967c.2929.29289.2929.76773 0 1.06063l-4.1464 4.1465c-.4882.4881-1.2796.4881-1.7678 0l-1.64643-1.6465c-.29289-.2929-.29289-.7677 0-1.0606.29289-.2929.76777-.2929 1.06066 0L11 13.4393l3.9697-3.96963c.2929-.29289.7677-.29289 1.0606 0Z" clip-rule="evenodd"/>
</svg>
