<svg xmlns="http://www.w3.org/2000/svg" fill="none" viewBox="0 0 24 24">
  <path fill="#29333D" fill-rule="evenodd" d="M5.44995 8.13636c0-1.56899 1.27192-2.84091 2.84091-2.84091h.78409v1.5h-.78409c-.74056 0-1.34091.60035-1.34091 1.34091v9.40914c0 .7405.60035 1.3409 1.34091 1.3409H15.609c.7406 0 1.341-.6004 1.341-1.3409V8.13636c0-.74056-.6004-1.34091-1.341-1.34091h-1.0454v-1.5h1.0454c1.569 0 2.841 1.27192 2.841 2.84091v9.40914c0 1.5689-1.272 2.8409-2.841 2.8409H8.29086c-1.56899 0-2.84091-1.272-2.84091-2.8409V8.13636Z" clip-rule="evenodd"/>
  <path fill="#29333D" fill-rule="evenodd" d="M10.3818 3.5h3.1363c1.1172 0 2.0228.90561 2.0228 2.02273v.52272c0 1.11712-.9056 2.02273-2.0228 2.02273h-3.1363c-1.11715 0-2.02276-.90561-2.02276-2.02273v-.52272c0-1.11712.90561-2.02273 2.02276-2.02273Zm0 1.5c-.2887 0-.52276.23403-.52276.52273v.52272c0 .2887.23406.52273.52276.52273h3.1363c.2887 0 .5228-.23403.5228-.52273v-.52272c0-.2887-.2341-.52273-.5228-.52273h-3.1363Zm-1.79549 6.7955c0-.4143.33579-.75.75-.75h4.18179c.4142 0 .75.3357.75.75 0 .4142-.3358.75-.75.75H9.33631c-.41421 0-.75-.3358-.75-.75Zm0 3.659c0-.4142.33579-.75.75-.75H11.95c.4142 0 .75.3358.75.75 0 .4143-.3358.75-.75.75H9.33631c-.41421 0-.75-.3357-.75-.75Z" clip-rule="evenodd"/>
</svg>
