<svg xmlns="http://www.w3.org/2000/svg" fill="none" viewBox="0 0 24 24">
  <path fill="#29333D" fill-rule="evenodd" d="M5.44971 8.1363c0-1.56899 1.27192-2.84091 2.84091-2.84091h.78409v1.5h-.78409c-.74057 0-1.34091.60035-1.34091 1.34091v9.4091c0 .7406.60034 1.3409 1.34091 1.3409h7.31818c.7406 0 1.3409-.6003 1.3409-1.3409V8.1363c0-.74056-.6003-1.34091-1.3409-1.34091h-1.0455v-1.5h1.0455c1.569 0 2.8409 1.27192 2.8409 2.84091v9.4091c0 1.569-1.2719 2.8409-2.8409 2.8409H8.29062c-1.56899 0-2.84091-1.2719-2.84091-2.8409V8.1363Z" clip-rule="evenodd"/>
  <path fill="#29333D" fill-rule="evenodd" d="M10.3815 3.49994h3.1364c1.1171 0 2.0227.90561 2.0227 2.02273v.52272c0 1.11712-.9056 2.02273-2.0227 2.02273h-3.1364c-1.1171 0-2.0227-.90561-2.0227-2.02273v-.52272c0-1.11712.9056-2.02273 2.0227-2.02273Zm0 1.5c-.2887 0-.5227.23403-.5227.52273v.52272c0 .2887.234.52273.5227.52273h3.1364c.2887 0 .5227-.23403.5227-.52273v-.52272c0-.2887-.234-.52273-.5227-.52273h-3.1364Z" clip-rule="evenodd"/>
</svg>
