<svg xmlns="http://www.w3.org/2000/svg" fill="none" viewBox="0 0 24 24">
  <path fill="#29333D" fill-rule="evenodd" d="M8 19.75c-2.62335 0-4.75-2.1266-4.75-4.75v-2c0-.4142.33579-.75.75-.75s.75.3358.75.75v2c0 1.7949 1.45507 3.25 3.25 3.25h8c1.7949 0 3.25-1.4551 3.25-3.25v-2c0-.4142.3358-.75.75-.75s.75.3358.75.75v2c0 2.6234-2.1266 4.75-4.75 4.75H8Z" clip-rule="evenodd"/>
  <path fill="#29333D" fill-rule="evenodd" d="M16.5303 10.4697c.2929.2929.2929.7677 0 1.0606l-4 4c-.2929.2929-.7677.2929-1.0606 0l-4.00003-4c-.29289-.2929-.29289-.7677 0-1.0606.29289-.2929.76777-.2929 1.06066 0L11.25 13.1893V5c0-.41421.3358-.75.75-.75s.75.33579.75.75v8.1893l2.7197-2.7196c.2929-.2929.7677-.2929 1.0606 0Z" clip-rule="evenodd"/>
</svg>
