<svg xmlns="http://www.w3.org/2000/svg" fill="none" viewBox="0 0 24 24">
  <path fill="#29333D" fill-rule="evenodd" d="M6.5 5.75c-.69036 0-1.25.55964-1.25 1.25v9.5c0 .6904.55964 1.25 1.25 1.25h3c.41421 0 .75.3358.75.75s-.33579.75-.75.75h-3c-1.51878 0-2.75-1.2312-2.75-2.75V7c0-1.51878 1.23122-2.75 2.75-2.75h2.08579c.46412 0 .90924.18437 1.23743.51256l1.62128 1.62132c.2345.23442.5524.36612.8839.36612H15.5c1.5188 0 2.75 1.23122 2.75 2.75v1c0 .4142-.3358.75-.75.75s-.75-.3358-.75-.75v-1c0-.69036-.5596-1.25-1.25-1.25h-3.1716c-.7293 0-1.4288-.28973-1.9445-.80546L8.76256 5.82322C8.71568 5.77634 8.65209 5.75 8.58579 5.75H6.5Z" clip-rule="evenodd"/>
  <path fill="#29333D" fill-rule="evenodd" d="M10.6396 11.75c-.5958 0-1.10886.4206-1.22572 1.0049L8.41485 17.75h8.44555c.5958 0 1.1089-.4206 1.2257-1.0049l.7-3.5c.1547-.7734-.4369-1.4951-1.2257-1.4951h-6.9208Zm-2.69659.7107c.25708-1.2854 1.38573-2.2107 2.69659-2.2107h6.9208c1.7354 0 3.0369 1.5876 2.6966 3.2893l-.7 3.5c-.2571 1.2854-1.3857 2.2107-2.6966 2.2107H6.58515l1.35786-6.7893Z" clip-rule="evenodd"/>
</svg>
