<svg xmlns="http://www.w3.org/2000/svg" fill="none" viewBox="0 0 24 25">
  <path fill="#29333D" fill-rule="evenodd" d="M6.19995 4.39999h2.5c1.38075 0 2.50005 1.11929 2.50005 2.5v2.5C11.2 10.7807 10.0807 11.9 8.69995 11.9h-2.5c-1.38071 0-2.5-1.1193-2.5-2.50001v-2.5c0-1.38071 1.11929-2.5 2.5-2.5Zm0 1.5c-.55228 0-1 .44772-1 1v2.5c0 .55229.44772 1.00001 1 1.00001h2.5c.55229 0 1-.44772 1-1.00001v-2.5c0-.55228-.44771-1-1-1h-2.5Zm9.00005-1.5h2.5c1.3807 0 2.5 1.11929 2.5 2.5v2.5C20.2 10.7807 19.0807 11.9 17.7 11.9h-2.5c-1.3808 0-2.5-1.1193-2.5-2.50001v-2.5c0-1.38071 1.1192-2.5 2.5-2.5Zm0 1.5c-.5523 0-1 .44772-1 1v2.5c0 .55229.4477 1.00001 1 1.00001h2.5c.5522 0 1-.44772 1-1.00001v-2.5c0-.55228-.4478-1-1-1h-2.5ZM6.19995 13.4h2.5C10.0807 13.4 11.2 14.5193 11.2 15.9v2.5c0 1.3807-1.1193 2.5-2.50005 2.5h-2.5c-1.38071 0-2.5-1.1193-2.5-2.5v-2.5c0-1.3807 1.11929-2.5 2.5-2.5Zm0 1.5c-.55228 0-1 .4477-1 1v2.5c0 .5523.44772 1 1 1h2.5c.55229 0 1-.4477 1-1v-2.5c0-.5523-.44771-1-1-1h-2.5ZM15.2 13.4h2.5c1.3807 0 2.5 1.1193 2.5 2.5v2.5c0 1.3807-1.1193 2.5-2.5 2.5h-2.5c-1.3808 0-2.5-1.1193-2.5-2.5v-2.5c0-1.3807 1.1192-2.5 2.5-2.5Zm0 1.5c-.5523 0-1 .4477-1 1v2.5c0 .5523.4477 1 1 1h2.5c.5522 0 1-.4477 1-1v-2.5c0-.5523-.4478-1-1-1h-2.5Z" clip-rule="evenodd"/>
</svg>
