<svg xmlns="http://www.w3.org/2000/svg" fill="none" viewBox="0 0 24 24">
  <path fill="#29333D" d="M11 16.5c0-.5523.4477-1 1-1s1 .4477 1 1-.4477 1-1 1-1-.4477-1-1Z"/>
  <path fill="#29333D" fill-rule="evenodd" d="M12 5.75c-3.45178 0-6.25 2.79822-6.25 6.25 0 3.4518 2.79822 6.25 6.25 6.25 3.4518 0 6.25-2.7982 6.25-6.25 0-3.45178-2.7982-6.25-6.25-6.25ZM4.25 12c0-4.28021 3.46979-7.75 7.75-7.75 4.2802 0 7.75 3.46979 7.75 7.75 0 4.2802-3.4698 7.75-7.75 7.75-4.28021 0-7.75-3.4698-7.75-7.75Zm8.7283-3.22754c-.3465-.20349-.7734-.27146-1.077-.25976-1.114.0429-1.5952.7835-1.5779 1.23167.0159.41393-.3067.76233-.72062.77833-.41391.0159-.76237-.3067-.77831-.72059-.05665-1.47043 1.28613-2.72155 3.01903-2.7883.5199-.02003 1.2464.08462 1.8945.46527.6802.39957 1.2504 1.09449 1.374 2.15719.1046.90043-.445 1.61023-1.0108 2.00133-.8581.5933-1.3803 1.0921-1.3518 1.8335.016.414-.3066.7624-.7205.7784-.4139.0159-.7624-.3067-.7783-.7206-.0633-1.6422 1.1913-2.5677 1.9975-3.1251.3037-.2099.3913-.44472.3739-.5943-.0641-.55171-.3295-.85246-.6437-1.03704Z" clip-rule="evenodd"/>
</svg>
