<svg xmlns="http://www.w3.org/2000/svg" fill="none" viewBox="0 0 24 24">
  <path fill="#29333D" fill-rule="evenodd" d="M3.25 12c0-2.62335 2.12665-4.75 4.75-4.75h2c.4142 0 .75.33579.75.75s-.3358.75-.75.75H8c-1.79493 0-3.25 1.4551-3.25 3.25S6.20507 15.25 8 15.25h2c.4142 0 .75.3358.75.75s-.3358.75-.75.75H8c-2.62335 0-4.75-2.1266-4.75-4.75Zm10-4c0-.41421.3358-.75.75-.75h2c2.6234 0 4.75 2.12665 4.75 4.75 0 2.6234-2.1266 4.75-4.75 4.75h-2c-.4142 0-.75-.3358-.75-.75s.3358-.75.75-.75h2c1.7949 0 3.25-1.4551 3.25-3.25S17.7949 8.75 16 8.75h-2c-.4142 0-.75-.33579-.75-.75Z" clip-rule="evenodd"/>
  <path fill="#29333D" fill-rule="evenodd" d="M8.05005 12.0533c0-.4142.33579-.75.75-.75H15.2c.4143 0 .75.3358.75.75 0 .4143-.3357.75-.75.75H8.80005c-.41421 0-.75-.3357-.75-.75Z" clip-rule="evenodd"/>
</svg>
