<svg xmlns="http://www.w3.org/2000/svg" fill="none" viewBox="0 0 24 25">
  <path fill="#29333D" fill-rule="evenodd" d="M7.75 7.60001c0-.41422.33579-.75.75-.75H19c.4142 0 .75.33578.75.75 0 .41421-.3358.75-.75.75H8.5c-.41421 0-.75-.33579-.75-.75Zm0 4.99999c0-.4142.33579-.75.75-.75H19c.4142 0 .75.3358.75.75s-.3358.75-.75.75H8.5c-.41421 0-.75-.3358-.75-.75Zm0 5c0-.4142.33579-.75.75-.75H19c.4142 0 .75.3358.75.75s-.3358.75-.75.75H8.5c-.41421 0-.75-.3358-.75-.75Z" clip-rule="evenodd"/>
  <path fill="#29333D" d="M6.3 7.70002c0 .49705-.40294.9-.9.9s-.9-.40295-.9-.9c0-.49706.40294-.9.9-.9s.9.40294.9.9ZM6.3 12.7c0 .4971-.40294.9-.9.9s-.9-.4029-.9-.9c0-.497.40294-.9.9-.9s.9.403.9.9Zm0 5c0 .4971-.40294.9-.9.9s-.9-.4029-.9-.9c0-.497.40294-.9.9-.9s.9.403.9.9Z"/>
</svg>
