<svg xmlns="http://www.w3.org/2000/svg" fill="none" viewBox="0 0 24 24">
  <path fill="#29333D" fill-rule="evenodd" d="M19.75 8c0-2.62335-2.1266-4.75-4.75-4.75h-4c-.4142 0-.75.33579-.75.75s.3358.75.75.75h4c1.7949 0 3.25 1.45507 3.25 3.25v8c0 1.7949-1.4551 3.25-3.25 3.25h-4c-.4142 0-.75.3358-.75.75s.3358.75.75.75h4c2.6234 0 4.75-2.1266 4.75-4.75V8Z" clip-rule="evenodd"/>
  <path fill="#29333D" fill-rule="evenodd" d="M10.4697 7.46967c.2929-.29289.7677-.29289 1.0606 0l4 4.00003c.2929.2929.2929.7677 0 1.0606l-4 4c-.2929.2929-.7677.2929-1.0606 0-.2929-.2929-.2929-.7677 0-1.0606l2.7196-2.7197H5c-.41421 0-.75-.3358-.75-.75s.33579-.75.75-.75h8.1893l-2.7196-2.71967c-.2929-.29289-.2929-.76777 0-1.06066Z" clip-rule="evenodd"/>
</svg>
