<svg xmlns="http://www.w3.org/2000/svg" fill="none" viewBox="0 0 24 24">
  <path fill="#29333D" fill-rule="evenodd" d="M10.7841 5.62392c-.5246.15555-1.02682.40052-1.38488.75243-.97609.95934-1.36396 2.26838-1.36396 4.53825 0 1.5046-.78352 2.9516-1.38276 3.9331-.15647.2562-.21797.5138-.20529.6986.01076.1568.06684.2453.18221.3103.60159.3387 1.48691.5814 2.49398.735.9928.1514 2.0414.2072 2.9266.2072.4142 0 .75.3358.75.75s-.3358.75-.75.75c-.9404 0-2.06721-.0588-3.15274-.2244-1.07132-.1633-2.16746-.4399-3.00372-.9107-.61548-.3466-.90247-.9268-.94281-1.5148-.03843-.56.14094-1.1233.42153-1.5829.59656-.9771 1.163-2.1051 1.163-3.1514 0-2.41302.40626-4.22593 1.81252-5.60805.59488-.58468 1.35001-.92508 2.00992-1.12075.6627-.19649 1.2905-.26508 1.6923-.26508.4142 0 .75.33578.75.75 0 .41421-.3358.75-.75.75-.26 0-.744.04847-1.2659.2032Z" clip-rule="evenodd"/>
  <path fill="#29333D" fill-rule="evenodd" d="M13.3158 5.62392c.5247.15555 1.0269.40052 1.3849.75243.9761.95934 1.364 2.26839 1.364 4.53825 0 1.5046.7835 2.9516 1.3828 3.9331.1564.2562.2179.5138.2052.6986-.0107.1568-.0668.2453-.1822.3103-.6016.3387-1.4869.5814-2.4939.735-.9929.1514-2.0414.2072-2.9266.2072-.4142 0-.75.3358-.75.75s.3358.75.75.75c.9404 0 2.0672-.0588 3.1527-.2244 1.0713-.1633 2.1675-.4399 3.0037-.9107.6155-.3466.9025-.9267.9428-1.5148.0385-.56-.1409-1.1233-.4215-1.5829-.5966-.9771-1.163-2.1051-1.163-3.1514 0-2.41302-.4063-4.22592-1.8125-5.60805-.5949-.58467-1.35-.92507-2.01-1.12074-.6627-.1965-1.2905-.26509-1.6922-.26509-.4142 0-.75.33578-.75.75 0 .41421.3358.75.75.75.26 0 .744.04848 1.2658.2032Z" clip-rule="evenodd"/>
  <path fill="#29333D" d="M14.0352 4.97925c0 .69557-1.1081.04314-1.9853.04314-.8771 0-1.9853.65243-1.9853-.04314 0-.69557.7941-1.67926 1.9853-1.67926s1.9853.98369 1.9853 1.67926Z"/>
  <path fill="#29333D" fill-rule="evenodd" d="M10.2499 17.5c0 .9665.7835 1.75 1.75 1.75s1.75-.7835 1.75-1.75h1.5c0 1.7949-1.4551 3.25-3.25 3.25s-3.24998-1.4551-3.24998-3.25h1.49998Z" clip-rule="evenodd"/>
</svg>
