<svg xmlns="http://www.w3.org/2000/svg" fill="none" viewBox="0 0 24 24">
  <path fill="#29333D" fill-rule="evenodd" d="M6 5.25c-.69036 0-1.25.55965-1.25 1.25V18c0 .6904.55964 1.25 1.25 1.25h12c.6904 0 1.25-.5596 1.25-1.25v-4.2539c0-.4142.3358-.75.75-.75s.75.3358.75.75V18c0 1.5188-1.2312 2.75-2.75 2.75H6c-1.51878 0-2.75-1.2312-2.75-2.75V6.5c0-1.51878 1.23122-2.75 2.75-2.75h4.2377c.4142 0 .75.33579.75.75 0 .41422-.3358.75-.75.75H6Z" clip-rule="evenodd"/>
  <path fill="#29333D" fill-rule="evenodd" d="M19.8467 4.18958c.2929.2929.2929.76777 0 1.06066l-8.864 8.86406c-.2929.2928-.7677.2928-1.06064 0-.29289-.2929-.29289-.7678 0-1.0607l8.86404-8.86402c.2929-.29289.7677-.29289 1.0606 0Z" clip-rule="evenodd"/>
  <path fill="#29333D" fill-rule="evenodd" d="M20.1524 3.8916c.142.1393.2229.32933.2248.52825l.0478 4.99759c.004.4142-.3286.75316-.7428.75716-.4141.004-.7531-.3286-.7571-.7428l-.0407-4.24748-4.1518.04052c-.4142.00404-.7532-.32845-.7572-.74264-.0041-.4142.3284-.75325.7426-.75729l4.9019-.04784c.1989-.00194.3905.07523.5325.21453Z" clip-rule="evenodd"/>
</svg>
