<svg xmlns="http://www.w3.org/2000/svg" fill="none" viewBox="0 0 24 25">
  <path fill="#29333D" fill-rule="evenodd" d="M10.3738 5.69103c.138.39053-.0667.81903-.4572.95706C7.19681 7.6094 5.25 10.2033 5.25 13.25c0 3.866 3.13401 7 7 7 3.3857 0 6.2115-2.4044 6.86-5.5992.0824-.406.4782-.6682.8842-.5858.4059.0824.6682.4782.5858.8842-.7876 3.8801-4.2169 6.8008-8.33 6.8008-4.69442 0-8.5-3.8056-8.5-8.5 0-3.70215 2.36637-6.84966 5.66673-8.01617.39054-.13803.81907.06666.95707.4572Z" clip-rule="evenodd"/>
  <path fill="#29333D" fill-rule="evenodd" d="M19.9198 8.43438c.3284.79282.5119 1.63742.5423 2.49362.0354.9954-.7721 1.7553-1.6975 1.7553h-5.2793c-.94 0-1.702-.762-1.702-1.702V5.70201c0-.92538.7599-1.73288 1.7553-1.69749.8562.03045 1.7008.21387 2.4936.54227.8716.36099 1.6635.89011 2.3305 1.55715.667.66703 1.1961 1.45892 1.5571 2.33044Zm-.9568 2.54692c.004.1115-.0868.202-.1984.202h-5.2793c-.1115 0-.202-.0904-.202-.202V5.70201c0-.11158.0905-.2024.202-.19843.6774.02409 1.3457.1692 1.9729.42902.6896.28562 1.3161.70425 1.8438 1.232.5278.52774.9464 1.15427 1.232 1.8438.2598.62727.405 1.2955.429 1.9729Z" clip-rule="evenodd"/>
</svg>
