<svg xmlns="http://www.w3.org/2000/svg" fill="none" viewBox="0 0 24 24">
  <path fill="#29333D" fill-rule="evenodd" d="M7 6.5h10c1.933 0 3.5 1.567 3.5 3.5v4.5c0 1.6569-1.3431 3-3 3H17l-1 2H8l-1-2h-.5c-1.65685 0-3-1.3431-3-3V10c0-1.933 1.567-3.5 3.5-3.5ZM7 8c-1.10457 0-2 .89543-2 2v4.5c0 .8284.67157 1.5 1.5 1.5H7l1 3h8l1-3h.5c.8284 0 1.5-.6716 1.5-1.5V10c0-1.10457-.8954-2-2-2H7Z" clip-rule="evenodd"/>
  <path fill="#29333D" fill-rule="evenodd" d="M8.75 4.75v1.5h6.5v-.70375L13.9433 4.75H8.75Zm-1.5-.35c0-.63513.51487-1.15 1.15-1.15h5.6416c.2111 0 .4181.05811.5984.16797l1.5584.94966c.3426.20875.5516.5809.5516.98204V6.6c0 .63513-.5149 1.15-1.15 1.15H8.4c-.63513 0-1.15-.51487-1.15-1.15V4.4ZM8.5 14.5v4h7v-4h-7ZM8 13c-.55228 0-1 .4477-1 1v5c0 .5523.44772 1 1 1h8c.5523 0 1-.4477 1-1v-5c0-.5523-.4477-1-1-1H8Z" clip-rule="evenodd"/>
  <path fill="#29333D" d="M16 9.75c0-.41421.3358-.75.75-.75h.5c.4142 0 .75.33579.75.75 0 .4142-.3358.75-.75.75h-.5c-.4142 0-.75-.3358-.75-.75Z"/>
</svg>
