<svg xmlns="http://www.w3.org/2000/svg" fill="none" viewBox="0 0 24 25">
  <path fill="#292D32" d="M9.75 7.10001c-.69036 0-1.25-.55965-1.25-1.25 0-.69036.55964-1.25 1.25-1.25.6904 0 1.25.55964 1.25 1.25 0 .69035-.5596 1.25-1.25 1.25Zm0 4.49999c-.69036 0-1.25-.5596-1.25-1.25 0-.69035.55964-1.24999 1.25-1.24999.6904 0 1.25.55964 1.25 1.24999 0 .6904-.5596 1.25-1.25 1.25Zm0 4.5c-.69036 0-1.25-.5596-1.25-1.25 0-.6903.55964-1.25 1.25-1.25.6904 0 1.25.5597 1.25 1.25 0 .6904-.5596 1.25-1.25 1.25Zm0 4.5c-.69036 0-1.25-.5596-1.25-1.25 0-.6903.55964-1.25 1.25-1.25.6904 0 1.25.5597 1.25 1.25 0 .6904-.5596 1.25-1.25 1.25Zm4.7-13.49999c-.6904 0-1.25-.55965-1.25-1.25 0-.69036.5596-1.25 1.25-1.25.6903 0 1.25.55964 1.25 1.25 0 .69035-.5597 1.25-1.25 1.25Zm0 4.49999c-.6904 0-1.25-.5596-1.25-1.25 0-.69035.5596-1.24999 1.25-1.24999.6903 0 1.25.55964 1.25 1.24999 0 .6904-.5597 1.25-1.25 1.25Zm0 4.5c-.6904 0-1.25-.5596-1.25-1.25 0-.6903.5596-1.25 1.25-1.25.6903 0 1.25.5597 1.25 1.25 0 .6904-.5597 1.25-1.25 1.25Zm0 4.5c-.6904 0-1.25-.5596-1.25-1.25 0-.6903.5596-1.25 1.25-1.25.6903 0 1.25.5597 1.25 1.25 0 .6904-.5597 1.25-1.25 1.25Z"/>
</svg>
