<svg xmlns="http://www.w3.org/2000/svg" fill="none" viewBox="0 0 24 24">
  <path fill="#29333D" fill-rule="evenodd" d="M12 6.55c3.4518 0 6.25 2.79822 6.25 6.25 0 3.4518-2.7982 6.25-6.25 6.25-3.45178 0-6.25-2.7982-6.25-6.25 0-.9599.2159-1.8674.60108-2.6782.17773-.37412.01851-.82151-.35563-.99924-.37414-.17774-.82153-.01852-.99926.35562C4.51749 10.4859 4.25 11.6127 4.25 12.8c0 4.2802 3.46979 7.75 7.75 7.75 4.2802 0 7.75-3.4698 7.75-7.75S16.2802 5.05 12 5.05c-1.0687 0-2.08864.21673-3.01689.60935l.58433 1.3815C10.3141 6.72502 11.1357 6.55 12 6.55Z" clip-rule="evenodd"/>
  <path fill="#29333D" fill-rule="evenodd" d="M10.4198 3.32792c-.3712-.18385-.82111-.03199-1.00496.33919L8.24821 6.02244c-.23288.47016-.04053 1.04008.42963 1.27296l2.35536 1.16663c.3712.18385.8211.03199 1.0049-.33919.1839-.37117.032-.82111-.3391-1.00496l-1.86253-.92251.92253-1.86248c.1838-.37118.032-.82112-.3392-1.00497Z" clip-rule="evenodd"/>
</svg>
