<svg xmlns="http://www.w3.org/2000/svg" fill="none" viewBox="0 0 24 24">
  <path fill="#29333D" fill-rule="evenodd" d="M12 6.55c-3.45178 0-6.25 2.79822-6.25 6.25 0 3.4518 2.79822 6.25 6.25 6.25 3.4518 0 6.25-2.7982 6.25-6.25 0-.9599-.2159-1.8674-.6011-2.6782-.1777-.37412-.0185-.82151.3556-.99924.3742-.17774.8216-.01852.9993.35562.4787 1.00772.7462 2.13452.7462 3.32182 0 4.2802-3.4698 7.75-7.75 7.75-4.28021 0-7.75-3.4698-7.75-7.75S7.71979 5.05 12 5.05c1.0687 0 2.0886.21673 3.0169.60935l-.5843 1.3815C13.6859 6.72502 12.8643 6.55 12 6.55Z" clip-rule="evenodd"/>
  <path fill="#29333D" fill-rule="evenodd" d="M13.5802 3.32792c.3712-.18385.8211-.03199 1.005.33919l1.1666 2.35533c.2329.47016.0405 1.04008-.4296 1.27296l-2.3554 1.16663c-.3712.18385-.8211.03199-1.0049-.33919-.1839-.37117-.032-.82111.3391-1.00496l1.8625-.92251-.9225-1.86248c-.1838-.37118-.032-.82112.3392-1.00497Z" clip-rule="evenodd"/>
</svg>
