<svg xmlns="http://www.w3.org/2000/svg" fill="none" viewBox="0 0 24 24">
  <path fill="#29333D" fill-rule="evenodd" d="M11 16.5c3.0376 0 5.5-2.4624 5.5-5.5 0-3.03757-2.4624-5.5-5.5-5.5-3.03757 0-5.5 2.46243-5.5 5.5 0 3.0376 2.46243 5.5 5.5 5.5Zm0 1.5c3.866 0 7-3.134 7-7 0-3.86599-3.134-7-7-7-3.86599 0-7 3.13401-7 7 0 3.866 3.13401 7 7 7Z" clip-rule="evenodd"/>
  <path fill="#29333D" fill-rule="evenodd" d="M15.0711 15.001c.2954-.2903.7703-.2861 1.0606.0094l3.4033 3.464c.2903.2954.2861.7703-.0094 1.0606-.2955.2903-.7703.2861-1.0606-.0094l-3.4033-3.464c-.2903-.2954-.2861-.7703.0094-1.0606Z" clip-rule="evenodd"/>
</svg>
