<svg xmlns="http://www.w3.org/2000/svg" fill="none" viewBox="0 0 24 24">
  <path fill="#29333D" fill-rule="evenodd" d="m15.3957 7.82627-1.1752-2.86524c-.8144-1.98571-3.6266-1.98573-4.44098 0L8.60437 7.82627l-3.08815.23222c-2.14019.16094-3.00921 2.83541-1.37234 4.22361l2.36187 2.0031-.73344 3.0087c-.50829 2.0852 1.76678 3.7382 3.59284 2.6104L12 18.277l2.6349 1.6273c1.826 1.1278 4.1011-.5252 3.5928-2.6104l-.7334-3.0087 2.3618-2.0031c1.6369-1.3881.7679-4.06266-1.3723-4.22361l-3.0881-.23222Zm-2.563-2.29605c-.3054-.74464-1.36-.74464-1.6654 0L9.85156 8.73831c-.12928.31521-.42546.5304-.76519.55595l-3.45767.26001c-.80257.06035-1.12845 1.06333-.51463 1.58383l2.64448 2.2428c.25984.2203.37297.5685.29228.8995l-.82119 3.3688c-.19061.7819.66254 1.4018 1.34731.9789l2.95015-1.8221c.2899-.179.656-.179.9458 0l2.9502 1.8221c.6847.4229 1.5379-.197 1.3473-.9789l-.8212-3.3688c-.0807-.331.0324-.6792.2923-.8995l2.6445-2.2428c.6138-.5205.2879-1.52348-.5147-1.58383l-3.4576-.26001c-.3398-.02555-.636-.24074-.7652-.55595l-1.3158-3.20809Z" clip-rule="evenodd"/>
</svg>
