<svg xmlns="http://www.w3.org/2000/svg" fill="none" viewBox="0 0 24 25">
  <path fill="#29333D" fill-rule="evenodd" d="M19.4881 7.48055c.3145.26956.3509.74304.0814 1.05753l-5.0199 5.85652c-.8145.9502-2.3342.7632-2.8939-.3563l-1.153-2.3058c-.0799-.1599-.297-.1867-.4134-.0509l-5.01984 5.8565c-.26957.3145-.74305.3509-1.05754.0813-.31449-.2695-.35092-.743-.08135-1.0575l5.01986-5.8565c.81451-.95026 2.33427-.76317 2.89397.3563l1.1529 2.3058c.08.1599.2971.1866.4134.0509l5.0199-5.8565c.2695-.3145.743-.35092 1.0575-.08135Z" clip-rule="evenodd"/>
  <path fill="#29333D" fill-rule="evenodd" d="M19.7678 6.56776c.4142 0 .75.33578.75.75v3.53554c0 .4142-.3358.75-.75.75s-.75-.3358-.75-.75V8.06776h-2.7856c-.4142 0-.75-.33579-.75-.75 0-.41422.3358-.75.75-.75h3.5356Z" clip-rule="evenodd"/>
</svg>
