<svg xmlns="http://www.w3.org/2000/svg" fill="none" viewBox="0 0 24 24">
  <path fill="#29333D" fill-rule="evenodd" d="M7 8.5h10c1.933 0 3.5 1.567 3.5 3.5v5c0 1.933-1.567 3.5-3.5 3.5H7c-1.933 0-3.5-1.567-3.5-3.5v-5c0-1.933 1.567-3.5 3.5-3.5ZM7 10c-1.10457 0-2 .8954-2 2v5c0 1.1046.89543 2 2 2h10c1.1046 0 2-.8954 2-2v-5c0-1.1046-.8954-2-2-2H7Z" clip-rule="evenodd"/>
  <path fill="#29333D" fill-rule="evenodd" d="M12.2059 3.25c.8941 0 1.8471.07092 2.7709.36028.5337.16717 1.0707.41 1.407.97303.3055.5115.3662 1.16661.3662 1.91669 0 .41421-.3358.75-.75.75s-.75-.33579-.75-.75c0-.74061-.0782-1.02065-.154-1.14755-.045-.07538-.1316-.17421-.5676-.31074-.7165-.22445-1.4977-.29171-2.3225-.29171-1.1728 0-2.1393.04238-2.84711.52947-.18862.1298-.32471.28263-.4237.51289C8.82918 6.03873 8.75 6.41155 8.75 7v2.5h-1.5V7c0-.70908.09331-1.30292.30704-1.80008.22067-.51328.5514-.88087.95142-1.15614C9.66198 3.25 11.119 3.25 12.2059 3.25ZM12.25 13c.4142 0 .75.3358.75.75v1.5c0 .4142-.3358.75-.75.75s-.75-.3358-.75-.75v-1.5c0-.4142.3358-.75.75-.75Z" clip-rule="evenodd"/>
</svg>
