<svg xmlns="http://www.w3.org/2000/svg" fill="none" viewBox="0 0 24 24">
  <path fill="#29333D" fill-rule="evenodd" d="M8 19.75c-2.62335 0-4.75-2.1266-4.75-4.75v-2c0-.4142.33579-.75.75-.75s.75.3358.75.75v2c0 1.7949 1.45507 3.25 3.25 3.25h8c1.7949 0 3.25-1.4551 3.25-3.25v-2c0-.4142.3358-.75.75-.75s.75.3358.75.75v2c0 2.6234-2.1266 4.75-4.75 4.75H8Z" clip-rule="evenodd"/>
  <path fill="#29333D" fill-rule="evenodd" d="M7.46967 9.53033c-.29289-.29289-.29289-.76777 0-1.06066l4.00003-4c.2929-.29289.7677-.29289 1.0606 0l4 4c.2929.29289.2929.76777 0 1.06066s-.7677.29289-1.0606 0L12.75 6.81066V15c0 .4142-.3358.75-.75.75s-.75-.3358-.75-.75V6.81066L8.53033 9.53033c-.29289.29289-.76777.29289-1.06066 0Z" clip-rule="evenodd"/>
</svg>
