<svg xmlns="http://www.w3.org/2000/svg" fill="none" viewBox="0 0 24 24">
  <path fill="#29333D" fill-rule="evenodd" d="M12 10c1.3807 0 2.5-1.11929 2.5-2.5S13.3807 5 12 5 9.5 6.11929 9.5 7.5 10.6193 10 12 10Zm0 1.5c2.2091 0 4-1.79086 4-4s-1.7909-4-4-4c-2.20914 0-4 1.79086-4 4s1.79086 4 4 4Zm-6.33696 3.2999C6.64392 13.5256 8.11553 12.75 10 12.75h4c1.8845 0 3.3561.7756 4.337 2.0499.963 1.251 1.413 2.9267 1.413 4.7001 0 .4142-.3358.75-.75.75s-.75-.3358-.75-.75c0-1.5403-.3931-2.8646-1.1017-3.7852C16.4576 14.8175 15.4292 14.25 14 14.25h-4c-1.42923 0-2.45763.5675-3.14832 1.4648C6.14311 16.6354 5.75 17.9597 5.75 19.5c0 .4142-.33579.75-.75.75s-.75-.3358-.75-.75c0-1.7734.45004-3.4491 1.41304-4.7001Z" clip-rule="evenodd"/>
  <path fill="#29333D" fill-rule="evenodd" d="M4.25 19.5c0-.4142.33579-.75.75-.75h13.9663c.4143 0 .75.3358.75.75s-.3357.75-.75.75H5c-.41421 0-.75-.3358-.75-.75Z" clip-rule="evenodd"/>
</svg>
