<svg xmlns="http://www.w3.org/2000/svg" fill="none" viewBox="0 0 24 24">
  <path fill="#29333D" fill-rule="evenodd" d="M9.6875 10c.9665 0 1.75-.7835 1.75-1.75s-.7835-1.75-1.75-1.75-1.75.7835-1.75 1.75S8.721 10 9.6875 10Zm0 1.5c1.7949 0 3.25-1.4551 3.25-3.25 0-1.79493-1.4551-3.25-3.25-3.25-1.79493 0-3.25 1.45507-3.25 3.25 0 1.7949 1.45507 3.25 3.25 3.25Zm-5.26021 2.5954c.82416-1.0707 2.0614-1.7204 3.63521-1.7204h3.25c1.5738 0 2.811.6497 3.6352 1.7204.8063 1.0474 1.1773 2.4419 1.1773 3.9046 0 .4142-.3358.75-.75.75s-.75-.3358-.75-.75c0-1.2297-.3141-2.2727-.8659-2.9897-.534-.6937-1.328-1.1353-2.4466-1.1353h-3.25c-1.11857 0-1.91259.4416-2.44658 1.1353-.55186.717-.86592 1.76-.86592 2.9897 0 .4142-.33579.75-.75.75s-.75-.3358-.75-.75c0-1.4627.37099-2.8572 1.17729-3.9046ZM18 8.25c.4142 0 .75.33579.75.75v1.25H20c.4142 0 .75.3358.75.75s-.3358.75-.75.75h-1.25V13c0 .4142-.3358.75-.75.75s-.75-.3358-.75-.75v-1.25H16c-.4142 0-.75-.3358-.75-.75s.3358-.75.75-.75h1.25V9c0-.41421.3358-.75.75-.75Z" clip-rule="evenodd"/>
  <path fill="#29333D" fill-rule="evenodd" d="M3.25 18c0-.4142.33579-.75.75-.75h11.3477c.4142 0 .75.3358.75.75s-.3358.75-.75.75H4c-.41421 0-.75-.3358-.75-.75Z" clip-rule="evenodd"/>
</svg>
