<svg xmlns="http://www.w3.org/2000/svg" fill="none" viewBox="0 0 24 24">
  <path fill="#29333D" fill-rule="evenodd" d="M6.52004 6.5199c.2929-.29289.76777-.29289 1.06066 0l9.8995 9.8995c.2929.2929.2929.7678 0 1.0607-.2929.2928-.7678.2928-1.0607 0L6.52004 7.58056c-.29289-.29289-.29289-.76776 0-1.06066Z" clip-rule="evenodd"/>
  <path fill="#29333D" fill-rule="evenodd" d="M17.4801 6.5199c.2929.2929.2929.76777 0 1.06066L7.58062 17.4801c-.29289.2929-.76776.2929-1.06066 0-.29289-.2929-.29289-.7678 0-1.0607l9.89954-9.8995c.2929-.29289.7677-.29289 1.0606 0Z" clip-rule="evenodd"/>
</svg>
