<svg xmlns="http://www.w3.org/2000/svg" fill="none" viewBox="0 0 24 24">
  <path fill="#29333D" fill-rule="evenodd" d="M20.5 12c0 4.6944-3.8056 8.5-8.5 8.5-4.69442 0-8.5-3.8056-8.5-8.5 0-4.69442 3.80558-8.5 8.5-8.5 4.6944 0 8.5 3.80558 8.5 8.5ZM12 19c3.866 0 7-3.134 7-7 0-3.86599-3.134-7-7-7-3.86599 0-7 3.13401-7 7 0 3.866 3.13401 7 7 7Z" clip-rule="evenodd"/>
  <path fill="#29333D" fill-rule="evenodd" d="M12 13.25c-.4142 0-.75-.3358-.75-.75v-4c0-.41421.3358-.75.75-.75s.75.33579.75.75v4c0 .4142-.3358.75-.75.75Z" clip-rule="evenodd"/>
  <path fill="#29333D" d="M11 15.5c0-.5523.4477-1 1-1s1 .4477 1 1-.4477 1-1 1-1-.4477-1-1Z"/>
</svg>
