<svg xmlns="http://www.w3.org/2000/svg" fill="none" viewBox="0 0 24 24">
  <path fill="#29333D" fill-rule="evenodd" d="M12 15.75c-.4142 0-.75-.3358-.75-.75V8.5c0-.41421.3358-.75.75-.75s.75.33579.75.75V15c0 .4142-.3358.75-.75.75Z" clip-rule="evenodd"/>
  <path fill="#29333D" fill-rule="evenodd" d="M12 5.75c-3.45178 0-6.25 2.79822-6.25 6.25 0 3.4518 2.79822 6.25 6.25 6.25 3.4518 0 6.25-2.7982 6.25-6.25 0-3.45178-2.7982-6.25-6.25-6.25ZM4.25 12c0-4.28021 3.46979-7.75 7.75-7.75 4.2802 0 7.75 3.46979 7.75 7.75 0 4.2802-3.4698 7.75-7.75 7.75-4.28021 0-7.75-3.4698-7.75-7.75Zm4.71967-.0303c.29289-.2929.76777-.2929 1.06063 0L12 13.9393l1.9697-1.9696c.2929-.2929.7677-.2929 1.0606 0 .2929.2929.2929.7677 0 1.0606l-2.5 2.5c-.1406.1407-.3314.2197-.5303.2197-.1989 0-.3897-.079-.5303-.2197l-2.50003-2.5c-.29289-.2929-.29289-.7677 0-1.0606Z" clip-rule="evenodd"/>
</svg>
