<svg xmlns="http://www.w3.org/2000/svg" fill="none" viewBox="0 0 24 24">
  <path fill="#29333D" fill-rule="evenodd" d="M8.25 12c0-.4142.33579-.75.75-.75h6.5c.4142 0 .75.3358.75.75s-.3358.75-.75.75H9c-.41421 0-.75-.3358-.75-.75Z" clip-rule="evenodd"/>
  <path fill="#29333D" fill-rule="evenodd" d="M18.25 12c0-3.45178-2.7982-6.25-6.25-6.25-3.45178 0-6.25 2.79822-6.25 6.25 0 3.4518 2.79822 6.25 6.25 6.25 3.4518 0 6.25-2.7982 6.25-6.25ZM12 4.25c4.2802 0 7.75 3.46979 7.75 7.75 0 4.2802-3.4698 7.75-7.75 7.75S4.25 16.2802 4.25 12 7.71979 4.25 12 4.25Zm.0303 4.71967c.2929.29289.2929.76777 0 1.06063L10.0607 12l1.9696 1.9697c.2929.2929.2929.7677 0 1.0606-.2929.2929-.7677.2929-1.0606 0l-2.50003-2.5C8.32902 12.3897 8.25 12.1989 8.25 12c0-.1989.07902-.3897.21967-.5303l2.50003-2.50003c.2929-.29289.7677-.29289 1.0606 0Z" clip-rule="evenodd"/>
</svg>
