<svg xmlns="http://www.w3.org/2000/svg" fill="none" viewBox="0 0 24 24">
  <path fill="#29333D" fill-rule="evenodd" d="M8.3556 5.8299c-.43585.64077-.6056 1.42965-.6056 1.93478v2.11764c0 .41418-.33579.74998-.75.74998s-.75-.3358-.75-.74998V7.76468c0-.75955.23586-1.85301.86532-2.77841C7.76792 4.02684 8.84924 3.25 10.45 3.25c1.5771 0 2.704.72093 3.4161 1.65342.6913.9052.995 2.00863.995 2.86126v6.58822c0 .5624-.3183 1.2065-.7636 1.6865-.4704.5072-1.186.9459-2.0975.9459-.8785 0-1.5943-.3713-2.08426-.8732-.47384-.4854-.77671-1.1362-.77671-1.7592V7.74609c0-.41421.33579-.75.75-.75.41417 0 .74997.33579.74997.75v6.60681c0 .1613.0965.4516.3501.7114.2374.2432.5771.421 1.0109.421.4008 0 .7407-.1888.9978-.4659.1284-.1385.2252-.2884.2875-.423.0309-.0667.051-.1245.0628-.1703.0059-.0225.0092-.0405.0111-.0536.0019-.0133.0019-.0196.0019-.0196V7.76468c0-.54395-.2075-1.32286-.6871-1.95086C12.2153 5.21312 11.5116 4.75 10.45 4.75c-1.03802 0-1.6817.47317-2.0944 1.0799Z" clip-rule="evenodd"/>
  <path fill="#29333D" fill-rule="evenodd" d="M17 7.00391c.4142 0 .75.33578.75.75v7.87469c0 2.9199-2.6722 5.1214-5.75 5.1214-3.07782 0-5.75-2.2015-5.75-5.1214V10c0-.41421.33579-.74999.75-.74999s.75.33578.75.74999v5.6286c0 1.9086 1.80498 3.6214 4.25 3.6214 2.445 0 4.25-1.7128 4.25-3.6214V7.75391c0-.41422.3358-.75.75-.75Z" clip-rule="evenodd"/>
</svg>
