<svg xmlns="http://www.w3.org/2000/svg" fill="none" viewBox="0 0 24 25">
  <path fill="#29333D" fill-rule="evenodd" d="M7 4.89996h10c1.933 0 3.5 1.56701 3.5 3.5V17.4c0 1.933-1.567 3.5-3.5 3.5H7c-1.933 0-3.5-1.567-3.5-3.5V8.39996c0-1.93299 1.567-3.5 3.5-3.5Zm0 1.5c-1.10457 0-2 .89543-2 2V17.4c0 1.1045.89543 2 2 2h10c1.1046 0 2-.8955 2-2V8.39996c0-1.10457-.8954-2-2-2H7Z" clip-rule="evenodd"/>
  <path fill="#29333D" fill-rule="evenodd" d="M4.25 10.4c0-.41425.33579-.75004.75-.75004h14c.4142 0 .75.33579.75.75004 0 .4142-.3358.75-.75.75H5c-.41421 0-.75-.3358-.75-.75ZM8 3.64996c.41421 0 .75.33579.75.75v3c0 .41422-.33579.75-.75.75s-.75-.33578-.75-.75v-3c0-.41421.33579-.75.75-.75Zm8 0c.4142 0 .75.33579.75.75v3c0 .41422-.3358.75-.75.75s-.75-.33578-.75-.75v-3c0-.41421.3358-.75.75-.75Z" clip-rule="evenodd"/>
</svg>
