<svg xmlns="http://www.w3.org/2000/svg" fill="none" viewBox="0 0 24 24">
  <path fill="#29333D" fill-rule="evenodd" d="M18.3441 13.8067c-.0787-.376-.0259-.7661.1359-1.1145.3169-.6827.6894-1.5938.7126-2.177.1215-3.06031-2.4517-5.6473-5.7474-5.7782-3.2957-.1309-6.06596 2.24387-6.1875 5.3042-.12155 3.0603 2.45163 5.6473 5.7474 5.7782.7217.0287 1.4182-.0628 2.0673-.2554.1587-.0471.3291-.0434.4823.0196l2.5658 1.0556c.38.1564.78-.1762.6958-.5783l-.4722-2.2542ZM5.75888 9.98165c-.15851 3.99075 3.16968 7.17705 7.18662 7.33655.7916.0314 1.5621-.0546 2.2913-.2434l2.313.9516c1.4935.6144 3.0657-.6925 2.7346-2.2731l-.4722-2.2541c-.0079-.0378-.0069-.0994.0283-.1754.169-.3639.3632-.8107.5211-1.2602.1472-.4187.309-.9655.3298-1.4889.1585-3.99072-3.1697-7.17697-7.1866-7.33652-4.01701-.15954-7.58742 2.75272-7.74592 6.74347Z" clip-rule="evenodd"/>
  <path fill="#29333D" fill-rule="evenodd" d="M5.57022 12.9026c.30652.2786.32917.7529.05057 1.0595-.48261.531-.75191 1.2098-.72318 1.9332.00286.0719.0345.2244.11467.4543.07498.2149.17375.4458.27035.6549.17308.3746.23578.8062.14623 1.2337l-.14054.6709.92859-.382c.27846-.1146.57208-.1149.82819-.0396.34114.1003.70889.1485 1.09223.1333.93538-.0371 1.74945-.4434 2.29407-1.0449.278-.307.7522-.3306 1.0593-.0526.3071.278.3306.7523.0526 1.0594-.8158.9011-2.00961 1.4838-3.34644 1.5369-.51804.0206-1.02116-.0398-1.49466-.1702l-1.53919.6333c-.81763.3363-1.67839-.3791-1.49713-1.2445l.29484-1.4075c.01859-.0887.0084-.1928-.03977-.297-.10718-.232-.22779-.5115-.32496-.7901-.09197-.2636-.18523-.5875-.1972-.8888-.04556-1.1471.38581-2.2026 1.11197-3.0016.2786-.3065.75293-.3292 1.05946-.0506Z" clip-rule="evenodd"/>
</svg>
