<svg xmlns="http://www.w3.org/2000/svg" fill="none" viewBox="0 0 24 25">
  <path fill="#29333D" fill-rule="evenodd" d="M20.5 12.4c0 4.6944-3.8056 8.5-8.5 8.5-4.69442 0-8.5-3.8056-8.5-8.5 0-4.69446 3.80558-8.50004 8.5-8.50004 4.6944 0 8.5 3.80558 8.5 8.50004Zm-8.5 7c3.866 0 7-3.134 7-7 0-3.86603-3.134-7.00004-7-7.00004-3.86599 0-7 3.13401-7 7.00004 0 3.866 3.13401 7 7 7Z" clip-rule="evenodd"/>
  <path fill="#29333D" fill-rule="evenodd" d="M12 6.64996c.4142 0 .75.33579.75.75v4.51414c0 .0187.0104.0358.0269.0444l2.888 1.5005c.3675.191.5107.6438.3197 1.0114-.191.3675-.6438.5107-1.0113.3197l-2.888-1.5006c-.5132-.2667-.8353-.797-.8353-1.3754V7.39996c0-.41421.3358-.75.75-.75Z" clip-rule="evenodd"/>
</svg>
