<svg xmlns="http://www.w3.org/2000/svg" fill="none" viewBox="0 0 24 24">
  <path fill="#29333D" fill-rule="evenodd" d="M3.25 11.2c0-1.62924 1.32076-2.95 2.95-2.95h1.65v1.5H6.2c-.80081 0-1.45.6492-1.45 1.45v6.6c0 .8008.64919 1.45 1.45 1.45h6.6c.8008 0 1.45-.6492 1.45-1.45v-1.65h1.5v1.65c0 1.6292-1.3208 2.95-2.95 2.95H6.2c-1.62924 0-2.95-1.3208-2.95-2.95v-6.6Z" clip-rule="evenodd"/>
  <path fill="#29333D" fill-rule="evenodd" d="M10 3.5h7c1.933 0 3.5 1.567 3.5 3.5v7c0 1.933-1.567 3.5-3.5 3.5h-7c-1.933 0-3.5-1.567-3.5-3.5V7c0-1.933 1.567-3.5 3.5-3.5ZM10 5c-1.10457 0-2 .89543-2 2v7c0 1.1046.89543 2 2 2h7c1.1046 0 2-.8954 2-2V7c0-1.10457-.8954-2-2-2h-7Z" clip-rule="evenodd"/>
</svg>
