<svg xmlns="http://www.w3.org/2000/svg" fill="none" viewBox="0 0 24 24">
  <path fill="#29333D" fill-rule="evenodd" d="M15 20.5H9c-1.933 0-3.5-1.567-3.5-3.5V7c0-1.933 1.567-3.5 3.5-3.5h3.4364c.7267 0 1.4286.26376 1.9755.74227l3.0636 2.68065c.6511.56967 1.0245 1.39265 1.0245 2.25773V17c0 1.933-1.567 3.5-3.5 3.5Zm0-1.5H9c-1.10457 0-2-.8954-2-2V7c0-1.10457.89543-2 2-2h3.4364c.3633 0 .7143.13188.9878.37113l3.0636 2.68066c.3255.28483.5122.69632.5122 1.12886V17c0 1.1046-.8954 2-2 2Z" clip-rule="evenodd"/>
  <path fill="#29333D" fill-rule="evenodd" d="M13 4.25c.4142 0 .75.33579.75.75v2c0 .69036.5596 1.25 1.25 1.25h2c.4142 0 .75.33579.75.75s-.3358.75-.75.75h-2c-1.5188 0-2.75-1.23122-2.75-2.75V5c0-.41421.3358-.75.75-.75Z" clip-rule="evenodd"/>
</svg>
