<svg xmlns="http://www.w3.org/2000/svg" fill="none" viewBox="0 0 24 24">
  <path fill="#29333D" fill-rule="evenodd" d="M4.44995 8.3c0-1.40833 1.14168-2.55 2.55-2.55H8.9999v1.5H6.99995c-.5799 0-1.05.4701-1.05 1.05v10c0 .5799.4701 1.05 1.05 1.05h6.19995c.5799 0 1.05-.4701 1.05-1.05V18h1.5v.3c0 1.4083-1.1417 2.55-2.55 2.55H6.99995c-1.40833 0-2.55-1.1417-2.55-2.55v-10Z" clip-rule="evenodd"/>
  <path fill="#29333D" fill-rule="evenodd" d="m16.2693 4.00514 2.7572 2.41259c.6185.54118.9733 1.32301.9733 2.14484V15.6c0 1.8225-1.4775 3.3-3.3 3.3h-5.4c-1.82258 0-3.30004-1.4775-3.30004-3.3V6.59999c0-1.82254 1.47746-3.3 3.30004-3.3h3.0927c.6903 0 1.3572.25057 1.8768.70515ZM16.6998 17.4h-5.4c-.9942 0-1.80004-.8059-1.80004-1.8V6.59999c0-.99411.80584-1.8 1.80004-1.8h3.0927c.327 0 .6429.11869.889.33402l2.7572 2.41259c.293.25635.4611.62669.4611 1.01597V15.6c0 .9941-.8059 1.8-1.8 1.8Z" clip-rule="evenodd"/>
  <path fill="#29333D" fill-rule="evenodd" d="M10.5498 11.1c0-.4142.3357-.75.75-.75h3.6c.4142 0 .75.3358.75.75s-.3358.75-.75.75h-3.6c-.4143 0-.75-.3358-.75-.75Zm0 3.15c0-.4142.3357-.75.75-.75h2.25c.4142 0 .75.3358.75.75s-.3358.75-.75.75h-2.25c-.4143 0-.75-.3358-.75-.75Zm4.35-10.20001c.4142 0 .75.33578.75.75v1.8c0 .5799.4701 1.05 1.05 1.05h1.8c.4142 0 .75.33578.75.75 0 .41421-.3358.75-.75.75h-1.8c-1.4084 0-2.55-1.14168-2.55-2.55v-1.8c0-.41422.3357-.75.75-.75Z" clip-rule="evenodd"/>
</svg>
