<svg xmlns="http://www.w3.org/2000/svg" fill="none" viewBox="0 0 24 24">
  <path fill="#29333D" fill-rule="evenodd" d="M4.25 8.00003c0-2.07106 1.67893-3.75 3.75-3.75h4c.4142 0 .75.33579.75.75 0 .41422-.3358.75-.75.75H8c-1.24264 0-2.25 1.00736-2.25 2.25V16c0 1.2427 1.00736 2.25 2.25 2.25h8c1.2426 0 2.25-1.0073 2.25-2.25v-4c0-.4142.3358-.75.75-.75s.75.3358.75.75v4c0 2.0711-1.6789 3.75-3.75 3.75H8c-2.07107 0-3.75-1.6789-3.75-3.75V8.00003Z" clip-rule="evenodd"/>
  <path fill="#29333D" fill-rule="evenodd" d="M10.5274 14.1421c-.4902-.4175-.65925-1.1013-.4201-1.6991l.9229-2.3073c.1263-.31575.3154-.6026.5559-.8431l4.3532-4.35319L17 6.00007l-4.3532 4.35323c-.0969.0968-.173.2123-.2239.3395L11.5 13.0001l2.3932-1.436c.0709-.0425.1364-.0936.1948-.1521L18.5 7.00007c.2529-.25287.9344-1.05802.3275-1.66491-.5853-.58532-1.5063.34167-1.7979.63515-.0107.01082-.0206.02077-.0296.02976l-1.0607-1.06066c.0069-.0069.0158-.0159.0265-.02679.1318-.13392.5443-.55297 1.0412-.8523.2704-.16289.6884-.36833 1.1971-.40826.5788-.04544 1.1958.13416 1.684.62244.3874.38735.6167.86721.6714 1.38285.0515.48437-.0602.90534-.1847 1.21025-.238.58256-.6361 1.01512-.8141 1.19313l-4.412 4.41197c-.1452.1452-.3077.272-.4837.3777l-2.3933 1.4359c-.5521.3313-1.254.2732-1.7443-.1442Z" clip-rule="evenodd"/>
</svg>
