<svg xmlns="http://www.w3.org/2000/svg" fill="none" viewBox="0 0 24 24">
  <path fill="#29333D" fill-rule="evenodd" d="M3.5 16.5V8c0-1.933 1.567-3.5 3.5-3.5h2.58579c.66301 0 1.29891.26339 1.76781.73223l1.6213 1.62132c.0937.09377.2209.14645.3535.14645H17c1.933 0 3.5 1.567 3.5 3.5v6c0 1.933-1.567 3.5-3.5 3.5H7c-1.933 0-3.5-1.567-3.5-3.5ZM5 8v8.5c0 1.1046.89543 2 2 2h10c1.1046 0 2-.8954 2-2v-6c0-1.10457-.8954-2-2-2h-3.6716c-.5304 0-1.0391-.21071-1.4142-.58579l-1.6213-1.62132C10.1054 6.10536 9.851 6 9.58579 6H7c-1.10457 0-2 .89543-2 2Z" clip-rule="evenodd"/>
</svg>
