<svg xmlns="http://www.w3.org/2000/svg" fill="none" viewBox="0 0 24 24">
  <path fill="#29333D" fill-rule="evenodd" d="m14.4728 18.1682-2.1515 1.6136c-1.3185.9889-3.19998.0481-3.19998-1.6v-4.6432L5.20473 9.94844c-.51657-.47353-.81069-1.14212-.81069-1.84289V6c0-1.38071 1.11929-2.5 2.5-2.5H17.1062c1.3807 0 2.5 1.11929 2.5 2.5v2.13124c0 .66304-.2634 1.29893-.7323 1.76777l-3.6011 3.60109v3.0681c0 .6295-.2964 1.2223-.8 1.6Zm-5.02721-4.3323Zm1.17571-.7372c0-.1401-.0588-.2738-.1621-.3685L6.21832 8.84271c-.20663-.18941-.32428-.45685-.32428-.73716V6c0-.55228.44772-1 1-1H17.1062c.5522 0 1 .44771 1 1v2.13124c0 .26522-.1054.51957-.2929.70711l-3.894 3.89395c-.0938.0938-.1465.221-.1465.3536v3.4823c0 .1574-.0741.3056-.2.4l-2.1515 1.6136c-.3296.2472-.8.012-.8-.4v-5.0831Z" clip-rule="evenodd"/>
  <path fill="#29333D" fill-rule="evenodd" d="M4.75006 8.1515c0-.41421.33578-.75.75-.75H18.5001c.4142 0 .75.33579.75.75 0 .41422-.3358.75-.75.75H5.50006c-.41422 0-.75-.33578-.75-.75Z" clip-rule="evenodd"/>
</svg>
