<svg xmlns="http://www.w3.org/2000/svg" fill="none" viewBox="0 0 24 25">
  <path fill="#29333D" fill-rule="evenodd" d="M6 3.70001h11c1.933 0 3.5 1.56701 3.5 3.5V18.2c0 1.933-1.567 3.5-3.5 3.5H6c-1.933 0-3.5-1.567-3.5-3.5V7.20001c0-1.93299 1.567-3.5 3.5-3.5Zm0 1.5c-1.10457 0-2 .89543-2 2V18.2c0 1.1046.89543 2 2 2h11c1.1046 0 2-.8954 2-2V7.20001c0-1.10457-.8954-2-2-2H6Z" clip-rule="evenodd"/>
  <path fill="#29333D" fill-rule="evenodd" d="M16.3013 11.8977c-.4654-.4072-1.1585-.4129-1.6306-.0135l-4.5581 3.8569c-.63863.5403-1.57039.5531-2.22363.0306l-1.15858-.9269c-.09947-.0796-.24287-.0716-.33295.0184l-2.36711 2.3671c-.29289.2929-.76777.2929-1.06066 0s-.29289-.7677 0-1.0606l2.36711-2.3671c.63053-.6306 1.63434-.6862 2.33065-.1291l1.15858.9269c.09332.0746.22643.0728.31766-.0044l4.55813-3.8569c1.0385-.87872 2.5634-.86609 3.5872.0297l2.7049 2.3668c.3117.2727.3433.7466.0705 1.0583-.2727.3117-.7466.3433-1.0583.0705l-2.7048-2.3667Z" clip-rule="evenodd"/>
  <path fill="#29333D" d="M10 9.70001C10 10.5284 9.32843 11.2 8.5 11.2S7 10.5284 7 9.70001c0-.82842.67157-1.5 1.5-1.5s1.5.67158 1.5 1.5Z"/>
</svg>
