<svg xmlns="http://www.w3.org/2000/svg" fill="none" viewBox="0 0 24 24">
  <path fill="#29333D" fill-rule="evenodd" d="M12.8276 7.00132c-.6816.68162-1.027 1.57038-1.0369 2.46452-.0025.22559.0164.4513.0567.67376.0738.4076-.1969.7978-.6045.8716-.4075.0738-.7978-.1969-.8715-.6044-.0573-.3164-.0841-.63715-.0806-.95752.014-1.27032.5063-2.53872 1.4762-3.50862 1.9686-1.96865 5.1605-1.96865 7.1291 0 1.9687 1.96866 1.9687 5.16044 0 7.12914-1.3312 1.3312-3.2211 1.7612-4.9117 1.2939-.2399-.0663-.4759-.1507-.7059-.2532-.3783-.1685-.5484-.6119-.3798-.9903.1686-.3783.612-.5484.9903-.3798.1612.0718.3267.131.4951.1775 1.1912.3293 2.5174.0251 3.4514-.9088 1.3828-1.3828 1.3828-3.62491 0-5.00778-1.3829-1.38286-3.625-1.38286-5.0079 0Z" clip-rule="evenodd"/>
  <path fill="#29333D" fill-rule="evenodd" d="M11.6788 10.0423c.2696.3145.2332.788-.0813 1.0575l-6.6298 5.6827c-.14275.1224-.15112.3403-.01817.4733l.66689.6669c.02453.0245.05286.0449.08389.0604l.22548.1128c.12426.0621.27434.0378.37257-.0605l.21182-.2118c.06053-.0605.09454-.1426.09454-.2282V17c0-1.0496.98639-1.8198 2.00465-1.5652.00001 0 0 0 0 0l.03203.008c.05528.0138.10885-.028.10885-.085 0-1.0328.97063-1.7907 1.97265-1.5402l.5155.1289c.11.0275.2264-.0047.3065-.0849l1.1797-1.1796c.2929-.2929.7678-.2929 1.0606 0 .2929.2929.2929.7677 0 1.0606l-1.1796 1.1797c-.4527.4527-1.1098.6347-1.731.4794l-.5155-.1288c-.0553-.0139-.1089.0279-.1089.0849 0 1.0329-.97058 1.7907-1.97258 1.5402l-.03203-.008c-.07155-.0179-.14087.0362-.14087.11v.5954c0 .4834-.19204.947-.53388 1.2889l-.21182.2118c-.55477.5548-1.40231.6923-2.10405.3414l-.22548-.1127c-.17523-.0876-.33519-.2029-.47373-.3415l-.66689-.6668c-.7508-.7508-.70352-1.9819.10265-2.6729l6.62978-5.68265c.3145-.26957.788-.23315 1.0575.08135Zm4.258-1.65746c-.2962 0-.5364.24015-.5364.53638 0 .29624.2402.53639.5364.53639s.5364-.24015.5364-.53639c0-.29623-.2402-.53638-.5364-.53638Zm1.6092.53638c0 .88871-.7205 1.60918-1.6092 1.60918-.8887 0-1.6091-.72047-1.6091-1.60918 0-.8887.7204-1.60914 1.6091-1.60914.8887 0 1.6092.72044 1.6092 1.60914Z" clip-rule="evenodd"/>
</svg>
