<svg xmlns="http://www.w3.org/2000/svg" fill="none" viewBox="0 0 24 24">
  <path fill="#29333D" fill-rule="evenodd" d="M4.01054 16.4945c.16317-.3807.60408-.5571.9848-.3939l7.09456 3.0405 7.0946-3.0405c.3808-.1632.8217.0132.9848.3939.1632.3807-.0132.8217-.3939.9848l-7.3484 3.1494c-.2152.0922-.4589.0922-.6741 0l-7.34844-3.1494c-.38072-.1631-.55709-.6041-.39392-.9848Z" clip-rule="evenodd"/>
  <path fill="#29333D" fill-rule="evenodd" d="M4.01087 12.1039c.16358-.3806.60468-.5565.98523-.3929l7.0938 3.0495 7.0939-3.0495c.3805-.1636.8216.0123.9852.3929.1636.3805-.0123.8216-.3928.9852l-7.3472 3.1583c-.2165.0931-.4617.0931-.6782 0l-7.3471-3.1583c-.38054-.1636-.55642-.6047-.39283-.9852Z" clip-rule="evenodd"/>
  <path fill="#29333D" fill-rule="evenodd" d="M11.9983 4.81658c.0247-.01057.0526-.01057.0772 0l6.3494 2.72117c.0792.03395.0792.14626 0 .18021l-6.3494 2.72114c-.0246.0106-.0525.0106-.0772 0L5.64891 7.71796c-.07922-.03395-.07922-.14626 0-.18021l6.34939-2.72117Zm.6681-1.37872 6.3494 2.72117c1.2914.55345 1.2914 2.3842 0 2.93765l-6.3494 2.72112c-.402.1723-.857.1723-1.259 0L5.05803 9.09668c-1.29138-.55345-1.29137-2.3842 0-2.93765l6.34937-2.72117c.402-.17227.857-.17228 1.259 0Z" clip-rule="evenodd"/>
</svg>
