<svg xmlns="http://www.w3.org/2000/svg" fill="none" viewBox="0 0 24 24">
  <path fill="#29333D" fill-rule="evenodd" d="M7 8.5h10c1.933 0 3.5 1.567 3.5 3.5v5c0 1.933-1.567 3.5-3.5 3.5H7c-1.933 0-3.5-1.567-3.5-3.5v-5c0-1.933 1.567-3.5 3.5-3.5ZM7 10c-1.10457 0-2 .8954-2 2v5c0 1.1046.89543 2 2 2h10c1.1046 0 2-.8954 2-2v-5c0-1.1046-.8954-2-2-2H7Z" clip-rule="evenodd"/>
  <path fill="#29333D" fill-rule="evenodd" d="M8.95318 3.78502C9.88452 3.32416 10.9109 3.25 11.7982 3.25h.717c.6936 0 1.4423.06133 2.1702.30328.6698.22264 1.2711.5325 1.6444 1.17751.3442.59482.4202 1.35774.4202 2.26921v2.5h-1.5V7c0-.89567-.0913-1.29807-.2185-1.51787-.0982-.16961-.2725-.32369-.8192-.50542-.5135-.17067-1.0826-.22671-1.6971-.22671h-.717c-.8324 0-1.5698.07759-2.17977.37943-.31139.15408-.49644.31485-.62204.53837C8.8616 5.90765 8.75 6.30111 8.75 7v2.5h-1.5V7c0-.8394.13083-1.51917.43872-2.06705.31706-.56422.77492-.90569 1.26446-1.14793ZM12.25 13c.4142 0 .75.3358.75.75v1.5c0 .4142-.3358.75-.75.75s-.75-.3358-.75-.75v-1.5c0-.4142.3358-.75.75-.75Z" clip-rule="evenodd"/>
</svg>
