<svg xmlns="http://www.w3.org/2000/svg" fill="none" viewBox="0 0 24 24">
  <path fill="#29333D" fill-rule="evenodd" d="M7 5.5h10c1.933 0 3.5 1.567 3.5 3.5v6.5c0 1.933-1.567 3.5-3.5 3.5H7c-1.933 0-3.5-1.567-3.5-3.5V9c0-1.933 1.567-3.5 3.5-3.5ZM7 7c-1.10457 0-2 .89543-2 2v6.5c0 1.1046.89543 2 2 2h10c1.1046 0 2-.8954 2-2V9c0-1.10457-.8954-2-2-2H7Z" clip-rule="evenodd"/>
  <path fill="#29333D" fill-rule="evenodd" d="M4.35688 7.66413c.21311-.35519.67381-.47036 1.02899-.25725l5.97103 3.58262c.3958.2375.8904.2375 1.2862 0l5.971-3.58262c.3552-.21311.8159-.09794 1.029.25725.2131.35518.098.81588-.2572 1.02899l-5.971 3.58258c-.8709.5226-1.9589.5226-2.8298 0L4.61413 8.69312c-.35519-.21311-.47036-.67381-.25725-1.02899Z" clip-rule="evenodd"/>
</svg>
