<svg xmlns="http://www.w3.org/2000/svg" fill="none" viewBox="0 0 24 24">
  <path fill="#29333D" fill-rule="evenodd" d="M9.51046 6.79313c-.07062-.03127-.15172-.02813-.21972.00848L5.38147 8.9066c-.08097.0436-.13147.12815-.13147.22012V17.497c0 .1932.20974.3134.3764.2157l2.92519-1.7142c.47931-.2809 1.06352-.3175 1.57411-.0986l4.4092 1.8896c.059.0253.1254.0269.1856.0046l3.8666-1.4368c.0979-.0364.1629-.1298.1629-.2343V7.17113c0-.18898-.2016-.30963-.3682-.22031l-3.0967 1.66096c-.4755.25506-1.0421.27648-1.5356.05803L9.51046 6.79313ZM8.57959 5.4809c.476-.25631 1.04375-.27822 1.53811-.05937l4.2391 1.87668c.0705.03121.1514.02815.2193-.00829l3.0967-1.66096c1.1659-.6253 2.5772.21925 2.5772 1.54217V16.123c0 .7314-.4549 1.3856-1.1404 1.6404l-3.8666 1.4368c-.4211.1564-.8861.145-1.299-.032l-4.40915-1.8896c-.07294-.0313-.1564-.026-.22487.0141l-2.9252 1.7142C5.21814 19.6905 3.75 18.8492 3.75 17.497V9.12672c0-.6438.35348-1.2356.92033-1.54083L8.57959 5.4809Z" clip-rule="evenodd"/>
  <path fill="#29333D" fill-rule="evenodd" d="M9.50004 5.61366c.41421 0 .74996.33579.74996.75V16.3637c0 .4142-.33575.75-.74996.75-.41422 0-.75-.3358-.75-.75V6.36366c0-.41421.33578-.75.75-.75ZM14.5 7.43184c.4142 0 .75.33579.75.75v9.99996c0 .4143-.3358.75-.75.75-.4143 0-.75-.3357-.75-.75V8.18184c0-.41421.3357-.75.75-.75Z" clip-rule="evenodd"/>
</svg>
