<svg xmlns="http://www.w3.org/2000/svg" fill="none" viewBox="0 0 24 24">
  <path fill="#29333D" fill-rule="evenodd" d="M15 10.5c0 1.6569-1.3431 3-3 3s-3-1.3431-3-3c0-1.65685 1.3431-3 3-3s3 1.34315 3 3ZM12 12c.8284 0 1.5-.6716 1.5-1.5 0-.82843-.6716-1.5-1.5-1.5s-1.5.67157-1.5 1.5c0 .8284.6716 1.5 1.5 1.5Z" clip-rule="evenodd"/>
  <path fill="#29333D" fill-rule="evenodd" d="M12 4.75c-3.42155 0-6.25 2.71505-6.25 6.75 0 .4142-.33579.75-.75.75s-.75-.3358-.75-.75c0-4.8016 3.43957-8.25 7.75-8.25 4.3104 0 7.75 3.4484 7.75 8.25 0 .4142-.3358.75-.75.75s-.75-.3358-.75-.75c0-4.03495-2.8284-6.75-6.25-6.75Z" clip-rule="evenodd"/>
  <path fill="#29333D" fill-rule="evenodd" d="M5 10.75c.41421 0 .75.3358.75.75 0 1.7251.97614 3.3141 2.27381 4.652 1.28667 1.3265 2.79709 2.3097 3.65619 2.8138.1843.1083.4066.1043.5927-.0164.8577-.556 2.3828-1.631 3.685-2.9937C17.2828 14.5691 18.25 13.0165 18.25 11.5c0-.4142.3358-.75.75-.75s.75.3358.75.75c0 2.1156-1.3129 4.0323-2.7078 5.492-1.4177 1.4835-3.0522 2.6318-3.9536 3.2161-.6555.4249-1.4872.4509-2.1679.0514-.9136-.5362-2.55327-1.5988-3.97362-3.0632C5.53773 15.7433 4.25 13.7962 4.25 11.5c0-.4142.33579-.75.75-.75Z" clip-rule="evenodd"/>
</svg>
