<svg xmlns="http://www.w3.org/2000/svg" fill="none" viewBox="0 0 24 24">
  <path fill="#29333D" fill-rule="evenodd" d="m13.8215 3.81953 4.3523 2.51282c1.1271.65074 1.8215 1.85334 1.8215 3.15481v5.02564c0 1.3015-.6944 2.5041-1.8215 3.1548l-4.3523 2.5128c-1.1271.6508-2.5158.6508-3.6429 0l-4.35229-2.5128c-1.1271-.6507-1.82143-1.8533-1.82143-3.1548V9.48716c0-1.30147.69433-2.50407 1.82143-3.15481l4.35229-2.51282c1.1271-.65073 2.5158-.65073 3.6429 0Zm-.75 1.29904c-.663-.38278-1.4799-.38278-2.1429 0L6.57631 7.63139c-.663.38279-1.07143 1.0902-1.07143 1.85577v5.02564c0 .7656.40843 1.473 1.07143 1.8558l4.35229 2.5128c.663.3828 1.4799.3828 2.1429 0l4.3523-2.5128c.663-.3828 1.0715-1.0902 1.0715-1.8558V9.48716c0-.76557-.4085-1.47298-1.0715-1.85577l-4.3523-2.51282Z" clip-rule="evenodd"/>
  <path fill="#29333D" fill-rule="evenodd" d="M10.7063 11.6559 5.23609 8.92079l.67082-1.34164 5.47029 2.73515c.3921.196.8537.196 1.2458 0l5.4702-2.73515.6709 1.34164-5.4703 2.73511c-.8144.4072-1.773.4072-2.5875 0Z" clip-rule="evenodd"/>
  <path fill="#29333D" fill-rule="evenodd" d="M12.7501 11.4643v8.5714h-1.5v-8.5714h1.5ZM8.11497 5.7717c.18524-.37048.63574-.52065 1.00623-.33541l6.4286 3.21429c.3705.18524.5206.63575.3354 1.00623-.1853.37049-.6358.52069-1.0063.33541L8.45038 6.77794c-.37049-.18525-.52065-.63575-.33541-1.00624Z" clip-rule="evenodd"/>
</svg>
