<svg xmlns="http://www.w3.org/2000/svg" fill="none" viewBox="0 0 24 25">
  <path fill="#29333D" fill-rule="evenodd" d="M20.5 12.2c0 4.6944-3.8056 8.5-8.5 8.5-4.69442 0-8.5-3.8056-8.5-8.5 0-4.69441 3.80558-8.49999 8.5-8.49999 4.6944 0 8.5 3.80558 8.5 8.49999Zm-8.5 7c3.866 0 7-3.134 7-7 0-3.86598-3.134-6.99999-7-6.99999-3.86599 0-7 3.13401-7 6.99999 0 3.866 3.13401 7 7 7Z" clip-rule="evenodd"/>
  <path fill="#29333D" fill-rule="evenodd" d="M10 8.20001c-.55228 0-1 .44772-1 1V15.2c0 .5523.44772 1 1 1 .5523 0 1-.4477 1-1V9.20001c0-.55228-.4477-1-1-1Zm4 0c.5523 0 1 .44772 1 1V15.2c0 .5523-.4477 1-1 1s-1-.4477-1-1V9.20001c0-.55228.4477-1 1-1Z" clip-rule="evenodd"/>
</svg>
