<svg xmlns="http://www.w3.org/2000/svg" fill="none" viewBox="0 0 24 24">
  <path fill="#29333D" fill-rule="evenodd" d="M12 15.75c.4142 0 .75.3358.75.75v3.2727c0 .4142-.3358.75-.75.75s-.75-.3358-.75-.75V16.5c0-.4142.3358-.75.75-.75Z" clip-rule="evenodd"/>
  <path fill="#29333D" fill-rule="evenodd" d="M8.85055 5.511c-.0013.00363-.00931.02605.00837.08508.04354.14541.10246.29247.16947.43281.22341.46785.44889 1.05254.44889 1.70265v3.23636c0 .8581-.36994 1.6419-.93071 2.2219-.41436.4286-.73994.8209-.99347 1.1696-.11001.1513-.13539.2638-.13775.3316-.00232.0664.01561.1308.06162.1967.09785.1401.35819.3168.79577.3168h4.27276c.4142 0 .75.3358.75.75 0 .4143-.3358.75-.75.75H8.27274c-.81762 0-1.58947-.3337-2.02548-.9579-.46767-.6695-.44587-1.5287.09262-2.2693.29779-.4096.66914-.8552 1.12833-1.3301.32704-.3383.50907-.7601.50907-1.1793V7.73154c0-.31346-.11068-.65462-.30248-1.05629-.09403-.1969-.18328-.41659-.25283-.64884-.21649-.72291.05962-1.35035.53051-1.74431.43517-.36407 1.02395-.5321 1.57595-.5321h3.01707c.4142 0 .75.33579.75.75s-.3358.75-.75.75H9.52843c-.27833 0-.50265.08988-.61344.18257-.04968.04156-.06181.07063-.06444.07843-.00003.00008.00004-.00013 0 0Z" clip-rule="evenodd"/>
  <path fill="#29333D" fill-rule="evenodd" d="M15.1495 5.511c.0013.00363.0093.02605-.0084.08508-.0435.14541-.1025.29247-.1695.43281-.2234.46785-.4489 1.05254-.4489 1.70265v3.23636c0 .8581.37 1.6419.9307 2.2219.4144.4286.74.8209.9935 1.1696.11.1513.1354.2638.1378.3316.0023.0664-.0156.1308-.0617.1967-.0978.1401-.3581.3168-.7957.3168h-4.2727c-.4143 0-.75.3358-.75.75 0 .4143.3357.75.75.75h4.2727c.8176 0 1.5894-.3337 2.0255-.9579.4676-.6695.4458-1.5287-.0927-2.2693-.2978-.4096-.6691-.8552-1.1283-1.3301-.327-.3383-.5091-.7601-.5091-1.1793V7.73154c0-.31346.1107-.65462.3025-1.05629.094-.1969.1833-.41659.2528-.64884.2165-.72291-.0596-1.35035-.5305-1.74431-.4351-.36407-1.0239-.5321-1.5759-.5321h-3.017c-.4143 0-.75.33579-.75.75s.3357.75.75.75h3.017c.2783 0 .5026.08988.6134.18257.0497.04156.0618.07063.0645.07843 0 .00008-.0001-.00013 0 0Z" clip-rule="evenodd"/>
</svg>
