<svg xmlns="http://www.w3.org/2000/svg" fill="none" viewBox="0 0 24 26">
  <path fill="#29333D" fill-rule="evenodd" d="M12 5.40001c-3.86599 0-7 3.13401-7 6.99999 0 3.866 3.13401 7 7 7 3.866 0 7-3.134 7-7 0-3.86598-3.134-6.99999-7-6.99999ZM3.5 12.4c0-4.69441 3.80558-8.49999 8.5-8.49999 4.6944 0 8.5 3.80558 8.5 8.49999 0 4.6944-3.8056 8.5-8.5 8.5-4.69442 0-8.5-3.8056-8.5-8.5Z" clip-rule="evenodd"/>
  <path fill="#29333D" fill-rule="evenodd" d="m11.928 8.9547 3.4623 1.8135c1.3969.7318 1.437 2.7173.0704 3.5047l-3.4622 1.9949C10.6652 17.036 9 16.0737 9 14.5349v-3.8085c0-1.5033 1.5963-2.46923 2.928-1.7717Zm-.696 1.3288c-.3329-.1744-.732.067-.732.4429v3.8085c0 .3846.4162.6253.7497.4332l3.4622-1.9949c.3415-.1968.3317-.6932-.0176-.8762l-3.4623-1.8135Z" clip-rule="evenodd"/>
</svg>
