<svg xmlns="http://www.w3.org/2000/svg" fill="none" viewBox="0 0 24 24">
  <path fill="#29333D" fill-rule="evenodd" d="M20.4998 12c0 4.6944-3.8056 8.5-8.5 8.5-4.69446 0-8.50004-3.8056-8.50004-8.5 0-4.69442 3.80558-8.5 8.50004-8.5 4.6944 0 8.5 3.80558 8.5 8.5Zm-8.5 7c3.8659 0 7-3.134 7-7 0-3.86599-3.1341-7-7-7-3.86604 0-7.00004 3.13401-7.00004 7 0 3.866 3.134 7 7.00004 7Z" clip-rule="evenodd"/>
  <path fill="#29333D" fill-rule="evenodd" d="M11.9998 16.25c-.4143 0-.75-.3358-.75-.75v-7c0-.41421.3357-.75.75-.75.4142 0 .75.33579.75.75v7c0 .4142-.3358.75-.75.75Z" clip-rule="evenodd"/>
  <path fill="#29333D" fill-rule="evenodd" d="M16.2498 12c0 .4142-.3358.75-.75.75H8.49976c-.41422 0-.75-.3358-.75-.75s.33578-.75.75-.75h7.00004c.4142 0 .75.3358.75.75Z" clip-rule="evenodd"/>
</svg>
