<svg xmlns="http://www.w3.org/2000/svg" fill="none" viewBox="0 0 24 24">
  <path fill="#29333D" fill-rule="evenodd" d="M7.25508 7.75512c-2.59271 2.59268-2.59271 6.79638 0 9.38908 2.59272 2.5927 6.79632 2.5927 9.38902 0 2.5927-2.5927 2.5927-6.7964 0-9.38908-.2929-.29289-.2929-.76776 0-1.06066.2929-.29289.7678-.29289 1.0607 0 3.1785 3.1785 3.1785 8.33184 0 11.51034-3.1785 3.1785-8.33188 3.1785-11.51038 0-3.1785-3.1785-3.1785-8.33184 0-11.51034.2929-.29289.76777-.29289 1.06066 0 .2929.2929.2929.76777 0 1.06066Z" clip-rule="evenodd"/>
  <path fill="#29333D" fill-rule="evenodd" d="M11.9496 3.46613c.4142 0 .75.33578.75.75v7.38907c0 .4142-.3358.75-.75.75s-.75-.3358-.75-.75V4.21613c0-.41422.3358-.75.75-.75Z" clip-rule="evenodd"/>
</svg>
