<svg xmlns="http://www.w3.org/2000/svg" fill="none" viewBox="0 0 24 24">
  <path fill="#29333D" fill-rule="evenodd" d="M9.38963 4.96499c0-.93498.75797-1.69293 1.69297-1.69293h2.01c.9681 0 1.7529.7848 1.7529 1.75289v.19841s.0001.00225.0009.00468c.0009.00271.003.00777.0077.01452.0102.01447.0288.03142.055.04281.0265.01148.0507.01286.0669.01025.0145-.00233.0193-.00683.0212-.00872l.1163-.11629c.6628-.66276 1.7373-.66276 2.4001 0l1.4217 1.42172c.6827.6827.6827 1.78956 0 2.47226l-.0898.08981h.1295c.9681 0 1.7529.7848 1.7529 1.7529v2.01c0 .935-.758 1.693-1.693 1.693h-.0964c-.0187 0-.0435.0056-.0734.0273-.0314.0229-.0625.0602-.0821.1085-.0408.1007-.0079.1713.0179.1971l.1119.1119c.6952.6951.6952 1.8222 0 2.5173l-1.3405 1.3406c-.6952.6951-1.8222.6951-2.5173 0l-.1811-.1811c-.0037.0005-.0084.0016-.0135.0038-.003.0012-.0057.0027-.0081.0042-.0019.0012-.0051.0036-.0051.0036l-.0017.0014v.2302c0 .9681-.7848 1.7528-1.7528 1.7528h-2.0102c-.9349 0-1.69287-.7579-1.69287-1.6928v-.1449c0-.0047-.00098-.0159-.01389-.0336-.01405-.0193-.03849-.0401-.07144-.0532-.03115-.0123-.05975-.0136-.08-.01-.01857.0033-.02764.0099-.03297.0152l-.12694.1269c-.68269.6827-1.78954.6827-2.47223 0l-1.42175-1.4217c-.66275-.6628-.66275-1.7373 0-2.4001l.03669-.0367c.04541-.0454.08461-.1491.02975-.2817-.05738-.1386-.16383-.185-.22317-.185h-.04884c-.93495 0-1.69287-.7579-1.69287-1.6929v-2.0102c0-.96803.78476-1.7528 1.75282-1.7528h.23018l.00143-.00168c.00283-.00353.0056-.00799.00782-.0132.00218-.00513.00329-.00978.00375-.01352l-.12099-.12098c-.64978-.64978-.64978-1.70329 0-2.35307l1.50481-1.50481c.64979-.64979 1.70331-.64979 2.3531 0l.05184.05184c.02577.02577.09635.05873.19709.01791.04825-.01955.08555-.05065.10847-.08214.0217-.02983.02734-.05468.02734-.07337v-.09639Zm1.69297-.23704c-.131 0-.2371.10612-.2371.23704v.09639c0 .70737-.4677 1.27095-1.04495 1.50484-.57416.23264-1.28413.15138-1.77328-.33777l-.05185-.05184c-.08123-.08124-.21293-.08124-.29416 0L6.17645 7.68142c-.08123.08122-.08123.21291 0 .29413l.13139.1314c.44072.44072.51671 1.08357.29619 1.60222-.2154.50663-.71706.90113-1.33344.90113h-.2458c-.16399 0-.29694.1329-.29694.2969v2.0102c0 .1309.10611.237.23699.237h.04884c.73651 0 1.32158.4876 1.56846 1.0843.24881.6014.17069 1.3515-.34557 1.8678l-.03669.0367c-.0942.0942-.0942.2469 0 .3411l1.42175 1.4218c.11413.1141.29917.1141.4133 0l.12694-.127c.46211-.4621 1.13227-.5458 1.67905-.329.55718.2209 1.00458.7625 1.00458 1.4401v.1449c0 .1309.1061.237.237.237h2.0102c.164 0 .2969-.133.2969-.297v-.2458c0-.6164.3945-1.118.9011-1.3334.5187-.2205 1.1615-.1446 1.6022.2961l.1915.1915c.1266.1266.3318.1266.4584 0l1.3406-1.3405c.1266-.1266.1266-.3319 0-.4584l-.112-.112c-.4891-.4891-.5704-1.1991-.3377-1.7732.2339-.5773.7974-1.045 1.5048-1.045h.0964c.1309 0 .2371-.1061.2371-.2371v-2.01c0-.164-.133-.297-.297-.297h-.2945c-.5863 0-1.0655-.3748-1.268-.86108-.2045-.49115-.1267-1.09407.2868-1.50754l.2066-.20656c.1141-.11413.1141-.29919 0-.41332l-1.4218-1.42172c-.0942-.09421-.2469-.09421-.3411 0l-.1163.11629c-.468.468-1.151.54146-1.697.30462-.5263-.22832-.9401-.75187-.9401-1.39763v-.19841c0-.16403-.1329-.297-.297-.297h-2.01Z" clip-rule="evenodd"/>
  <path fill="#29333D" fill-rule="evenodd" d="M14.3969 12c0 1.3239-1.0732 2.3971-2.3971 2.3971S9.60274 13.3239 9.60274 12c0-1.3238 1.07316-2.39705 2.39706-2.39705 1.3239 0 2.3971 1.07325 2.3971 2.39705Zm-2.3971.9412c.5198 0 .9412-.4214.9412-.9412s-.4214-.9412-.9412-.9412-.9412.4214-.9412.9412.4214.9412.9412.9412Z" clip-rule="evenodd"/>
</svg>
