<svg xmlns="http://www.w3.org/2000/svg" fill="none" viewBox="0 0 24 24">
  <path fill="#29333D" fill-rule="evenodd" d="M14.25 7c0-.41421.3358-.75.75-.75h5c.4142 0 .75.33579.75.75s-.3358.75-.75.75h-5c-.4142 0-.75-.33579-.75-.75Zm-11 0c0-.41421.33579-.75.75-.75h2c.41421 0 .75.33579.75.75s-.33579.75-.75.75H4c-.41421 0-.75-.33579-.75-.75Zm0 10c0-.4142.33579-.75.75-.75h5c.41421 0 .75.3358.75.75s-.33579.75-.75.75H4c-.41421 0-.75-.3358-.75-.75Zm14 0c0-.4142.3358-.75.75-.75h1.5c.4142 0 .75.3358.75.75s-.3358.75-.75.75H18c-.4142 0-.75-.3358-.75-.75Z" clip-rule="evenodd"/>
  <path fill="#29333D" fill-rule="evenodd" d="M8 4h2c1.3807 0 2.5 1.11929 2.5 2.5v1c0 1.38071-1.1193 2.5-2.5 2.5H8c-1.38071 0-2.5-1.11929-2.5-2.5v-1C5.5 5.11929 6.61929 4 8 4Zm0 1.5c-.55228 0-1 .44772-1 1v1c0 .55228.44772 1 1 1h2c.5523 0 1-.44772 1-1v-1c0-.55228-.4477-1-1-1H8Zm5.5 8.5h2c1.3807 0 2.5 1.1193 2.5 2.5v1c0 1.3807-1.1193 2.5-2.5 2.5h-2c-1.3807 0-2.5-1.1193-2.5-2.5v-1c0-1.3807 1.1193-2.5 2.5-2.5Zm0 1.5c-.5523 0-1 .4477-1 1v1c0 .5523.4477 1 1 1h2c.5523 0 1-.4477 1-1v-1c0-.5523-.4477-1-1-1h-2Z" clip-rule="evenodd"/>
</svg>
