<svg xmlns="http://www.w3.org/2000/svg" fill="none" viewBox="0 0 24 24">
  <path fill="#29333D" fill-rule="evenodd" d="M8.93449 5.83846c0 1.43382-1.16233 2.59616-2.59615 2.59616-1.43381 0-2.59615-1.16234-2.59615-2.59616 0-1.43381 1.16234-2.59615 2.59615-2.59615 1.43382 0 2.59615 1.16234 2.59615 2.59615ZM6.33834 6.87692c.57353 0 1.03846-.46493 1.03846-1.03846C7.3768 5.26494 6.91187 4.8 6.33834 4.8c-.57353 0-1.03846.46494-1.03846 1.03846 0 .57353.46493 1.03846 1.03846 1.03846ZM20.3576 18.3c0 1.4338-1.1624 2.5961-2.5962 2.5961s-2.5961-1.1623-2.5961-2.5961c0-1.4338 1.1623-2.5962 2.5961-2.5962 1.4338 0 2.5962 1.1624 2.5962 2.5962Zm-2.5962 1.0385c.5735 0 1.0385-.465 1.0385-1.0385 0-.5735-.465-1.0385-1.0385-1.0385-.5735 0-1.0384.465-1.0384 1.0385 0 .5735.4649 1.0385 1.0384 1.0385Zm2.5962-7.7885c0 1.4338-1.1624 2.5961-2.5962 2.5961s-2.5961-1.1623-2.5961-2.5961c0-1.4338 1.1623-2.59616 2.5961-2.59616 1.4338 0 2.5962 1.16236 2.5962 2.59616Zm-2.5962 1.0385c.5735 0 1.0385-.465 1.0385-1.0385 0-.5735-.465-1.0385-1.0385-1.0385-.5735 0-1.0384.465-1.0384 1.0385 0 .5735.4649 1.0385 1.0384 1.0385Z" clip-rule="evenodd"/>
  <path fill="#29333D" fill-rule="evenodd" d="M6.33834 7.65576c.43015 0 .77885.3487.77885.77885v5.71149c0 1.864 1.51104 3.375 3.37501 3.375h5.1923c.4301 0 .7788.3487.7788.7789 0 .4301-.3487.7788-.7788.7788h-5.1923c-2.72426 0-4.9327-2.2084-4.9327-4.9327V8.43461c0-.43015.3487-.77885.77884-.77885Z" clip-rule="evenodd"/>
  <path fill="#29333D" fill-rule="evenodd" d="M9.97296 12.3288c-2.43749 0-4.41346-1.9759-4.41346-4.41342h1.55769c0 1.57719 1.27857 2.85572 2.85577 2.85572h5.71154c.4301 0 .7788.3487.7788.7789 0 .4301-.3487.7788-.7788.7788H9.97296Z" clip-rule="evenodd"/>
</svg>
