<svg xmlns="http://www.w3.org/2000/svg" fill="none" viewBox="0 0 24 24">
  <path fill="#29333D" fill-rule="evenodd" d="m5.19785 11.1781-1.49778-.0816.20194-3.70325 1.49777.08167-.20193 3.70318Zm0 0c-.03401.6237.19891 1.2324.64058 1.6741l5.59347 5.5935c.8584.8584 2.2503.8584 3.1087 0l3.9052-3.9052c.8584-.8585.8584-2.2503 0-3.1087l-5.5935-5.59349c-.4416-.44167-1.0503-.67459-1.674-.64058l-3.70326.20193c-1.11987.06106-2.01419.95539-2.07526 2.07526l-1.49777-.08167c.10273-1.88403 1.60732-3.38863 3.49136-3.49137l3.70323-.20193c1.0493-.05721 2.0733.33465 2.8164 1.0777l5.5934 5.59345c1.4443 1.4442 1.4443 3.7858 0 5.2301l-3.9051 3.9051c-1.4443 1.4443-3.7858 1.4443-5.2301 0l-5.59343-5.5934c-.74305-.7431-1.13491-1.7672-1.0777-2.8164l1.49778.0816Z" clip-rule="evenodd"/>
  <path fill="#29333D" d="M9.14415 8.04503c0 .60702-.49208 1.09911-1.0991 1.09911-.60702 0-1.09911-.49209-1.09911-1.09911s.49209-1.0991 1.09911-1.0991 1.0991.49208 1.0991 1.0991Z"/>
</svg>
