<svg xmlns="http://www.w3.org/2000/svg" fill="none" viewBox="0 0 24 24">
  <path fill="#29333D" fill-rule="evenodd" d="M5.44019 6.25239c.4129-.03303.77439.27491.80742.6878l.77914 9.73921C7.1203 17.8488 8.09652 18.75 9.26958 18.75h5.46082c1.1731 0 2.1493-.9012 2.2429-2.0706l.7791-9.73921c.033-.41289.3945-.72083.8074-.6878.4129.03303.7208.39452.6878.80742l-.7791 9.73919c-.1559 1.9489-1.783 3.451-3.7381 3.451H9.26958c-1.9551 0-3.58214-1.5021-3.73805-3.451l-.77914-9.73919c-.03303-.4129.27491-.77439.6878-.80742Z" clip-rule="evenodd"/>
  <path fill="#29333D" fill-rule="evenodd" d="M3.25 7c0-.41421.33579-.75.75-.75h16c.4142 0 .75.33579.75.75s-.3358.75-.75.75H4c-.41421 0-.75-.33579-.75-.75ZM10 9.25c.4142 0 .75.33579.75.75v6.5c0 .4142-.3358.75-.75.75-.41421 0-.75-.3358-.75-.75V10c0-.41421.33579-.75.75-.75Zm4 0c.4142 0 .75.33579.75.75v4c0 .4142-.3358.75-.75.75s-.75-.3358-.75-.75v-4c0-.41421.3358-.75.75-.75Z" clip-rule="evenodd"/>
  <path fill="#29333D" fill-rule="evenodd" d="M10.3541 4.75c-.51116 0-.9708.31119-1.16063.78576l-.49711 1.24278c-.15384.38459-.59032.57165-.9749.41782-.38459-.15384-.57165-.59032-.41782-.9749l.49711-1.24278C8.21838 3.93462 9.22958 3.25 10.3541 3.25h3.2918c1.1245 0 2.1357.68462 2.5533 1.72868l.4972 1.24278c.1538.38458-.0333.82106-.4179.9749-.3845.15383-.821-.03323-.9749-.41782l-.4971-1.24278c-.1898-.47457-.6494-.78576-1.1606-.78576h-3.2918Z" clip-rule="evenodd"/>
</svg>
