<svg xmlns="http://www.w3.org/2000/svg" fill="none" viewBox="0 0 24 25">
  <path fill="#29333D" fill-rule="evenodd" d="M19.4881 17.6194c.3145-.2695.3509-.743.0814-1.0575l-5.0199-5.8565c-.8145-.95026-2.3342-.76318-2.8939.3563l-1.153 2.3058c-.0799.1599-.297.1866-.4134.0509L5.06946 7.56189c-.26957-.31449-.74305-.35091-1.05754-.08135-.31449.26957-.35092.74305-.08135 1.05754l5.01986 5.85652c.81451.9502 2.33427.7631 2.89397-.3563l1.1529-2.3058c.08-.1599.2971-.1867.4134-.0509l5.0199 5.8565c.2695.3145.743.3509 1.0575.0813Z" clip-rule="evenodd"/>
  <path fill="#29333D" fill-rule="evenodd" d="M19.7678 18.5322c.4142 0 .75-.3358.75-.75v-3.5355c0-.4142-.3358-.75-.75-.75s-.75.3358-.75.75v2.7855h-2.7856c-.4142 0-.75.3358-.75.75s.3358.75.75.75h3.5356Z" clip-rule="evenodd"/>
</svg>
