<svg xmlns="http://www.w3.org/2000/svg" fill="none" viewBox="0 0 24 25">
  <path fill="#29333D" fill-rule="evenodd" d="M6.5 6.70001H13c1.6569 0 3 1.34315 3 3V15.7c0 1.6569-1.3431 3-3 3H6.5c-1.65685 0-3-1.3431-3-3V9.70001c0-1.65685 1.34315-3 3-3Zm0 1.5c-.82843 0-1.5.67158-1.5 1.5V15.7c0 .8284.67157 1.5 1.5 1.5H13c.8284 0 1.5-.6716 1.5-1.5V9.70001c0-.82842-.6716-1.5-1.5-1.5H6.5Z" clip-rule="evenodd"/>
  <path fill="#29333D" fill-rule="evenodd" d="M16.1845 11.2905c-.1167.0949-.1845.2374-.1845.3878v2.0875c0 .1484.0659.2891.1799.3841l2 1.6667c.3257.2714.8201.0398.8201-.3841v-5.3812c0-.42114-.4888-.65363-.8155-.38785l-2 1.62705Zm-.9466-1.1636 2-1.62705C18.5447 7.43674 20.5 8.36669 20.5 10.0513v5.3812c0 1.6957-1.9777 2.622-3.2804 1.5364l-2-1.6666c-.456-.38-.7196-.9429-.7196-1.5365v-2.0875c0-.6018.271-1.1717.7379-1.5514Z" clip-rule="evenodd"/>
</svg>
