<svg xmlns="http://www.w3.org/2000/svg" fill="none" viewBox="0 0 24 24">
  <path fill="#29333D" fill-rule="evenodd" d="M12 13.5501c-.4143 0-.75-.3358-.75-.75V8.58958c0-.41421.3357-.75.75-.75.4142 0 .75.33579.75.75v4.21052c0 .4142-.3358.75-.75.75Z" clip-rule="evenodd"/>
  <path fill="#29333D" d="M10.9474 15.958c0-.5814.4713-1.0526 1.0527-1.0526.5813 0 1.0526.4712 1.0526 1.0526 0 .5813-.4713 1.0526-1.0526 1.0526-.5814 0-1.0527-.4713-1.0527-1.0526Z"/>
  <path fill="#29333D" fill-rule="evenodd" d="m15.2002 5.51551 5.0289 9.16869c1.3341 2.4324-.426 5.4053-3.2003 5.4053H6.9711c-2.77432 0-4.5344-2.9729-3.20023-5.4053l5.02886-9.16869c1.38567-2.5263 5.01487-2.52629 6.40047 0Zm-1.3152.72135c-.8162-1.48809-2.9539-1.48809-3.7701 0L5.08603 15.4055c-.78587 1.4329.25088 3.184 1.88507 3.184h10.0577c1.6342 0 2.671-1.7511 1.8851-3.184L13.885 6.23686Z" clip-rule="evenodd"/>
</svg>
