<svg xmlns="http://www.w3.org/2000/svg" fill="none" viewBox="0 0 24 24">
  <path fill="#29333D" fill-rule="evenodd" d="M20.5 12.0001c0 4.6944-3.8056 8.5-8.5 8.5-4.69442 0-8.5-3.8056-8.5-8.5 0-4.69446 3.80558-8.50004 8.5-8.50004 4.6944 0 8.5 3.80558 8.5 8.50004Zm-8.5 7c3.866 0 7-3.134 7-7 0-3.86603-3.134-7.00004-7-7.00004-3.86599 0-7 3.13401-7 7.00004 0 3.866 3.13401 7 7 7Z" clip-rule="evenodd"/>
  <path fill="#29333D" fill-rule="evenodd" d="M8.99482 15.0053c-.2929-.2929-.2929-.7678 0-1.0607l4.94978-4.9497c.2929-.29289.7677-.2929 1.0606 0 .2929.29289.2929.76777 0 1.0607l-4.9497 4.9497c-.29292.2929-.76779.2929-1.06068 0Z" clip-rule="evenodd"/>
  <path fill="#29333D" fill-rule="evenodd" d="M15.0052 15.0053c-.2929.2929-.7678.2929-1.0607 0l-4.94972-4.9497c-.2929-.29293-.2929-.76781-.00001-1.0607.2929-.29289.76777-.29289 1.06063 0l4.9498 4.9497c.2929.2929.2929.7678 0 1.0607Z" clip-rule="evenodd"/>
</svg>
