<svg width="24" height="24" viewBox="0 0 24 24" fill="none" xmlns="http://www.w3.org/2000/svg">
<path fill-rule="evenodd" clip-rule="evenodd" d="M8.25 12C8.25 11.5858 8.58579 11.25 9 11.25L15.5 11.25C15.9142 11.25 16.25 11.5858 16.25 12C16.25 12.4142 15.9142 12.75 15.5 12.75L9 12.75C8.58579 12.75 8.25 12.4142 8.25 12Z" fill="#29333D"/>
<path fill-rule="evenodd" clip-rule="evenodd" d="M18.25 12C18.25 8.54822 15.4518 5.75 12 5.75C8.54822 5.75 5.75 8.54822 5.75 12C5.75 15.4518 8.54822 18.25 12 18.25C15.4518 18.25 18.25 15.4518 18.25 12ZM12 4.25C16.2802 4.25 19.75 7.71979 19.75 12C19.75 16.2802 16.2802 19.75 12 19.75C7.7198 19.75 4.25 16.2802 4.25 12C4.25 7.7198 7.71979 4.25 12 4.25ZM12.0303 8.96967C12.3232 9.26256 12.3232 9.73744 12.0303 10.0303L10.0607 12L12.0303 13.9697C12.3232 14.2626 12.3232 14.7374 12.0303 15.0303C11.7374 15.3232 11.2626 15.3232 10.9697 15.0303L8.46967 12.5303C8.32902 12.3897 8.25 12.1989 8.25 12C8.25 11.8011 8.32902 11.6103 8.46967 11.4697L10.9697 8.96967C11.2626 8.67678 11.7374 8.67678 12.0303 8.96967Z" fill="#29333D"/>
</svg>
