<svg width="24" height="24" viewBox="0 0 24 24" fill="none" xmlns="http://www.w3.org/2000/svg">
<path fill-rule="evenodd" clip-rule="evenodd" d="M8.3556 5.8299C7.91975 6.47067 7.75 7.25955 7.75 7.76468V9.88232C7.75 10.2965 7.41421 10.6323 7 10.6323C6.58579 10.6323 6.25 10.2965 6.25 9.88232V7.76468C6.25 7.00513 6.48586 5.91167 7.11532 4.98627C7.76792 4.02684 8.84924 3.25 10.45 3.25C12.0271 3.25 13.154 3.97093 13.8661 4.90342C14.5574 5.80862 14.8611 6.91205 14.8611 7.76468V14.3529C14.8611 14.9153 14.5428 15.5594 14.0975 16.0394C13.6271 16.5466 12.9115 16.9853 12 16.9853C11.1215 16.9853 10.4057 16.614 9.91574 16.1121C9.4419 15.6267 9.13903 14.9759 9.13903 14.3529V7.74609C9.13903 7.33188 9.47482 6.99609 9.88903 6.99609C10.3032 6.99609 10.639 7.33188 10.639 7.74609V14.3529C10.639 14.5142 10.7355 14.8045 10.9891 15.0643C11.2265 15.3075 11.5662 15.4853 12 15.4853C12.4008 15.4853 12.7407 15.2965 12.9978 15.0194C13.1262 14.8809 13.223 14.731 13.2853 14.5964C13.3162 14.5297 13.3363 14.4719 13.3481 14.4261C13.354 14.4036 13.3573 14.3856 13.3592 14.3725C13.3611 14.3592 13.3611 14.3529 13.3611 14.3529L13.3611 7.76468C13.3611 7.22073 13.1536 6.44182 12.674 5.81382C12.2153 5.21312 11.5116 4.75 10.45 4.75C9.41198 4.75 8.7683 5.22317 8.3556 5.8299Z" fill="#29333D"/>
<path fill-rule="evenodd" clip-rule="evenodd" d="M17 7.00391C17.4142 7.00391 17.75 7.33969 17.75 7.75391V15.6286C17.75 18.5485 15.0778 20.75 12 20.75C8.92218 20.75 6.25 18.5485 6.25 15.6286V10C6.25 9.58579 6.58579 9.25001 7 9.25001C7.41421 9.25001 7.75 9.58579 7.75 10V15.6286C7.75 17.5372 9.55498 19.25 12 19.25C14.445 19.25 16.25 17.5372 16.25 15.6286V7.75391C16.25 7.33969 16.5858 7.00391 17 7.00391Z" fill="#29333D"/>
</svg>
