<svg width="24" height="24" viewBox="0 0 24 24" fill="none" xmlns="http://www.w3.org/2000/svg">
<path fill-rule="evenodd" clip-rule="evenodd" d="M20.5467 11.1625C20.7261 15.6799 16.9551 19.3114 12.3709 19.4935C11.4385 19.5305 10.5322 19.4245 9.67747 19.1944L6.88621 20.3428C5.32735 20.9841 3.68624 19.62 4.03184 17.9702L4.58528 15.3281C4.60675 15.2256 4.59673 15.0968 4.53362 14.9609C4.33741 14.5383 4.11351 14.0229 3.93223 13.5069C3.76176 13.0218 3.58289 12.4107 3.5601 11.8371C3.38068 7.31967 7.15173 3.68817 11.7359 3.5061C16.3201 3.32403 20.3673 6.645 20.5467 11.1625ZM19.0479 11.222C19.1904 14.809 16.1743 17.8413 12.3114 17.9947C11.4654 18.0283 10.649 17.921 9.88826 17.6953C9.70216 17.6401 9.50243 17.6445 9.32291 17.7183L6.31551 18.9556C5.87012 19.1388 5.40123 18.7491 5.49997 18.2777L6.05342 15.6356C6.14573 15.1949 6.08375 14.7376 5.89415 14.3293C5.52267 13.5291 5.08607 12.4611 5.05892 11.7776C4.91645 8.19058 7.9325 5.15835 11.7954 5.00492C15.6584 4.85149 18.9054 7.63497 19.0479 11.222Z" fill="#29333D"/>
</svg>
