<svg width="24" height="24" viewBox="0 0 24 24" fill="none" xmlns="http://www.w3.org/2000/svg">
<path fill-rule="evenodd" clip-rule="evenodd" d="M5.44995 8.13636C5.44995 6.56737 6.72187 5.29545 8.29086 5.29545H9.07495V6.79545H8.29086C7.5503 6.79545 6.94995 7.3958 6.94995 8.13636V17.5455C6.94995 18.286 7.5503 18.8864 8.29086 18.8864H15.609C16.3496 18.8864 16.95 18.286 16.95 17.5455V8.13636C16.95 7.3958 16.3496 6.79545 15.609 6.79545H14.5636V5.29545H15.609C17.178 5.29545 18.45 6.56737 18.45 8.13636V17.5455C18.45 19.1144 17.178 20.3864 15.609 20.3864H8.29086C6.72187 20.3864 5.44995 19.1144 5.44995 17.5455V8.13636Z" fill="#29333D"/>
<path fill-rule="evenodd" clip-rule="evenodd" d="M10.3818 3.5H13.5181C14.6353 3.5 15.5409 4.40561 15.5409 5.52273V6.04545C15.5409 7.16257 14.6353 8.06818 13.5181 8.06818H10.3818C9.26465 8.06818 8.35904 7.16257 8.35904 6.04545V5.52273C8.35904 4.40561 9.26465 3.5 10.3818 3.5ZM10.3818 5C10.0931 5 9.85904 5.23403 9.85904 5.52273V6.04545C9.85904 6.33415 10.0931 6.56818 10.3818 6.56818H13.5181C13.8068 6.56818 14.0409 6.33415 14.0409 6.04545V5.52273C14.0409 5.23403 13.8068 5 13.5181 5H10.3818Z" fill="#29333D"/>
<path fill-rule="evenodd" clip-rule="evenodd" d="M8.58631 11.7955C8.58631 11.3812 8.9221 11.0455 9.33631 11.0455H13.5181C13.9323 11.0455 14.2681 11.3812 14.2681 11.7955C14.2681 12.2097 13.9323 12.5455 13.5181 12.5455H9.33631C8.9221 12.5455 8.58631 12.2097 8.58631 11.7955ZM8.58631 15.4545C8.58631 15.0403 8.9221 14.7045 9.33631 14.7045H11.95C12.3642 14.7045 12.7 15.0403 12.7 15.4545C12.7 15.8688 12.3642 16.2045 11.95 16.2045H9.33631C8.9221 16.2045 8.58631 15.8688 8.58631 15.4545Z" fill="#29333D"/>
</svg>
