<svg width="24" height="24" viewBox="0 0 24 24" fill="none" xmlns="http://www.w3.org/2000/svg">
<path fill-rule="evenodd" clip-rule="evenodd" d="M15 20.5H9C7.067 20.5 5.5 18.933 5.5 17V7C5.5 5.067 7.067 3.5 9 3.5H12.4364C13.1631 3.5 13.865 3.76376 14.4119 4.24227L17.4755 6.92292C18.1266 7.49259 18.5 8.31557 18.5 9.18065V17C18.5 18.933 16.933 20.5 15 20.5ZM15 19H9C7.89543 19 7 18.1046 7 17V7C7 5.89543 7.89543 5 9 5H12.4364C12.7997 5 13.1507 5.13188 13.4242 5.37113L16.4878 8.05179C16.8133 8.33662 17 8.74811 17 9.18065V17C17 18.1046 16.1046 19 15 19Z" fill="#29333D"/>
<path fill-rule="evenodd" clip-rule="evenodd" d="M13 4.25C13.4142 4.25 13.75 4.58579 13.75 5V7C13.75 7.69036 14.3096 8.25 15 8.25H17C17.4142 8.25 17.75 8.58579 17.75 9C17.75 9.41421 17.4142 9.75 17 9.75H15C13.4812 9.75 12.25 8.51878 12.25 7V5C12.25 4.58579 12.5858 4.25 13 4.25Z" fill="#29333D"/>
</svg>
