<svg width="24" height="24" viewBox="0 0 24 24" fill="none" xmlns="http://www.w3.org/2000/svg">
<path fill-rule="evenodd" clip-rule="evenodd" d="M6.5 5.75C5.80964 5.75 5.25 6.30964 5.25 7V16.5C5.25 17.1904 5.80964 17.75 6.5 17.75H9.5C9.91421 17.75 10.25 18.0858 10.25 18.5C10.25 18.9142 9.91421 19.25 9.5 19.25H6.5C4.98122 19.25 3.75 18.0188 3.75 16.5V7C3.75 5.48122 4.98122 4.25 6.5 4.25H8.58579C9.04991 4.25 9.49503 4.43437 9.82322 4.76256L11.4445 6.38388C11.679 6.6183 11.9969 6.75 12.3284 6.75H15.5C17.0188 6.75 18.25 7.98122 18.25 9.5V10.5C18.25 10.9142 17.9142 11.25 17.5 11.25C17.0858 11.25 16.75 10.9142 16.75 10.5V9.5C16.75 8.80964 16.1904 8.25 15.5 8.25H12.3284C11.5991 8.25 10.8996 7.96027 10.3839 7.44454L8.76256 5.82322C8.71568 5.77634 8.65209 5.75 8.58579 5.75H6.5Z" fill="#29333D"/>
<path fill-rule="evenodd" clip-rule="evenodd" d="M10.6396 11.75C10.0438 11.75 9.53074 12.1706 9.41388 12.7549L8.41485 17.75H16.8604C17.4562 17.75 17.9693 17.3294 18.0861 16.7451L18.7861 13.2451C18.9408 12.4717 18.3492 11.75 17.5604 11.75H10.6396ZM7.94301 12.4607C8.20009 11.1753 9.32874 10.25 10.6396 10.25H17.5604C19.2958 10.25 20.5973 11.8376 20.257 13.5393L19.557 17.0393C19.2999 18.3247 18.1713 19.25 16.8604 19.25H6.58515L7.94301 12.4607Z" fill="#29333D"/>
</svg>
