<svg width="24" height="24" viewBox="0 0 24 24" fill="none" xmlns="http://www.w3.org/2000/svg">
<path fill-rule="evenodd" clip-rule="evenodd" d="M14.4728 18.1682L12.3213 19.7818C11.0028 20.7707 9.12132 19.8299 9.12132 18.1818V13.5386L5.20473 9.94844C4.68816 9.47491 4.39404 8.80632 4.39404 8.10555V6C4.39404 4.61929 5.51333 3.5 6.89404 3.5H17.1062C18.4869 3.5 19.6062 4.61929 19.6062 6V8.13124C19.6062 8.79428 19.3428 9.43017 18.8739 9.89901L15.2728 13.5001V16.5682C15.2728 17.1977 14.9764 17.7905 14.4728 18.1682ZM9.44559 13.8359V13.8359ZM10.6213 13.0987C10.6213 12.9586 10.5625 12.8249 10.4592 12.7302L6.21832 8.84271C6.01169 8.6533 5.89404 8.38586 5.89404 8.10555V6C5.89404 5.44772 6.34176 5 6.89404 5H17.1062C17.6584 5 18.1062 5.44771 18.1062 6V8.13124C18.1062 8.39646 18.0008 8.65081 17.8133 8.83835L13.9193 12.7323C13.8255 12.8261 13.7728 12.9533 13.7728 13.0859V16.5682C13.7728 16.7256 13.6987 16.8738 13.5728 16.9682L11.4213 18.5818C11.0917 18.829 10.6213 18.5938 10.6213 18.1818V13.0987Z" fill="#29333D"/>
<path fill-rule="evenodd" clip-rule="evenodd" d="M4.75006 8.1515C4.75006 7.73729 5.08584 7.4015 5.50006 7.4015H18.5001C18.9143 7.4015 19.2501 7.73729 19.2501 8.1515C19.2501 8.56572 18.9143 8.9015 18.5001 8.9015H5.50006C5.08584 8.9015 4.75006 8.56572 4.75006 8.1515Z" fill="#29333D"/>
</svg>
