<svg width="24" height="25" viewBox="0 0 24 25" fill="none" xmlns="http://www.w3.org/2000/svg">
<path fill-rule="evenodd" clip-rule="evenodd" d="M6.19995 4.39999H8.69995C10.0807 4.39999 11.2 5.51928 11.2 6.89999V9.39999C11.2 10.7807 10.0807 11.9 8.69995 11.9H6.19995C4.81924 11.9 3.69995 10.7807 3.69995 9.39999V6.89999C3.69995 5.51928 4.81924 4.39999 6.19995 4.39999ZM6.19995 5.89999C5.64767 5.89999 5.19995 6.34771 5.19995 6.89999V9.39999C5.19995 9.95228 5.64767 10.4 6.19995 10.4H8.69995C9.25224 10.4 9.69995 9.95228 9.69995 9.39999V6.89999C9.69995 6.34771 9.25224 5.89999 8.69995 5.89999H6.19995Z" fill="#29333D"/>
<path fill-rule="evenodd" clip-rule="evenodd" d="M15.2 4.39999H17.7C19.0807 4.39999 20.2 5.51928 20.2 6.89999V9.39999C20.2 10.7807 19.0807 11.9 17.7 11.9H15.2C13.8192 11.9 12.7 10.7807 12.7 9.39999V6.89999C12.7 5.51928 13.8192 4.39999 15.2 4.39999ZM15.2 5.89999C14.6477 5.89999 14.2 6.34771 14.2 6.89999V9.39999C14.2 9.95228 14.6477 10.4 15.2 10.4H17.7C18.2522 10.4 18.7 9.95228 18.7 9.39999V6.89999C18.7 6.34771 18.2522 5.89999 17.7 5.89999H15.2Z" fill="#29333D"/>
<path fill-rule="evenodd" clip-rule="evenodd" d="M6.19995 13.4H8.69995C10.0807 13.4 11.2 14.5193 11.2 15.9V18.4C11.2 19.7807 10.0807 20.9 8.69995 20.9H6.19995C4.81924 20.9 3.69995 19.7807 3.69995 18.4V15.9C3.69995 14.5193 4.81924 13.4 6.19995 13.4ZM6.19995 14.9C5.64767 14.9 5.19995 15.3477 5.19995 15.9V18.4C5.19995 18.9523 5.64767 19.4 6.19995 19.4H8.69995C9.25224 19.4 9.69995 18.9523 9.69995 18.4V15.9C9.69995 15.3477 9.25224 14.9 8.69995 14.9H6.19995Z" fill="#29333D"/>
<path fill-rule="evenodd" clip-rule="evenodd" d="M15.2 13.4H17.7C19.0807 13.4 20.2 14.5193 20.2 15.9V18.4C20.2 19.7807 19.0807 20.9 17.7 20.9H15.2C13.8192 20.9 12.7 19.7807 12.7 18.4V15.9C12.7 14.5193 13.8192 13.4 15.2 13.4ZM15.2 14.9C14.6477 14.9 14.2 15.3477 14.2 15.9V18.4C14.2 18.9523 14.6477 19.4 15.2 19.4H17.7C18.2522 19.4 18.7 18.9523 18.7 18.4V15.9C18.7 15.3477 18.2522 14.9 17.7 14.9H15.2Z" fill="#29333D"/>
</svg>
