<svg width="24" height="24" viewBox="0 0 24 24" fill="none" xmlns="http://www.w3.org/2000/svg">
<path d="M11 16.5C11 15.9477 11.4477 15.5 12 15.5C12.5523 15.5 13 15.9477 13 16.5C13 17.0523 12.5523 17.5 12 17.5C11.4477 17.5 11 17.0523 11 16.5Z" fill="#29333D"/>
<path fill-rule="evenodd" clip-rule="evenodd" d="M12 5.75C8.54822 5.75 5.75 8.54822 5.75 12C5.75 15.4518 8.54822 18.25 12 18.25C15.4518 18.25 18.25 15.4518 18.25 12C18.25 8.54822 15.4518 5.75 12 5.75ZM4.25 12C4.25 7.71979 7.71979 4.25 12 4.25C16.2802 4.25 19.75 7.71979 19.75 12C19.75 16.2802 16.2802 19.75 12 19.75C7.71979 19.75 4.25 16.2802 4.25 12ZM12.9783 8.77246C12.6318 8.56897 12.2049 8.501 11.9013 8.5127C10.7873 8.5556 10.3061 9.2962 10.3234 9.74437C10.3393 10.1583 10.0167 10.5067 9.60278 10.5227C9.18887 10.5386 8.84041 10.216 8.82447 9.80211C8.76782 8.33168 10.1106 7.08056 11.8435 7.01381C12.3634 6.99378 13.0899 7.09843 13.738 7.47908C14.4182 7.87865 14.9884 8.57357 15.112 9.63627C15.2166 10.5367 14.667 11.2465 14.1012 11.6376C13.2431 12.2309 12.7209 12.7297 12.7494 13.4711C12.7654 13.8851 12.4428 14.2335 12.0289 14.2495C11.615 14.2654 11.2665 13.9428 11.2506 13.5289C11.1873 11.8867 12.4419 10.9612 13.2481 10.4038C13.5518 10.1939 13.6394 9.95908 13.622 9.8095C13.5579 9.25779 13.2925 8.95704 12.9783 8.77246Z" fill="#29333D"/>
</svg>
