<svg width="24" height="24" viewBox="0 0 24 24" fill="none" xmlns="http://www.w3.org/2000/svg">
<path fill-rule="evenodd" clip-rule="evenodd" d="M12.8276 7.00132C12.146 7.68294 11.8006 8.5717 11.7907 9.46584C11.7882 9.69143 11.8071 9.91714 11.8474 10.1396C11.9212 10.5472 11.6505 10.9374 11.2429 11.0112C10.8354 11.085 10.4451 10.8143 10.3714 10.4068C10.3141 10.0904 10.2873 9.76965 10.2908 9.44928C10.3048 8.17896 10.7971 6.91056 11.767 5.94066C13.7356 3.97201 16.9275 3.97201 18.8961 5.94066C20.8648 7.90932 20.8648 11.1011 18.8961 13.0698C17.5649 14.401 15.675 14.831 13.9844 14.3637C13.7445 14.2974 13.5085 14.213 13.2785 14.1105C12.9002 13.942 12.7301 13.4986 12.8987 13.1202C13.0673 12.7419 13.5107 12.5718 13.889 12.7404C14.0502 12.8122 14.2157 12.8714 14.3841 12.9179C15.5753 13.2472 16.9015 12.943 17.8355 12.0091C19.2183 10.6263 19.2183 8.38419 17.8355 7.00132C16.4526 5.61846 14.2105 5.61846 12.8276 7.00132Z" fill="#29333D"/>
<path fill-rule="evenodd" clip-rule="evenodd" d="M11.6788 10.0423C11.9484 10.3568 11.912 10.8303 11.5975 11.0998L4.9677 16.7825C4.82495 16.9049 4.81658 17.1228 4.94953 17.2558L5.61642 17.9227C5.64095 17.9472 5.66928 17.9676 5.70031 17.9831L5.92579 18.0959C6.05005 18.158 6.20013 18.1337 6.29836 18.0354L6.51018 17.8236C6.57071 17.7631 6.60472 17.681 6.60472 17.5954V17C6.60472 15.9504 7.59111 15.1802 8.60937 15.4348C8.60938 15.4348 8.60937 15.4348 8.60937 15.4348L8.6414 15.4428C8.69668 15.4566 8.75025 15.4148 8.75025 15.3578C8.75025 14.325 9.72088 13.5671 10.7229 13.8176L11.2384 13.9465C11.3484 13.974 11.4648 13.9418 11.5449 13.8616L12.7246 12.682C13.0175 12.3891 13.4924 12.3891 13.7852 12.682C14.0781 12.9749 14.0781 13.4497 13.7852 13.7426L12.6056 14.9223C12.1529 15.375 11.4958 15.557 10.8746 15.4017L10.3591 15.2729C10.3038 15.259 10.2502 15.3008 10.2502 15.3578C10.2502 16.3907 9.27962 17.1485 8.27762 16.898C8.27762 16.898 8.27762 16.898 8.27762 16.898L8.24559 16.89C8.17404 16.8721 8.10472 16.9262 8.10472 17V17.5954C8.10472 18.0788 7.91268 18.5424 7.57084 18.8843L7.35902 19.0961C6.80425 19.6509 5.95671 19.7884 5.25497 19.4375L5.02949 19.3248C4.85426 19.2372 4.6943 19.1219 4.55576 18.9833L3.88887 18.3165C3.13807 17.5657 3.18535 16.3346 3.99152 15.6436L10.6213 9.96095C10.9358 9.69138 11.4093 9.7278 11.6788 10.0423Z" fill="#29333D"/>
<path fill-rule="evenodd" clip-rule="evenodd" d="M15.9368 8.38484C15.6406 8.38484 15.4004 8.62499 15.4004 8.92122C15.4004 9.21746 15.6406 9.45761 15.9368 9.45761C16.233 9.45761 16.4732 9.21746 16.4732 8.92122C16.4732 8.62499 16.233 8.38484 15.9368 8.38484ZM17.546 8.92122C17.546 9.80993 16.8255 10.5304 15.9368 10.5304C15.0481 10.5304 14.3277 9.80993 14.3277 8.92122C14.3277 8.03252 15.0481 7.31208 15.9368 7.31208C16.8255 7.31208 17.546 8.03252 17.546 8.92122Z" fill="#29333D"/>
</svg>
