<svg width="24" height="24" viewBox="0 0 24 24" fill="none" xmlns="http://www.w3.org/2000/svg">
<path fill-rule="evenodd" clip-rule="evenodd" d="M4.01054 16.4945C4.17371 16.1138 4.61462 15.9374 4.99534 16.1006L12.0899 19.1411L19.1845 16.1006C19.5653 15.9374 20.0062 16.1138 20.1693 16.4945C20.3325 16.8752 20.1561 17.3162 19.7754 17.4793L12.427 20.6287C12.2118 20.7209 11.9681 20.7209 11.7529 20.6287L4.40446 17.4793C4.02374 17.3162 3.84737 16.8752 4.01054 16.4945Z" fill="#29333D"/>
<path fill-rule="evenodd" clip-rule="evenodd" d="M4.01087 12.1039C4.17445 11.7233 4.61555 11.5474 4.9961 11.711L12.0899 14.7605L19.1838 11.711C19.5643 11.5474 20.0054 11.7233 20.169 12.1039C20.3326 12.4844 20.1567 12.9255 19.7762 13.0891L12.429 16.2474C12.2125 16.3405 11.9673 16.3405 11.7508 16.2474L4.4037 13.0891C4.02316 12.9255 3.84728 12.4844 4.01087 12.1039Z" fill="#29333D"/>
<path fill-rule="evenodd" clip-rule="evenodd" d="M11.9983 4.81658C12.023 4.80601 12.0509 4.80601 12.0755 4.81658L18.4249 7.53775C18.5041 7.5717 18.5041 7.68401 18.4249 7.71796L12.0755 10.4391C12.0509 10.4497 12.023 10.4497 11.9983 10.4391L5.64891 7.71796C5.56969 7.68401 5.56969 7.5717 5.64891 7.53775L11.9983 4.81658ZM12.6664 3.43786L19.0158 6.15903C20.3072 6.71248 20.3072 8.54323 19.0158 9.09668L12.6664 11.8178C12.2644 11.9901 11.8094 11.9901 11.4074 11.8178L5.05803 9.09668C3.76665 8.54323 3.76666 6.71248 5.05803 6.15903L11.4074 3.43786C11.8094 3.26559 12.2644 3.26558 12.6664 3.43786Z" fill="#29333D"/>
</svg>
