<svg width="24" height="25" viewBox="0 0 24 25" fill="none" xmlns="http://www.w3.org/2000/svg">
<path fill-rule="evenodd" clip-rule="evenodd" d="M7.75 7.60001C7.75 7.18579 8.08579 6.85001 8.5 6.85001H19C19.4142 6.85001 19.75 7.18579 19.75 7.60001C19.75 8.01422 19.4142 8.35001 19 8.35001H8.5C8.08579 8.35001 7.75 8.01422 7.75 7.60001ZM7.75 12.6C7.75 12.1858 8.08579 11.85 8.5 11.85H19C19.4142 11.85 19.75 12.1858 19.75 12.6C19.75 13.0142 19.4142 13.35 19 13.35H8.5C8.08579 13.35 7.75 13.0142 7.75 12.6ZM7.75 17.6C7.75 17.1858 8.08579 16.85 8.5 16.85H19C19.4142 16.85 19.75 17.1858 19.75 17.6C19.75 18.0142 19.4142 18.35 19 18.35H8.5C8.08579 18.35 7.75 18.0142 7.75 17.6Z" fill="#29333D"/>
<path d="M6.3 7.70002C6.3 8.19707 5.89706 8.60002 5.4 8.60002C4.90294 8.60002 4.5 8.19707 4.5 7.70002C4.5 7.20296 4.90294 6.80002 5.4 6.80002C5.89706 6.80002 6.3 7.20296 6.3 7.70002Z" fill="#29333D"/>
<path d="M6.3 12.7C6.3 13.1971 5.89706 13.6 5.4 13.6C4.90294 13.6 4.5 13.1971 4.5 12.7C4.5 12.203 4.90294 11.8 5.4 11.8C5.89706 11.8 6.3 12.203 6.3 12.7Z" fill="#29333D"/>
<path d="M6.3 17.7C6.3 18.1971 5.89706 18.6 5.4 18.6C4.90294 18.6 4.5 18.1971 4.5 17.7C4.5 17.203 4.90294 16.8 5.4 16.8C5.89706 16.8 6.3 17.203 6.3 17.7Z" fill="#29333D"/>
</svg>
