<svg width="24" height="24" viewBox="0 0 24 24" fill="none" xmlns="http://www.w3.org/2000/svg">
<path fill-rule="evenodd" clip-rule="evenodd" d="M4.25 8C4.25 5.37665 6.37665 3.25 9 3.25H13C13.4142 3.25 13.75 3.58579 13.75 4C13.75 4.41421 13.4142 4.75 13 4.75H9C7.20507 4.75 5.75 6.20507 5.75 8V16C5.75 17.7949 7.20507 19.25 9 19.25H13C13.4142 19.25 13.75 19.5858 13.75 20C13.75 20.4142 13.4142 20.75 13 20.75H9C6.37665 20.75 4.25 18.6234 4.25 16V8Z" fill="#29333D"/>
<path fill-rule="evenodd" clip-rule="evenodd" d="M14.4697 7.46967C14.7626 7.17678 15.2374 7.17678 15.5303 7.46967L19.5303 11.4697C19.8232 11.7626 19.8232 12.2374 19.5303 12.5303L15.5303 16.5303C15.2374 16.8232 14.7626 16.8232 14.4697 16.5303C14.1768 16.2374 14.1768 15.7626 14.4697 15.4697L17.1893 12.75H9C8.58579 12.75 8.25 12.4142 8.25 12C8.25 11.5858 8.58579 11.25 9 11.25H17.1893L14.4697 8.53033C14.1768 8.23744 14.1768 7.76256 14.4697 7.46967Z" fill="#29333D"/>
</svg>
