<svg width="24" height="24" viewBox="0 0 24 24" fill="none" xmlns="http://www.w3.org/2000/svg">
<path fill-rule="evenodd" clip-rule="evenodd" d="M9.51046 6.79313C9.43984 6.76186 9.35874 6.765 9.29074 6.80161L5.38147 8.9066C5.3005 8.9502 5.25 9.03475 5.25 9.12672V17.497C5.25 17.6902 5.45974 17.8104 5.6264 17.7127L8.55159 15.9985C9.0309 15.7176 9.61511 15.681 10.1257 15.8999L14.5349 17.7895C14.5939 17.8148 14.6603 17.8164 14.7205 17.7941L18.5871 16.3573C18.685 16.3209 18.75 16.2275 18.75 16.123V7.17113C18.75 6.98215 18.5484 6.8615 18.3818 6.95082L15.2851 8.61178C14.8096 8.86684 14.243 8.88826 13.7495 8.66981L9.51046 6.79313ZM8.57959 5.4809C9.05559 5.22459 9.62334 5.20268 10.1177 5.42153L14.3568 7.29821C14.4273 7.32942 14.5082 7.32636 14.5761 7.28992L17.6728 5.62896C18.8387 5.00366 20.25 5.84821 20.25 7.17113V16.123C20.25 16.8544 19.7951 17.5086 19.1096 17.7634L15.243 19.2002C14.8219 19.3566 14.3569 19.3452 13.944 19.1682L9.53485 17.2786C9.46191 17.2473 9.37845 17.2526 9.30998 17.2927L6.38478 19.0069C5.21814 19.6905 3.75 18.8492 3.75 17.497V9.12672C3.75 8.48292 4.10348 7.89112 4.67033 7.58589L8.57959 5.4809Z" fill="#29333D"/>
<path fill-rule="evenodd" clip-rule="evenodd" d="M9.50004 5.61366C9.91425 5.61366 10.25 5.94945 10.25 6.36366V16.3637C10.25 16.7779 9.91425 17.1137 9.50004 17.1137C9.08582 17.1137 8.75004 16.7779 8.75004 16.3637V6.36366C8.75004 5.94945 9.08582 5.61366 9.50004 5.61366Z" fill="#29333D"/>
<path fill-rule="evenodd" clip-rule="evenodd" d="M14.5 7.43184C14.9142 7.43184 15.25 7.76763 15.25 8.18184V18.1818C15.25 18.5961 14.9142 18.9318 14.5 18.9318C14.0857 18.9318 13.75 18.5961 13.75 18.1818V8.18184C13.75 7.76763 14.0857 7.43184 14.5 7.43184Z" fill="#29333D"/>
</svg>
