<svg width="24" height="25" viewBox="0 0 24 25" fill="none" xmlns="http://www.w3.org/2000/svg">
<path fill-rule="evenodd" clip-rule="evenodd" d="M4.25 7.60001C4.25 7.18579 4.58579 6.85001 5 6.85001H19C19.4142 6.85001 19.75 7.18579 19.75 7.60001C19.75 8.01422 19.4142 8.35001 19 8.35001H5C4.58579 8.35001 4.25 8.01422 4.25 7.60001ZM4.25 12.6C4.25 12.1858 4.58579 11.85 5 11.85H19C19.4142 11.85 19.75 12.1858 19.75 12.6C19.75 13.0142 19.4142 13.35 19 13.35H5C4.58579 13.35 4.25 13.0142 4.25 12.6ZM4.25 17.6C4.25 17.1858 4.58579 16.85 5 16.85H19C19.4142 16.85 19.75 17.1858 19.75 17.6C19.75 18.0142 19.4142 18.35 19 18.35H5C4.58579 18.35 4.25 18.0142 4.25 17.6Z" fill="#29333D"/>
</svg>
