<svg width="24" height="25" viewBox="0 0 24 25" fill="none" xmlns="http://www.w3.org/2000/svg">
<path d="M7.30005 12.55C7.30005 13.5165 6.51655 14.3 5.55005 14.3C4.58355 14.3 3.80005 13.5165 3.80005 12.55C3.80005 11.5835 4.58355 10.8 5.55005 10.8C6.51655 10.8 7.30005 11.5835 7.30005 12.55Z" fill="#29333D"/>
<path d="M13.8 12.55C13.8 13.5165 13.0165 14.3 12.05 14.3C11.0836 14.3 10.3 13.5165 10.3 12.55C10.3 11.5835 11.0836 10.8 12.05 10.8C13.0165 10.8 13.8 11.5835 13.8 12.55Z" fill="#29333D"/>
<path d="M20.3 12.55C20.3 13.5165 19.5165 14.3 18.55 14.3C17.5836 14.3 16.8 13.5165 16.8 12.55C16.8 11.5835 17.5836 10.8 18.55 10.8C19.5165 10.8 20.3 11.5835 20.3 12.55Z" fill="#29333D"/>
</svg>
