<svg width="24" height="24" viewBox="0 0 24 24" fill="none" xmlns="http://www.w3.org/2000/svg">
<path fill-rule="evenodd" clip-rule="evenodd" d="M10.7841 5.62392C10.2595 5.77947 9.75728 6.02444 9.39922 6.37635C8.42313 7.33569 8.03526 8.64473 8.03526 10.9146C8.03526 12.4192 7.25174 13.8662 6.6525 14.8477C6.49603 15.1039 6.43453 15.3615 6.44721 15.5463C6.45797 15.7031 6.51405 15.7916 6.62942 15.8566C7.23101 16.1953 8.11633 16.438 9.1234 16.5916C10.1162 16.743 11.1648 16.7988 12.05 16.7988C12.4642 16.7988 12.8 17.1346 12.8 17.5488C12.8 17.963 12.4642 18.2988 12.05 18.2988C11.1096 18.2988 9.98279 18.24 8.89726 18.0744C7.82594 17.9111 6.7298 17.6345 5.89354 17.1637C5.27806 16.8171 4.99107 16.2369 4.95073 15.6489C4.9123 15.0889 5.09167 14.5256 5.37226 14.066C5.96882 13.0889 6.53526 11.9609 6.53526 10.9146C6.53526 8.50158 6.94152 6.68867 8.34778 5.30655C8.94266 4.72187 9.69779 4.38147 10.3577 4.1858C11.0204 3.98931 11.6482 3.92072 12.05 3.92072C12.4642 3.92072 12.8 4.2565 12.8 4.67072C12.8 5.08493 12.4642 5.42072 12.05 5.42072C11.79 5.42072 11.306 5.46919 10.7841 5.62392Z" fill="#29333D"/>
<path fill-rule="evenodd" clip-rule="evenodd" d="M13.3158 5.62392C13.8405 5.77947 14.3427 6.02444 14.7007 6.37635C15.6768 7.33569 16.0647 8.64474 16.0647 10.9146C16.0647 12.4192 16.8482 13.8662 17.4475 14.8477C17.6039 15.1039 17.6654 15.3615 17.6527 15.5463C17.642 15.7031 17.5859 15.7916 17.4705 15.8566C16.8689 16.1953 15.9836 16.438 14.9766 16.5916C13.9837 16.743 12.9352 16.7988 12.05 16.7988C11.6358 16.7988 11.3 17.1346 11.3 17.5488C11.3 17.963 11.6358 18.2988 12.05 18.2988C12.9904 18.2988 14.1172 18.24 15.2027 18.0744C16.274 17.9111 17.3702 17.6345 18.2064 17.1637C18.8219 16.8171 19.1089 16.237 19.1492 15.6489C19.1877 15.0889 19.0083 14.5256 18.7277 14.066C18.1311 13.0889 17.5647 11.9609 17.5647 10.9146C17.5647 8.50158 17.1584 6.68868 15.7522 5.30655C15.1573 4.72188 14.4022 4.38148 13.7422 4.18581C13.0795 3.98931 12.4517 3.92072 12.05 3.92072C11.6358 3.92072 11.3 4.2565 11.3 4.67072C11.3 5.08493 11.6358 5.42072 12.05 5.42072C12.31 5.42072 12.794 5.4692 13.3158 5.62392Z" fill="#29333D"/>
<path d="M14.0352 4.97925C14.0352 5.67482 12.9271 5.02239 12.0499 5.02239C11.1728 5.02239 10.0646 5.67482 10.0646 4.97925C10.0646 4.28368 10.8587 3.29999 12.0499 3.29999C13.2411 3.29999 14.0352 4.28368 14.0352 4.97925Z" fill="#29333D"/>
<path fill-rule="evenodd" clip-rule="evenodd" d="M10.2499 17.5C10.2499 18.4665 11.0334 19.25 11.9999 19.25C12.9664 19.25 13.7499 18.4665 13.7499 17.5H15.2499C15.2499 19.2949 13.7948 20.75 11.9999 20.75C10.205 20.75 8.74992 19.2949 8.74992 17.5H10.2499Z" fill="#29333D"/>
</svg>
