<svg width="24" height="25" viewBox="0 0 24 25" fill="none" xmlns="http://www.w3.org/2000/svg">
<path fill-rule="evenodd" clip-rule="evenodd" d="M20.5 12.2C20.5 16.8944 16.6944 20.7 12 20.7C7.30558 20.7 3.5 16.8944 3.5 12.2C3.5 7.50559 7.30558 3.70001 12 3.70001C16.6944 3.70001 20.5 7.50559 20.5 12.2ZM12 19.2C15.866 19.2 19 16.066 19 12.2C19 8.33402 15.866 5.20001 12 5.20001C8.13401 5.20001 5 8.33402 5 12.2C5 16.066 8.13401 19.2 12 19.2Z" fill="#29333D"/>
<path fill-rule="evenodd" clip-rule="evenodd" d="M10 8.20001C9.44772 8.20001 9 8.64773 9 9.20001V15.2C9 15.7523 9.44772 16.2 10 16.2C10.5523 16.2 11 15.7523 11 15.2V9.20001C11 8.64773 10.5523 8.20001 10 8.20001Z" fill="#29333D"/>
<path fill-rule="evenodd" clip-rule="evenodd" d="M14 8.20001C14.5523 8.20001 15 8.64773 15 9.20001V15.2C15 15.7523 14.5523 16.2 14 16.2C13.4477 16.2 13 15.7523 13 15.2V9.20001C13 8.64773 13.4477 8.20001 14 8.20001Z" fill="#29333D"/>
</svg>
