<svg width="24" height="24" viewBox="0 0 24 24" fill="none" xmlns="http://www.w3.org/2000/svg">
<path fill-rule="evenodd" clip-rule="evenodd" d="M20.4998 12C20.4998 16.6944 16.6942 20.5 11.9998 20.5C7.30534 20.5 3.49976 16.6944 3.49976 12C3.49976 7.30558 7.30534 3.5 11.9998 3.5C16.6942 3.5 20.4998 7.30558 20.4998 12ZM11.9998 19C15.8657 19 18.9998 15.866 18.9998 12C18.9998 8.13401 15.8657 5 11.9998 5C8.13376 5 4.99976 8.13401 4.99976 12C4.99976 15.866 8.13376 19 11.9998 19Z" fill="#29333D"/>
<path fill-rule="evenodd" clip-rule="evenodd" d="M11.9998 16.25C11.5855 16.25 11.2498 15.9142 11.2498 15.5V8.5C11.2498 8.08579 11.5855 7.75 11.9998 7.75C12.414 7.75 12.7498 8.08579 12.7498 8.5V15.5C12.7498 15.9142 12.414 16.25 11.9998 16.25Z" fill="#29333D"/>
<path fill-rule="evenodd" clip-rule="evenodd" d="M16.2498 12C16.2498 12.4142 15.914 12.75 15.4998 12.75H8.49976C8.08554 12.75 7.74976 12.4142 7.74976 12C7.74976 11.5858 8.08554 11.25 8.49976 11.25L15.4998 11.25C15.914 11.25 16.2498 11.5858 16.2498 12Z" fill="#29333D"/>
</svg>
