<svg width="24" height="24" viewBox="0 0 24 24" fill="none" xmlns="http://www.w3.org/2000/svg">
<path fill-rule="evenodd" clip-rule="evenodd" d="M12 6.55C15.4518 6.55 18.25 9.34822 18.25 12.8C18.25 16.2518 15.4518 19.05 12 19.05C8.54822 19.05 5.75 16.2518 5.75 12.8C5.75 11.8401 5.9659 10.9326 6.35108 10.1218C6.52881 9.74768 6.36959 9.30029 5.99545 9.12256C5.62131 8.94482 5.17392 9.10404 4.99619 9.47818C4.51749 10.4859 4.25 11.6127 4.25 12.8C4.25 17.0802 7.71979 20.55 12 20.55C16.2802 20.55 19.75 17.0802 19.75 12.8C19.75 8.5198 16.2802 5.05 12 5.05C10.9313 5.05 9.91136 5.26673 8.98311 5.65935L9.56744 7.04085C10.3141 6.72502 11.1357 6.55 12 6.55Z" fill="#29333D"/>
<path fill-rule="evenodd" clip-rule="evenodd" d="M10.4198 3.32792C10.0486 3.14407 9.59869 3.29593 9.41484 3.66711L8.24821 6.02244C8.01533 6.4926 8.20768 7.06252 8.67784 7.2954L11.0332 8.46203C11.4044 8.64588 11.8543 8.49402 12.0381 8.12284C12.222 7.75167 12.0701 7.30173 11.699 7.11788L9.83647 6.19537L10.759 4.33289C10.9428 3.96171 10.791 3.51177 10.4198 3.32792Z" fill="#29333D"/>
</svg>
