<svg width="24" height="24" viewBox="0 0 24 24" fill="none" xmlns="http://www.w3.org/2000/svg">
<path fill-rule="evenodd" clip-rule="evenodd" d="M11 16.5C14.0376 16.5 16.5 14.0376 16.5 11C16.5 7.96243 14.0376 5.5 11 5.5C7.96243 5.5 5.5 7.96243 5.5 11C5.5 14.0376 7.96243 16.5 11 16.5ZM11 18C14.866 18 18 14.866 18 11C18 7.13401 14.866 4 11 4C7.13401 4 4 7.13401 4 11C4 14.866 7.13401 18 11 18Z" fill="#29333D"/>
<path fill-rule="evenodd" clip-rule="evenodd" d="M15.0711 15.001C15.3665 14.7107 15.8414 14.7149 16.1317 15.0104L19.535 18.4744C19.8253 18.7698 19.8211 19.2447 19.5256 19.535C19.2301 19.8253 18.7553 19.8211 18.465 19.5256L15.0617 16.0616C14.7714 15.7662 14.7756 15.2913 15.0711 15.001Z" fill="#29333D"/>
</svg>
