<svg width="24" height="24" viewBox="0 0 24 24" fill="none" xmlns="http://www.w3.org/2000/svg">
<path fill-rule="evenodd" clip-rule="evenodd" d="M14.25 7C14.25 6.58579 14.5858 6.25 15 6.25H20C20.4142 6.25 20.75 6.58579 20.75 7C20.75 7.41421 20.4142 7.75 20 7.75H15C14.5858 7.75 14.25 7.41421 14.25 7Z" fill="#29333D"/>
<path fill-rule="evenodd" clip-rule="evenodd" d="M3.25 7C3.25 6.58579 3.58579 6.25 4 6.25H6C6.41421 6.25 6.75 6.58579 6.75 7C6.75 7.41421 6.41421 7.75 6 7.75H4C3.58579 7.75 3.25 7.41421 3.25 7Z" fill="#29333D"/>
<path fill-rule="evenodd" clip-rule="evenodd" d="M3.25 17C3.25 16.5858 3.58579 16.25 4 16.25H9C9.41421 16.25 9.75 16.5858 9.75 17C9.75 17.4142 9.41421 17.75 9 17.75H4C3.58579 17.75 3.25 17.4142 3.25 17Z" fill="#29333D"/>
<path fill-rule="evenodd" clip-rule="evenodd" d="M17.25 17C17.25 16.5858 17.5858 16.25 18 16.25H19.5C19.9142 16.25 20.25 16.5858 20.25 17C20.25 17.4142 19.9142 17.75 19.5 17.75H18C17.5858 17.75 17.25 17.4142 17.25 17Z" fill="#29333D"/>
<path fill-rule="evenodd" clip-rule="evenodd" d="M8 4H10C11.3807 4 12.5 5.11929 12.5 6.5V7.5C12.5 8.88071 11.3807 10 10 10H8C6.61929 10 5.5 8.88071 5.5 7.5V6.5C5.5 5.11929 6.61929 4 8 4ZM8 5.5C7.44772 5.5 7 5.94772 7 6.5V7.5C7 8.05228 7.44772 8.5 8 8.5H10C10.5523 8.5 11 8.05228 11 7.5V6.5C11 5.94772 10.5523 5.5 10 5.5H8Z" fill="#29333D"/>
<path fill-rule="evenodd" clip-rule="evenodd" d="M13.5 14H15.5C16.8807 14 18 15.1193 18 16.5V17.5C18 18.8807 16.8807 20 15.5 20H13.5C12.1193 20 11 18.8807 11 17.5V16.5C11 15.1193 12.1193 14 13.5 14ZM13.5 15.5C12.9477 15.5 12.5 15.9477 12.5 16.5V17.5C12.5 18.0523 12.9477 18.5 13.5 18.5H15.5C16.0523 18.5 16.5 18.0523 16.5 17.5V16.5C16.5 15.9477 16.0523 15.5 15.5 15.5H13.5Z" fill="#29333D"/>
</svg>
