<svg width="24" height="24" viewBox="0 0 24 24" fill="none" xmlns="http://www.w3.org/2000/svg">
<path fill-rule="evenodd" clip-rule="evenodd" d="M8.93449 5.83846C8.93449 7.27228 7.77216 8.43462 6.33834 8.43462C4.90453 8.43462 3.74219 7.27228 3.74219 5.83846C3.74219 4.40465 4.90453 3.24231 6.33834 3.24231C7.77216 3.24231 8.93449 4.40465 8.93449 5.83846ZM6.33834 6.87692C6.91187 6.87692 7.3768 6.41199 7.3768 5.83846C7.3768 5.26494 6.91187 4.8 6.33834 4.8C5.76481 4.8 5.29988 5.26494 5.29988 5.83846C5.29988 6.41199 5.76481 6.87692 6.33834 6.87692Z" fill="#29333D"/>
<path fill-rule="evenodd" clip-rule="evenodd" d="M20.3576 18.3C20.3576 19.7338 19.1952 20.8961 17.7614 20.8961C16.3276 20.8961 15.1653 19.7338 15.1653 18.3C15.1653 16.8662 16.3276 15.7038 17.7614 15.7038C19.1952 15.7038 20.3576 16.8662 20.3576 18.3ZM17.7614 19.3385C18.3349 19.3385 18.7999 18.8735 18.7999 18.3C18.7999 17.7265 18.3349 17.2615 17.7614 17.2615C17.1879 17.2615 16.723 17.7265 16.723 18.3C16.723 18.8735 17.1879 19.3385 17.7614 19.3385Z" fill="#29333D"/>
<path fill-rule="evenodd" clip-rule="evenodd" d="M20.3576 11.55C20.3576 12.9838 19.1952 14.1461 17.7614 14.1461C16.3276 14.1461 15.1653 12.9838 15.1653 11.55C15.1653 10.1162 16.3276 8.95384 17.7614 8.95384C19.1952 8.95384 20.3576 10.1162 20.3576 11.55ZM17.7614 12.5885C18.3349 12.5885 18.7999 12.1235 18.7999 11.55C18.7999 10.9765 18.3349 10.5115 17.7614 10.5115C17.1879 10.5115 16.723 10.9765 16.723 11.55C16.723 12.1235 17.1879 12.5885 17.7614 12.5885Z" fill="#29333D"/>
<path fill-rule="evenodd" clip-rule="evenodd" d="M6.33834 7.65576C6.76849 7.65576 7.11719 8.00446 7.11719 8.43461V14.1461C7.11719 16.0101 8.62823 17.5211 10.4922 17.5211H15.6845C16.1146 17.5211 16.4633 17.8698 16.4633 18.3C16.4633 18.7301 16.1146 19.0788 15.6845 19.0788H10.4922C7.76794 19.0788 5.5595 16.8704 5.5595 14.1461V8.43461C5.5595 8.00446 5.9082 7.65576 6.33834 7.65576Z" fill="#29333D"/>
<path fill-rule="evenodd" clip-rule="evenodd" d="M9.97296 12.3288C7.53547 12.3288 5.5595 10.3529 5.5595 7.91538H7.11719C7.11719 9.49257 8.39576 10.7711 9.97296 10.7711H15.6845C16.1146 10.7711 16.4633 11.1198 16.4633 11.55C16.4633 11.9801 16.1146 12.3288 15.6845 12.3288H9.97296Z" fill="#29333D"/>
</svg>
