<svg width="24" height="24" viewBox="0 0 24 24" fill="none" xmlns="http://www.w3.org/2000/svg">
<path fill-rule="evenodd" clip-rule="evenodd" d="M5.44019 6.25239C5.85309 6.21936 6.21458 6.5273 6.24761 6.94019L7.02675 16.6794C7.1203 17.8488 8.09652 18.75 9.26958 18.75H14.7304C15.9035 18.75 16.8797 17.8488 16.9733 16.6794L17.7524 6.94019C17.7854 6.5273 18.1469 6.21936 18.5598 6.25239C18.9727 6.28542 19.2806 6.64691 19.2476 7.05981L18.4685 16.799C18.3126 18.7479 16.6855 20.25 14.7304 20.25H9.26958C7.31448 20.25 5.68744 18.7479 5.53153 16.799L4.75239 7.05981C4.71936 6.64691 5.0273 6.28542 5.44019 6.25239Z" fill="#29333D"/>
<path fill-rule="evenodd" clip-rule="evenodd" d="M3.25 7C3.25 6.58579 3.58579 6.25 4 6.25H20C20.4142 6.25 20.75 6.58579 20.75 7C20.75 7.41421 20.4142 7.75 20 7.75H4C3.58579 7.75 3.25 7.41421 3.25 7Z" fill="#29333D"/>
<path fill-rule="evenodd" clip-rule="evenodd" d="M10 9.25C10.4142 9.25 10.75 9.58579 10.75 10V16.5C10.75 16.9142 10.4142 17.25 10 17.25C9.58579 17.25 9.25 16.9142 9.25 16.5V10C9.25 9.58579 9.58579 9.25 10 9.25Z" fill="#29333D"/>
<path fill-rule="evenodd" clip-rule="evenodd" d="M14 9.25C14.4142 9.25 14.75 9.58579 14.75 10V14C14.75 14.4142 14.4142 14.75 14 14.75C13.5858 14.75 13.25 14.4142 13.25 14V10C13.25 9.58579 13.5858 9.25 14 9.25Z" fill="#29333D"/>
<path fill-rule="evenodd" clip-rule="evenodd" d="M10.3541 4.75C9.84294 4.75 9.3833 5.06119 9.19347 5.53576L8.69636 6.77854C8.54252 7.16313 8.10604 7.35019 7.72146 7.19636C7.33687 7.04252 7.14981 6.60604 7.30364 6.22146L7.80075 4.97868C8.21838 3.93462 9.22958 3.25 10.3541 3.25H13.6459C14.7704 3.25 15.7816 3.93462 16.1992 4.97868L16.6964 6.22146C16.8502 6.60604 16.6631 7.04252 16.2785 7.19636C15.894 7.35019 15.4575 7.16313 15.3036 6.77854L14.8065 5.53576C14.6167 5.06119 14.1571 4.75 13.6459 4.75H10.3541Z" fill="#29333D"/>
</svg>
