<svg width="24" height="25" viewBox="0 0 24 25" fill="none" xmlns="http://www.w3.org/2000/svg">
<path fill-rule="evenodd" clip-rule="evenodd" d="M19.4881 17.6194C19.8026 17.3499 19.839 16.8764 19.5695 16.5619L14.5496 10.7054C13.7351 9.75514 12.2154 9.94222 11.6557 11.0617L10.5027 13.3675C10.4228 13.5274 10.2057 13.5541 10.0893 13.4184L5.06946 7.56189C4.79989 7.2474 4.32641 7.21098 4.01192 7.48054C3.69743 7.75011 3.661 8.22359 3.93057 8.53808L8.95043 14.3946C9.76494 15.3448 11.2847 15.1577 11.8444 14.0383L12.9973 11.7325C13.0773 11.5726 13.2944 11.5458 13.4107 11.6816L18.4306 17.5381C18.7001 17.8526 19.1736 17.889 19.4881 17.6194Z" fill="#29333D"/>
<path fill-rule="evenodd" clip-rule="evenodd" d="M19.7678 18.5322C20.182 18.5322 20.5178 18.1964 20.5178 17.7822V14.2467C20.5178 13.8325 20.182 13.4967 19.7678 13.4967C19.3536 13.4967 19.0178 13.8325 19.0178 14.2467V17.0322H16.2322C15.818 17.0322 15.4822 17.368 15.4822 17.7822C15.4822 18.1964 15.818 18.5322 16.2322 18.5322H19.7678Z" fill="#29333D"/>
</svg>
