<svg width="24" height="24" viewBox="0 0 24 24" fill="none" xmlns="http://www.w3.org/2000/svg">
<path fill-rule="evenodd" clip-rule="evenodd" d="M9.6875 10C10.654 10 11.4375 9.2165 11.4375 8.25C11.4375 7.2835 10.654 6.5 9.6875 6.5C8.721 6.5 7.9375 7.2835 7.9375 8.25C7.9375 9.2165 8.721 10 9.6875 10ZM9.6875 11.5C11.4824 11.5 12.9375 10.0449 12.9375 8.25C12.9375 6.45507 11.4824 5 9.6875 5C7.89257 5 6.4375 6.45507 6.4375 8.25C6.4375 10.0449 7.89257 11.5 9.6875 11.5Z" fill="#29333D"/>
<path fill-rule="evenodd" clip-rule="evenodd" d="M4.42729 14.0954C5.25145 13.0247 6.48869 12.375 8.0625 12.375H11.3125C12.8863 12.375 14.1235 13.0247 14.9477 14.0954C15.754 15.1428 16.125 16.5373 16.125 18C16.125 18.4142 15.7892 18.75 15.375 18.75C14.9608 18.75 14.625 18.4142 14.625 18C14.625 16.7703 14.3109 15.7273 13.7591 15.0103C13.2251 14.3166 12.4311 13.875 11.3125 13.875H8.0625C6.94393 13.875 6.14991 14.3166 5.61592 15.0103C5.06406 15.7273 4.75 16.7703 4.75 18C4.75 18.4142 4.41421 18.75 4 18.75C3.58579 18.75 3.25 18.4142 3.25 18C3.25 16.5373 3.62099 15.1428 4.42729 14.0954Z" fill="#29333D"/>
<path fill-rule="evenodd" clip-rule="evenodd" d="M19.9445 9.05546C20.2374 9.34835 20.2374 9.82322 19.9445 10.1161L19.0607 11L19.9445 11.8839C20.2374 12.1768 20.2374 12.6517 19.9445 12.9445C19.6517 13.2374 19.1768 13.2374 18.8839 12.9445L18 12.0607L17.1161 12.9445C16.8232 13.2374 16.3483 13.2374 16.0555 12.9445C15.7626 12.6517 15.7626 12.1768 16.0555 11.8839L16.9393 11L16.0555 10.1161C15.7626 9.82322 15.7626 9.34835 16.0555 9.05546C16.3483 8.76256 16.8232 8.76256 17.1161 9.05546L18 9.93934L18.8839 9.05546C19.1768 8.76256 19.6517 8.76256 19.9445 9.05546Z" fill="#29333D"/>
<path fill-rule="evenodd" clip-rule="evenodd" d="M3.25 18C3.25 17.5858 3.58579 17.25 4 17.25H15.3477C15.7619 17.25 16.0977 17.5858 16.0977 18C16.0977 18.4142 15.7619 18.75 15.3477 18.75H4C3.58579 18.75 3.25 18.4142 3.25 18Z" fill="#29333D"/>
</svg>
