<svg width="24" height="25" viewBox="0 0 24 25" fill="none" xmlns="http://www.w3.org/2000/svg">
<path fill-rule="evenodd" clip-rule="evenodd" d="M6.5 6.70001H13C14.6569 6.70001 16 8.04316 16 9.70001V15.7C16 17.3569 14.6569 18.7 13 18.7H6.5C4.84315 18.7 3.5 17.3569 3.5 15.7V9.70001C3.5 8.04316 4.84315 6.70001 6.5 6.70001ZM6.5 8.20001C5.67157 8.20001 5 8.87159 5 9.70001V15.7C5 16.5284 5.67157 17.2 6.5 17.2H13C13.8284 17.2 14.5 16.5284 14.5 15.7V9.70001C14.5 8.87159 13.8284 8.20001 13 8.20001H6.5Z" fill="#29333D"/>
<path fill-rule="evenodd" clip-rule="evenodd" d="M16.1845 11.2905C16.0678 11.3854 16 11.5279 16 11.6783V13.7658C16 13.9142 16.0659 14.0549 16.1799 14.1499L18.1799 15.8166C18.5056 16.088 19 15.8564 19 15.4325V10.0513C19 9.63016 18.5112 9.39767 18.1845 9.66345L16.1845 11.2905ZM15.2379 10.1269L17.2379 8.49985C18.5447 7.43674 20.5 8.36669 20.5 10.0513V15.4325C20.5 17.1282 18.5223 18.0545 17.2196 16.9689L15.2196 15.3023C14.7636 14.9223 14.5 14.3594 14.5 13.7658V11.6783C14.5 11.0765 14.771 10.5066 15.2379 10.1269Z" fill="#29333D"/>
</svg>
