<svg width="24" height="24" viewBox="0 0 24 24" fill="none" xmlns="http://www.w3.org/2000/svg">
<path fill-rule="evenodd" clip-rule="evenodd" d="M6.52004 6.5199C6.81294 6.22701 7.28781 6.22701 7.5807 6.5199L17.4802 16.4194C17.7731 16.7123 17.7731 17.1872 17.4802 17.4801C17.1873 17.7729 16.7124 17.7729 16.4195 17.4801L6.52004 7.58056C6.22715 7.28767 6.22715 6.8128 6.52004 6.5199Z" fill="#29333D"/>
<path fill-rule="evenodd" clip-rule="evenodd" d="M17.4801 6.5199C17.773 6.8128 17.773 7.28767 17.4801 7.58056L7.58062 17.4801C7.28773 17.773 6.81286 17.773 6.51996 17.4801C6.22707 17.1872 6.22707 16.7123 6.51996 16.4194L16.4195 6.5199C16.7124 6.22701 17.1872 6.22701 17.4801 6.5199Z" fill="#29333D"/>
</svg>
