<svg width="24" height="24" viewBox="0 0 24 24" fill="currentcolor" xmlns="http://www.w3.org/2000/svg">
<path fill-rule="evenodd" clip-rule="evenodd" d="M20.5 12C20.5 16.6944 16.6944 20.5 12 20.5C7.30558 20.5 3.5 16.6944 3.5 12C3.5 7.30558 7.30558 3.5 12 3.5C16.6944 3.5 20.5 7.30558 20.5 12ZM12 19C15.866 19 19 15.866 19 12C19 8.13401 15.866 5 12 5C8.13401 5 5 8.13401 5 12C5 15.866 8.13401 19 12 19Z" fill="currentcolor"/>
<path fill-rule="evenodd" clip-rule="evenodd" d="M12 13.25C11.5858 13.25 11.25 12.9142 11.25 12.5L11.25 8.5C11.25 8.08579 11.5858 7.75 12 7.75C12.4142 7.75 12.75 8.08579 12.75 8.5V12.5C12.75 12.9142 12.4142 13.25 12 13.25Z" fill="currentcolor"/>
<path d="M11 15.5C11 14.9477 11.4477 14.5 12 14.5C12.5523 14.5 13 14.9477 13 15.5C13 16.0523 12.5523 16.5 12 16.5C11.4477 16.5 11 16.0523 11 15.5Z" fill="currentcolor"/>
</svg>
