<svg width="24" height="24" viewBox="0 0 24 24" fill="none" xmlns="http://www.w3.org/2000/svg">
<path fill-rule="evenodd" clip-rule="evenodd" d="M12 8.25C12.4142 8.25 12.75 8.58579 12.75 9L12.75 15.5C12.75 15.9142 12.4142 16.25 12 16.25C11.5858 16.25 11.25 15.9142 11.25 15.5L11.25 9C11.25 8.58579 11.5858 8.25 12 8.25Z" fill="#29333D"/>
<path fill-rule="evenodd" clip-rule="evenodd" d="M12 18.25C15.4518 18.25 18.25 15.4518 18.25 12C18.25 8.54822 15.4518 5.75 12 5.75C8.54822 5.75 5.75 8.54822 5.75 12C5.75 15.4518 8.54822 18.25 12 18.25ZM19.75 12C19.75 16.2802 16.2802 19.75 12 19.75C7.71979 19.75 4.25 16.2802 4.25 12C4.25 7.71979 7.71979 4.25 12 4.25C16.2802 4.25 19.75 7.71979 19.75 12ZM15.0303 12.0303C14.7374 12.3232 14.2626 12.3232 13.9697 12.0303L12 10.0607L10.0303 12.0303C9.73744 12.3232 9.26256 12.3232 8.96967 12.0303C8.67678 11.7374 8.67678 11.2626 8.96967 10.9697L11.4697 8.46967C11.6103 8.32902 11.8011 8.25 12 8.25C12.1989 8.25 12.3897 8.32902 12.5303 8.46967L15.0303 10.9697C15.3232 11.2626 15.3232 11.7374 15.0303 12.0303Z" fill="#29333D"/>
</svg>
