<svg width="24" height="24" viewBox="0 0 24 24" fill="none" xmlns="http://www.w3.org/2000/svg">
<path fill-rule="evenodd" clip-rule="evenodd" d="M12 15.75C11.5858 15.75 11.25 15.4142 11.25 15L11.25 8.5C11.25 8.08579 11.5858 7.75 12 7.75C12.4142 7.75 12.75 8.08579 12.75 8.5L12.75 15C12.75 15.4142 12.4142 15.75 12 15.75Z" fill="#29333D"/>
<path fill-rule="evenodd" clip-rule="evenodd" d="M12 5.75C8.54822 5.75 5.75 8.54822 5.75 12C5.75 15.4518 8.54822 18.25 12 18.25C15.4518 18.25 18.25 15.4518 18.25 12C18.25 8.54822 15.4518 5.75 12 5.75ZM4.25 12C4.25 7.71979 7.71979 4.25 12 4.25C16.2802 4.25 19.75 7.71979 19.75 12C19.75 16.2802 16.2802 19.75 12 19.75C7.71979 19.75 4.25 16.2802 4.25 12ZM8.96967 11.9697C9.26256 11.6768 9.73744 11.6768 10.0303 11.9697L12 13.9393L13.9697 11.9697C14.2626 11.6768 14.7374 11.6768 15.0303 11.9697C15.3232 12.2626 15.3232 12.7374 15.0303 13.0303L12.5303 15.5303C12.3897 15.671 12.1989 15.75 12 15.75C11.8011 15.75 11.6103 15.671 11.4697 15.5303L8.96967 13.0303C8.67678 12.7374 8.67678 12.2626 8.96967 11.9697Z" fill="#29333D"/>
</svg>
