<svg width="24" height="24" viewBox="0 0 24 24" fill="none" xmlns="http://www.w3.org/2000/svg">
<path fill-rule="evenodd" clip-rule="evenodd" d="M15.75 12C15.75 12.4142 15.4142 12.75 15 12.75L8.5 12.75C8.08579 12.75 7.75 12.4142 7.75 12C7.75 11.5858 8.08579 11.25 8.5 11.25L15 11.25C15.4142 11.25 15.75 11.5858 15.75 12Z" fill="#29333D"/>
<path fill-rule="evenodd" clip-rule="evenodd" d="M5.75 12C5.75 15.4518 8.54822 18.25 12 18.25C15.4518 18.25 18.25 15.4518 18.25 12C18.25 8.54822 15.4518 5.75 12 5.75C8.54822 5.75 5.75 8.54822 5.75 12ZM12 19.75C7.71979 19.75 4.25 16.2802 4.25 12C4.25 7.71979 7.71979 4.25 12 4.25C16.2802 4.25 19.75 7.71979 19.75 12C19.75 16.2802 16.2802 19.75 12 19.75ZM11.9697 15.0303C11.6768 14.7374 11.6768 14.2626 11.9697 13.9697L13.9393 12L11.9697 10.0303C11.6768 9.73744 11.6768 9.26256 11.9697 8.96967C12.2626 8.67678 12.7374 8.67678 13.0303 8.96967L15.5303 11.4697C15.671 11.6103 15.75 11.8011 15.75 12C15.75 12.1989 15.671 12.3897 15.5303 12.5303L13.0303 15.0303C12.7374 15.3232 12.2626 15.3232 11.9697 15.0303Z" fill="#29333D"/>
</svg>
