<svg width="24" height="24" viewBox="0 0 24 24" fill="none" xmlns="http://www.w3.org/2000/svg">
<path fill-rule="evenodd" clip-rule="evenodd" d="M20.5 12C20.5 16.6944 16.6944 20.5 12 20.5C7.30558 20.5 3.5 16.6944 3.5 12C3.5 7.30558 7.30558 3.5 12 3.5C16.6944 3.5 20.5 7.30558 20.5 12ZM12 19C15.866 19 19 15.866 19 12C19 8.13401 15.866 5 12 5C8.13401 5 5 8.13401 5 12C5 15.866 8.13401 19 12 19Z" fill="#29333D"/>
<path fill-rule="evenodd" clip-rule="evenodd" d="M18.0303 6.46967C18.3232 6.76256 18.3232 7.23744 18.0303 7.53033L7.53033 18.0303C7.23744 18.3232 6.76256 18.3232 6.46967 18.0303C6.17678 17.7374 6.17678 17.2626 6.46967 16.9697L16.9697 6.46967C17.2626 6.17678 17.7374 6.17678 18.0303 6.46967Z" fill="#29333D"/>
</svg>
