<svg width="24" height="24" viewBox="0 0 24 24" fill="none" xmlns="http://www.w3.org/2000/svg">
<path fill-rule="evenodd" clip-rule="evenodd" d="M5.51587 6.59088C5.51587 5.00306 6.80305 3.71588 8.39087 3.71588H15.7091C17.2969 3.71588 18.5841 5.00306 18.5841 6.59088V19.0001C18.5841 20.1346 17.2376 20.7303 16.3982 19.9671L12.05 16.0142L7.70175 19.9671C6.86228 20.7303 5.51587 20.1346 5.51587 19.0001V6.59088ZM8.39087 5.28406C7.66913 5.28406 7.08405 5.86915 7.08405 6.59088V18.4093L11.1709 14.694C11.6693 14.2409 12.4306 14.2409 12.929 14.694L17.0159 18.4093V6.59088C17.0159 5.86915 16.4308 5.28406 15.7091 5.28406H8.39087Z" fill="#29333D"/>
</svg>
