<svg width="24" height="25" viewBox="0 0 24 25" fill="none" xmlns="http://www.w3.org/2000/svg">
<path fill-rule="evenodd" clip-rule="evenodd" d="M7 4.89996H17C18.933 4.89996 20.5 6.46697 20.5 8.39996V17.4C20.5 19.333 18.933 20.9 17 20.9H7C5.067 20.9 3.5 19.333 3.5 17.4V8.39996C3.5 6.46697 5.067 4.89996 7 4.89996ZM7 6.39996C5.89543 6.39996 5 7.29539 5 8.39996V17.4C5 18.5045 5.89543 19.4 7 19.4H17C18.1046 19.4 19 18.5045 19 17.4V8.39996C19 7.29539 18.1046 6.39996 17 6.39996H7Z" fill="#29333D"/>
<path fill-rule="evenodd" clip-rule="evenodd" d="M4.25 10.4C4.25 9.98575 4.58579 9.64996 5 9.64996H19C19.4142 9.64996 19.75 9.98575 19.75 10.4C19.75 10.8142 19.4142 11.15 19 11.15H5C4.58579 11.15 4.25 10.8142 4.25 10.4Z" fill="#29333D"/>
<path fill-rule="evenodd" clip-rule="evenodd" d="M8 3.64996C8.41421 3.64996 8.75 3.98575 8.75 4.39996V7.39996C8.75 7.81418 8.41421 8.14996 8 8.14996C7.58579 8.14996 7.25 7.81418 7.25 7.39996V4.39996C7.25 3.98575 7.58579 3.64996 8 3.64996Z" fill="#29333D"/>
<path fill-rule="evenodd" clip-rule="evenodd" d="M16 3.64996C16.4142 3.64996 16.75 3.98575 16.75 4.39996V7.39996C16.75 7.81418 16.4142 8.14996 16 8.14996C15.5858 8.14996 15.25 7.81418 15.25 7.39996V4.39996C15.25 3.98575 15.5858 3.64996 16 3.64996Z" fill="#29333D"/>
</svg>
