<svg width="24" height="25" viewBox="0 0 24 25" fill="none" xmlns="http://www.w3.org/2000/svg">
<path fill-rule="evenodd" clip-rule="evenodd" d="M7 4.29999H17C18.933 4.29999 20.5 5.86699 20.5 7.79999V17.8C20.5 19.733 18.933 21.3 17 21.3H7C5.067 21.3 3.5 19.733 3.5 17.8V7.79999C3.5 5.86699 5.067 4.29999 7 4.29999ZM7 5.79999C5.89543 5.79999 5 6.69542 5 7.79999V17.8C5 18.9046 5.89543 19.8 7 19.8H17C18.1046 19.8 19 18.9046 19 17.8V7.79999C19 6.69542 18.1046 5.79999 17 5.79999H7Z" fill="#29333D"/>
<path fill-rule="evenodd" clip-rule="evenodd" d="M12.2998 8.04999C12.714 8.04999 13.0498 8.38577 13.0498 8.79999V16.8C13.0498 17.2142 12.714 17.55 12.2998 17.55C11.8856 17.55 11.5498 17.2142 11.5498 16.8V8.79999C11.5498 8.38577 11.8856 8.04999 12.2998 8.04999ZM8.2998 10.05C8.71402 10.05 9.0498 10.3858 9.0498 10.8V16.8C9.0498 17.2142 8.71402 17.55 8.2998 17.55C7.88559 17.55 7.5498 17.2142 7.5498 16.8V10.8C7.5498 10.3858 7.88559 10.05 8.2998 10.05ZM15.7998 12.05C16.214 12.05 16.5498 12.3858 16.5498 12.8V16.8C16.5498 17.2142 16.214 17.55 15.7998 17.55C15.3856 17.55 15.0498 17.2142 15.0498 16.8V12.8C15.0498 12.3858 15.3856 12.05 15.7998 12.05Z" fill="#29333D"/>
</svg>
