<svg width="24" height="24" viewBox="0 0 24 24" fill="none" xmlns="http://www.w3.org/2000/svg">
<path fill-rule="evenodd" clip-rule="evenodd" d="M18.3441 13.8067C18.2654 13.4307 18.3182 13.0406 18.48 12.6922C18.7969 12.0095 19.1694 11.0984 19.1926 10.5152C19.3141 7.45489 16.7409 4.8679 13.4452 4.737C10.1495 4.6061 7.37924 6.98087 7.2577 10.0412C7.13615 13.1015 9.70933 15.6885 13.0051 15.8194C13.7268 15.8481 14.4233 15.7566 15.0724 15.564C15.2311 15.5169 15.4015 15.5206 15.5547 15.5836L18.1205 16.6392C18.5005 16.7956 18.9005 16.463 18.8163 16.0609L18.3441 13.8067ZM5.75888 9.98165C5.60037 13.9724 8.92856 17.1587 12.9455 17.3182C13.7371 17.3496 14.5076 17.2636 15.2368 17.0748L17.5498 18.0264C19.0433 18.6408 20.6155 17.3339 20.2844 15.7533L19.8122 13.4992C19.8043 13.4614 19.8053 13.3998 19.8405 13.3238C20.0095 12.9599 20.2037 12.5131 20.3616 12.0636C20.5088 11.6449 20.6706 11.0981 20.6914 10.5747C20.8499 6.58398 17.5217 3.39773 13.5048 3.23818C9.48779 3.07864 5.91738 5.9909 5.75888 9.98165Z" fill="#29333D"/>
<path fill-rule="evenodd" clip-rule="evenodd" d="M5.57022 12.9026C5.87674 13.1812 5.89939 13.6555 5.62079 13.9621C5.13818 14.4931 4.86888 15.1719 4.89761 15.8953C4.90047 15.9672 4.93211 16.1197 5.01228 16.3496C5.08726 16.5645 5.18603 16.7954 5.28263 17.0045C5.45571 17.3791 5.51841 17.8107 5.42886 18.2382L5.28832 18.9091L6.21691 18.5271C6.49537 18.4125 6.78899 18.4122 7.0451 18.4875C7.38624 18.5878 7.75399 18.636 8.13733 18.6208C9.07271 18.5837 9.88678 18.1774 10.4314 17.5759C10.7094 17.2689 11.1836 17.2453 11.4907 17.5233C11.7978 17.8013 11.8213 18.2756 11.5433 18.5827C10.7275 19.4838 9.53369 20.0665 8.19686 20.1196C7.67882 20.1402 7.1757 20.0798 6.7022 19.9494L5.16301 20.5827C4.34538 20.919 3.48462 20.2036 3.66588 19.3382L3.96072 17.9307C3.97931 17.842 3.96912 17.7379 3.92095 17.6337C3.81377 17.4017 3.69316 17.1222 3.59599 16.8436C3.50402 16.58 3.41076 16.2561 3.39879 15.9548C3.35323 14.8077 3.7846 13.7522 4.51076 12.9532C4.78936 12.6467 5.26369 12.624 5.57022 12.9026Z" fill="#29333D"/>
</svg>
