<svg width="24" height="24" viewBox="0 0 24 24" fill="none" xmlns="http://www.w3.org/2000/svg">
<path fill-rule="evenodd" clip-rule="evenodd" d="M20.5 12C20.5 16.6944 16.6944 20.5 12 20.5C7.30558 20.5 3.5 16.6944 3.5 12C3.5 7.30558 7.30558 3.5 12 3.5C16.6944 3.5 20.5 7.30558 20.5 12ZM12 19C15.866 19 19 15.866 19 12C19 8.13401 15.866 5 12 5C8.13401 5 5 8.13401 5 12C5 15.866 8.13401 19 12 19Z" fill="#29333D"/>
<path fill-rule="evenodd" clip-rule="evenodd" d="M16.0303 9.46967C16.3232 9.76256 16.3232 10.2374 16.0303 10.5303L11.8839 14.6768C11.3957 15.1649 10.6043 15.1649 10.1161 14.6768L8.46967 13.0303C8.17678 12.7374 8.17678 12.2626 8.46967 11.9697C8.76256 11.6768 9.23744 11.6768 9.53033 11.9697L11 13.4393L14.9697 9.46967C15.2626 9.17678 15.7374 9.17678 16.0303 9.46967Z" fill="#29333D"/>
</svg>
