<svg width="24" height="24" viewBox="0 0 24 24" fill="none" xmlns="http://www.w3.org/2000/svg">
<path fill-rule="evenodd" clip-rule="evenodd" d="M5.44971 8.1363C5.44971 6.56731 6.72163 5.29539 8.29062 5.29539H9.07471V6.79539H8.29062C7.55005 6.79539 6.94971 7.39574 6.94971 8.1363V17.5454C6.94971 18.286 7.55005 18.8863 8.29062 18.8863H15.6088C16.3494 18.8863 16.9497 18.286 16.9497 17.5454V8.1363C16.9497 7.39574 16.3494 6.79539 15.6088 6.79539H14.5633V5.29539H15.6088C17.1778 5.29539 18.4497 6.56731 18.4497 8.1363V17.5454C18.4497 19.1144 17.1778 20.3863 15.6088 20.3863H8.29062C6.72163 20.3863 5.44971 19.1144 5.44971 17.5454V8.1363Z" fill="#29333D"/>
<path fill-rule="evenodd" clip-rule="evenodd" d="M10.3815 3.49994H13.5179C14.635 3.49994 15.5406 4.40555 15.5406 5.52267V6.04539C15.5406 7.16251 14.635 8.06812 13.5179 8.06812H10.3815C9.2644 8.06812 8.3588 7.16251 8.3588 6.04539V5.52267C8.3588 4.40555 9.2644 3.49994 10.3815 3.49994ZM10.3815 4.99994C10.0928 4.99994 9.8588 5.23397 9.8588 5.52267V6.04539C9.8588 6.33409 10.0928 6.56812 10.3815 6.56812H13.5179C13.8066 6.56812 14.0406 6.33409 14.0406 6.04539V5.52267C14.0406 5.23397 13.8066 4.99994 13.5179 4.99994H10.3815Z" fill="#29333D"/>
</svg>
