<svg width="24" height="25" viewBox="0 0 24 25" fill="none" xmlns="http://www.w3.org/2000/svg">
<path fill-rule="evenodd" clip-rule="evenodd" d="M20.5 12.4C20.5 17.0944 16.6944 20.9 12 20.9C7.30558 20.9 3.5 17.0944 3.5 12.4C3.5 7.70554 7.30558 3.89996 12 3.89996C16.6944 3.89996 20.5 7.70554 20.5 12.4ZM12 19.4C15.866 19.4 19 16.266 19 12.4C19 8.53397 15.866 5.39996 12 5.39996C8.13401 5.39996 5 8.53397 5 12.4C5 16.266 8.13401 19.4 12 19.4Z" fill="#29333D"/>
<path fill-rule="evenodd" clip-rule="evenodd" d="M12 6.64996C12.4142 6.64996 12.75 6.98575 12.75 7.39996V11.9141C12.75 11.9328 12.7604 11.9499 12.7769 11.9585L15.6649 13.459C16.0324 13.65 16.1756 14.1028 15.9846 14.4704C15.7936 14.8379 15.3408 14.9811 14.9733 14.7901L12.0853 13.2895C11.5721 13.0228 11.25 12.4925 11.25 11.9141V7.39996C11.25 6.98575 11.5858 6.64996 12 6.64996Z" fill="#29333D"/>
</svg>
