<svg width="24" height="24" viewBox="0 0 24 24" fill="none" xmlns="http://www.w3.org/2000/svg">
<path fill-rule="evenodd" clip-rule="evenodd" d="M3.25 11.2C3.25 9.57076 4.57076 8.25 6.2 8.25H7.85V9.75H6.2C5.39919 9.75 4.75 10.3992 4.75 11.2V17.8C4.75 18.6008 5.39919 19.25 6.2 19.25H12.8C13.6008 19.25 14.25 18.6008 14.25 17.8V16.15H15.75V17.8C15.75 19.4292 14.4292 20.75 12.8 20.75H6.2C4.57076 20.75 3.25 19.4292 3.25 17.8V11.2Z" fill="#29333D"/>
<path fill-rule="evenodd" clip-rule="evenodd" d="M10 3.5H17C18.933 3.5 20.5 5.067 20.5 7V14C20.5 15.933 18.933 17.5 17 17.5H10C8.067 17.5 6.5 15.933 6.5 14V7C6.5 5.067 8.067 3.5 10 3.5ZM10 5C8.89543 5 8 5.89543 8 7V14C8 15.1046 8.89543 16 10 16H17C18.1046 16 19 15.1046 19 14V7C19 5.89543 18.1046 5 17 5H10Z" fill="#29333D"/>
</svg>
