<svg width="24" height="24" viewBox="0 0 24 24" fill="none" xmlns="http://www.w3.org/2000/svg">
<path fill-rule="evenodd" clip-rule="evenodd" d="M4.44995 8.3C4.44995 6.89167 5.59163 5.75 6.99995 5.75H8.9999V7.25H6.99995C6.42005 7.25 5.94995 7.7201 5.94995 8.3V18.3C5.94995 18.8799 6.42005 19.35 6.99995 19.35H13.1999C13.7798 19.35 14.2499 18.8799 14.2499 18.3V18H15.7499V18.3C15.7499 19.7083 14.6082 20.85 13.1999 20.85H6.99995C5.59162 20.85 4.44995 19.7083 4.44995 18.3V8.3Z" fill="#29333D"/>
<path fill-rule="evenodd" clip-rule="evenodd" d="M16.2693 4.00514L19.0265 6.41773C19.645 6.95891 19.9998 7.74074 19.9998 8.56257V15.6C19.9998 17.4225 18.5223 18.9 16.6998 18.9H11.2998C9.47722 18.9 7.99976 17.4225 7.99976 15.6V6.59999C7.99976 4.77745 9.47722 3.29999 11.2998 3.29999H14.3925C15.0828 3.29999 15.7497 3.55056 16.2693 4.00514ZM16.6998 17.4H11.2998C10.3056 17.4 9.49976 16.5941 9.49976 15.6V6.59999C9.49976 5.60588 10.3056 4.79999 11.2998 4.79999H14.3925C14.7195 4.79999 15.0354 4.91868 15.2815 5.13401L18.0387 7.5466C18.3317 7.80295 18.4998 8.17329 18.4998 8.56257V15.6C18.4998 16.5941 17.6939 17.4 16.6998 17.4Z" fill="#29333D"/>
<path fill-rule="evenodd" clip-rule="evenodd" d="M10.5498 11.1C10.5498 10.6858 10.8855 10.35 11.2998 10.35H14.8998C15.314 10.35 15.6498 10.6858 15.6498 11.1C15.6498 11.5142 15.314 11.85 14.8998 11.85H11.2998C10.8855 11.85 10.5498 11.5142 10.5498 11.1ZM10.5498 14.25C10.5498 13.8358 10.8855 13.5 11.2998 13.5H13.5498C13.964 13.5 14.2998 13.8358 14.2998 14.25C14.2998 14.6642 13.964 15 13.5498 15H11.2998C10.8855 15 10.5498 14.6642 10.5498 14.25Z" fill="#29333D"/>
<path fill-rule="evenodd" clip-rule="evenodd" d="M14.8998 4.04999C15.314 4.04999 15.6498 4.38577 15.6498 4.79999V6.59999C15.6498 7.17989 16.1199 7.64999 16.6998 7.64999H18.4998C18.914 7.64999 19.2498 7.98577 19.2498 8.39999C19.2498 8.8142 18.914 9.14999 18.4998 9.14999H16.6998C15.2914 9.14999 14.1498 8.00831 14.1498 6.59999V4.79999C14.1498 4.38577 14.4855 4.04999 14.8998 4.04999Z" fill="#29333D"/>
</svg>
