<svg width="24" height="24" viewBox="0 0 24 24" fill="none" xmlns="http://www.w3.org/2000/svg">
<path fill-rule="evenodd" clip-rule="evenodd" d="M8 19.75C5.37665 19.75 3.25 17.6234 3.25 15L3.25 13C3.25 12.5858 3.58579 12.25 4 12.25C4.41421 12.25 4.75 12.5858 4.75 13L4.75 15C4.75 16.7949 6.20507 18.25 8 18.25L16 18.25C17.7949 18.25 19.25 16.7949 19.25 15V13C19.25 12.5858 19.5858 12.25 20 12.25C20.4142 12.25 20.75 12.5858 20.75 13V15C20.75 17.6234 18.6234 19.75 16 19.75L8 19.75Z" fill="#29333D"/>
<path fill-rule="evenodd" clip-rule="evenodd" d="M16.5303 10.4697C16.8232 10.7626 16.8232 11.2374 16.5303 11.5303L12.5303 15.5303C12.2374 15.8232 11.7626 15.8232 11.4697 15.5303L7.46967 11.5303C7.17678 11.2374 7.17678 10.7626 7.46967 10.4697C7.76256 10.1768 8.23744 10.1768 8.53033 10.4697L11.25 13.1893L11.25 5C11.25 4.58579 11.5858 4.25 12 4.25C12.4142 4.25 12.75 4.58579 12.75 5V13.1893L15.4697 10.4697C15.7626 10.1768 16.2374 10.1768 16.5303 10.4697Z" fill="#29333D"/>
</svg>
