<svg width="24" height="24" viewBox="0 0 24 24" fill="none" xmlns="http://www.w3.org/2000/svg">
<path fill-rule="evenodd" clip-rule="evenodd" d="M4.25 8.00003C4.25 5.92897 5.92893 4.25003 8 4.25003H12C12.4142 4.25003 12.75 4.58582 12.75 5.00003C12.75 5.41425 12.4142 5.75003 12 5.75003H8C6.75736 5.75003 5.75 6.75739 5.75 8.00003V16C5.75 17.2427 6.75736 18.25 8 18.25H16C17.2426 18.25 18.25 17.2427 18.25 16V12C18.25 11.5858 18.5858 11.25 19 11.25C19.4142 11.25 19.75 11.5858 19.75 12V16C19.75 18.0711 18.0711 19.75 16 19.75H8C5.92893 19.75 4.25 18.0711 4.25 16V8.00003Z" fill="#29333D"/>
<path fill-rule="evenodd" clip-rule="evenodd" d="M10.5274 14.1421C10.0372 13.7246 9.86815 13.0408 10.1073 12.443L11.0302 10.1357C11.1565 9.81995 11.3456 9.5331 11.5861 9.2926L15.9393 4.93941L17 6.00007L12.6468 10.3533C12.5499 10.4501 12.4738 10.5656 12.4229 10.6928L11.5 13.0001L13.8932 11.5641C13.9641 11.5216 14.0296 11.4705 14.088 11.412L18.5 7.00007C18.7529 6.7472 19.4344 5.94205 18.8275 5.33516C18.2422 4.74984 17.3212 5.67683 17.0296 5.97031C17.0189 5.98113 17.009 5.99108 17 6.00007L15.9393 4.93941C15.9462 4.93251 15.9551 4.92351 15.9658 4.91262C16.0976 4.7787 16.5101 4.35965 17.007 4.06032C17.2774 3.89743 17.6954 3.69199 18.2041 3.65206C18.7829 3.60662 19.3999 3.78622 19.8881 4.2745C20.2755 4.66185 20.5048 5.14171 20.5595 5.65735C20.611 6.14172 20.4993 6.56269 20.3748 6.8676C20.1368 7.45016 19.7387 7.88272 19.5607 8.06073L15.1487 12.4727C15.0035 12.6179 14.841 12.7447 14.665 12.8504L12.2717 14.2863C11.7196 14.6176 11.0177 14.5595 10.5274 14.1421Z" fill="#29333D"/>
</svg>
