<svg width="24" height="25" viewBox="0 0 24 25" fill="none" xmlns="http://www.w3.org/2000/svg">
<path fill-rule="evenodd" clip-rule="evenodd" d="M4.25 8.10001C4.25 7.68579 4.58579 7.35001 5 7.35001H19C19.4142 7.35001 19.75 7.68579 19.75 8.10001C19.75 8.51422 19.4142 8.85001 19 8.85001H5C4.58579 8.85001 4.25 8.51422 4.25 8.10001ZM6.25 12.6C6.25 12.1858 6.58579 11.85 7 11.85H17C17.4142 11.85 17.75 12.1858 17.75 12.6C17.75 13.0142 17.4142 13.35 17 13.35H7C6.58579 13.35 6.25 13.0142 6.25 12.6ZM8.75 17.1C8.75 16.6858 9.08579 16.35 9.5 16.35H14.5C14.9142 16.35 15.25 16.6858 15.25 17.1C15.25 17.5142 14.9142 17.85 14.5 17.85H9.5C9.08579 17.85 8.75 17.5142 8.75 17.1Z" fill="#29333D"/>
</svg>
