<svg width="24" height="24" viewBox="0 0 24 24" fill="none" xmlns="http://www.w3.org/2000/svg">
<path fill-rule="evenodd" clip-rule="evenodd" d="M3.5 16.5V8C3.5 6.067 5.067 4.5 7 4.5H9.58579C10.2488 4.5 10.8847 4.76339 11.3536 5.23223L12.9749 6.85355C13.0686 6.94732 13.1958 7 13.3284 7H17C18.933 7 20.5 8.567 20.5 10.5V16.5C20.5 18.433 18.933 20 17 20H7C5.067 20 3.5 18.433 3.5 16.5ZM5 8V16.5C5 17.6046 5.89543 18.5 7 18.5H17C18.1046 18.5 19 17.6046 19 16.5V10.5C19 9.39543 18.1046 8.5 17 8.5H13.3284C12.798 8.5 12.2893 8.28929 11.9142 7.91421L10.2929 6.29289C10.1054 6.10536 9.851 6 9.58579 6H7C5.89543 6 5 6.89543 5 8Z" fill="#29333D"/>
</svg>
