<svg width="24" height="25" viewBox="0 0 24 25" fill="none" xmlns="http://www.w3.org/2000/svg">
<path d="M19.5 11.9691V18.1C19.5 19.2046 18.6046 20.1 17.5 20.1H15C14.7239 20.1 14.5 19.8761 14.5 19.6V14.1C14.5 13.5477 14.0523 13.1 13.5 13.1H10.5C9.94772 13.1 9.5 13.5477 9.5 14.1V19.6C9.5 19.8761 9.27614 20.1 9 20.1H6.5C5.39543 20.1 4.5 19.2046 4.5 18.1V11.9691C4.5 11.4147 4.73009 10.8853 5.13536 10.507L10.6354 5.37367C11.4038 4.65648 12.5962 4.65648 13.3646 5.37367L18.8646 10.507C19.2699 10.8853 19.5 11.4147 19.5 11.9691Z" stroke="#29333D" stroke-width="1.5" stroke-linecap="round" stroke-linejoin="round"/>
</svg>
