<svg width="24" height="25" viewBox="0 0 24 25" fill="none" xmlns="http://www.w3.org/2000/svg">
<path fill-rule="evenodd" clip-rule="evenodd" d="M6 3.70001H17C18.933 3.70001 20.5 5.26702 20.5 7.20001V18.2C20.5 20.133 18.933 21.7 17 21.7H6C4.067 21.7 2.5 20.133 2.5 18.2V7.20001C2.5 5.26702 4.067 3.70001 6 3.70001ZM6 5.20001C4.89543 5.20001 4 6.09544 4 7.20001V18.2C4 19.3046 4.89543 20.2 6 20.2H17C18.1046 20.2 19 19.3046 19 18.2V7.20001C19 6.09544 18.1046 5.20001 17 5.20001H6Z" fill="#29333D"/>
<path fill-rule="evenodd" clip-rule="evenodd" d="M16.3013 11.8977C15.8359 11.4905 15.1428 11.4848 14.6707 11.8842L10.1126 15.7411C9.47397 16.2814 8.54221 16.2942 7.88897 15.7717L6.73039 14.8448C6.63092 14.7652 6.48752 14.7732 6.39744 14.8632L4.03033 17.2303C3.73744 17.5232 3.26256 17.5232 2.96967 17.2303C2.67678 16.9374 2.67678 16.4626 2.96967 16.1697L5.33678 13.8026C5.96731 13.172 6.97112 13.1164 7.66743 13.6735L8.82601 14.6004C8.91933 14.675 9.05244 14.6732 9.14367 14.596L13.7018 10.7391C14.7403 9.86038 16.2652 9.87301 17.289 10.7688L19.9939 13.1356C20.3056 13.4083 20.3372 13.8822 20.0644 14.1939C19.7917 14.5056 19.3178 14.5372 19.0061 14.2644L16.3013 11.8977Z" fill="#29333D"/>
<path d="M10 9.70001C10 10.5284 9.32843 11.2 8.5 11.2C7.67157 11.2 7 10.5284 7 9.70001C7 8.87159 7.67157 8.20001 8.5 8.20001C9.32843 8.20001 10 8.87159 10 9.70001Z" fill="#29333D"/>
</svg>
