<svg width="24" height="24" viewBox="0 0 24 24" fill="none" xmlns="http://www.w3.org/2000/svg">
<path fill-rule="evenodd" clip-rule="evenodd" d="M3.25 12C3.25 9.37665 5.37665 7.25 8 7.25H10C10.4142 7.25 10.75 7.58579 10.75 8C10.75 8.41421 10.4142 8.75 10 8.75H8C6.20507 8.75 4.75 10.2051 4.75 12C4.75 13.7949 6.20507 15.25 8 15.25H10C10.4142 15.25 10.75 15.5858 10.75 16C10.75 16.4142 10.4142 16.75 10 16.75H8C5.37665 16.75 3.25 14.6234 3.25 12ZM13.25 8C13.25 7.58579 13.5858 7.25 14 7.25H16C18.6234 7.25 20.75 9.37665 20.75 12C20.75 14.6234 18.6234 16.75 16 16.75H14C13.5858 16.75 13.25 16.4142 13.25 16C13.25 15.5858 13.5858 15.25 14 15.25H16C17.7949 15.25 19.25 13.7949 19.25 12C19.25 10.2051 17.7949 8.75 16 8.75H14C13.5858 8.75 13.25 8.41421 13.25 8Z" fill="#29333D"/>
<path fill-rule="evenodd" clip-rule="evenodd" d="M8.05005 12.0533C8.05005 11.6391 8.38584 11.3033 8.80005 11.3033H15.2C15.6143 11.3033 15.95 11.6391 15.95 12.0533C15.95 12.4676 15.6143 12.8033 15.2 12.8033H8.80005C8.38584 12.8033 8.05005 12.4676 8.05005 12.0533Z" fill="#29333D"/>
</svg>
