<svg width="24" height="24" viewBox="0 0 24 24" fill="none" xmlns="http://www.w3.org/2000/svg">
<path fill-rule="evenodd" clip-rule="evenodd" d="M7 8.5H17C18.933 8.5 20.5 10.067 20.5 12V17C20.5 18.933 18.933 20.5 17 20.5H7C5.067 20.5 3.5 18.933 3.5 17V12C3.5 10.067 5.067 8.5 7 8.5ZM7 10C5.89543 10 5 10.8954 5 12V17C5 18.1046 5.89543 19 7 19H17C18.1046 19 19 18.1046 19 17V12C19 10.8954 18.1046 10 17 10H7Z" fill="#29333D"/>
<path fill-rule="evenodd" clip-rule="evenodd" d="M8.95318 3.78502C9.88452 3.32416 10.9109 3.25 11.7982 3.25H12.5152C13.2088 3.25 13.9575 3.31133 14.6854 3.55328C15.3552 3.77592 15.9565 4.08578 16.3298 4.73079C16.674 5.32561 16.75 6.08853 16.75 7V9.5H15.25V7C15.25 6.10433 15.1587 5.70193 15.0315 5.48213C14.9333 5.31252 14.759 5.15844 14.2123 4.97671C13.6988 4.80604 13.1297 4.75 12.5152 4.75H11.7982C10.9658 4.75 10.2284 4.82759 9.61843 5.12943C9.30704 5.28351 9.12199 5.44428 8.99639 5.6678C8.8616 5.90765 8.75 6.30111 8.75 7V9.5H7.25V7C7.25 6.1606 7.38083 5.48083 7.68872 4.93295C8.00578 4.36873 8.46364 4.02726 8.95318 3.78502Z" fill="#29333D"/>
<path fill-rule="evenodd" clip-rule="evenodd" d="M12.25 13C12.6642 13 13 13.3358 13 13.75V15.25C13 15.6642 12.6642 16 12.25 16C11.8358 16 11.5 15.6642 11.5 15.25V13.75C11.5 13.3358 11.8358 13 12.25 13Z" fill="#29333D"/>
</svg>
