<svg width="24" height="24" viewBox="0 0 24 24" fill="none" xmlns="http://www.w3.org/2000/svg">
<path fill-rule="evenodd" clip-rule="evenodd" d="M19.75 8C19.75 5.37665 17.6234 3.25 15 3.25H11C10.5858 3.25 10.25 3.58579 10.25 4C10.25 4.41421 10.5858 4.75 11 4.75H15C16.7949 4.75 18.25 6.20507 18.25 8V16C18.25 17.7949 16.7949 19.25 15 19.25H11C10.5858 19.25 10.25 19.5858 10.25 20C10.25 20.4142 10.5858 20.75 11 20.75H15C17.6234 20.75 19.75 18.6234 19.75 16V8Z" fill="#29333D"/>
<path fill-rule="evenodd" clip-rule="evenodd" d="M10.4697 7.46967C10.7626 7.17678 11.2374 7.17678 11.5303 7.46967L15.5303 11.4697C15.8232 11.7626 15.8232 12.2374 15.5303 12.5303L11.5303 16.5303C11.2374 16.8232 10.7626 16.8232 10.4697 16.5303C10.1768 16.2374 10.1768 15.7626 10.4697 15.4697L13.1893 12.75H5C4.58579 12.75 4.25 12.4142 4.25 12C4.25 11.5858 4.58579 11.25 5 11.25H13.1893L10.4697 8.53033C10.1768 8.23744 10.1768 7.76256 10.4697 7.46967Z" fill="#29333D"/>
</svg>
