<svg width="24" height="24" viewBox="0 0 24 24" fill="none" xmlns="http://www.w3.org/2000/svg">
<path fill-rule="evenodd" clip-rule="evenodd" d="M7 5.5H17C18.933 5.5 20.5 7.067 20.5 9V15.5C20.5 17.433 18.933 19 17 19H7C5.067 19 3.5 17.433 3.5 15.5V9C3.5 7.067 5.067 5.5 7 5.5ZM7 7C5.89543 7 5 7.89543 5 9V15.5C5 16.6046 5.89543 17.5 7 17.5H17C18.1046 17.5 19 16.6046 19 15.5V9C19 7.89543 18.1046 7 17 7H7Z" fill="#29333D"/>
<path fill-rule="evenodd" clip-rule="evenodd" d="M4.35688 7.66413C4.56999 7.30894 5.03069 7.19377 5.38587 7.40688L11.3569 10.9895C11.7527 11.227 12.2473 11.227 12.6431 10.9895L18.6141 7.40688C18.9693 7.19377 19.43 7.30894 19.6431 7.66413C19.8562 8.01931 19.7411 8.48001 19.3859 8.69312L13.4149 12.2757C12.544 12.7983 11.456 12.7983 10.5851 12.2757L4.61413 8.69312C4.25894 8.48001 4.14377 8.01931 4.35688 7.66413Z" fill="#29333D"/>
</svg>
