<svg width="24" height="24" viewBox="0 0 24 24" fill="none" xmlns="http://www.w3.org/2000/svg">
<path fill-rule="evenodd" clip-rule="evenodd" d="M15 10.5C15 12.1569 13.6569 13.5 12 13.5C10.3431 13.5 9 12.1569 9 10.5C9 8.84315 10.3431 7.5 12 7.5C13.6569 7.5 15 8.84315 15 10.5ZM12 12C12.8284 12 13.5 11.3284 13.5 10.5C13.5 9.67157 12.8284 9 12 9C11.1716 9 10.5 9.67157 10.5 10.5C10.5 11.3284 11.1716 12 12 12Z" fill="#29333D"/>
<path fill-rule="evenodd" clip-rule="evenodd" d="M12 4.75C8.57845 4.75 5.75 7.46505 5.75 11.5C5.75 11.9142 5.41421 12.25 5 12.25C4.58579 12.25 4.25 11.9142 4.25 11.5C4.25 6.6984 7.68957 3.25 12 3.25C16.3104 3.25 19.75 6.6984 19.75 11.5C19.75 11.9142 19.4142 12.25 19 12.25C18.5858 12.25 18.25 11.9142 18.25 11.5C18.25 7.46505 15.4216 4.75 12 4.75Z" fill="#29333D"/>
<path fill-rule="evenodd" clip-rule="evenodd" d="M5 10.75C5.41421 10.75 5.75 11.0858 5.75 11.5C5.75 13.2251 6.72614 14.8141 8.02381 16.152C9.31048 17.4785 10.8209 18.4617 11.68 18.9658C11.8643 19.0741 12.0866 19.0701 12.2727 18.9494C13.1304 18.3934 14.6555 17.3184 15.9577 15.9557C17.2828 14.5691 18.25 13.0165 18.25 11.5C18.25 11.0858 18.5858 10.75 19 10.75C19.4142 10.75 19.75 11.0858 19.75 11.5C19.75 13.6156 18.4371 15.5323 17.0422 16.992C15.6245 18.4755 13.99 19.6238 13.0886 20.2081C12.4331 20.633 11.6014 20.659 10.9207 20.2595C10.0071 19.7233 8.36743 18.6607 6.94708 17.1963C5.53773 15.7433 4.25 13.7962 4.25 11.5C4.25 11.0858 4.58579 10.75 5 10.75Z" fill="#29333D"/>
</svg>
