<svg width="24" height="25" viewBox="0 0 24 25" fill="none" xmlns="http://www.w3.org/2000/svg">
<path d="M12.05 7.79999C11.0836 7.79999 10.3 7.01649 10.3 6.04999C10.3 5.08349 11.0836 4.29999 12.05 4.29999C13.0165 4.29999 13.8 5.08349 13.8 6.04999C13.8 7.01649 13.0165 7.79999 12.05 7.79999Z" fill="#29333D"/>
<path d="M12.05 14.3C11.0836 14.3 10.3 13.5165 10.3 12.55C10.3 11.5835 11.0836 10.8 12.05 10.8C13.0165 10.8 13.8 11.5835 13.8 12.55C13.8 13.5165 13.0165 14.3 12.05 14.3Z" fill="#29333D"/>
<path d="M12.05 20.8C11.0836 20.8 10.3 20.0165 10.3 19.05C10.3 18.0835 11.0836 17.3 12.05 17.3C13.0165 17.3 13.8 18.0835 13.8 19.05C13.8 20.0165 13.0165 20.8 12.05 20.8Z" fill="#29333D"/>
</svg>
