<svg width="24" height="24" viewBox="0 0 24 24" fill="none" xmlns="http://www.w3.org/2000/svg">
<path fill-rule="evenodd" clip-rule="evenodd" d="M6 5.25C5.30964 5.25 4.75 5.80965 4.75 6.5V18C4.75 18.6904 5.30964 19.25 6 19.25H18C18.6904 19.25 19.25 18.6904 19.25 18V13.7461C19.25 13.3319 19.5858 12.9961 20 12.9961C20.4142 12.9961 20.75 13.3319 20.75 13.7461V18C20.75 19.5188 19.5188 20.75 18 20.75H6C4.48122 20.75 3.25 19.5188 3.25 18V6.5C3.25 4.98122 4.48122 3.75 6 3.75H10.2377C10.6519 3.75 10.9877 4.08579 10.9877 4.5C10.9877 4.91422 10.6519 5.25 10.2377 5.25H6Z" fill="#29333D"/>
<path fill-rule="evenodd" clip-rule="evenodd" d="M19.8467 4.18958C20.1396 4.48248 20.1396 4.95735 19.8467 5.25024L10.9827 14.1143C10.6898 14.4071 10.215 14.4071 9.92206 14.1143C9.62917 13.8214 9.62917 13.3465 9.92206 13.0536L18.7861 4.18958C19.079 3.89669 19.5538 3.89669 19.8467 4.18958Z" fill="#29333D"/>
<path fill-rule="evenodd" clip-rule="evenodd" d="M20.1524 3.8916C20.2944 4.0309 20.3753 4.22093 20.3772 4.41985L20.425 9.41744C20.429 9.83164 20.0964 10.1706 19.6822 10.1746C19.2681 10.1786 18.9291 9.846 18.9251 9.4318L18.8844 5.18432L14.7326 5.22484C14.3184 5.22888 13.9794 4.89639 13.9754 4.4822C13.9713 4.068 14.3038 3.72895 14.718 3.72491L19.6199 3.67707C19.8188 3.67513 20.0104 3.7523 20.1524 3.8916Z" fill="#29333D"/>
</svg>
