<svg width="24" height="24" viewBox="0 0 24 24" fill="none" xmlns="http://www.w3.org/2000/svg">
<path fill-rule="evenodd" clip-rule="evenodd" d="M13.8215 3.81953L18.1738 6.33235C19.3009 6.98309 19.9953 8.18569 19.9953 9.48716V14.5128C19.9953 15.8143 19.3009 17.0169 18.1738 17.6676L13.8215 20.1804C12.6944 20.8312 11.3057 20.8312 10.1786 20.1804L5.82631 17.6676C4.69921 17.0169 4.00488 15.8143 4.00488 14.5128V9.48716C4.00488 8.18569 4.69921 6.98309 5.82631 6.33235L10.1786 3.81953C11.3057 3.1688 12.6944 3.1688 13.8215 3.81953ZM13.0715 5.11857C12.4085 4.73579 11.5916 4.73579 10.9286 5.11857L6.57631 7.63139C5.91331 8.01418 5.50488 8.72159 5.50488 9.48716V14.5128C5.50488 15.2784 5.91331 15.9858 6.57631 16.3686L10.9286 18.8814C11.5916 19.2642 12.4085 19.2642 13.0715 18.8814L17.4238 16.3686C18.0868 15.9858 18.4953 15.2784 18.4953 14.5128V9.48716C18.4953 8.72159 18.0868 8.01418 17.4238 7.63139L13.0715 5.11857Z" fill="#29333D"/>
<path fill-rule="evenodd" clip-rule="evenodd" d="M10.7063 11.6559L5.23609 8.92079L5.90691 7.57915L11.3772 10.3143C11.7693 10.5103 12.2309 10.5103 12.623 10.3143L18.0932 7.57915L18.7641 8.92079L13.2938 11.6559C12.4794 12.0631 11.5208 12.0631 10.7063 11.6559Z" fill="#29333D"/>
<path fill-rule="evenodd" clip-rule="evenodd" d="M12.7501 11.4643V20.0357H11.2501V11.4643H12.7501Z" fill="#29333D"/>
<path fill-rule="evenodd" clip-rule="evenodd" d="M8.11497 5.7717C8.30021 5.40122 8.75071 5.25105 9.1212 5.43629L15.5498 8.65058C15.9203 8.83582 16.0704 9.28633 15.8852 9.65681C15.6999 10.0273 15.2494 10.1775 14.8789 9.99222L8.45038 6.77794C8.07989 6.59269 7.92973 6.14219 8.11497 5.7717Z" fill="#29333D"/>
</svg>
