<svg width="24" height="25" viewBox="0 0 24 25" fill="none" xmlns="http://www.w3.org/2000/svg">
<path fill-rule="evenodd" clip-rule="evenodd" d="M10.3738 5.69103C10.5118 6.08156 10.3071 6.51006 9.9166 6.64809C7.19681 7.6094 5.25 10.2033 5.25 13.25C5.25 17.116 8.38401 20.25 12.25 20.25C15.6357 20.25 18.4615 17.8456 19.11 14.6508C19.1924 14.2448 19.5882 13.9826 19.9942 14.065C20.4001 14.1474 20.6624 14.5432 20.58 14.9492C19.7924 18.8293 16.3631 21.75 12.25 21.75C7.55558 21.75 3.75 17.9444 3.75 13.25C3.75 9.54785 6.11637 6.40034 9.41673 5.23383C9.80727 5.0958 10.2358 5.30049 10.3738 5.69103Z" fill="#29333D"/>
<path fill-rule="evenodd" clip-rule="evenodd" d="M19.9198 8.43438C20.2482 9.2272 20.4317 10.0718 20.4621 10.928C20.4975 11.9234 19.69 12.6833 18.7646 12.6833H13.4853C12.5453 12.6833 11.7833 11.9213 11.7833 10.9813L11.7833 5.70201C11.7833 4.77663 12.5432 3.96913 13.5386 4.00452C14.3948 4.03497 15.2394 4.21839 16.0322 4.54679C16.9038 4.90778 17.6957 5.4369 18.3627 6.10394C19.0297 6.77097 19.5588 7.56286 19.9198 8.43438ZM18.963 10.9813C18.967 11.0928 18.8762 11.1833 18.7646 11.1833H13.4853C13.3738 11.1833 13.2833 11.0929 13.2833 10.9813L13.2833 5.70201C13.2833 5.59043 13.3738 5.49961 13.4853 5.50358C14.1627 5.52767 14.831 5.67278 15.4582 5.9326C16.1478 6.21822 16.7743 6.63685 17.302 7.1646C17.8298 7.69234 18.2484 8.31887 18.534 9.0084C18.7938 9.63567 18.939 10.3039 18.963 10.9813Z" fill="#29333D"/>
</svg>
