<svg width="24" height="24" viewBox="0 0 24 24" fill="none" xmlns="http://www.w3.org/2000/svg">
<path fill-rule="evenodd" clip-rule="evenodd" d="M12 15.75C12.4142 15.75 12.75 16.0858 12.75 16.5V19.7727C12.75 20.1869 12.4142 20.5227 12 20.5227C11.5858 20.5227 11.25 20.1869 11.25 19.7727V16.5C11.25 16.0858 11.5858 15.75 12 15.75Z" fill="#29333D"/>
<path fill-rule="evenodd" clip-rule="evenodd" d="M8.85055 5.511C8.84925 5.51463 8.84124 5.53705 8.85892 5.59608C8.90246 5.74149 8.96138 5.88855 9.02839 6.02889C9.2518 6.49674 9.47728 7.08143 9.47728 7.73154V10.9679C9.47728 11.826 9.10734 12.6098 8.54657 13.1898C8.13221 13.6184 7.80663 14.0107 7.5531 14.3594C7.44309 14.5107 7.41771 14.6232 7.41535 14.691C7.41303 14.7574 7.43096 14.8218 7.47697 14.8877C7.57482 15.0278 7.83516 15.2045 8.27274 15.2045H12.5455C12.9597 15.2045 13.2955 15.5403 13.2955 15.9545C13.2955 16.3688 12.9597 16.7045 12.5455 16.7045H8.27274C7.45512 16.7045 6.68327 16.3708 6.24726 15.7466C5.77959 15.0771 5.80139 14.2179 6.33988 13.4773C6.63767 13.0677 7.00902 12.6221 7.46821 12.1472C7.79525 11.8089 7.97728 11.3871 7.97728 10.9679V7.73154C7.97728 7.41808 7.8666 7.07692 7.6748 6.67525C7.58077 6.47835 7.49152 6.25866 7.42197 6.02641C7.20548 5.3035 7.48159 4.67606 7.95248 4.2821C8.38765 3.91803 8.97643 3.75 9.52843 3.75H12.5455C12.9597 3.75 13.2955 4.08579 13.2955 4.5C13.2955 4.91421 12.9597 5.25 12.5455 5.25H9.52843C9.2501 5.25 9.02578 5.33988 8.91499 5.43257C8.86531 5.47413 8.85318 5.5032 8.85055 5.511C8.85052 5.51108 8.85059 5.51087 8.85055 5.511Z" fill="#29333D"/>
<path fill-rule="evenodd" clip-rule="evenodd" d="M15.1495 5.511C15.1508 5.51463 15.1588 5.53705 15.1411 5.59608C15.0976 5.74149 15.0386 5.88855 14.9716 6.02889C14.7482 6.49674 14.5227 7.08143 14.5227 7.73154V10.9679C14.5227 11.826 14.8927 12.6098 15.4534 13.1898C15.8678 13.6184 16.1934 14.0107 16.4469 14.3594C16.5569 14.5107 16.5823 14.6232 16.5847 14.691C16.587 14.7574 16.5691 14.8218 16.523 14.8877C16.4252 15.0278 16.1649 15.2045 15.7273 15.2045H11.4546C11.0403 15.2045 10.7046 15.5403 10.7046 15.9545C10.7046 16.3688 11.0403 16.7045 11.4546 16.7045H15.7273C16.5449 16.7045 17.3167 16.3708 17.7528 15.7466C18.2204 15.0771 18.1986 14.2179 17.6601 13.4773C17.3623 13.0677 16.991 12.6221 16.5318 12.1472C16.2048 11.8089 16.0227 11.3871 16.0227 10.9679V7.73154C16.0227 7.41808 16.1334 7.07692 16.3252 6.67525C16.4192 6.47835 16.5085 6.25866 16.578 6.02641C16.7945 5.3035 16.5184 4.67606 16.0475 4.2821C15.6124 3.91803 15.0236 3.75 14.4716 3.75H11.4546C11.0403 3.75 10.7046 4.08579 10.7046 4.5C10.7046 4.91421 11.0403 5.25 11.4546 5.25H14.4716C14.7499 5.25 14.9742 5.33988 15.085 5.43257C15.1347 5.47413 15.1468 5.5032 15.1495 5.511C15.1495 5.51108 15.1494 5.51087 15.1495 5.511Z" fill="#29333D"/>
</svg>
