<svg width="24" height="26" viewBox="0 0 24 26" fill="none" xmlns="http://www.w3.org/2000/svg">
<path fill-rule="evenodd" clip-rule="evenodd" d="M12 5.40001C8.13401 5.40001 5 8.53402 5 12.4C5 16.266 8.13401 19.4 12 19.4C15.866 19.4 19 16.266 19 12.4C19 8.53402 15.866 5.40001 12 5.40001ZM3.5 12.4C3.5 7.70559 7.30558 3.90001 12 3.90001C16.6944 3.90001 20.5 7.70559 20.5 12.4C20.5 17.0944 16.6944 20.9 12 20.9C7.30558 20.9 3.5 17.0944 3.5 12.4Z" fill="#29333D"/>
<path fill-rule="evenodd" clip-rule="evenodd" d="M11.928 8.9547V8.9547L15.3903 10.7682C16.7872 11.5 16.8273 13.4855 15.4607 14.2729V14.2729L11.9985 16.2678C10.6652 17.036 9 16.0737 9 14.5349V10.7264C9 9.2231 10.5963 8.25717 11.928 8.9547ZM11.232 10.2835C10.8991 10.1091 10.5 10.3505 10.5 10.7264V14.5349C10.5 14.9195 10.9162 15.1602 11.2497 14.9681L14.7119 12.9732C15.0534 12.7764 15.0436 12.28 14.6943 12.097V12.097L11.232 10.2835Z" fill="#29333D"/>
</svg>
