<svg width="24" height="24" viewBox="0 0 24 24" fill="none" xmlns="http://www.w3.org/2000/svg">
<path fill-rule="evenodd" clip-rule="evenodd" d="M7.25508 7.75512C4.66237 10.3478 4.66237 14.5515 7.25508 17.1442C9.8478 19.7369 14.0514 19.7369 16.6441 17.1442C19.2368 14.5515 19.2368 10.3478 16.6441 7.75512C16.3512 7.46223 16.3512 6.98736 16.6441 6.69446C16.937 6.40157 17.4119 6.40157 17.7048 6.69446C20.8833 9.87296 20.8833 15.0263 17.7048 18.2048C14.5263 21.3833 9.37292 21.3833 6.19442 18.2048C3.01592 15.0263 3.01592 9.87296 6.19442 6.69446C6.48732 6.40157 6.96219 6.40157 7.25508 6.69446C7.54798 6.98736 7.54798 7.46223 7.25508 7.75512Z" fill="#29333D"/>
<path fill-rule="evenodd" clip-rule="evenodd" d="M11.9496 3.46613C12.3638 3.46613 12.6996 3.80191 12.6996 4.21613V11.6052C12.6996 12.0194 12.3638 12.3552 11.9496 12.3552C11.5354 12.3552 11.1996 12.0194 11.1996 11.6052V4.21613C11.1996 3.80191 11.5354 3.46613 11.9496 3.46613Z" fill="#29333D"/>
</svg>
