<svg width="24" height="24" viewBox="0 0 24 24" fill="none" xmlns="http://www.w3.org/2000/svg">
<path fill-rule="evenodd" clip-rule="evenodd" d="M7 6.5H17C18.933 6.5 20.5 8.067 20.5 10V14.5C20.5 16.1569 19.1569 17.5 17.5 17.5H17L16 19.5H8L7 17.5H6.5C4.84315 17.5 3.5 16.1569 3.5 14.5V10C3.5 8.067 5.067 6.5 7 6.5ZM7 8C5.89543 8 5 8.89543 5 10V14.5C5 15.3284 5.67157 16 6.5 16H7L8 19H16L17 16H17.5C18.3284 16 19 15.3284 19 14.5V10C19 8.89543 18.1046 8 17 8H7Z" fill="#29333D"/>
<path fill-rule="evenodd" clip-rule="evenodd" d="M8.75 4.75V6.25H15.25V5.54625L13.9433 4.75H8.75ZM7.25 4.4C7.25 3.76487 7.76487 3.25 8.4 3.25H14.0416C14.2527 3.25 14.4597 3.30811 14.64 3.41797L16.1984 4.36763C16.541 4.57638 16.75 4.94853 16.75 5.34967V6.6C16.75 7.23513 16.2351 7.75 15.6 7.75H8.4C7.76487 7.75 7.25 7.23513 7.25 6.6V4.4Z" fill="#29333D"/>
<path fill-rule="evenodd" clip-rule="evenodd" d="M8.5 14.5V18.5H15.5V14.5H8.5ZM8 13C7.44772 13 7 13.4477 7 14V19C7 19.5523 7.44772 20 8 20H16C16.5523 20 17 19.5523 17 19V14C17 13.4477 16.5523 13 16 13H8Z" fill="#29333D"/>
<path d="M16 9.75C16 9.33579 16.3358 9 16.75 9H17.25C17.6642 9 18 9.33579 18 9.75C18 10.1642 17.6642 10.5 17.25 10.5H16.75C16.3358 10.5 16 10.1642 16 9.75Z" fill="#29333D"/>
</svg>
