<svg width="24" height="25" viewBox="0 0 24 25" fill="none" xmlns="http://www.w3.org/2000/svg">
<path d="M9.75 7.10001C9.05964 7.10001 8.5 6.54036 8.5 5.85001C8.5 5.15965 9.05964 4.60001 9.75 4.60001C10.4404 4.60001 11 5.15965 11 5.85001C11 6.54036 10.4404 7.10001 9.75 7.10001Z" fill="#292D32"/>
<path d="M9.75 11.6C9.05964 11.6 8.5 11.0404 8.5 10.35C8.5 9.65965 9.05964 9.10001 9.75 9.10001C10.4404 9.10001 11 9.65965 11 10.35C11 11.0404 10.4404 11.6 9.75 11.6Z" fill="#292D32"/>
<path d="M9.75 16.1C9.05964 16.1 8.5 15.5404 8.5 14.85C8.5 14.1597 9.05964 13.6 9.75 13.6C10.4404 13.6 11 14.1597 11 14.85C11 15.5404 10.4404 16.1 9.75 16.1Z" fill="#292D32"/>
<path d="M9.75 20.6C9.05964 20.6 8.5 20.0404 8.5 19.35C8.5 18.6597 9.05964 18.1 9.75 18.1C10.4404 18.1 11 18.6597 11 19.35C11 20.0404 10.4404 20.6 9.75 20.6Z" fill="#292D32"/>
<path d="M14.45 7.10001C13.7596 7.10001 13.2 6.54036 13.2 5.85001C13.2 5.15965 13.7596 4.60001 14.45 4.60001C15.1403 4.60001 15.7 5.15965 15.7 5.85001C15.7 6.54036 15.1403 7.10001 14.45 7.10001Z" fill="#292D32"/>
<path d="M14.45 11.6C13.7596 11.6 13.2 11.0404 13.2 10.35C13.2 9.65965 13.7596 9.10001 14.45 9.10001C15.1403 9.10001 15.7 9.65965 15.7 10.35C15.7 11.0404 15.1403 11.6 14.45 11.6Z" fill="#292D32"/>
<path d="M14.45 16.1C13.7596 16.1 13.2 15.5404 13.2 14.85C13.2 14.1597 13.7596 13.6 14.45 13.6C15.1403 13.6 15.7 14.1597 15.7 14.85C15.7 15.5404 15.1403 16.1 14.45 16.1Z" fill="#292D32"/>
<path d="M14.45 20.6C13.7596 20.6 13.2 20.0404 13.2 19.35C13.2 18.6597 13.7596 18.1 14.45 18.1C15.1403 18.1 15.7 18.6597 15.7 19.35C15.7 20.0404 15.1403 20.6 14.45 20.6Z" fill="#292D32"/>
</svg>
