<svg width="24" height="24" viewBox="0 0 24 24" fill="none" xmlns="http://www.w3.org/2000/svg">
<path fill-rule="evenodd" clip-rule="evenodd" d="M12 6.55C8.54822 6.55 5.75 9.34822 5.75 12.8C5.75 16.2518 8.54822 19.05 12 19.05C15.4518 19.05 18.25 16.2518 18.25 12.8C18.25 11.8401 18.0341 10.9326 17.6489 10.1218C17.4712 9.74768 17.6304 9.30029 18.0045 9.12256C18.3787 8.94482 18.8261 9.10404 19.0038 9.47818C19.4825 10.4859 19.75 11.6127 19.75 12.8C19.75 17.0802 16.2802 20.55 12 20.55C7.71979 20.55 4.25 17.0802 4.25 12.8C4.25 8.5198 7.71979 5.05 12 5.05C13.0687 5.05 14.0886 5.26673 15.0169 5.65935L14.4326 7.04085C13.6859 6.72502 12.8643 6.55 12 6.55Z" fill="#29333D"/>
<path fill-rule="evenodd" clip-rule="evenodd" d="M13.5802 3.32792C13.9514 3.14407 14.4013 3.29593 14.5852 3.66711L15.7518 6.02244C15.9847 6.4926 15.7923 7.06252 15.3222 7.2954L12.9668 8.46203C12.5956 8.64588 12.1457 8.49402 11.9619 8.12284C11.778 7.75167 11.9299 7.30173 12.301 7.11788L14.1635 6.19537L13.241 4.33289C13.0572 3.96171 13.209 3.51177 13.5802 3.32792Z" fill="#29333D"/>
</svg>
