<svg width="24" height="24" viewBox="0 0 24 24" fill="none" xmlns="http://www.w3.org/2000/svg">
<path fill-rule="evenodd" clip-rule="evenodd" d="M9.38963 4.96499C9.38963 4.03001 10.1476 3.27206 11.0826 3.27206H13.0926C14.0607 3.27206 14.8455 4.05686 14.8455 5.02495V5.22336C14.8455 5.22336 14.8456 5.22561 14.8464 5.22804C14.8473 5.23075 14.8494 5.23581 14.8541 5.24256C14.8643 5.25703 14.8829 5.27398 14.9091 5.28537C14.9356 5.29685 14.9598 5.29823 14.976 5.29562C14.9905 5.29329 14.9953 5.28879 14.9972 5.2869L15.1135 5.17061C15.7763 4.50785 16.8508 4.50785 17.5136 5.17061L18.9353 6.59233C19.618 7.27503 19.618 8.38189 18.9353 9.06459L18.8455 9.1544H18.975C19.9431 9.1544 20.7279 9.9392 20.7279 10.9073V12.9173C20.7279 13.8523 19.9699 14.6103 19.0349 14.6103H18.9385C18.9198 14.6103 18.895 14.6159 18.8651 14.6376C18.8337 14.6605 18.8026 14.6978 18.783 14.7461C18.7422 14.8468 18.7751 14.9174 18.8009 14.9432L18.9128 15.0551C19.608 15.7502 19.608 16.8773 18.9128 17.5724L17.5723 18.913C16.8771 19.6081 15.7501 19.6081 15.055 18.913L14.8739 18.7319C14.8702 18.7324 14.8655 18.7335 14.8604 18.7357C14.8574 18.7369 14.8547 18.7384 14.8523 18.7399C14.8504 18.7411 14.8472 18.7435 14.8472 18.7435L14.8455 18.7449V18.9751C14.8455 19.9432 14.0607 20.7279 13.0927 20.7279H11.0825C10.1476 20.7279 9.38963 19.97 9.38963 19.0351V18.8902C9.38963 18.8855 9.38865 18.8743 9.37574 18.8566C9.36169 18.8373 9.33725 18.8165 9.3043 18.8034C9.27315 18.7911 9.24455 18.7898 9.2243 18.7934C9.20573 18.7967 9.19666 18.8033 9.19133 18.8086L9.06439 18.9355C8.3817 19.6182 7.27485 19.6182 6.59216 18.9355L5.17041 17.5138C4.50766 16.851 4.50766 15.7765 5.17041 15.1137L5.2071 15.077C5.25251 15.0316 5.29171 14.9279 5.23685 14.7953C5.17947 14.6567 5.07302 14.6103 5.01368 14.6103H4.96484C4.02989 14.6103 3.27197 13.8524 3.27197 12.9174V10.9072C3.27197 9.93917 4.05673 9.1544 5.02479 9.1544H5.25497L5.2564 9.15272C5.25923 9.14919 5.262 9.14473 5.26422 9.13952C5.2664 9.13439 5.26751 9.12974 5.26797 9.126L5.14698 9.00502C4.4972 8.35524 4.4972 7.30173 5.14698 6.65195L6.65179 5.14714C7.30158 4.49735 8.3551 4.49735 9.00489 5.14714L9.05673 5.19898C9.0825 5.22475 9.15308 5.25771 9.25382 5.21689C9.30207 5.19734 9.33937 5.16624 9.36229 5.13475C9.38399 5.10492 9.38963 5.08007 9.38963 5.06138V4.96499ZM11.0826 4.72795C10.9516 4.72795 10.8455 4.83407 10.8455 4.96499V5.06138C10.8455 5.76875 10.3778 6.33233 9.80055 6.56622C9.22639 6.79886 8.51642 6.7176 8.02727 6.22845L7.97542 6.17661C7.89419 6.09537 7.76249 6.09537 7.68126 6.17661L6.17645 7.68142C6.09522 7.76264 6.09522 7.89433 6.17645 7.97555L6.30784 8.10695C6.74856 8.54767 6.82455 9.19052 6.60403 9.70917C6.38863 10.2158 5.88697 10.6103 5.27059 10.6103H5.02479C4.8608 10.6103 4.72785 10.7432 4.72785 10.9072V12.9174C4.72785 13.0483 4.83396 13.1544 4.96484 13.1544H5.01368C5.75019 13.1544 6.33526 13.642 6.58214 14.2387C6.83095 14.8401 6.75283 15.5902 6.23657 16.1065L6.19988 16.1432C6.10568 16.2374 6.10568 16.3901 6.19988 16.4843L7.62163 17.9061C7.73576 18.0202 7.9208 18.0202 8.03493 17.9061L8.16187 17.7791C8.62398 17.317 9.29414 17.2333 9.84092 17.4501C10.3981 17.671 10.8455 18.2126 10.8455 18.8902V19.0351C10.8455 19.166 10.9516 19.2721 11.0825 19.2721H13.0927C13.2567 19.2721 13.3896 19.1391 13.3896 18.9751V18.7293C13.3896 18.1129 13.7841 17.6113 14.2907 17.3959C14.8094 17.1754 15.4522 17.2513 15.8929 17.692L16.0844 17.8835C16.211 18.0101 16.4162 18.0101 16.5428 17.8835L17.8834 16.543C18.01 16.4164 18.01 16.2111 17.8834 16.0846L17.7714 15.9726C17.2823 15.4835 17.201 14.7735 17.4337 14.1994C17.6676 13.6221 18.2311 13.1544 18.9385 13.1544H19.0349C19.1658 13.1544 19.272 13.0483 19.272 12.9173V10.9073C19.272 10.7433 19.139 10.6103 18.975 10.6103H18.6805C18.0942 10.6103 17.615 10.2355 17.4125 9.74922C17.208 9.25807 17.2858 8.65515 17.6993 8.24168L17.9059 8.03512C18.02 7.92099 18.02 7.73593 17.9059 7.6218L16.4841 6.20008C16.3899 6.10587 16.2372 6.10587 16.143 6.20008L16.0267 6.31637C15.5587 6.78437 14.8757 6.85783 14.3297 6.62099C13.8034 6.39267 13.3896 5.86912 13.3896 5.22336V5.02495C13.3896 4.86092 13.2567 4.72795 13.0926 4.72795H11.0826Z" fill="#29333D"/>
<path fill-rule="evenodd" clip-rule="evenodd" d="M14.3969 12C14.3969 13.3239 13.3237 14.3971 11.9998 14.3971C10.6759 14.3971 9.60274 13.3239 9.60274 12C9.60274 10.6762 10.6759 9.60295 11.9998 9.60295C13.3237 9.60295 14.3969 10.6762 14.3969 12ZM11.9998 12.9412C12.5196 12.9412 12.941 12.5198 12.941 12C12.941 11.4802 12.5196 11.0588 11.9998 11.0588C11.48 11.0588 11.0586 11.4802 11.0586 12C11.0586 12.5198 11.48 12.9412 11.9998 12.9412Z" fill="#29333D"/>
</svg>
