<svg width="24" height="24" viewBox="0 0 24 24" fill="none" xmlns="http://www.w3.org/2000/svg">
<path fill-rule="evenodd" clip-rule="evenodd" d="M15.3957 7.82627L14.2205 4.96103C13.4061 2.97532 10.5939 2.9753 9.77952 4.96103L8.60437 7.82627L5.51622 8.05849C3.37603 8.21943 2.50701 10.8939 4.14388 12.2821L6.50575 14.2852L5.77231 17.2939C5.26402 19.3791 7.53909 21.0321 9.36515 19.9043L12 18.277L14.6349 19.9043C16.4609 21.0321 18.736 19.3791 18.2277 17.2939L17.4943 14.2852L19.8561 12.2821C21.493 10.894 20.624 8.21944 18.4838 8.05849L15.3957 7.82627ZM12.8327 5.53022C12.5273 4.78558 11.4727 4.78558 11.1673 5.53022L9.85156 8.73831C9.72228 9.05352 9.4261 9.26871 9.08637 9.29426L5.6287 9.55427C4.82613 9.61462 4.50025 10.6176 5.11407 11.1381L7.75855 13.3809C8.01839 13.6012 8.13152 13.9494 8.05083 14.2804L7.22964 17.6492C7.03903 18.4311 7.89218 19.051 8.57695 18.6281L11.5271 16.806C11.817 16.627 12.1831 16.627 12.4729 16.806L15.4231 18.6281C16.1078 19.051 16.961 18.4311 16.7704 17.6492L15.9492 14.2804C15.8685 13.9494 15.9816 13.6012 16.2415 13.3809L18.886 11.1381C19.4998 10.6176 19.1739 9.61462 18.3713 9.55427L14.9137 9.29426C14.5739 9.26871 14.2777 9.05352 14.1485 8.73831L12.8327 5.53022Z" fill="#29333D"/>
</svg>
