<svg width="24" height="24" viewBox="0 0 24 24" fill="none" xmlns="http://www.w3.org/2000/svg">
<path fill-rule="evenodd" clip-rule="evenodd" d="M5.19785 11.1781L3.70007 11.0965L3.90201 7.39325L5.39978 7.47492L5.19785 11.1781ZM5.19785 11.1781C5.16384 11.8018 5.39676 12.4105 5.83843 12.8522L11.4319 18.4457C12.2903 19.3041 13.6822 19.3041 14.5406 18.4457L18.4458 14.5405C19.3042 13.682 19.3042 12.2902 18.4458 11.4318L12.8523 5.83831C12.4107 5.39664 11.802 5.16372 11.1783 5.19773L7.47504 5.39966C6.35517 5.46072 5.46085 6.35505 5.39978 7.47492L3.90201 7.39325C4.00474 5.50922 5.50933 4.00462 7.39337 3.90188L11.0966 3.69995C12.1459 3.64274 13.1699 4.0346 13.913 4.77765L19.5064 10.3711C20.9507 11.8153 20.9507 14.1569 19.5064 15.6012L15.6013 19.5063C14.157 20.9506 11.8155 20.9506 10.3712 19.5063L4.77777 13.9129C4.03472 13.1698 3.64286 12.1457 3.70007 11.0965L5.19785 11.1781Z" fill="#29333D"/>
<path d="M9.14415 8.04503C9.14415 8.65205 8.65207 9.14414 8.04505 9.14414C7.43803 9.14414 6.94594 8.65205 6.94594 8.04503C6.94594 7.43801 7.43803 6.94593 8.04505 6.94593C8.65207 6.94593 9.14415 7.43801 9.14415 8.04503Z" fill="#29333D"/>
</svg>
