<svg width="24" height="25" viewBox="0 0 24 25" fill="none" xmlns="http://www.w3.org/2000/svg">
<path fill-rule="evenodd" clip-rule="evenodd" d="M19.4881 7.48055C19.8026 7.75011 19.839 8.22359 19.5695 8.53808L14.5496 14.3946C13.7351 15.3448 12.2154 15.1578 11.6557 14.0383L10.5027 11.7325C10.4228 11.5726 10.2057 11.5458 10.0893 11.6816L5.06946 17.5381C4.79989 17.8526 4.32641 17.889 4.01192 17.6194C3.69743 17.3499 3.661 16.8764 3.93057 16.5619L8.95043 10.7054C9.76494 9.75514 11.2847 9.94223 11.8444 11.0617L12.9973 13.3675C13.0773 13.5274 13.2944 13.5541 13.4107 13.4184L18.4306 7.5619C18.7001 7.2474 19.1736 7.21098 19.4881 7.48055Z" fill="#29333D"/>
<path fill-rule="evenodd" clip-rule="evenodd" d="M19.7678 6.56776C20.182 6.56776 20.5178 6.90354 20.5178 7.31776V10.8533C20.5178 11.2675 20.182 11.6033 19.7678 11.6033C19.3536 11.6033 19.0178 11.2675 19.0178 10.8533V8.06776H16.2322C15.818 8.06776 15.4822 7.73197 15.4822 7.31776C15.4822 6.90354 15.818 6.56776 16.2322 6.56776H19.7678Z" fill="#29333D"/>
</svg>
