<svg width="24" height="24" viewBox="0 0 24 24" fill="none" xmlns="http://www.w3.org/2000/svg">
<path fill-rule="evenodd" clip-rule="evenodd" d="M7 8.5H17C18.933 8.5 20.5 10.067 20.5 12V17C20.5 18.933 18.933 20.5 17 20.5H7C5.067 20.5 3.5 18.933 3.5 17V12C3.5 10.067 5.067 8.5 7 8.5ZM7 10C5.89543 10 5 10.8954 5 12V17C5 18.1046 5.89543 19 7 19H17C18.1046 19 19 18.1046 19 17V12C19 10.8954 18.1046 10 17 10H7Z" fill="#29333D"/>
<path fill-rule="evenodd" clip-rule="evenodd" d="M12.2059 3.25C13.1 3.25 14.053 3.32092 14.9768 3.61028C15.5105 3.77745 16.0475 4.02028 16.3838 4.58331C16.6893 5.09481 16.75 5.74992 16.75 6.5C16.75 6.91421 16.4142 7.25 16 7.25C15.5858 7.25 15.25 6.91421 15.25 6.5C15.25 5.75939 15.1718 5.47935 15.096 5.35245C15.051 5.27707 14.9644 5.17824 14.5284 5.04171C13.8119 4.81726 13.0307 4.75 12.2059 4.75C11.0331 4.75 10.0666 4.79238 9.35879 5.27947C9.17017 5.40927 9.03408 5.5621 8.93509 5.79236C8.82918 6.03873 8.75 6.41155 8.75 7V9.5H7.25V7C7.25 6.29092 7.34331 5.69708 7.55704 5.19992C7.77771 4.68664 8.10844 4.31905 8.50846 4.04378C9.66198 3.25 11.119 3.25 12.2059 3.25Z" fill="#29333D"/>
<path fill-rule="evenodd" clip-rule="evenodd" d="M12.25 13C12.6642 13 13 13.3358 13 13.75V15.25C13 15.6642 12.6642 16 12.25 16C11.8358 16 11.5 15.6642 11.5 15.25V13.75C11.5 13.3358 11.8358 13 12.25 13Z" fill="#29333D"/>
</svg>
