<svg width="24" height="24" viewBox="0 0 24 24" fill="none" xmlns="http://www.w3.org/2000/svg">
<path fill-rule="evenodd" clip-rule="evenodd" d="M8 19.75C5.37665 19.75 3.25 17.6234 3.25 15L3.25 13C3.25 12.5858 3.58579 12.25 4 12.25C4.41421 12.25 4.75 12.5858 4.75 13L4.75 15C4.75 16.7949 6.20507 18.25 8 18.25L16 18.25C17.7949 18.25 19.25 16.7949 19.25 15V13C19.25 12.5858 19.5858 12.25 20 12.25C20.4142 12.25 20.75 12.5858 20.75 13V15C20.75 17.6234 18.6234 19.75 16 19.75L8 19.75Z" fill="#29333D"/>
<path fill-rule="evenodd" clip-rule="evenodd" d="M7.46967 9.53033C7.17678 9.23744 7.17678 8.76256 7.46967 8.46967L11.4697 4.46967C11.7626 4.17678 12.2374 4.17678 12.5303 4.46967L16.5303 8.46967C16.8232 8.76256 16.8232 9.23744 16.5303 9.53033C16.2374 9.82322 15.7626 9.82322 15.4697 9.53033L12.75 6.81066V15C12.75 15.4142 12.4142 15.75 12 15.75C11.5858 15.75 11.25 15.4142 11.25 15V6.81066L8.53033 9.53033C8.23744 9.82322 7.76256 9.82322 7.46967 9.53033Z" fill="#29333D"/>
</svg>
