<svg width="24" height="24" viewBox="0 0 24 24" fill="none" xmlns="http://www.w3.org/2000/svg">
<path fill-rule="evenodd" clip-rule="evenodd" d="M12 10C13.3807 10 14.5 8.88071 14.5 7.5C14.5 6.11929 13.3807 5 12 5C10.6193 5 9.5 6.11929 9.5 7.5C9.5 8.88071 10.6193 10 12 10ZM12 11.5C14.2091 11.5 16 9.70914 16 7.5C16 5.29086 14.2091 3.5 12 3.5C9.79086 3.5 8 5.29086 8 7.5C8 9.70914 9.79086 11.5 12 11.5Z" fill="#29333D"/>
<path fill-rule="evenodd" clip-rule="evenodd" d="M5.66304 14.7999C6.64392 13.5256 8.11553 12.75 10 12.75H14C15.8845 12.75 17.3561 13.5256 18.337 14.7999C19.3 16.0509 19.75 17.7266 19.75 19.5C19.75 19.9142 19.4142 20.25 19 20.25C18.5858 20.25 18.25 19.9142 18.25 19.5C18.25 17.9597 17.8569 16.6354 17.1483 15.7148C16.4576 14.8175 15.4292 14.25 14 14.25H10C8.57077 14.25 7.54237 14.8175 6.85168 15.7148C6.14311 16.6354 5.75 17.9597 5.75 19.5C5.75 19.9142 5.41421 20.25 5 20.25C4.58579 20.25 4.25 19.9142 4.25 19.5C4.25 17.7266 4.70004 16.0509 5.66304 14.7999Z" fill="#29333D"/>
<path fill-rule="evenodd" clip-rule="evenodd" d="M4.25 19.5C4.25 19.0858 4.58579 18.75 5 18.75H18.9663C19.3806 18.75 19.7163 19.0858 19.7163 19.5C19.7163 19.9142 19.3806 20.25 18.9663 20.25H5C4.58579 20.25 4.25 19.9142 4.25 19.5Z" fill="#29333D"/>
</svg>
