<svg width="24" height="24" viewBox="0 0 24 24" fill="none" xmlns="http://www.w3.org/2000/svg">
<path fill-rule="evenodd" clip-rule="evenodd" d="M12 13.5501C11.5857 13.5501 11.25 13.2143 11.25 12.8001V8.58958C11.25 8.17537 11.5857 7.83958 12 7.83958C12.4142 7.83958 12.75 8.17537 12.75 8.58958V12.8001C12.75 13.2143 12.4142 13.5501 12 13.5501Z" fill="#29333D"/>
<path d="M10.9474 15.958C10.9474 15.3766 11.4187 14.9054 12.0001 14.9054C12.5814 14.9054 13.0527 15.3766 13.0527 15.958C13.0527 16.5393 12.5814 17.0106 12.0001 17.0106C11.4187 17.0106 10.9474 16.5393 10.9474 15.958Z" fill="#29333D"/>
<path fill-rule="evenodd" clip-rule="evenodd" d="M15.2002 5.51551L20.2291 14.6842C21.5632 17.1166 19.8031 20.0895 17.0288 20.0895H6.9711C4.19678 20.0895 2.4367 17.1166 3.77087 14.6842L8.79973 5.51551C10.1854 2.98921 13.8146 2.98922 15.2002 5.51551ZM13.885 6.23686C13.0688 4.74877 10.9311 4.74877 10.1149 6.23686L5.08603 15.4055C4.30016 16.8384 5.33691 18.5895 6.9711 18.5895H17.0288C18.663 18.5895 19.6998 16.8384 18.9139 15.4055L13.885 6.23686Z" fill="#29333D"/>
</svg>
