<svg width="24" height="24" viewBox="0 0 24 24" fill="none" xmlns="http://www.w3.org/2000/svg">
<path fill-rule="evenodd" clip-rule="evenodd" d="M20.5 12.0001C20.5 16.6945 16.6944 20.5001 12 20.5001C7.30558 20.5001 3.5 16.6945 3.5 12.0001C3.5 7.30564 7.30558 3.50006 12 3.50006C16.6944 3.50006 20.5 7.30564 20.5 12.0001ZM12 19.0001C15.866 19.0001 19 15.8661 19 12.0001C19 8.13407 15.866 5.00006 12 5.00006C8.13401 5.00006 5 8.13407 5 12.0001C5 15.8661 8.13401 19.0001 12 19.0001Z" fill="#29333D"/>
<path fill-rule="evenodd" clip-rule="evenodd" d="M8.99482 15.0053C8.70192 14.7124 8.70192 14.2375 8.99482 13.9446L13.9446 8.9949C14.2375 8.70201 14.7123 8.702 15.0052 8.9949C15.2981 9.28779 15.2981 9.76267 15.0052 10.0556L10.0555 15.0053C9.76258 15.2982 9.28771 15.2982 8.99482 15.0053Z" fill="#29333D"/>
<path fill-rule="evenodd" clip-rule="evenodd" d="M15.0052 15.0053C14.7123 15.2982 14.2374 15.2982 13.9445 15.0053L8.99478 10.0556C8.70188 9.76267 8.70188 9.28779 8.99477 8.9949C9.28767 8.70201 9.76254 8.70201 10.0554 8.9949L15.0052 13.9446C15.2981 14.2375 15.2981 14.7124 15.0052 15.0053Z" fill="#29333D"/>
</svg>
